<svg width="80" height="80" viewBox="0 0 80 80" fill="none" xmlns="http://www.w3.org/2000/svg">
<rect width="80" height="80" rx="40" fill="#F9F9F9" style="fill:#F9F9F9;fill:color(display-p3 0.9750 0.9750 0.9750);fill-opacity:1;"/>
<circle cx="40" cy="40" r="30" fill="#CED8F2" style="fill:#CED8F2;fill:color(display-p3 0.8078 0.8471 0.9490);fill-opacity:1;"/>
<mask id="mask0_20941_80651" style="mask-type:alpha" maskUnits="userSpaceOnUse" x="10" y="10" width="60" height="60">
<path d="M40 70C56.5685 70 70 56.5685 70 40C70 23.4315 56.5685 10 40 10C23.4315 10 10 23.4315 10 40C10 56.5685 23.4315 70 40 70Z" fill="white" style="fill:white;fill-opacity:1;"/>
</mask>
<g mask="url(#mask0_20941_80651)">
<path d="M69.5799 69.9746C66.6759 61.7579 61.1199 50.3265 58.9719 49.127L54.0879 61.6619C53.4999 60.5824 56.1159 65.5604 58.2879 69.9746H69.5799Z" fill="#FFA98F" style="fill:#FFA98F;fill:color(display-p3 1.0000 0.6627 0.5608);fill-opacity:1;"/>
<path d="M25.1324 69.9748H52.8644C53.1644 68.5594 53.5004 67.2879 53.7884 66.2443C53.7884 66.2323 53.7884 66.2323 53.7884 66.2203L53.8004 66.1963C54.0044 65.4886 54.1964 64.8768 54.3524 64.385L58.9964 49.0911C55.9004 45.8284 44.5964 43.0336 44.5964 43.0336L42.3764 42.8056C39.0284 42.4578 36.3764 42.4578 32.4044 43.5853C28.5044 44.6889 23.5004 46.2603 21.3524 48.2035C15.9884 53.0855 23.9924 63.2455 23.9924 63.2455C24.1484 64.0612 24.7964 66.1363 25.1324 69.9748Z" fill="#0568E0" style="fill:#0568E0;fill:color(display-p3 0.0196 0.4078 0.8784);fill-opacity:1;"/>
<path d="M21.4613 69.9758C22.5533 66.6052 23.6933 63.4025 23.8733 63.4504L20.9453 48.2285C18.7253 49.476 13.1693 61.5432 10.5293 69.9758H21.4613Z" fill="#FFA98F" style="fill:#FFA98F;fill:color(display-p3 1.0000 0.6627 0.5608);fill-opacity:1;"/>
<path d="M21.928 69.9769C22.096 69.3292 22.264 68.7414 22.384 68.3576C22.396 68.3576 22.396 68.3576 22.408 68.3696C22.3 68.9094 22.288 69.4492 22.324 69.9889H55.672C55.96 68.7294 56.308 67.6139 56.44 67.0621C56.464 67.0621 56.464 67.0621 56.452 67.0621H56.464C56.632 67.5299 57.064 68.7774 57.544 70.0009H68.56C68.668 69.965 68.764 69.929 68.86 69.893C69.748 69.5931 70.204 68.6815 69.868 67.8658C66.808 60.3208 61.144 50.2088 60.172 49.0453C57.484 45.8786 48.772 44.0193 48.34 43.8994C47.08 43.5755 45.82 43.2756 44.536 43.0117C43.624 44.9909 41.608 48.0017 40.444 50.6407C38.392 47.8698 35.464 44.775 34.66 43.0117C33.388 43.2756 32.116 43.5635 30.856 43.8994C30.424 44.0073 21.712 45.8666 19.024 49.0453C17.62 50.6887 14.056 57.0581 11.356 64.723C11.176 65.2868 10.804 67.0021 10 69.9769H21.928Z" fill="#3886E8" style="fill:#3886E8;fill:color(display-p3 0.2196 0.5255 0.9098);fill-opacity:1;"/>
<path d="M22.3965 68.3574C22.4205 68.3694 22.4445 68.3694 22.3965 68.3574V68.3574Z" fill="#3886E8" style="fill:#3886E8;fill:color(display-p3 0.2196 0.5255 0.9098);fill-opacity:1;"/>
<path d="M35.3078 69.9741C35.9678 60.8097 38.3678 50.6978 38.4038 50.5538L38.1998 50.5059C38.1638 50.6498 35.7518 60.7858 35.0918 69.9741H35.3078Z" fill="white" style="fill:white;fill-opacity:1;"/>
<path d="M39.3515 69.9757C38.7155 63.4503 39.2915 50.5195 39.3035 50.3636L39.0875 50.3516C39.0635 50.9873 38.4995 63.5103 39.1355 69.9637H39.3515V69.9757Z" fill="white" style="fill:white;fill-opacity:1;"/>
<path d="M39.0283 51.1426C43.6079 51.1426 47.3203 48.7903 47.3203 45.8887C47.3203 42.987 43.6079 40.6348 39.0283 40.6348C34.4488 40.6348 30.7363 42.987 30.7363 45.8887C30.7363 48.7903 34.4488 51.1426 39.0283 51.1426Z" fill="#3886E8" style="fill:#3886E8;fill:color(display-p3 0.2196 0.5255 0.9098);fill-opacity:1;"/>
<path d="M47.0683 44.4258C47.4643 45.8652 47.2243 47.5086 46.2403 48.6241C46.1443 48.78 45.9763 48.888 45.8563 49.0199C45.7123 49.1399 45.6043 49.2838 45.4363 49.3798C45.1243 49.5717 44.8363 49.8116 44.4883 49.9556C44.1523 50.1115 43.8283 50.2914 43.4563 50.3754L42.9283 50.5433L42.6643 50.6273L42.3883 50.6753L41.2963 50.8912C40.9243 50.9392 40.5523 50.9632 40.1803 51.0111L39.6283 51.0711C39.4483 51.0831 39.2563 51.0711 39.0763 51.0711L38.5243 51.0591C38.3443 51.0471 38.1523 51.0351 37.9723 51.0111C37.2283 50.9272 36.4963 50.7832 35.7763 50.5553C35.0563 50.3394 34.3723 50.0395 33.7363 49.6197C34.9603 50.5193 36.4483 50.9632 37.9363 51.1671C38.1283 51.1911 38.3083 51.2151 38.5003 51.2271L39.0643 51.2391C39.2563 51.2391 39.4483 51.2511 39.6283 51.2391L40.1923 51.1911C40.5643 51.1551 40.9483 51.1311 41.3203 51.0831L42.4363 50.8672L42.7123 50.8072L42.9883 50.7233L43.5283 50.5553C43.9003 50.4594 44.2363 50.2794 44.5723 50.1115C44.9323 49.9676 45.2203 49.7157 45.5443 49.5117C45.7123 49.4158 45.8323 49.2599 45.9763 49.1399C46.1083 48.996 46.2643 48.888 46.3723 48.7201C46.8763 48.1323 47.1523 47.3886 47.2723 46.6449C47.3683 45.9132 47.3083 45.1335 47.0683 44.4258Z" fill="#226CBC" style="fill:#226CBC;fill:color(display-p3 0.1333 0.4235 0.7373);fill-opacity:1;"/>
<path d="M31.4795 43.7656C31.1675 44.0655 30.9275 44.4254 30.7355 44.8212C30.5435 45.217 30.4355 45.6489 30.4355 46.0927C30.4355 46.3206 30.4835 46.5365 30.5315 46.7524C30.6155 46.9564 30.6875 47.1723 30.8315 47.3402C30.9515 47.5321 31.1195 47.6761 31.2635 47.832C31.4315 47.9759 31.6115 48.0839 31.7915 48.2039C31.4795 47.904 31.1675 47.6161 30.9635 47.2562C30.7475 46.9084 30.6275 46.5005 30.6395 46.0927C30.6275 45.6849 30.7355 45.277 30.8795 44.8812C31.0235 44.4973 31.2275 44.1255 31.4795 43.7656Z" fill="#226CBC" style="fill:#226CBC;fill:color(display-p3 0.1333 0.4235 0.7373);fill-opacity:1;"/>
<path d="M43.7451 36.7735L37.1931 29.2285L34.2051 36.3897L34.7211 37.8651L34.1211 43.107C36.4491 47.2573 42.7731 46.7415 43.7691 44.2225L43.7451 36.7735Z" fill="#FFA98F" style="fill:#FFA98F;fill:color(display-p3 1.0000 0.6627 0.5608);fill-opacity:1;"/>
<path d="M46.5166 25.0524C48.2806 27.7753 48.9886 34.0368 46.4086 38.535C45.3046 40.4543 39.5446 40.3583 37.7446 38.7869C36.1726 37.4195 33.5686 29.2867 35.6086 26.9357C37.6246 24.5726 44.6446 21.094 46.5166 25.0524Z" fill="#FFA98F" style="fill:#FFA98F;fill:color(display-p3 1.0000 0.6627 0.5608);fill-opacity:1;"/>
<path d="M38.1529 27.7633C37.7689 27.5834 37.4209 27.3675 37.0729 27.1396C35.8009 26.2879 34.6009 25.2203 33.8449 23.9369C33.7729 23.8049 33.7009 23.673 33.6289 23.541C33.4729 23.613 33.3169 23.685 33.1729 23.7689C31.8409 24.5366 30.8929 25.8561 30.6649 27.2955C30.4729 28.483 30.3169 30.4503 31.5649 31.6858C32.1529 32.2735 32.7529 32.9213 33.0049 33.689L34.3249 36.7477C34.3249 36.7477 35.7769 35.4523 35.9329 35.2963C36.4969 34.7445 36.6409 34.1088 37.0489 33.473C38.1049 31.8657 38.6449 29.6826 38.9329 28.1232C38.6929 28.0032 38.4169 27.8833 38.1529 27.7633Z" fill="#061728" style="fill:#061728;fill:color(display-p3 0.0235 0.0902 0.1569);fill-opacity:1;"/>
<path d="M38.0816 32.586C37.6856 32.1061 37.1816 31.5784 36.5696 31.6024C36.2576 31.6143 35.9816 31.7943 35.7896 32.0222C34.8056 33.1857 35.0336 35.1409 36.4016 35.9806C36.9776 36.3285 37.7096 36.4364 38.0816 35.7767L38.2256 32.9338C38.2616 32.8259 38.1656 32.6939 38.0816 32.586Z" fill="#FFA98F" style="fill:#FFA98F;fill:color(display-p3 1.0000 0.6627 0.5608);fill-opacity:1;"/>
<path d="M43.853 39.963C43.805 39.963 39.593 40.383 37.457 38.247L37.601 38.127C39.677 40.191 43.793 39.795 43.829 39.783L43.853 39.963Z" fill="#061728" style="fill:#061728;fill:color(display-p3 0.0235 0.0902 0.1569);fill-opacity:1;"/>
<path d="M43.469 34.2665L43.457 34.0865L44.093 34.0386C44.345 34.0146 44.573 33.8946 44.717 33.6907C44.861 33.4988 44.897 33.2469 44.813 33.031L43.913 30.476L44.093 30.416L44.993 32.971C45.089 33.2469 45.041 33.5468 44.873 33.7867C44.693 34.0266 44.417 34.1825 44.105 34.2065L43.469 34.2665Z" fill="#061728" style="fill:#061728;fill:color(display-p3 0.0235 0.0902 0.1569);fill-opacity:1;"/>
<path d="M41.6931 30.4261C41.7771 30.6061 41.7771 30.8701 41.7891 31.0141C41.8251 31.2901 41.5131 31.4461 41.2371 31.3861C40.7211 31.2661 40.7571 30.1621 41.3811 30.1981C41.5371 30.2101 41.6331 30.3061 41.6931 30.4261Z" fill="#061728" style="fill:#061728;fill:color(display-p3 0.0235 0.0902 0.1569);fill-opacity:1;"/>
<path d="M46.3493 30.3304C46.4333 30.5104 46.4333 30.7744 46.4453 30.9184C46.4813 31.1944 46.1693 31.3504 45.8933 31.2904C45.3773 31.1704 45.4133 30.0664 46.0373 30.1024C46.2053 30.1144 46.2893 30.1984 46.3493 30.3304Z" fill="#061728" style="fill:#061728;fill:color(display-p3 0.0235 0.0902 0.1569);fill-opacity:1;"/>
<path d="M45.2209 35.4401L41.3809 34.9961C41.3809 34.9961 41.7649 37.1441 43.2529 37.2761C44.9809 37.4441 45.2209 35.4401 45.2209 35.4401Z" fill="white" style="fill:white;fill-opacity:1;"/>
<path d="M45.3785 24.9557L47.7305 27.7746C47.7305 27.7746 46.8065 24.3559 45.9425 23.9001C45.0785 23.4443 45.3785 24.9557 45.3785 24.9557Z" fill="#061728" style="fill:#061728;fill:color(display-p3 0.0235 0.0902 0.1569);fill-opacity:1;"/>
<path d="M37.5285 36.2225C36.5685 36.3545 35.7645 35.5625 35.7285 35.5145L35.8725 35.3945C35.8845 35.4065 36.8685 36.3785 37.8645 35.9345L37.9485 36.0905C37.8045 36.1625 37.6605 36.2105 37.5285 36.2225Z" fill="#061728" style="fill:#061728;fill:color(display-p3 0.0235 0.0902 0.1569);fill-opacity:1;"/>
<path d="M35.0335 21.7305C33.6895 22.0903 33.1015 22.2943 32.4895 22.7261C31.9735 23.0859 30.7735 24.2615 30.7735 25.2331C30.7615 26.9484 34.3855 28.4478 37.6255 28.4358C38.2375 28.4358 39.4375 28.1719 41.1535 27.6561C44.9335 26.5286 49.1215 24.3814 48.1375 19.8952C48.1375 19.8952 47.5975 20.8188 46.9255 20.9628C46.9255 20.9628 47.8135 18.048 44.3095 16.5605C44.5015 16.6445 43.0855 18.2879 42.9895 18.3598C41.6455 19.5474 40.3255 20.351 39.0655 20.7949C37.8535 21.2147 37.8535 20.9868 35.0335 21.7305Z" fill="#061728" style="fill:#061728;fill:color(display-p3 0.0235 0.0902 0.1569);fill-opacity:1;"/>
<path d="M39.8105 29.085C39.8945 28.881 40.0625 28.713 40.2545 28.581C40.4465 28.449 40.6745 28.365 40.9145 28.329C41.3945 28.245 41.9225 28.401 42.2105 28.749C41.9705 28.749 41.7665 28.737 41.5625 28.749C41.3705 28.749 41.1785 28.773 40.9985 28.797C40.6265 28.869 40.2665 28.977 39.8105 29.085Z" fill="#061728" style="fill:#061728;fill:color(display-p3 0.0235 0.0902 0.1569);fill-opacity:1;"/>
<path d="M45.0664 28.5691C45.0904 28.3771 45.2104 28.2211 45.3544 28.1011C45.5104 27.9811 45.7144 27.8971 45.9184 27.8851C46.1224 27.8731 46.3384 27.9091 46.5184 27.9931C46.6144 28.0291 46.6864 28.1011 46.7584 28.1491C46.8304 28.2211 46.8904 28.2811 46.9384 28.3651C46.8304 28.3771 46.7464 28.3651 46.6504 28.3651C46.5664 28.3651 46.4824 28.3531 46.3984 28.3531C46.2424 28.3411 46.0984 28.3531 45.9664 28.3651C45.7024 28.3771 45.4504 28.4491 45.0664 28.5691Z" fill="#061728" style="fill:#061728;fill:color(display-p3 0.0235 0.0902 0.1569);fill-opacity:1;"/>
</g>
<mask id="mask1_20941_80651" style="mask-type:alpha" maskUnits="userSpaceOnUse" x="10" y="10" width="60" height="60">
<path d="M40 70C56.5685 70 70 56.5685 70 40C70 23.4315 56.5685 10 40 10C23.4315 10 10 23.4315 10 40C10 56.5685 23.4315 70 40 70Z" fill="white" style="fill:white;fill-opacity:1;"/>
</mask>
<g mask="url(#mask1_20941_80651)">
</g>
</svg>
