<svg width="80" height="80" viewBox="0 0 80 80" fill="none" xmlns="http://www.w3.org/2000/svg">
<g filter="url(#filter0_di_20946_80888)">
<rect x="20" y="19" width="40" height="40" rx="20" fill="#0668E1" style="fill:#0668E1;fill:color(display-p3 0.0235 0.4078 0.8824);fill-opacity:1;"/>
<path d="M39 32H36L40 28L44 32H41V36.43C40.25 36.89 39.58 37.46 39 38.12V32ZM50 38L46 34V37C44.2631 36.9286 42.5656 37.5303 41.2614 38.6798C39.9573 39.8293 39.1472 41.4378 39 43.17C38.2502 43.4362 37.6365 43.9889 37.2935 44.7068C36.9504 45.4247 36.906 46.2494 37.17 47C37.4362 47.7498 37.9889 48.3635 38.7068 48.7065C39.4247 49.0496 40.2494 49.094 41 48.83C41.7492 48.5629 42.3622 48.0101 42.7051 47.2925C43.0479 46.5749 43.0929 45.7507 42.83 45C42.53 44.14 41.85 43.47 41 43.17C41.47 39.17 45.47 38.97 45.95 38.97V41.97L50 38ZM38.63 38.59C37.3032 37.5658 35.6761 37.0071 34 37V34L30 38L34 42V39C35.34 39.03 36.63 39.5 37.64 40.4C37.89 39.76 38.22 39.15 38.63 38.59Z" fill="white" style="fill:white;fill-opacity:1;"/>
</g>
<defs>
<filter id="filter0_di_20946_80888" x="0" y="0" width="80" height="80" filterUnits="userSpaceOnUse" color-interpolation-filters="sRGB">
<feFlood flood-opacity="0" result="BackgroundImageFix"/>
<feColorMatrix in="SourceAlpha" type="matrix" values="0 0 0 0 0 0 0 0 0 0 0 0 0 0 0 0 0 0 127 0" result="hardAlpha"/>
<feMorphology radius="5" operator="dilate" in="SourceAlpha" result="effect1_dropShadow_20946_80888"/>
<feOffset dy="1"/>
<feGaussianBlur stdDeviation="7.5"/>
<feComposite in2="hardAlpha" operator="out"/>
<feColorMatrix type="matrix" values="0 0 0 0 0.0235294 0 0 0 0 0.407843 0 0 0 0 0.882353 0 0 0 0.05 0"/>
<feBlend mode="normal" in2="BackgroundImageFix" result="effect1_dropShadow_20946_80888"/>
<feBlend mode="normal" in="SourceGraphic" in2="effect1_dropShadow_20946_80888" result="shape"/>
<feColorMatrix in="SourceAlpha" type="matrix" values="0 0 0 0 0 0 0 0 0 0 0 0 0 0 0 0 0 0 127 0" result="hardAlpha"/>
<feOffset dx="-1" dy="-4"/>
<feGaussianBlur stdDeviation="1.25"/>
<feComposite in2="hardAlpha" operator="arithmetic" k2="-1" k3="1"/>
<feColorMatrix type="matrix" values="0 0 0 0 0 0 0 0 0 0 0 0 0 0 0 0 0 0 0.25 0"/>
<feBlend mode="normal" in2="shape" result="effect2_innerShadow_20946_80888"/>
</filter>
</defs>
</svg>
