<svg width="40" height="40" viewBox="0 0 40 40" fill="none" xmlns="http://www.w3.org/2000/svg">
<path d="M18.334 8.33268H13.334L20.0007 1.66602L26.6673 8.33268H21.6673V15.716C20.4173 16.4827 19.3007 17.4327 18.334 18.5327V8.33268ZM36.6673 18.3327L30.0007 11.666V16.666C27.1057 16.547 24.2766 17.5499 22.1031 19.4657C19.9295 21.3816 18.5793 24.0624 18.334 26.9494C17.0843 27.3931 16.0615 28.3141 15.4898 29.5107C14.918 30.7072 14.844 32.0817 15.284 33.3327C15.7277 34.5824 16.6488 35.6052 17.8453 36.1769C19.0419 36.7486 20.4163 36.8226 21.6673 36.3827C22.9159 35.9375 23.9376 35.0162 24.5091 33.8202C25.0806 32.6241 25.1554 31.2505 24.7173 29.9994C24.2173 28.566 23.084 27.4494 21.6673 26.9494C22.4507 20.2827 29.1173 19.9494 29.9173 19.9494V24.9494L36.6673 18.3327ZM17.7173 19.316C15.506 17.6091 12.7941 16.6778 10.0007 16.666V11.666L3.33398 18.3327L10.0007 24.9994V19.9994C12.234 20.0494 14.384 20.8327 16.0673 22.3327C16.484 21.266 17.034 20.2494 17.7173 19.316Z" fill="#2C2C2C" style="fill:#2C2C2C;fill:color(display-p3 0.1725 0.1725 0.1725);fill-opacity:1;"/>
</svg>
