<svg width="140" height="140" viewBox="0 0 140 140" fill="none" xmlns="http://www.w3.org/2000/svg">
<mask id="mask0_20946_80998" style="mask-type:luminance" maskUnits="userSpaceOnUse" x="7" y="0" width="43" height="20">
<path d="M41.3641 1.5698L7.44812 19.5694C9.90183 18.2672 12.8064 17.7156 15.9148 18.1409L49.8308 0.141313C46.7224 -0.284034 43.8178 0.267623 41.3641 1.5698Z" fill="white" style="fill:white;fill-opacity:1;"/>
</mask>
<g mask="url(#mask0_20946_80998)">
<path d="M15.9148 18.1428L49.8308 0.141735C47.9127 -0.121022 46.0721 -0.0121519 44.3683 0.416099L10.4524 18.4157C12.1576 17.9889 13.9968 17.8786 15.9148 18.1428Z" fill="#107BFF" style="fill:#107BFF;fill:color(display-p3 0.0644 0.4831 1.0000);fill-opacity:1;"/>
<path d="M10.4617 18.4117L44.3777 0.412109C43.4997 0.632767 42.6575 0.937623 41.86 1.31942L7.944 19.319C8.74157 18.9372 9.58377 18.6324 10.4617 18.4117Z" fill="#107BFF" style="fill:#107BFF;fill:color(display-p3 0.0644 0.4831 1.0000);fill-opacity:1;"/>
<path d="M7.94609 19.3238L41.862 1.32422C41.6984 1.40261 41.5347 1.48537 41.3754 1.56956L7.45951 19.5691C7.62021 19.4849 7.78241 19.4022 7.94609 19.3238Z" fill="#107BFF" style="fill:#107BFF;fill:color(display-p3 0.0644 0.4831 1.0000);fill-opacity:1;"/>
</g>
<mask id="mask1_20946_80998" style="mask-type:luminance" maskUnits="userSpaceOnUse" x="64" y="83" width="36" height="19">
<path d="M99.6843 83.5918C99.4298 83.7268 99.1694 83.8574 98.9061 83.9837C87.6003 89.9836 76.2959 95.9835 64.9901 101.983C65.2535 101.857 65.5139 101.726 65.7683 101.591C75.9433 96.1911 89.5094 88.9921 99.6843 83.5918Z" fill="white" style="fill:white;fill-opacity:1;"/>
</mask>
<g mask="url(#mask1_20946_80998)">
<path d="M65.7683 101.591L99.6843 83.5918C99.4313 83.7254 99.1739 83.856 98.912 83.9808L64.9961 101.98C65.258 101.856 65.5154 101.726 65.7683 101.591Z" fill="#258FB2" style="fill:#258FB2;fill:color(display-p3 0.1451 0.5608 0.6980);fill-opacity:1;"/>
<path d="M64.9851 101.984L98.9011 83.9844C98.6094 84.1237 98.3133 84.2587 98.0113 84.3879C97.0024 84.8191 95.9757 85.1689 94.9326 85.4346L61.0166 103.433C62.0597 103.169 63.0865 102.819 64.0953 102.386C64.3974 102.258 64.6935 102.123 64.9851 101.984Z" fill="#2692B6" style="fill:#2692B6;fill:color(display-p3 0.1490 0.5725 0.7137);fill-opacity:1;"/>
</g>
<mask id="mask2_20946_80998" style="mask-type:luminance" maskUnits="userSpaceOnUse" x="98" y="107" width="42" height="32">
<path d="M98.6605 138.415L132.576 120.416C137.026 118.054 139.99 113.223 139.979 107.291L106.063 125.291C106.075 131.222 103.111 136.053 98.6605 138.415Z" fill="white" style="fill:white;fill-opacity:1;"/>
</mask>
<g mask="url(#mask2_20946_80998)">
<path d="M98.6604 138.415L132.576 120.416C137.026 118.054 139.991 113.223 139.979 107.291L106.063 125.291C106.075 131.222 103.111 136.053 98.6604 138.415Z" fill="#1A81FF" style="fill:#1A81FF;fill:color(display-p3 0.1029 0.5043 1.0000);fill-opacity:1;"/>
</g>
<path d="M15.868 18.1338C7.11861 16.9347 -0.0178375 23.4848 2.28882e-05 32.6842L0.148827 110.778C0.166687 119.978 7.33288 128.489 16.0808 129.689L90.2442 139.859C98.9817 141.056 106.118 134.506 106.1 125.307L105.951 47.2127C105.934 38.0133 98.7674 29.5006 90.0314 28.3029L15.868 18.1338Z" fill="#0668E1" style="fill:#0668E1;fill:color(display-p3 0.0235 0.4078 0.8824);fill-opacity:1;"/>
<path d="M90.0281 28.3035L123.944 10.3039L49.7807 0.134766L15.8648 18.1358L90.0281 28.3035Z" fill="#107BFF" style="fill:#107BFF;fill:color(display-p3 0.0644 0.4831 1.0000);fill-opacity:1;"/>
<path d="M106.083 125.308L139.999 107.307L139.851 29.2148L105.934 47.2144L106.083 125.308Z" fill="#1E83FF" style="fill:#1E83FF;fill:color(display-p3 0.1183 0.5128 1.0000);fill-opacity:1;"/>
<mask id="mask3_20946_80998" style="mask-type:luminance" maskUnits="userSpaceOnUse" x="90" y="10" width="50" height="38">
<path d="M105.936 47.2238L139.852 29.2243C139.834 20.0234 132.668 11.5121 123.932 10.3145L90.0162 28.314C98.7537 29.5117 105.918 38.023 105.936 47.2238Z" fill="white" style="fill:white;fill-opacity:1;"/>
</mask>
<g mask="url(#mask3_20946_80998)">
<path d="M105.936 47.2284L139.852 29.2288C139.848 26.9744 139.415 24.762 138.634 22.6875L104.718 40.6871C105.499 42.7615 105.932 44.9739 105.936 47.2284Z" fill="#1A81FF" style="fill:#1A81FF;fill:color(display-p3 0.1029 0.5043 1.0000);fill-opacity:1;"/>
<path d="M104.723 40.6868L138.639 22.6872C138.3 21.7857 137.895 20.9103 137.431 20.0684L103.515 38.0679C103.979 38.9099 104.384 39.7853 104.723 40.6868Z" fill="#1A81FF" style="fill:#1A81FF;fill:color(display-p3 0.1029 0.5043 1.0000);fill-opacity:1;"/>
<path d="M103.519 38.0654L137.436 20.0658C137.043 19.353 136.607 18.6649 136.134 18.0059L102.218 36.0054C102.69 36.6631 103.126 37.3526 103.519 38.0654Z" fill="#1A81FF" style="fill:#1A81FF;fill:color(display-p3 0.1029 0.5043 1.0000);fill-opacity:1;"/>
<path d="M102.212 36.0005L136.128 18.0009C135.68 17.3782 135.199 16.783 134.687 16.2168L100.771 34.2164C101.283 34.7811 101.765 35.3777 102.212 36.0005Z" fill="#1A81FF" style="fill:#1A81FF;fill:color(display-p3 0.1029 0.5043 1.0000);fill-opacity:1;"/>
<path d="M100.762 34.2253L134.678 16.2257C134.164 15.6566 133.619 15.1195 133.046 14.6172L99.1301 32.6168C99.7015 33.1205 100.248 33.6576 100.762 34.2253Z" fill="#1A81FF" style="fill:#1A81FF;fill:color(display-p3 0.1029 0.5043 1.0000);fill-opacity:1;"/>
<path d="M99.118 32.6135L133.034 14.614C132.421 14.0754 131.775 13.576 131.102 13.123L97.1865 31.1226C97.8606 31.577 98.5049 32.075 99.118 32.6135Z" fill="#1A81FF" style="fill:#1A81FF;fill:color(display-p3 0.1029 0.5043 1.0000);fill-opacity:1;"/>
<path d="M97.2039 31.1168L131.12 13.1172C130.297 12.5627 129.434 12.0749 128.538 11.6641L94.6222 29.6637C95.518 30.0745 96.381 30.5622 97.2039 31.1168Z" fill="#1A81FF" style="fill:#1A81FF;fill:color(display-p3 0.1029 0.5043 1.0000);fill-opacity:1;"/>
<path d="M94.616 29.667L128.532 11.6674C127.072 10.9982 125.526 10.5351 123.927 10.3145L90.0107 28.314C91.6103 28.5332 93.1563 28.9978 94.616 29.667Z" fill="#1A81FF" style="fill:#1A81FF;fill:color(display-p3 0.1029 0.5043 1.0000);fill-opacity:1;"/>
</g>
<path d="M31.6368 66.4061C33.2937 66.6924 34.9811 66.9992 36.6988 67.3265C38.416 67.6232 40.1036 67.9453 41.7616 68.2927C43.4197 68.6402 44.9731 69.0153 46.4218 69.418L46.1962 74.4528L34.221 72.3836C33.4679 72.2535 32.899 72.3533 32.5145 72.683C32.1595 72.9873 31.9891 73.5369 32.0032 74.3316L32.2907 90.4714C32.3043 91.2356 32.4954 91.8476 32.864 92.3075C33.2627 92.7725 33.8387 93.0701 34.5918 93.2002L46.567 95.2695L46.9739 100.414C45.5301 100.286 43.9802 100.11 42.3244 99.8845C40.6685 99.6593 38.982 99.3984 37.2648 99.1017C35.5481 98.8355 33.8614 98.5593 32.2044 98.273C30.2161 97.9294 28.594 97.0701 27.3381 95.6951C26.1124 94.3253 25.4676 92.6902 25.4037 90.7898L25.0623 71.6238C25.0581 69.7033 25.6482 68.2663 26.8326 67.313C28.0471 66.3648 29.6485 66.0625 31.6368 66.4061ZM25.9909 78.2295L44.654 81.4543L44.7422 86.4063L26.0791 83.1814L25.9909 78.2295ZM63.2287 71.4536C64.7049 71.7086 65.956 71.9705 66.9819 72.2392C68.0374 72.4825 69.0033 72.7561 69.8797 73.0599C70.7561 73.3637 71.6634 73.7186 72.6017 74.1245L72.1517 79.212C71.1564 78.9791 70.2368 78.7745 69.3927 78.5981C68.5788 78.427 67.6895 78.2429 66.7249 78.0457C65.7905 77.8538 64.6605 77.6433 63.3349 77.4143C61.7985 77.1488 60.5991 77.2615 59.7369 77.7525C58.9043 78.2181 58.3205 79.1686 57.9857 80.6039C57.6509 82.0393 57.5074 84.1019 57.5553 86.7919C57.6027 89.4513 57.8207 91.5764 58.2095 93.1673C58.5977 94.7275 59.219 95.8862 60.0734 96.6433C60.9579 97.4057 62.1684 97.9196 63.7049 98.185C65.7836 98.5442 67.5303 98.8156 68.9452 98.9991C70.36 99.1826 71.759 99.3177 73.1421 99.4043L73.821 104.641C72.3831 104.85 70.9126 104.916 69.4096 104.839C67.9071 104.793 66.0412 104.577 63.8119 104.192C60.5884 103.635 58.0033 102.67 56.0567 101.297C54.1096 99.8944 52.678 97.9253 51.7618 95.39C50.8758 92.86 50.3969 89.5775 50.325 85.5425C50.2532 81.5076 50.6178 78.3709 51.4188 76.1323C52.25 73.899 53.6204 72.4293 55.53 71.7231C57.439 70.9864 60.0052 70.8966 63.2287 71.4536Z" fill="white" style="fill:white;fill-opacity:1;"/>
</svg>
