<svg width="80" height="80" viewBox="0 0 80 80" fill="none" xmlns="http://www.w3.org/2000/svg">
<rect width="80" height="80" rx="40" fill="#F9F9F9" style="fill:#F9F9F9;fill:color(display-p3 0.9750 0.9750 0.9750);fill-opacity:1;"/>
<circle cx="40" cy="40" r="30" fill="#CED8F2" style="fill:#CED8F2;fill:color(display-p3 0.8078 0.8471 0.9490);fill-opacity:1;"/>
<mask id="mask0_20941_80661" style="mask-type:alpha" maskUnits="userSpaceOnUse" x="10" y="10" width="60" height="60">
<path d="M40 70C56.5685 70 70 56.5685 70 40C70 23.4315 56.5685 10 40 10C23.4315 10 10 23.4315 10 40C10 56.5685 23.4315 70 40 70Z" fill="#CED8F2" style="fill:#CED8F2;fill:color(display-p3 0.8078 0.8471 0.9490);fill-opacity:1;"/>
</mask>
<g mask="url(#mask0_20941_80661)">
<path d="M47.751 28.861C48.6527 25.2029 47.3455 23.4993 46.1663 22.5922C45.6069 21.2457 44.9685 20.2754 44.3157 19.9095C43.1253 19.242 41.6986 19.1693 40.7007 19.2275C40.9577 18.9659 41.463 18.8706 41.463 18.8706C40.8444 18.7798 39.4632 19.3852 39.4632 19.3852C30.8558 16.1141 29.5031 28.6139 29.684 31.5181C29.8633 34.4217 29.8396 37.842 25.3614 40.1299C16.8171 44.4956 28.201 60.9474 28.201 60.9474C27.9837 58.6008 38.9622 46.2164 44.6897 42.5076C46.084 40.4829 46.5796 36.9065 46.6167 36.6249C46.3759 39.4607 45.8841 41.0514 45.4446 41.9471C48.0551 39.5775 48.4419 33.887 47.751 28.861Z" fill="#1B1C17" style="fill:#1B1C17;fill:color(display-p3 0.1059 0.1098 0.0902);fill-opacity:1;"/>
<path d="M44.3494 42.6939C44.3782 42.7066 41.5839 44.1375 39.4823 43.5707C37.5052 43.0389 36.2134 40.5107 36.2407 40.5051C37.0779 40.3412 37.3194 39.2064 37.3016 34.3301L37.6801 34.4036L44.0439 35.6465C44.0439 35.6465 43.8992 37.6219 43.8948 39.4827C43.8905 41.0453 43.9868 42.5273 44.3494 42.6939Z" fill="#FFB27D" style="fill:#FFB27D;fill:color(display-p3 1.0000 0.6980 0.4902);fill-opacity:1;"/>
<path d="M44.043 35.6452C44.043 35.6452 43.8982 37.6207 43.8939 39.4814C40.3326 39.3824 38.4504 36.1783 37.679 34.4023L44.043 35.6452Z" fill="#ED975D" style="fill:#ED975D;fill:color(display-p3 0.9294 0.5922 0.3647);fill-opacity:1;"/>
<path d="M50.8518 65.9963C50.8002 75.5826 52.2777 79.6955 52.2777 79.6955C52.2777 79.6955 43.5325 84.0778 33.1386 80.8517C33.0162 80.8139 24.5326 78.9042 24.5326 78.9042C24.7065 78.516 26.2533 72.0556 26.4227 71.6997C28.6173 67.0517 30.2835 65.0137 30.5437 63.5847C31.0266 60.917 31.0372 58.1566 30.7966 55.5532C30.1625 48.6617 28.2763 42.9406 28.2763 42.9406C31.1082 42.305 33.7603 41.1886 36.708 40.0982C37.3861 40.9309 39.4587 41.8021 41.2566 41.7623C43.3269 41.7174 43.9982 40.843 43.891 39.8887C46.0973 41.0995 47.8579 42.2434 47.8579 42.2434C49.7329 45.4559 53.5359 48.5757 53.8114 53.5038C53.8794 54.7156 50.8533 65.7277 50.8518 65.9963Z" fill="white" style="fill:white;fill-opacity:1;"/>
<path d="M33.285 67.064C32.3921 68.3105 30.6802 75.8857 26.4215 76.8381C28.616 71.4389 30.2823 69.0716 30.5425 67.4117C31.0254 64.313 31.036 61.1066 30.7954 58.0824C32.221 55.6182 33.285 53.9283 33.285 53.9283C33.3969 53.5297 35.5504 46.962 36.2407 52.8327C36.9292 58.705 34.2824 65.6697 33.285 67.064Z" fill="#5F9AA8" style="fill:#5F9AA8;fill:color(display-p3 0.3725 0.6039 0.6588);fill-opacity:1;"/>
<path d="M45.2347 37.4073C45.2347 37.4073 36.8092 37.5445 36.8033 32.3679C36.7976 27.1913 35.7062 23.7228 41.0855 23.4164C46.4648 23.1101 47.5122 25.0842 47.9403 26.8114C48.3682 28.539 47.4263 37.2384 45.2347 37.4073Z" fill="#FFB27D" style="fill:#FFB27D;fill:color(display-p3 1.0000 0.6980 0.4902);fill-opacity:1;"/>
<path d="M44.9219 23.2884C44.9219 23.2884 42.6149 29.3615 39.0748 30.2595C35.5343 31.1575 33.9985 30.2218 33.9985 30.2218C33.9985 30.2218 36.7142 28.0942 37.2778 24.3798C37.2778 24.3798 43.1817 20.398 44.9219 23.2884Z" fill="#1B1C17" style="fill:#1B1C17;fill:color(display-p3 0.1059 0.1098 0.0902);fill-opacity:1;"/>
<path d="M44.3511 23.7813C44.3511 23.7813 46.0739 25.1372 46.4938 26.4554C46.914 27.7737 47.1029 30.4873 47.9048 30.3949C47.9048 30.3949 49.6427 26.267 47.6896 23.932C45.6184 21.4559 44.3511 23.7813 44.3511 23.7813Z" fill="#1B1C17" style="fill:#1B1C17;fill:color(display-p3 0.1059 0.1098 0.0902);fill-opacity:1;"/>
<path d="M47.7639 41.5371C47.7639 41.5371 52.4562 43.3737 53.8142 46.2369C55.1722 49.1001 57.2287 68.306 58.0477 70.2784C58.8667 72.2507 59.4824 73.8123 59.4824 73.8123C59.4824 73.8123 57.1166 75.7783 54.7373 75.9231C52.3579 76.0678 47.7639 41.5371 47.7639 41.5371Z" fill="#0374FF" style="fill:#0374FF;fill:color(display-p3 0.0106 0.4533 1.0000);fill-opacity:1;"/>
<path d="M43.8907 39.8887C43.8907 39.8887 48.7655 51.7664 48.9088 54.1704C49.052 56.5742 49.4823 93.4796 49.4823 93.4796C49.4823 93.4796 49.1956 95.1764 52.493 94.4693C55.7904 93.7622 56.6504 93.0552 56.6504 93.0552C56.6504 93.0552 53.4965 70.2899 54.3567 62.3714C55.217 54.453 47.7619 41.5386 47.7619 41.5386L43.8907 39.8887Z" fill="#0374FF" style="fill:#0374FF;fill:color(display-p3 0.0106 0.4533 1.0000);fill-opacity:1;"/>
<path d="M36.2955 92.7724C36.2955 92.7724 35.0526 97.2025 30.7516 96.6369C26.4506 96.0714 20.3348 93.5261 20.3348 93.5261C20.3348 93.5261 22.1728 87.7981 24.4578 80.2728C27.2249 71.1623 30.6497 59.4176 32.2641 52.0098C32.717 49.9339 33.0268 48.2004 33.1414 46.959L36.7097 40.1309C36.7097 40.1309 42.03 51.9082 42.3167 54.8774C42.6034 57.8467 36.2955 92.7724 36.2955 92.7724Z" fill="#0374FF" style="fill:#0374FF;fill:color(display-p3 0.0106 0.4533 1.0000);fill-opacity:1;"/>
<path d="M31.9992 54.4331L36.7087 40.1289C36.6959 40.1347 30.7607 41.8707 27.7751 43.3585C27.7751 43.3585 25.909 45.7313 24.7544 51.2059C24.7544 51.2059 23.5345 64.3493 26.2583 69.1569C26.2583 69.1569 34.8602 70.8537 48.623 66.1874V63.0767C48.623 63.0767 33.5698 63.8544 30.4876 64.2078L31.9992 54.4331Z" fill="#FFB27D" style="fill:#FFB27D;fill:color(display-p3 1.0000 0.6980 0.4902);fill-opacity:1;"/>
<path d="M36.1017 61.0989C35.9096 65.9066 34.7626 75.2388 24.5364 80.2346C24.5093 80.2473 24.4821 80.2615 24.4548 80.2728C27.2219 71.1623 30.6468 59.4176 32.2611 52.0098C34.139 54.7783 36.2062 58.452 36.1017 61.0989Z" fill="#0668E1" style="fill:#0668E1;fill:color(display-p3 0.0235 0.4078 0.8824);fill-opacity:1;"/>
<path d="M36.7083 40.1289C36.7083 40.1289 27.9783 40.7356 25.8755 45.3546C23.773 49.9736 23.1038 65.3392 25.78 69.8638C25.78 69.8638 29.4644 70.8988 35.9809 69.6969C36.0608 69.6822 36.1411 69.667 36.2218 69.6518C36.2218 69.6518 38.3006 64.6321 36.4368 63.6424C36.4368 63.6424 30.9412 63.9251 31.5147 62.1339C32.0879 60.3431 36.7083 40.1289 36.7083 40.1289Z" fill="#0374FF" style="fill:#0374FF;fill:color(display-p3 0.0106 0.4533 1.0000);fill-opacity:1;"/>
<path d="M58.5918 65.0025L58.3346 65.8177L44.0097 61.4225C44.0097 61.4225 43.8185 61.2078 43.9128 60.9229C44.017 60.6081 44.2667 60.6074 44.2667 60.6074L58.5918 65.0025Z" fill="#263238" style="fill:#263238;fill:color(display-p3 0.1490 0.1961 0.2196);fill-opacity:1;"/>
<path d="M59.6309 65.7742L58.5949 65.0039L58.3377 65.8189L59.6309 65.7742Z" fill="#263238" style="fill:#263238;fill:color(display-p3 0.1490 0.1961 0.2196);fill-opacity:1;"/>
<path d="M48.6208 63.0771C48.6208 63.0771 51.8706 61.1032 53.2339 61.4067C54.5974 61.7105 58.0718 64.1924 56.4005 64.7298C54.7292 65.2672 53.3758 64.7034 52.7331 65.0937C52.0904 65.484 51.6159 66.1976 48.6207 66.1879C45.6257 66.1781 48.6208 63.0771 48.6208 63.0771Z" fill="#FFB27D" style="fill:#FFB27D;fill:color(display-p3 1.0000 0.6980 0.4902);fill-opacity:1;"/>
</g>
</svg>
