<svg width="72" height="72" viewBox="0 0 72 72" fill="none" xmlns="http://www.w3.org/2000/svg">
<g filter="url(#filter0_di_20946_80901)">
<rect x="16" y="15.1992" width="40" height="40" rx="20" fill="#0668E1" style="fill:#0668E1;fill:color(display-p3 0.0235 0.4078 0.8824);fill-opacity:1;"/>
<rect x="16.2" y="15.3992" width="39.6" height="39.6" rx="19.8" stroke="#0668E1" style="stroke:#0668E1;stroke:color(display-p3 0.0235 0.4078 0.8824);stroke-opacity:1;" stroke-width="0.4"/>
<path d="M35.1899 34.8381C32.158 36.534 27 38.798 27 38.798C27 38.798 29.6224 38.2687 31.14 37.808C33.101 37.2127 34.1365 36.6812 35.9999 35.8281C38.8309 34.5319 43.0198 32.0481 43.0198 32.0481L43.6498 32.8581L44.9998 29.0781L41.0399 29.6181L41.7598 30.6981C41.7598 30.6981 37.8366 33.3576 35.1899 34.8381Z" fill="white" style="fill:white;fill-opacity:1;"/>
<path d="M34.7689 30.1586C34.7689 30.1586 33.3667 30.6894 32.429 30.6986C31.5329 30.7074 31.0259 30.5415 30.179 30.2486C29.362 29.9661 28.919 29.6186 28.199 29.2586C27.8604 29.0893 27.4873 29.2902 27.299 29.6186C27.1036 29.9595 27.1378 30.4137 27.479 30.6086C28.1091 30.9686 30.449 31.9586 30.719 32.5886C30.9432 33.1118 30.809 36.5485 30.809 36.5485L34.0489 34.7486C34.0489 34.7486 34.0489 33.3986 34.2289 32.4986C34.3067 32.1096 34.939 31.8735 35.489 31.5986C36.2089 31.2386 36.6589 31.0586 37.3789 30.5186C37.6656 30.3035 37.7224 29.9376 37.5589 29.6186C37.3862 29.2818 37.0048 29.1049 36.6589 29.2586C35.849 29.6186 34.7689 30.1586 34.7689 30.1586Z" fill="white" style="fill:white;fill-opacity:1;"/>
<circle cx="32.4287" cy="27.9092" r="1.70998" fill="white" style="fill:white;fill-opacity:1;"/>
<path d="M31.8594 32.5892L32.1294 30.6992H32.6694L32.9394 32.5892L32.3994 33.3992L31.8594 32.5892Z" fill="#0668E1" style="fill:#0668E1;fill:color(display-p3 0.0235 0.4078 0.8824);fill-opacity:1;"/>
<rect x="28.4414" y="40.2383" width="2.15998" height="3.95996" fill="white" style="fill:white;fill-opacity:1;"/>
<rect x="31.5" y="39.1602" width="2.15998" height="5.03995" fill="white" style="fill:white;fill-opacity:1;"/>
<rect x="34.5586" y="37.7188" width="2.15998" height="6.47993" fill="white" style="fill:white;fill-opacity:1;"/>
<rect x="37.8008" y="36.459" width="2.15998" height="7.73992" fill="white" style="fill:white;fill-opacity:1;"/>
<rect x="41.043" y="35.0195" width="2.15998" height="8.99991" fill="white" style="fill:white;fill-opacity:1;"/>
</g>
<defs>
<filter id="filter0_di_20946_80901" x="0" y="-0.000781238" width="72" height="72" filterUnits="userSpaceOnUse" color-interpolation-filters="sRGB">
<feFlood flood-opacity="0" result="BackgroundImageFix"/>
<feColorMatrix in="SourceAlpha" type="matrix" values="0 0 0 0 0 0 0 0 0 0 0 0 0 0 0 0 0 0 127 0" result="hardAlpha"/>
<feMorphology radius="4" operator="dilate" in="SourceAlpha" result="effect1_dropShadow_20946_80901"/>
<feOffset dy="0.8"/>
<feGaussianBlur stdDeviation="6"/>
<feComposite in2="hardAlpha" operator="out"/>
<feColorMatrix type="matrix" values="0 0 0 0 0.0235294 0 0 0 0 0.407843 0 0 0 0 0.882353 0 0 0 0.05 0"/>
<feBlend mode="normal" in2="BackgroundImageFix" result="effect1_dropShadow_20946_80901"/>
<feBlend mode="normal" in="SourceGraphic" in2="effect1_dropShadow_20946_80901" result="shape"/>
<feColorMatrix in="SourceAlpha" type="matrix" values="0 0 0 0 0 0 0 0 0 0 0 0 0 0 0 0 0 0 127 0" result="hardAlpha"/>
<feOffset dx="-0.8" dy="-3.2"/>
<feGaussianBlur stdDeviation="1"/>
<feComposite in2="hardAlpha" operator="arithmetic" k2="-1" k3="1"/>
<feColorMatrix type="matrix" values="0 0 0 0 0 0 0 0 0 0 0 0 0 0 0 0 0 0 0.25 0"/>
<feBlend mode="normal" in2="shape" result="effect2_innerShadow_20946_80901"/>
</filter>
</defs>
</svg>
