<svg width="40" height="40" viewBox="0 0 40 40" fill="none" xmlns="http://www.w3.org/2000/svg">
<g clip-path="url(#clip0_20946_81068)">
<path d="M34.4434 8.89062H24.4434V36.6684H36.6656V11.1128C36.6656 10.5235 36.4315 9.95825 36.0147 9.5415C35.598 9.12475 35.0327 8.89063 34.4434 8.89062ZM28.8878 27.7795H26.6656V25.5573H28.8878V27.7795ZM28.8878 22.224H26.6656V20.0017H28.8878V22.224ZM28.8878 16.6684H26.6656V14.4462H28.8878V16.6684ZM33.3322 27.7795H31.11V25.5573H33.3322V27.7795ZM33.3322 22.224H31.11V20.0017H33.3322V22.224ZM33.3322 16.6684H31.11V14.4462H33.3322V16.6684Z" fill="#1B1C17" style="fill:#1B1C17;fill:color(display-p3 0.1059 0.1098 0.0902);fill-opacity:1;"/>
<path d="M19.8656 3.33398H6.79891C6.17418 3.33398 5.57504 3.58216 5.13329 4.02391C4.69153 4.46566 4.44336 5.06481 4.44336 5.68954V36.6673H9.99892V33.334H16.6656V36.6673H22.2211V5.68954C22.2211 5.06481 21.973 4.46566 21.5312 4.02391C21.0895 3.58216 20.4903 3.33398 19.8656 3.33398ZM9.99892 27.7784H7.77669V25.5562H9.99892V27.7784ZM9.99892 22.2229H7.77669V20.0007H9.99892V22.2229ZM9.99892 16.6673H7.77669V14.4451H9.99892V16.6673ZM9.99892 11.1118H7.77669V8.88954H9.99892V11.1118ZM14.4434 27.7784H12.2211V25.5562H14.4434V27.7784ZM14.4434 22.2229H12.2211V20.0007H14.4434V22.2229ZM14.4434 16.6673H12.2211V14.4451H14.4434V16.6673ZM14.4434 11.1118H12.2211V8.88954H14.4434V11.1118ZM18.8878 27.7784H16.6656V25.5562H18.8878V27.7784ZM18.8878 22.2229H16.6656V20.0007H18.8878V22.2229ZM18.8878 16.6673H16.6656V14.4451H18.8878V16.6673ZM18.8878 11.1118H16.6656V8.88954H18.8878V11.1118Z" fill="#1B1C17" style="fill:#1B1C17;fill:color(display-p3 0.1059 0.1098 0.0902);fill-opacity:1;"/>
</g>
<defs>
<clipPath id="clip0_20946_81068">
<rect width="40" height="40" fill="white" style="fill:white;fill-opacity:1;"/>
</clipPath>
</defs>
</svg>
