<svg width="72" height="72" viewBox="0 0 72 72" fill="none" xmlns="http://www.w3.org/2000/svg">
<g filter="url(#filter0_di_20946_80916)">
<rect x="16" y="15.1992" width="40" height="40" rx="20" fill="#0668E1" style="fill:#0668E1;fill:color(display-p3 0.0235 0.4078 0.8824);fill-opacity:1;"/>
<rect x="16.2" y="15.3992" width="39.6" height="39.6" rx="19.8" stroke="#0668E1" style="stroke:#0668E1;stroke:color(display-p3 0.0235 0.4078 0.8824);stroke-opacity:1;" stroke-width="0.4"/>
<g clip-path="url(#clip0_20946_80916)">
<path d="M41 24.7988H31C30.448 24.7988 30 25.2468 30 25.7988V33.7988C30 34.3508 30.448 34.7988 31 34.7988H41C41.552 34.7988 42 34.3508 42 33.7988V25.7988C42 25.2468 41.552 24.7988 41 24.7988ZM33 25.7988C33 25.9088 32.91 25.9988 32.8 25.9988C32.69 25.9988 32.6 25.9088 32.6 25.7988C32.6 25.6888 32.69 25.5988 32.8 25.5988C32.91 25.5988 33 25.6888 33 25.7988ZM32.2 25.7988C32.2 25.9088 32.11 25.9988 32 25.9988C31.89 25.9988 31.8 25.9088 31.8 25.7988C31.8 25.6888 31.89 25.5988 32 25.5988C32.11 25.5988 32.2 25.6888 32.2 25.7988ZM31.2 25.5988C31.31 25.5988 31.4 25.6888 31.4 25.7988C31.4 25.9088 31.31 25.9988 31.2 25.9988C31.09 25.9988 31 25.9088 31 25.7988C31 25.6888 31.09 25.5988 31.2 25.5988ZM41.6 33.7988C41.6 34.1288 41.33 34.3988 41 34.3988H31C30.67 34.3988 30.4 34.1288 30.4 33.7988V26.7988H41.6V33.7988Z" fill="white" style="fill:white;fill-opacity:1;"/>
<path d="M32.0004 33.5996H40.4004C40.5104 33.5996 40.6004 33.5096 40.6004 33.3996C40.6004 33.2896 40.5104 33.1996 40.4004 33.1996H39.8004V29.9996C39.8004 29.7796 39.6204 29.5996 39.4004 29.5996H39.0004C38.7804 29.5996 38.6004 29.7796 38.6004 29.9996V33.1996H38.2004V30.9996C38.2004 30.7796 38.0204 30.5996 37.8004 30.5996H37.4004C37.1804 30.5996 37.0004 30.7796 37.0004 30.9996V33.1996H36.6004V30.9996C36.6004 30.7796 36.4204 30.5996 36.2004 30.5996H35.8004C35.5804 30.5996 35.4004 30.7796 35.4004 30.9996V33.1996H35.0004V31.9996C35.0004 31.7796 34.8204 31.5996 34.6004 31.5996H34.2004C33.9804 31.5996 33.8004 31.7796 33.8004 31.9996V33.1996H33.4004V32.3996C33.4004 32.1796 33.2204 31.9996 33.0004 31.9996H32.6004C32.3804 31.9996 32.2004 32.1796 32.2004 32.3996V33.1996H32.0004C31.8904 33.1996 31.8004 33.1096 31.8004 32.9996V27.7996C31.8004 27.6896 31.7104 27.5996 31.6004 27.5996C31.4904 27.5996 31.4004 27.6896 31.4004 27.7996V32.9996C31.4004 33.3296 31.6704 33.5996 32.0004 33.5996Z" fill="white" style="fill:white;fill-opacity:1;"/>
<path d="M32.8013 31.5987C32.8393 31.5987 32.8753 31.5887 32.9093 31.5667L35.6593 29.7987H37.6013C37.6493 29.7987 37.6973 29.7807 37.7333 29.7487L39.3333 28.3487C39.4173 28.2767 39.4253 28.1487 39.3513 28.0667C39.2793 27.9827 39.1513 27.9747 39.0693 28.0487L37.5253 29.3987H35.6013C35.5633 29.3987 35.5253 29.4087 35.4933 29.4307L32.6933 31.2307C32.6013 31.2907 32.5733 31.4147 32.6333 31.5067C32.6713 31.5667 32.7353 31.5987 32.8013 31.5987Z" fill="white" style="fill:white;fill-opacity:1;"/>
<path d="M27.0076 37.4282C27.034 37.6106 27.0364 37.7162 27.0628 37.8146C27.562 39.6504 28.0804 41.4815 28.5532 43.3246C28.6708 43.7877 28.9396 43.9125 29.3452 44.0037C31.6804 44.5269 34.0132 45.0596 36.3412 45.6116C36.9724 45.7604 37.5196 45.6956 38.0788 45.3356C39.8548 44.1933 41.6548 43.0846 43.4452 41.9639C44.8085 41.1119 46.1717 40.26 47.5301 39.4033C47.9861 39.1153 48.1277 38.7601 47.8709 38.4097C47.1965 37.481 46.3565 36.8811 44.9813 37.4042C44.2037 37.6994 43.462 38.0882 42.694 38.4097C42.238 38.5993 41.9428 38.7865 41.9428 39.4009C41.9452 40.2264 41.242 40.8216 40.2844 41.0063C38.2612 41.3927 36.2212 41.2247 34.186 41.1431C33.91 41.1311 33.6892 40.9823 33.7036 40.668C33.718 40.3464 33.9388 40.2504 34.2316 40.2648C34.7956 40.2888 35.362 40.3416 35.926 40.3248C37.306 40.284 38.686 40.2216 40.066 40.1424C40.4716 40.1184 40.8028 39.9096 40.9732 39.5137C41.23 38.9089 40.8412 38.2178 40.1524 38.1938C38.7268 38.1434 37.2964 38.1746 35.8684 38.1482C35.4268 38.141 34.9708 38.1098 34.5508 37.9898C33.5644 37.709 32.6044 37.3394 31.618 37.0586C31.1116 36.9147 30.5572 36.7563 30.0508 36.8187C29.0404 36.9387 28.0492 37.2098 27.0076 37.4282ZM25.7115 37.253C25.1403 37.4066 24.6723 37.4978 24.2331 37.673C24.1035 37.7234 23.9931 38.0066 24.0003 38.177C24.0099 38.4529 24.1227 38.7241 24.1971 38.9977C24.7299 40.9464 25.2603 42.8926 25.8003 44.8389C25.9323 45.3116 26.1195 45.4076 26.5899 45.2948C26.878 45.2252 27.166 45.1532 27.454 45.074C27.9196 44.9468 28.0444 44.7693 27.9148 44.2893C27.3244 42.0959 26.7267 39.9048 26.1075 37.7186C26.0547 37.5314 25.8339 37.3922 25.7115 37.253Z" fill="white" style="fill:white;fill-opacity:1;"/>
<path d="M27.0098 37.4272C28.049 37.2088 29.0426 36.9376 30.0554 36.8128C30.5618 36.7504 31.1162 36.9088 31.6226 37.0528C32.609 37.3336 33.569 37.7031 34.5554 37.9839C34.9754 38.1039 35.4314 38.1327 35.873 38.1423C37.301 38.1687 38.729 38.1399 40.157 38.1879C40.8458 38.2119 41.237 38.9054 40.9778 39.5078C40.8074 39.9062 40.4762 40.115 40.0706 40.1366C38.693 40.2157 37.313 40.2781 35.9306 40.3189C35.3666 40.3357 34.8002 40.2829 34.2362 40.2589C33.9434 40.2469 33.7226 40.3429 33.7082 40.6621C33.6938 40.9765 33.9146 41.1277 34.1906 41.1373C36.2258 41.2189 38.2658 41.3869 40.289 41.0005C41.2466 40.8181 41.9499 40.2229 41.9475 39.395C41.9475 38.7807 42.2427 38.5935 42.6987 38.4039C43.4667 38.0823 44.2083 37.6935 44.9859 37.3984C46.3611 36.8752 47.2011 37.4752 47.8755 38.4039C48.1299 38.7543 47.9907 39.1094 47.5347 39.3974C46.1739 40.2541 44.8107 41.1037 43.4499 41.958C41.6594 43.0787 39.8594 44.1874 38.0834 45.3298C37.5242 45.6897 36.977 45.7545 36.3458 45.6057C34.0178 45.0538 31.685 44.521 29.3498 43.9979C28.9442 43.9067 28.6754 43.7819 28.5578 43.3187C28.085 41.4757 27.5666 39.6446 27.0674 37.8087C27.0386 37.7175 27.0362 37.6119 27.0098 37.4272Z" fill="white" style="fill:white;fill-opacity:1;"/>
<path d="M25.7115 37.252C25.8339 37.3911 26.0571 37.5303 26.1099 37.7151C26.7291 39.9014 27.3268 42.0924 27.9172 44.2858C28.0468 44.7634 27.922 44.9434 27.4564 45.0706C27.1708 45.1474 26.8828 45.2193 26.5923 45.2913C26.1195 45.4065 25.9323 45.3081 25.8027 44.8354C25.2627 42.8891 24.7323 40.9429 24.1995 38.9942C24.1227 38.7206 24.0123 38.4495 24.0003 38.1735C23.9931 38.0031 24.1035 37.7199 24.2331 37.6695C24.6699 37.4967 25.1403 37.4055 25.7115 37.252Z" fill="white" style="fill:white;fill-opacity:1;"/>
</g>
</g>
<defs>
<filter id="filter0_di_20946_80916" x="0" y="-0.000781238" width="72" height="72" filterUnits="userSpaceOnUse" color-interpolation-filters="sRGB">
<feFlood flood-opacity="0" result="BackgroundImageFix"/>
<feColorMatrix in="SourceAlpha" type="matrix" values="0 0 0 0 0 0 0 0 0 0 0 0 0 0 0 0 0 0 127 0" result="hardAlpha"/>
<feMorphology radius="4" operator="dilate" in="SourceAlpha" result="effect1_dropShadow_20946_80916"/>
<feOffset dy="0.8"/>
<feGaussianBlur stdDeviation="6"/>
<feComposite in2="hardAlpha" operator="out"/>
<feColorMatrix type="matrix" values="0 0 0 0 0.0235294 0 0 0 0 0.407843 0 0 0 0 0.882353 0 0 0 0.05 0"/>
<feBlend mode="normal" in2="BackgroundImageFix" result="effect1_dropShadow_20946_80916"/>
<feBlend mode="normal" in="SourceGraphic" in2="effect1_dropShadow_20946_80916" result="shape"/>
<feColorMatrix in="SourceAlpha" type="matrix" values="0 0 0 0 0 0 0 0 0 0 0 0 0 0 0 0 0 0 127 0" result="hardAlpha"/>
<feOffset dx="-0.8" dy="-3.2"/>
<feGaussianBlur stdDeviation="1"/>
<feComposite in2="hardAlpha" operator="arithmetic" k2="-1" k3="1"/>
<feColorMatrix type="matrix" values="0 0 0 0 0 0 0 0 0 0 0 0 0 0 0 0 0 0 0.25 0"/>
<feBlend mode="normal" in2="shape" result="effect2_innerShadow_20946_80916"/>
</filter>
<clipPath id="clip0_20946_80916">
<rect width="24" height="24" fill="white" style="fill:white;fill-opacity:1;" transform="translate(24 23.1992)"/>
</clipPath>
</defs>
</svg>
