<svg width="80" height="80" viewBox="0 0 80 80" fill="none" xmlns="http://www.w3.org/2000/svg">
<rect width="80" height="80" rx="40" fill="#F9F9F9" style="fill:#F9F9F9;fill:color(display-p3 0.9750 0.9750 0.9750);fill-opacity:1;"/>
<circle cx="40" cy="40" r="30" fill="#CED8F2" style="fill:#CED8F2;fill:color(display-p3 0.8078 0.8471 0.9490);fill-opacity:1;"/>
<mask id="mask0_20941_80656" style="mask-type:alpha" maskUnits="userSpaceOnUse" x="10" y="10" width="60" height="60">
<path d="M40 70C56.5685 70 70 56.5685 70 40C70 23.4315 56.5685 10 40 10C23.4315 10 10 23.4315 10 40C10 56.5685 23.4315 70 40 70Z" fill="#CED8F2" style="fill:#CED8F2;fill:color(display-p3 0.8078 0.8471 0.9490);fill-opacity:1;"/>
</mask>
<g mask="url(#mask0_20941_80656)">
<mask id="mask1_20941_80656" style="mask-type:luminance" maskUnits="userSpaceOnUse" x="10" y="10" width="60" height="62">
<path d="M70 10.707H10V71.415H70V10.707Z" fill="white" style="fill:white;fill-opacity:1;"/>
</mask>
<g mask="url(#mask1_20941_80656)">
<path d="M47.0782 21.9492C47.0782 21.9492 48.5062 24.9963 47.1982 28.2891L45.2422 27.9574L45.4462 23.1656L47.0782 21.9492Z" fill="#071A22" style="fill:#071A22;fill:color(display-p3 0.0275 0.1020 0.1333);fill-opacity:1;"/>
<path d="M26.8354 77.731H50.3434C50.2834 75.4949 50.2714 73.5044 50.3194 72.4969C50.5714 67.9878 51.4114 63.9209 52.0834 61.267C52.0834 61.2547 52.0834 61.2547 52.0834 61.2547L52.0954 61.2302C52.2754 60.5421 52.4434 59.9401 52.5754 59.4609L56.6434 44.5204C53.9314 41.3259 44.5594 38.9669 44.5594 38.9669L38.3914 38.5C38.3914 38.5 26.4754 42.6037 23.6914 43.6604C24.6514 50.3565 25.9954 58.3551 25.9954 58.3551C26.2594 59.7926 27.9034 65.2233 26.8354 77.731Z" fill="white" style="fill:white;fill-opacity:1;"/>
<path d="M41.499 16.9247C41.499 16.9247 47.199 17.5759 46.779 27.2823C46.671 29.9239 46.719 31.73 45.879 33.229C44.163 36.2883 40.563 36.9149 39.795 36.8289C39.051 36.7429 35.811 35.8952 35.007 33.7573C33.951 30.9437 33.303 29.285 33.483 24.5424C33.495 24.5546 34.119 15.9909 41.499 16.9247Z" fill="#FFA98F" style="fill:#FFA98F;fill:color(display-p3 1.0000 0.6627 0.5608);fill-opacity:1;"/>
<path d="M44.1268 34.0289C44.1268 34.0289 43.9227 37.9975 44.2827 38.8698C44.6547 39.7299 39.4468 42.4698 36.2188 39.349C36.2188 39.349 36.8787 34.5818 36.6747 33.046C36.4707 31.5224 44.1268 34.0289 44.1268 34.0289Z" fill="#FFA98F" style="fill:#FFA98F;fill:color(display-p3 1.0000 0.6627 0.5608);fill-opacity:1;"/>
<path d="M35.6074 39.4338C35.6074 39.4338 37.2274 42.3088 40.2874 42.5791C42.2314 42.7511 43.9114 40.2324 44.7034 38.9915C44.7034 39.0037 40.3474 37.087 35.6074 39.4338Z" fill="#FFA98F" style="fill:#FFA98F;fill:color(display-p3 1.0000 0.6627 0.5608);fill-opacity:1;"/>
<path d="M40.2866 41.5098L42.0506 43.5862C42.0506 43.5862 40.0106 44.5077 38.6426 43.6108L40.2866 41.5098Z" fill="#05387D" style="fill:#05387D;fill:color(display-p3 0.0196 0.2196 0.4902);fill-opacity:1;"/>
<path d="M45.5446 77.7298H53.2006C52.3126 74.5844 51.6406 71.8322 51.6766 70.751C51.7846 67.6302 58.2766 44.0892 58.2766 44.0892C58.2766 44.0892 54.6646 41.681 44.7046 38.9902C44.7046 38.9902 42.9406 52.5055 43.1806 64.1654C43.2526 68.0234 44.2486 72.9135 45.5446 77.7298Z" fill="#0745B4" style="fill:#0745B4;fill:color(display-p3 0.0275 0.2706 0.7059);fill-opacity:1;"/>
<path d="M25.7439 77.7324H34.4319C34.6839 72.8792 34.8999 67.9891 34.9719 64.168C35.2119 52.5081 35.1999 39.5703 35.1999 39.5703C24.1239 42.5928 21.0039 44.7061 21.0039 44.7061C21.0039 44.7061 26.3799 67.6451 26.4879 70.7659C26.5239 71.7488 26.1999 74.4765 25.7439 77.7324Z" fill="#0745B4" style="fill:#0745B4;fill:color(display-p3 0.0275 0.2706 0.7059);fill-opacity:1;"/>
<path d="M41.2949 77.7304C41.1149 68.0486 40.8149 48.3409 41.1029 43.3772L39.6149 43.1191C39.6149 43.1191 37.5389 50.3682 37.3589 64.7558C37.2869 70.6656 37.3109 74.8431 37.3709 77.7181H41.2949V77.7304Z" fill="#05387D" style="fill:#05387D;fill:color(display-p3 0.0196 0.2196 0.4902);fill-opacity:1;"/>
<path d="M58.1431 70.1374C58.1551 70.8869 56.6911 74.1305 54.9511 77.7305H63.6871C65.3191 74.88 66.5311 72.6315 66.5791 72.1892C66.7111 70.9483 60.8311 45.6871 58.2751 44.0898L53.6191 58.0474C53.9191 57.9614 58.1191 68.7613 58.1431 70.1374Z" fill="#0745B4" style="fill:#0745B4;fill:color(display-p3 0.0275 0.2706 0.7059);fill-opacity:1;"/>
<path d="M14.8359 77.7314H22.7079C22.8639 76.1464 22.9599 75.0161 22.9719 74.6597C22.9959 73.2836 25.2879 58.6995 25.5879 58.7978L21.0159 44.7051C18.4599 46.3146 14.7279 72.6816 14.8599 73.9348C14.8839 74.2297 14.8719 75.6795 14.8359 77.7314Z" fill="#0745B4" style="fill:#0745B4;fill:color(display-p3 0.0275 0.2706 0.7059);fill-opacity:1;"/>
<path d="M34.2627 74.0814L32.4627 60.0993L33.9987 58.2194L31.9707 58.0597L34.4307 40.9199L34.6227 40.9568L32.1987 57.8631L34.4067 58.0351L32.6787 60.1607L34.4667 74.0568L34.2627 74.0814Z" fill="#0A1726" style="fill:#0A1726;fill:color(display-p3 0.0392 0.0902 0.1490);fill-opacity:1;"/>
<path d="M44.8933 73.0744L44.6893 73.0498L45.9852 60.1858L44.2812 59.2274L45.9133 57.9988L44.9413 39.9498L45.1453 39.9375L46.1173 58.0971L44.6532 59.2028L46.2013 60.0752V60.1366L44.8933 73.0744Z" fill="#0A1726" style="fill:#0A1726;fill:color(display-p3 0.0392 0.0902 0.1490);fill-opacity:1;"/>
<path d="M36.3517 38.4746C36.3517 38.4746 37.9237 40.4896 40.2877 41.5094L37.5757 45.0602L34.0957 39.8261L36.3517 38.4746Z" fill="#6AA8E5" style="fill:#6AA8E5;fill:color(display-p3 0.4157 0.6588 0.8980);fill-opacity:1;"/>
<path d="M44.1411 38.0938C44.1411 38.0938 42.9051 39.7402 40.2891 41.5094L42.8571 44.5319L46.3971 39.3838L44.1411 38.0938Z" fill="#6AA8E5" style="fill:#6AA8E5;fill:color(display-p3 0.4157 0.6588 0.8980);fill-opacity:1;"/>
<path d="M35.0796 22.2562C35.2596 22.1825 35.4396 22.0965 35.6196 22.0473C36.1716 21.8999 36.7356 21.7401 37.2876 21.863C37.7556 21.9613 38.1756 22.2685 38.6556 22.2193C39.2316 22.1702 39.6756 21.605 39.8796 21.0398C40.0476 20.5606 40.2276 19.9463 40.7076 19.8972C41.3676 19.8357 41.5596 20.9047 42.1716 21.1012C42.3756 21.1627 42.6036 21.1258 42.8196 21.1012C43.2996 21.0644 43.8156 21.1381 44.2356 21.3961C44.5716 21.605 44.7996 21.9736 44.8956 22.3668C45.0276 22.9442 45.2916 23.2145 45.8316 23.534C46.7436 24.0869 47.6676 23.62 48.3156 22.8091C48.3516 22.7599 48.3876 22.7108 48.4236 22.6616C49.0236 21.777 48.9516 20.4501 48.1956 19.7252C47.8476 19.3934 47.7636 19.3443 47.4156 19.0125C46.7076 18.3122 46.6236 17.1573 46.0356 16.3341C44.9556 14.8105 42.8796 15.4986 41.3316 15.216C40.5876 15.0808 39.8556 14.8842 39.1116 14.7614C37.9596 14.5648 36.7356 14.5648 35.6196 14.9948C33.7356 15.7074 33.0996 17.0958 32.5476 19.0862C31.9956 21.0767 29.3076 22.7476 33.3756 28.4732L34.4796 28.3503C34.4916 28.3626 33.3876 22.8828 35.0796 22.2562Z" fill="#071A22" style="fill:#071A22;fill:color(display-p3 0.0275 0.1020 0.1333);fill-opacity:1;"/>
<path d="M33.4218 26.4702C33.4218 26.4702 31.5258 26.2859 31.8498 28.6449C32.1738 31.0039 34.4418 30.3773 34.4418 30.3773L33.4218 26.4702Z" fill="#FFA98F" style="fill:#FFA98F;fill:color(display-p3 1.0000 0.6627 0.5608);fill-opacity:1;"/>
<path d="M46.9243 25.476C46.9243 25.476 48.8203 25.2917 48.4963 27.6507C48.1723 30.0098 45.9043 29.3832 45.9043 29.3832L46.9243 25.476Z" fill="#FFA98F" style="fill:#FFA98F;fill:color(display-p3 1.0000 0.6627 0.5608);fill-opacity:1;"/>
<path d="M46.3237 23.4732C46.3237 23.4732 46.7557 26.1639 46.2637 27.54L46.9357 27.6629C46.9357 27.6629 47.2837 25.7831 47.3197 25.1442C47.3437 24.6527 47.1157 23.166 47.1157 23.166L46.3237 23.4732Z" fill="#071A22" style="fill:#071A22;fill:color(display-p3 0.0275 0.1020 0.1333);fill-opacity:1;"/>
<path d="M36.0873 23.5969C37.1073 23.3266 38.1993 23.2897 39.2193 23.4986L39.2673 23.2406C38.2113 23.0317 37.0953 23.0686 36.0273 23.3512L36.0873 23.5969Z" fill="black" style="fill:black;fill-opacity:1;"/>
<path d="M42.0513 23.8668C43.1073 23.7316 44.1753 23.8299 45.1713 24.1616L45.2553 23.9159C44.2353 23.5719 43.1193 23.4736 42.0273 23.621L42.0513 23.8668Z" fill="black" style="fill:black;fill-opacity:1;"/>
<path d="M38.6191 31.6803L42.6391 31.668C42.6391 31.668 42.6151 33.4495 40.5391 33.3758C39.9631 33.3512 38.7631 32.8598 38.6191 31.6803Z" fill="#E5F4F6" style="fill:#E5F4F6;fill:color(display-p3 0.8980 0.9569 0.9647);fill-opacity:1;"/>
<path d="M40.4658 30.1204C40.4538 30.1204 40.4538 30.1204 40.4418 30.1204C40.2738 30.1204 40.1058 30.1204 39.9738 30.0098C39.7578 29.8255 39.7698 29.4938 39.7938 29.2603C39.8058 29.1252 39.8298 28.9286 39.8538 28.6952C39.9498 27.8351 40.0938 26.545 40.2138 26.0781L40.4058 26.1273C40.2978 26.5819 40.1538 27.872 40.0578 28.7197C40.0338 28.9532 40.0098 29.1498 39.9978 29.2849C39.9738 29.4692 39.9618 29.7395 40.1058 29.8624C40.1898 29.9238 40.2978 29.9361 40.4538 29.9361C40.9098 29.9238 41.3538 29.8378 41.7858 29.6904L41.8458 29.8747C41.3778 30.0098 40.9218 30.0958 40.4658 30.1204Z" fill="black" style="fill:black;fill-opacity:1;"/>
<path d="M38.1157 26.8642C38.1397 27.2205 37.9357 27.5277 37.6837 27.5522C37.4197 27.5768 37.1917 27.3065 37.1797 26.9502C37.1557 26.5939 37.3597 26.2867 37.6117 26.2621C37.8637 26.2499 38.0917 26.5079 38.1157 26.8642Z" fill="black" style="fill:black;fill-opacity:1;"/>
<path d="M43.8403 26.8642C43.8643 27.2205 43.6603 27.5277 43.4083 27.5522C43.1443 27.5768 42.9163 27.3065 42.9043 26.9502C42.8803 26.5939 43.0843 26.2867 43.3363 26.2621C43.6003 26.2499 43.8283 26.5079 43.8403 26.8642Z" fill="black" style="fill:black;fill-opacity:1;"/>
<path d="M37.67 29.6282C36.614 29.6282 35.75 28.5716 35.75 27.2692C35.75 25.9668 36.614 24.9102 37.67 24.9102C38.726 24.9102 39.59 25.9668 39.59 27.2692C39.59 28.5716 38.738 29.6282 37.67 29.6282ZM37.67 25.1313C36.722 25.1313 35.954 26.0897 35.954 27.2815C35.954 28.4733 36.722 29.4316 37.67 29.4316C38.618 29.4316 39.386 28.4733 39.386 27.2815C39.386 26.0897 38.63 25.1313 37.67 25.1313Z" fill="#183862" style="fill:#183862;fill:color(display-p3 0.0941 0.2196 0.3843);fill-opacity:1;"/>
<path d="M43.4102 29.5813C42.3542 29.5813 41.4902 28.5247 41.4902 27.2223C41.4902 25.9199 42.3542 24.8633 43.4102 24.8633C44.4662 24.8633 45.3302 25.9199 45.3302 27.2223C45.3302 28.5247 44.4782 29.5813 43.4102 29.5813ZM43.4102 25.0722C42.4622 25.0722 41.6942 26.0305 41.6942 27.2223C41.6942 28.4141 42.4622 29.3725 43.4102 29.3725C44.3582 29.3725 45.1262 28.4141 45.1262 27.2223C45.1262 26.0305 44.3702 25.0722 43.4102 25.0722Z" fill="#183862" style="fill:#183862;fill:color(display-p3 0.0941 0.2196 0.3843);fill-opacity:1;"/>
<path d="M39.5312 26.9137V26.6925C39.6153 26.6925 41.5353 26.668 41.5353 26.668V26.8768C41.5353 26.8768 39.6033 26.9137 39.5312 26.9137Z" fill="#183862" style="fill:#183862;fill:color(display-p3 0.0941 0.2196 0.3843);fill-opacity:1;"/>
<path d="M34.0401 26.2885L33.9805 26.4883L35.7707 27.0485L35.8303 26.8488L34.0401 26.2885Z" fill="#183862" style="fill:#183862;fill:color(display-p3 0.0941 0.2196 0.3843);fill-opacity:1;"/>
<path d="M46.5928 26.0173L45.1367 26.7988L45.2314 26.9838L46.6875 26.2023L46.5928 26.0173Z" fill="#183862" style="fill:#183862;fill:color(display-p3 0.0941 0.2196 0.3843);fill-opacity:1;"/>
<path d="M40.4927 36.89C38.9327 36.89 37.9007 36.1159 37.8887 36.1037L38.0087 35.9316C38.0327 35.9439 40.1927 37.5658 42.9767 35.9808L43.0727 36.1651C42.1367 36.7057 41.2487 36.89 40.4927 36.89Z" fill="black" style="fill:black;fill-opacity:1;"/>
</g>
</g>
</svg>
