<svg width="40" height="40" viewBox="0 0 40 40" fill="none" xmlns="http://www.w3.org/2000/svg">
<path d="M8.33398 18.334C10.1725 18.334 11.6673 16.8392 11.6673 15.0007C11.6673 13.1621 10.1725 11.6673 8.33398 11.6673C6.49544 11.6673 5.00065 13.1621 5.00065 15.0007C5.00065 16.8392 6.49544 18.334 8.33398 18.334ZM31.6673 18.334C33.5059 18.334 35.0007 16.8392 35.0007 15.0007C35.0007 13.1621 33.5059 11.6673 31.6673 11.6673C29.8288 11.6673 28.334 13.1621 28.334 15.0007C28.334 16.8392 29.8288 18.334 31.6673 18.334ZM33.334 20.0007H30.0007C29.084 20.0007 28.2559 20.3704 27.6517 20.9694C29.7507 22.1204 31.2402 24.1986 31.5632 26.6673H35.0007C35.9225 26.6673 36.6673 25.9225 36.6673 25.0007V23.334C36.6673 21.4954 35.1725 20.0007 33.334 20.0007ZM20.0007 20.0007C23.2246 20.0007 25.834 17.3913 25.834 14.1673C25.834 10.9434 23.2246 8.33398 20.0007 8.33398C16.7767 8.33398 14.1673 10.9434 14.1673 14.1673C14.1673 17.3913 16.7767 20.0007 20.0007 20.0007ZM24.0007 21.6673H23.5684C22.485 22.1882 21.2819 22.5007 20.0007 22.5007C18.7194 22.5007 17.5215 22.1882 16.4329 21.6673H16.0007C12.6882 21.6673 10.0007 24.3548 10.0007 27.6673V29.1673C10.0007 30.5475 11.1204 31.6673 12.5007 31.6673H27.5007C28.8809 31.6673 30.0007 30.5475 30.0007 29.1673V27.6673C30.0007 24.3548 27.3132 21.6673 24.0007 21.6673ZM12.3496 20.9694C11.7454 20.3704 10.9173 20.0007 10.0007 20.0007H6.66732C4.82878 20.0007 3.33398 21.4954 3.33398 23.334V25.0007C3.33398 25.9225 4.07878 26.6673 5.00065 26.6673H8.43294C8.76107 24.1986 10.2507 22.1204 12.3496 20.9694Z" fill="#1B1C17" style="fill:#1B1C17;fill:color(display-p3 0.1059 0.1098 0.0902);fill-opacity:1;"/>
</svg>
