<svg width="24" height="24" viewBox="0 0 24 24" fill="none" xmlns="http://www.w3.org/2000/svg">
<g clip-path="url(#clip0_20879_66704)">
<path d="M20.666 5.33398H14.666V22.0007H21.9993V6.66732C21.9993 6.3137 21.8589 5.97456 21.6088 5.72451C21.3588 5.47446 21.0196 5.33398 20.666 5.33398ZM17.3327 16.6673H15.9993V15.334H17.3327V16.6673ZM17.3327 13.334H15.9993V12.0007H17.3327V13.334ZM17.3327 10.0007H15.9993V8.66732H17.3327V10.0007ZM19.9993 16.6673H18.666V15.334H19.9993V16.6673ZM19.9993 13.334H18.666V12.0007H19.9993V13.334ZM19.9993 10.0007H18.666V8.66732H19.9993V10.0007Z" fill="#1B1C17" style="fill:#1B1C17;fill:color(display-p3 0.1059 0.1098 0.0902);fill-opacity:1;"/>
<path d="M11.9193 2H4.07935C3.70451 2 3.34502 2.1489 3.07997 2.41396C2.81492 2.67901 2.66602 3.03849 2.66602 3.41333V22H5.99935V20H9.99935V22H13.3327V3.41333C13.3327 3.03849 13.1838 2.67901 12.9187 2.41396C12.6537 2.1489 12.2942 2 11.9193 2ZM5.99935 16.6667H4.66602V15.3333H5.99935V16.6667ZM5.99935 13.3333H4.66602V12H5.99935V13.3333ZM5.99935 10H4.66602V8.66667H5.99935V10ZM5.99935 6.66667H4.66602V5.33333H5.99935V6.66667ZM8.66602 16.6667H7.33268V15.3333H8.66602V16.6667ZM8.66602 13.3333H7.33268V12H8.66602V13.3333ZM8.66602 10H7.33268V8.66667H8.66602V10ZM8.66602 6.66667H7.33268V5.33333H8.66602V6.66667ZM11.3327 16.6667H9.99935V15.3333H11.3327V16.6667ZM11.3327 13.3333H9.99935V12H11.3327V13.3333ZM11.3327 10H9.99935V8.66667H11.3327V10ZM11.3327 6.66667H9.99935V5.33333H11.3327V6.66667Z" fill="#1B1C17" style="fill:#1B1C17;fill:color(display-p3 0.1059 0.1098 0.0902);fill-opacity:1;"/>
</g>
<defs>
<clipPath id="clip0_20879_66704">
<rect width="24" height="24" fill="white" style="fill:white;fill-opacity:1;"/>
</clipPath>
</defs>
</svg>
