<svg width="80" height="80" viewBox="0 0 80 80" fill="none" xmlns="http://www.w3.org/2000/svg">
<rect width="80" height="80" rx="40" fill="#E6F0FC" style="fill:#E6F0FC;fill:color(display-p3 0.9020 0.9412 0.9882);fill-opacity:1;"/>
<path d="M32.4071 40.0007C32.3922 38.9942 32.5775 37.9948 32.9524 37.0605C33.3273 36.1263 33.8842 35.2759 34.5907 34.5589C35.2972 33.8418 36.1392 33.2724 37.0678 32.8837C37.9964 32.4951 38.9929 32.2949 39.9996 32.2949C41.0062 32.2949 42.0028 32.4951 42.9314 32.8837C43.86 33.2724 44.702 33.8418 45.4085 34.5589C46.115 35.2759 46.6719 36.1263 47.0468 37.0605C47.4216 37.9948 47.607 38.9942 47.5921 40.0007C47.5505 41.9866 46.7324 43.8772 45.3132 45.2669C43.894 46.6567 41.9867 47.435 40.0004 47.435C38.0141 47.435 36.1068 46.6567 34.6877 45.2669C33.2685 43.8772 32.4504 41.9866 32.4088 40.0007M40.0004 36.4841C39.0673 36.4841 38.1724 36.8548 37.5126 37.5146C36.8528 38.1744 36.4821 39.0693 36.4821 40.0024C36.4821 40.9355 36.8528 41.8304 37.5126 42.4903C38.1724 43.1501 39.0673 43.5208 40.0004 43.5208C40.9335 43.5208 41.8284 43.1501 42.4883 42.4903C43.1481 41.8304 43.5188 40.9355 43.5188 40.0024C43.5188 39.0693 43.1481 38.1744 42.4883 37.5146C41.8284 36.8548 40.9335 36.4841 40.0004 36.4841Z" fill="#0668E1" style="fill:#0668E1;fill:color(display-p3 0.0235 0.4078 0.8824);fill-opacity:1;"/>
<path d="M39.9974 58.3346C29.8724 58.3346 21.6641 50.1263 21.6641 40.0013C21.6641 29.8763 29.8724 21.668 39.9974 21.668C50.1224 21.668 58.3307 29.8763 58.3307 40.0013C58.3307 50.1263 50.1224 58.3346 39.9974 58.3346ZM41.6641 29.2013V27.2246H38.3307V29.2013C36.0357 29.5563 33.9133 30.6329 32.2712 32.2751C30.629 33.9172 29.5524 36.0396 29.1974 38.3346H27.2191V41.668H29.1974C29.5524 43.963 30.629 46.0854 32.2712 47.7275C33.9133 49.3697 36.0357 50.4463 38.3307 50.8013V52.7796H41.6641V50.8013C43.9591 50.4463 46.0815 49.3697 47.7236 47.7275C49.3658 46.0854 50.4424 43.963 50.7974 41.668H52.7741V38.3346H50.7974C50.4424 36.0396 49.3658 33.9172 47.7236 32.2751C46.0815 30.6329 43.9591 29.5563 41.6641 29.2013Z" fill="#0668E1" style="fill:#0668E1;fill:color(display-p3 0.0235 0.4078 0.8824);fill-opacity:1;"/>
</svg>
