<svg width="24" height="24" viewBox="0 0 24 24" fill="none" xmlns="http://www.w3.org/2000/svg">
<path d="M11 5H8L12 1L16 5H13V9.43C12.25 9.89 11.58 10.46 11 11.12V5ZM22 11L18 7V10C16.2631 9.92857 14.5656 10.5303 13.2614 11.6798C11.9573 12.8293 11.1472 14.4378 11 16.17C10.2502 16.4362 9.6365 16.9889 9.29346 17.7068C8.95043 18.4247 8.90603 19.2494 9.17 20C9.43622 20.7498 9.98887 21.3635 10.7068 21.7065C11.4247 22.0496 12.2494 22.094 13 21.83C13.7492 21.5629 14.3622 21.0101 14.7051 20.2925C15.0479 19.5749 15.0929 18.7507 14.83 18C14.53 17.14 13.85 16.47 13 16.17C13.47 12.17 17.47 11.97 17.95 11.97V14.97L22 11ZM10.63 11.59C9.3032 10.5658 7.67608 10.0071 6 10V7L2 11L6 15V12C7.34 12.03 8.63 12.5 9.64 13.4C9.89 12.76 10.22 12.15 10.63 11.59Z" fill="#2C2C2C" style="fill:#2C2C2C;fill:color(display-p3 0.1725 0.1725 0.1725);fill-opacity:1;"/>
</svg>
