<svg width="80" height="80" viewBox="0 0 80 80" fill="none" xmlns="http://www.w3.org/2000/svg">
<rect width="80" height="80" rx="40" fill="#E6F0FC" style="fill:#E6F0FC;fill:color(display-p3 0.9020 0.9412 0.9882);fill-opacity:1;"/>
<path d="M40.0673 30.0362C45.4113 30.0308 49.7227 34.4035 49.7248 39.832C49.7269 45.2606 45.4166 49.6387 40.0737 49.6354C34.7478 49.6322 30.4471 45.2682 30.4375 39.858C30.4279 34.4262 34.7265 30.0416 40.0684 30.0352L40.0673 30.0362ZM40.0993 47.8104C44.4287 47.7899 47.9268 44.2264 47.9268 39.8375C47.9268 35.4345 44.3862 31.8439 40.0609 31.8634C35.7187 31.8829 32.194 35.4907 32.2334 39.8764C32.2728 44.2826 35.7911 47.832 40.0993 47.8104Z" fill="#0668E1" style="fill:#0668E1;fill:color(display-p3 0.0235 0.4078 0.8824);fill-opacity:1;"/>
<path d="M38.249 52.1426V50.2754H41.9153V52.1426C42.3528 52.1426 42.752 52.1069 43.1406 52.1577C43.346 52.1848 43.6303 52.32 43.6984 52.4845C43.7676 52.6511 43.6824 52.9767 43.5483 53.1227C42.5711 54.1872 41.5672 55.2268 40.5655 56.2686C40.2206 56.6278 39.947 56.63 39.6095 56.2794C38.6078 55.2387 37.6146 54.1883 36.6139 53.1454C36.4191 52.9421 36.2892 52.6911 36.4606 52.4628C36.583 52.3005 36.8364 52.1837 37.044 52.1567C37.4208 52.108 37.8073 52.1426 38.249 52.1426Z" fill="#0668E1" style="fill:#0668E1;fill:color(display-p3 0.0235 0.4078 0.8824);fill-opacity:1;"/>
<path d="M41.9159 27.5322V29.3994H38.2645V27.5322C37.827 27.5322 37.4353 27.5257 37.0435 27.5344C36.7667 27.5409 36.4931 27.4716 36.4474 27.186C36.4144 26.9826 36.4868 26.6906 36.623 26.5424C37.6013 25.4778 38.6041 24.4382 39.6069 23.3975C39.9465 23.0449 40.219 23.047 40.5629 23.4051C41.5646 24.4469 42.5685 25.4865 43.5457 26.551C43.6798 26.697 43.7682 27.0216 43.699 27.1882C43.6309 27.3526 43.3466 27.49 43.1422 27.5171C42.7548 27.5679 42.3556 27.5322 41.918 27.5322H41.9159Z" fill="#0668E1" style="fill:#0668E1;fill:color(display-p3 0.0235 0.4078 0.8824);fill-opacity:1;"/>
<path d="M27.9718 37.9654H29.8081V41.689H27.9718C27.9718 42.1347 28.0058 42.5382 27.9579 42.9309C27.9324 43.1419 27.811 43.3972 27.6492 43.5194C27.4225 43.6904 27.1765 43.553 26.9785 43.3561C25.9619 42.3489 24.9389 41.3493 23.9233 40.3421C23.5539 39.9765 23.5518 39.7039 23.9159 39.3415C24.9314 38.3332 25.9545 37.3347 26.9711 36.3265C27.1691 36.1307 27.415 35.9792 27.6386 36.1512C27.8068 36.281 27.927 36.5504 27.9579 36.7733C28.009 37.1421 27.9718 37.5251 27.9718 37.9654Z" fill="#0668E1" style="fill:#0668E1;fill:color(display-p3 0.0235 0.4078 0.8824);fill-opacity:1;"/>
<path d="M52.187 37.9866C52.187 37.5073 52.154 37.1016 52.2008 36.7046C52.2243 36.5077 52.3541 36.2243 52.5053 36.167C52.6799 36.0999 52.9971 36.167 53.1376 36.3C54.1947 37.3018 55.2273 38.3306 56.261 39.3583C56.5953 39.6915 56.6006 39.9739 56.2727 40.3006C55.2401 41.3294 54.2075 42.3582 53.1504 43.3599C53.0067 43.4962 52.6863 43.5817 52.5223 43.5114C52.3605 43.4411 52.2285 43.1522 52.2008 42.9434C52.1508 42.5594 52.187 42.1645 52.187 41.7134H50.3496V37.9866H52.187Z" fill="#0668E1" style="fill:#0668E1;fill:color(display-p3 0.0235 0.4078 0.8824);fill-opacity:1;"/>
<path d="M47.238 39.8442C47.2337 43.8697 44.0145 47.1259 40.0513 47.1118C36.1061 47.0978 32.9157 43.8394 32.9199 39.8291C32.9242 35.8015 36.1423 32.5474 40.1056 32.5626C44.0507 32.5766 47.2411 35.834 47.2369 39.8442H47.238ZM40.063 34.0587C38.0723 34.0684 36.4191 35.7009 36.402 37.6741C36.3978 38.1447 36.6266 38.4411 37.0152 38.4682C37.4144 38.4963 37.7008 38.2107 37.7476 37.7369C37.7561 37.6568 37.7551 37.5746 37.7625 37.4945C37.8903 36.2461 39.0612 35.2844 40.278 35.4261C41.3596 35.5527 42.1857 36.3056 42.3751 37.3377C42.5763 38.4379 42.0686 39.4753 41.0338 39.9686C39.9885 40.4684 39.4668 41.2971 39.4104 42.4492C39.387 42.9209 39.618 43.2173 40.0087 43.2541C40.4196 43.2941 40.7336 43.0291 40.7475 42.5488C40.7688 41.838 41.1211 41.4248 41.7311 41.1251C43.2821 40.3624 44.0624 38.6023 43.6547 36.8779C43.264 35.2271 41.7641 34.05 40.0619 34.0587H40.063ZM40.0694 45.6135C40.4739 45.6189 40.7858 45.3074 40.7794 44.9039C40.773 44.5274 40.4611 44.2115 40.0896 44.2061C39.7021 44.2007 39.3753 44.5306 39.3806 44.9233C39.3849 45.3106 39.6819 45.6081 40.0694 45.6125V45.6135Z" fill="#0668E1" style="fill:#0668E1;fill:color(display-p3 0.0235 0.4078 0.8824);fill-opacity:1;"/>
<path d="M40.0642 34.0586C41.7664 34.05 43.2664 35.227 43.6571 36.8778C44.0658 38.6023 43.2855 40.3624 41.7334 41.125C41.1224 41.4247 40.77 41.838 40.7498 42.5487C40.736 43.0279 40.4219 43.293 40.011 43.254C39.6203 43.2162 39.3893 42.9208 39.4127 42.4492C39.4692 41.2981 39.9897 40.4684 41.0362 39.9686C42.0698 39.4753 42.5787 38.4378 42.3775 37.3376C42.188 36.3056 41.363 35.5526 40.2803 35.4261C39.0636 35.2833 37.8926 36.2461 37.7648 37.4945C37.7563 37.5745 37.7574 37.6567 37.7499 37.7368C37.702 38.2117 37.4157 38.4962 37.0175 38.4681C36.629 38.4411 36.4001 38.1446 36.4044 37.6741C36.4214 35.7019 38.0746 34.0695 40.0653 34.0586H40.0642Z" fill="white" style="fill:white;fill-opacity:1;"/>
<path d="M40.0697 45.6135C39.6822 45.608 39.3852 45.3116 39.3809 44.9243C39.3766 44.5316 39.7024 44.2017 40.0899 44.2071C40.4614 44.2125 40.7733 44.5284 40.7797 44.9049C40.7861 45.3084 40.4742 45.6189 40.0697 45.6145V45.6135Z" fill="white" style="fill:white;fill-opacity:1;"/>
</svg>
