<svg width="60" height="60" viewBox="0 0 60 60" fill="none" xmlns="http://www.w3.org/2000/svg">
<rect x="0.454545" y="0.454545" width="59.0909" height="59.0909" rx="12.2727" fill="#F2F8FF" style="fill:#F2F8FF;fill:color(display-p3 0.9490 0.9725 1.0000);fill-opacity:1;"/>
<rect x="0.454545" y="0.454545" width="59.0909" height="59.0909" rx="12.2727" stroke="#0668E1" style="stroke:#0668E1;stroke:color(display-p3 0.0235 0.4078 0.8824);stroke-opacity:1;" stroke-width="0.909091"/>
<path d="M21.1001 30.2288C21.7566 28.5621 22.546 26.9586 23.4683 25.4182C24.3905 23.8778 25.4319 22.4258 26.5925 21.0621L24.6228 20.6455C24.1178 20.5445 23.6253 20.5697 23.1455 20.7212C22.6657 20.8727 22.2491 21.1253 21.8955 21.4788L17.1228 26.2515C16.744 26.6303 16.5986 27.0849 16.6864 27.6152C16.7743 28.1455 17.0713 28.5116 17.5774 28.7136L21.1001 30.2288ZM43.3728 15.4561C40.696 15.3298 38.1521 15.8475 35.741 17.0091C33.3299 18.1707 31.1768 19.6985 29.2819 21.5924C28.0698 22.8046 27.0026 24.1177 26.0804 25.5318C25.1582 26.946 24.3572 28.4359 23.6774 30.0015C23.5511 30.3298 23.488 30.6647 23.488 31.0061C23.488 31.3475 23.6142 31.6439 23.8667 31.8955L28.6016 36.6303C28.8541 36.8828 29.1511 37.0091 29.4925 37.0091C29.8339 37.0091 30.1683 36.946 30.4955 36.8197C32.0612 36.1379 33.5511 35.3359 34.9652 34.4136C36.3794 33.4914 37.6925 32.4248 38.9046 31.2136C40.7986 29.3197 42.3263 27.1672 43.488 24.7561C44.6496 22.345 45.1667 19.8005 45.0395 17.1227C45.0395 16.9207 44.989 16.7187 44.888 16.5167C44.787 16.3147 44.6607 16.1379 44.5092 15.9864C44.3577 15.8349 44.1809 15.7086 43.9789 15.6076C43.7769 15.5066 43.5748 15.4561 43.3728 15.4561ZM32.8804 24.6046C32.8804 23.7581 33.1708 23.0445 33.7516 22.4636C34.3324 21.8828 35.046 21.5924 35.8925 21.5924C36.739 21.5924 37.4521 21.8828 38.0319 22.4636C38.6117 23.0445 38.9021 23.7581 38.9031 24.6046C38.9041 25.451 38.6137 26.1641 38.0319 26.7439C37.4501 27.3237 36.7369 27.6141 35.8925 27.6152C35.0481 27.6162 34.3344 27.3258 33.7516 26.7439C33.1688 26.1621 32.8784 25.449 32.8804 24.6046ZM30.2667 39.3955L31.7819 42.9182C31.9839 43.4232 32.3501 43.7263 32.8804 43.8273C33.4107 43.9283 33.8652 43.7894 34.244 43.4106L39.0168 38.6379C39.3703 38.2844 39.6228 37.8616 39.7743 37.3697C39.9258 36.8778 39.9511 36.3788 39.8501 35.8727L39.4713 33.903C38.0824 35.0647 36.6243 36.1066 35.0971 37.0288C33.5698 37.951 31.9597 38.7399 30.2667 39.3955ZM17.9561 36.1379C18.84 35.254 19.9132 34.8056 21.1758 34.7924C22.4385 34.7793 23.5117 35.2152 24.3955 36.1C25.2794 36.9849 25.7213 38.0581 25.7213 39.3197C25.7213 40.5813 25.2794 41.6546 24.3955 42.5394C23.1834 43.7515 21.7501 44.4712 20.0955 44.6985C18.441 44.9258 16.7809 45.153 15.1152 45.3803C15.3425 43.7136 15.5763 42.0535 15.8167 40.4C16.0572 38.7465 16.7703 37.3258 17.9561 36.1379Z" fill="#0668E1" style="fill:#0668E1;fill:color(display-p3 0.0235 0.4078 0.8824);fill-opacity:1;"/>
</svg>
