<svg width="155" height="155" viewBox="0 0 155 155" fill="none" xmlns="http://www.w3.org/2000/svg">
<g filter="url(#filter0_d_20717_77600)">
<rect x="27.2734" y="27.2734" width="100" height="100" rx="20" fill="#0668E1" style="fill:#0668E1;fill:color(display-p3 0.0235 0.4078 0.8824);fill-opacity:1;" shape-rendering="crispEdges"/>
<g clip-path="url(#clip0_20717_77600)">
<path d="M78.0734 62.4851L78.6362 62.8461C78.9382 63.0404 79.3224 63.0416 79.6255 62.8509L82.3596 61.1333C82.4184 61.0961 82.4548 61.0301 82.4548 60.9594V59.4552C82.4548 58.7631 82.0494 58.1382 81.4244 57.8683L76.5836 55.7788C75.4709 55.2978 74.2396 56.1315 74.2396 57.3645V59.6639C74.2396 59.7971 74.2243 59.9266 74.1961 60.0502C74.1926 60.0645 74.1914 60.0789 74.1914 60.0933C74.1938 60.7267 74.1949 61.3588 74.1949 61.9597V71.2112C74.1949 71.2196 74.1949 71.2292 74.1961 71.2376C74.2502 71.7894 74.5627 72.2836 75.0397 72.5594L79.9334 75.3998C80.4539 75.7021 81.093 75.6997 81.6123 75.3938C81.8732 75.2403 82.0835 75.022 82.2292 74.7641C82.3749 74.5062 82.4548 74.2111 82.4548 73.9029V70.1641C82.4548 70.0046 82.2832 69.9062 82.1493 69.989L79.4939 71.649C79.2683 71.7906 78.9863 71.7966 78.7549 71.667L77.4319 70.9246C77.1323 70.7566 76.9466 70.4352 76.9466 70.0861C76.9466 69.4948 77.5835 69.135 78.0734 69.4492L78.742 69.8786C78.9793 70.0298 79.2813 70.0322 79.5198 69.8822L82.3596 68.0974C82.4184 68.0602 82.4548 67.9943 82.4548 67.9235V63.2C82.4548 63.0404 82.2832 62.9421 82.1493 63.0248L79.4939 64.6849C79.2683 64.8264 78.9863 64.8324 78.7549 64.7029L77.4319 63.9604C77.1323 63.7925 76.9466 63.471 76.9466 63.122C76.9466 62.5307 77.5835 62.1708 78.0734 62.4851Z" fill="white" style="fill:white;fill-opacity:1;"/>
<path d="M92.9354 50.7039C90.7089 48.4165 88.0571 47.2734 84.9811 47.2734H68.9443C63.0508 47.2734 58.2734 52.1505 58.2734 58.1658V104.227C58.2734 104.416 58.2734 104.633 58.2734 104.862C58.2723 106.184 59.318 107.259 60.6127 107.266C61.199 107.27 61.7642 107.272 62.132 107.272C62.6748 107.272 64.3385 107.265 65.8107 107.258C67.2277 107.251 68.3721 106.078 68.3721 104.631V104.517V103.734C68.3721 103.733 68.3721 103.731 68.3721 103.729V103.324C68.3721 103.315 68.3721 103.309 68.3721 103.304V103.254C68.3721 103.22 68.3721 103.158 68.3721 103.026V67.6213C68.3721 66.2587 68.318 65.1576 68.2088 64.3191C68.1007 63.4807 67.8457 63.0609 67.4462 63.0609C67.1924 63.0609 66.7565 63.2972 66.1397 63.7686L63.9355 65.6194C63.8497 65.6913 63.7252 65.6829 63.6476 65.6026C63.4878 65.4346 63.3386 65.1912 63.1988 64.8697C63.0179 64.3983 62.9274 64.0313 62.9274 63.7686C62.9274 63.4279 62.9579 63.2012 63.0202 63.0861C63.0296 63.0681 63.0425 63.0537 63.0566 63.0405C65.1116 61.0506 66.9163 59.3281 68.4719 57.8756C68.4766 57.8708 68.4813 57.8672 68.4849 57.8624L73.422 52.3844C73.9155 51.8626 74.6756 51.7127 75.3242 52.009L84.9 56.3798C85.5074 56.6569 85.8987 57.2722 85.8987 57.9523V73.6642C85.8987 74.2664 85.5909 74.8241 85.088 75.1372L81.6466 77.2698C81.1331 77.5877 80.4928 77.6045 79.9652 77.3118L74.5205 74.2951C74.5205 74.2951 74.5182 74.2951 74.517 74.2939C74.3737 74.2148 74.1998 74.3275 74.1998 74.4943V84.6046C74.1998 84.7294 74.2985 84.8313 74.4219 84.8313H84.9822C88.0888 84.8313 90.7477 83.7038 92.9589 81.4464C95.169 79.1902 96.2746 76.4758 96.2746 73.3032V58.8927C96.2746 55.7213 95.1608 52.9913 92.9366 50.7039H92.9354Z" fill="white" style="fill:white;fill-opacity:1;"/>
</g>
</g>
<defs>
<filter id="filter0_d_20717_77600" x="0.000710964" y="0.000710964" width="154.545" height="154.545" filterUnits="userSpaceOnUse" color-interpolation-filters="sRGB">
<feFlood flood-opacity="0" result="BackgroundImageFix"/>
<feColorMatrix in="SourceAlpha" type="matrix" values="0 0 0 0 0 0 0 0 0 0 0 0 0 0 0 0 0 0 127 0" result="hardAlpha"/>
<feMorphology radius="4.54545" operator="dilate" in="SourceAlpha" result="effect1_dropShadow_20717_77600"/>
<feOffset/>
<feGaussianBlur stdDeviation="11.3636"/>
<feComposite in2="hardAlpha" operator="out"/>
<feColorMatrix type="matrix" values="0 0 0 0 0.0235294 0 0 0 0 0.407843 0 0 0 0 0.882353 0 0 0 0.1 0"/>
<feBlend mode="normal" in2="BackgroundImageFix" result="effect1_dropShadow_20717_77600"/>
<feBlend mode="normal" in="SourceGraphic" in2="effect1_dropShadow_20717_77600" result="shape"/>
</filter>
<clipPath id="clip0_20717_77600">
<rect width="38" height="60" fill="white" style="fill:white;fill-opacity:1;" transform="translate(58.2734 47.2734)"/>
</clipPath>
</defs>
</svg>
