<svg width="40" height="40" viewBox="0 0 40 40" fill="none" xmlns="http://www.w3.org/2000/svg">
<rect width="40" height="40" rx="8" fill="#E6F0FC" style="fill:#E6F0FC;fill:color(display-p3 0.9020 0.9412 0.9882);fill-opacity:1;"/>
<g clip-path="url(#clip0_20884_67473)">
<path d="M20.4221 13.4267L20.7183 13.5872C20.8772 13.6736 21.0794 13.6741 21.239 13.5893L22.678 12.8259C22.7089 12.8094 22.728 12.7801 22.728 12.7486V12.0801C22.728 11.7725 22.5147 11.4948 22.1857 11.3748L19.6379 10.4462C19.0523 10.2324 18.4043 10.6029 18.4043 11.1509V12.1729C18.4043 12.2321 18.3962 12.2896 18.3814 12.3446C18.3795 12.351 18.3789 12.3573 18.3789 12.3637C18.3801 12.6452 18.3808 12.9262 18.3808 13.1932V17.305C18.3808 17.3088 18.3808 17.313 18.3814 17.3168C18.4098 17.562 18.5743 17.7816 18.8254 17.9042L21.401 19.1666C21.6749 19.301 22.0113 19.2999 22.2847 19.164C22.4219 19.0957 22.5326 18.9987 22.6093 18.8841C22.686 18.7695 22.728 18.6383 22.728 18.5013V16.8396C22.728 16.7687 22.6378 16.725 22.5673 16.7618L21.1697 17.4996C21.051 17.5625 20.9026 17.5652 20.7807 17.5076L20.0844 17.1776C19.9267 17.103 19.829 16.9601 19.829 16.805C19.829 16.5422 20.1642 16.3822 20.4221 16.5219L20.7739 16.7128C20.8988 16.7799 21.0578 16.781 21.1833 16.7144L22.678 15.9211C22.7089 15.9046 22.728 15.8753 22.728 15.8438V13.7445C22.728 13.6736 22.6378 13.6299 22.5673 13.6666L21.1697 14.4044C21.051 14.4674 20.9026 14.47 20.7807 14.4124L20.0844 14.0825C19.9267 14.0078 19.829 13.865 19.829 13.7098C19.829 13.447 20.1642 13.2871 20.4221 13.4267Z" fill="#0668E1" style="fill:#0668E1;fill:color(display-p3 0.0235 0.4078 0.8824);fill-opacity:1;"/>
<path d="M28.2432 8.19068C27.0713 7.17406 25.6756 6.66602 24.0566 6.66602H15.6162C12.5144 6.66602 10 8.83359 10 11.5071V31.9786C10 32.0628 10 32.1593 10 32.2612C9.99938 32.8486 10.5497 33.3263 11.2312 33.3295C11.5398 33.3311 11.8372 33.3321 12.0308 33.3321C12.3165 33.3321 13.1921 33.3289 13.967 33.3258C14.7128 33.3226 15.3151 32.8012 15.3151 32.1583V32.1076V31.7595C15.3151 31.759 15.3151 31.7584 15.3151 31.7574V31.5772C15.3151 31.5735 15.3151 31.5708 15.3151 31.5687V31.5463C15.3151 31.5313 15.3151 31.5036 15.3151 31.445V15.7095C15.3151 15.1039 15.2866 14.6145 15.2291 14.2419C15.1722 13.8692 15.038 13.6827 14.8278 13.6827C14.6942 13.6827 14.4648 13.7877 14.1401 13.9972L12.98 14.8198C12.9349 14.8517 12.8693 14.848 12.8285 14.8123C12.7444 14.7377 12.6659 14.6294 12.5923 14.4866C12.4971 14.2771 12.4494 14.1139 12.4494 13.9972C12.4494 13.8458 12.4655 13.745 12.4983 13.6939C12.5032 13.6859 12.51 13.6795 12.5175 13.6736C13.599 12.7892 14.5489 12.0237 15.3676 11.3781C15.3701 11.3759 15.3726 11.3743 15.3744 11.3722L17.9729 8.93755C18.2326 8.70565 18.6327 8.63901 18.9741 8.77069L24.014 10.7133C24.3337 10.8364 24.5396 11.1099 24.5396 11.4122V18.3953C24.5396 18.6629 24.3776 18.9108 24.1129 19.0499L22.3017 19.9977C22.0314 20.139 21.6944 20.1465 21.4167 20.0164L18.5511 18.6757C18.5511 18.6757 18.5499 18.6757 18.5493 18.6751C18.4738 18.6399 18.3823 18.6901 18.3823 18.7642V23.2576C18.3823 23.3131 18.4342 23.3584 18.4992 23.3584H24.0573C25.6923 23.3584 27.0917 22.8573 28.2555 21.854C29.4187 20.8512 30.0006 19.6448 30.0006 18.2348V11.8301C30.0006 10.4206 29.4144 9.2073 28.2438 8.19068H28.2432Z" fill="#0668E1" style="fill:#0668E1;fill:color(display-p3 0.0235 0.4078 0.8824);fill-opacity:1;"/>
</g>
<defs>
<clipPath id="clip0_20884_67473">
<rect width="20" height="26.6667" fill="white" style="fill:white;fill-opacity:1;" transform="translate(10 6.66602)"/>
</clipPath>
</defs>
</svg>
