<svg width="40" height="40" viewBox="0 0 40 40" fill="none" xmlns="http://www.w3.org/2000/svg">
<rect width="40" height="40" rx="8" fill="#E6F0FC" style="fill:#E6F0FC;fill:color(display-p3 0.9020 0.9412 0.9882);fill-opacity:1;"/>
<g clip-path="url(#clip0_20884_67467)">
<path d="M20.5295 30.668C19.6256 30.668 18.8511 30.3817 18.2236 29.8201C17.5697 29.2319 17.2231 28.444 17.2231 27.5385C17.2231 26.6329 17.5697 25.845 18.2236 25.2568C18.3201 25.1702 18.421 25.0903 18.5242 25.0149H17.708V23.9051C17.708 22.5912 17.8594 21.5591 18.1731 20.7468C18.5 19.9011 19.031 19.162 19.755 18.5494C20.2706 18.1122 20.659 17.7194 20.9091 17.3798C21.0693 17.1623 21.1461 16.9425 21.1461 16.6873C21.1461 15.9926 21.0078 15.9926 20.7073 15.9926C20.5405 15.9926 20.4725 16.037 20.4001 16.1235C20.275 16.2744 20.2048 16.523 20.196 16.8604L20.1675 17.9413H14L14.011 16.8204C14.0307 14.9117 14.6538 13.3846 15.8628 12.2838C17.041 11.2117 18.6712 10.668 20.7073 10.668C22.7192 10.668 24.3297 11.1696 25.4947 12.1595C26.7146 13.196 27.3333 14.6609 27.3333 16.5097C27.3333 17.3376 27.1644 18.1078 26.8331 18.798C26.5193 19.4528 26.0235 20.1164 25.3587 20.769L23.983 22.0651C23.7285 22.3115 23.5486 22.5645 23.4564 22.8042C23.384 22.9929 23.2963 23.3414 23.2809 23.9362L23.2524 25.0171H22.5349C22.638 25.0903 22.739 25.1702 22.8355 25.2568C23.4893 25.845 23.836 26.6351 23.836 27.5385C23.836 28.444 23.4893 29.2319 22.8355 29.8201C22.208 30.3817 21.4335 30.668 20.5295 30.668Z" fill="#96C5FF" style="fill:#96C5FF;fill:color(display-p3 0.5875 0.7721 1.0000);fill-opacity:1;"/>
<path d="M18.8044 23.9047C18.8044 22.7417 18.9339 21.8228 19.195 21.1503C19.4539 20.4778 19.8751 19.8941 20.4587 19.3991C21.0424 18.9042 21.4834 18.4536 21.7884 18.043C22.0911 17.6324 22.2425 17.1818 22.2425 16.6869C22.2425 15.4839 21.7313 14.8824 20.7067 14.8824C20.235 14.8824 19.8532 15.0578 19.5614 15.4085C19.2696 15.7591 19.116 16.2319 19.1006 16.8312H15.1074C15.1228 15.2376 15.6186 13.9969 16.595 13.109C17.5714 12.2212 18.9405 11.7773 20.7045 11.7773C22.4597 11.7773 23.8201 12.188 24.7854 13.007C25.7508 13.8282 26.2313 14.9956 26.2313 16.5071C26.2313 17.1685 26.1019 17.77 25.8408 18.3116C25.5819 18.8531 25.1628 19.408 24.588 19.9718L23.2299 21.2502C22.8437 21.6253 22.576 22.0093 22.4268 22.4044C22.2776 22.7994 22.1943 23.2988 22.1789 23.9047H18.8044ZM18.3195 27.5381C18.3195 26.9477 18.5302 26.4638 18.9514 26.0865C19.3727 25.7092 19.8993 25.5183 20.529 25.5183C21.1587 25.5183 21.6852 25.707 22.1065 26.0865C22.5278 26.4661 22.7384 26.9499 22.7384 27.5381C22.7384 28.1285 22.5278 28.6123 22.1065 28.9896C21.6852 29.3692 21.1587 29.5578 20.529 29.5578C19.8993 29.5578 19.3727 29.3692 18.9514 28.9896C18.5302 28.6101 18.3195 28.1262 18.3195 27.5381Z" fill="#0072FF" style="fill:#0072FF;fill:color(display-p3 0.0000 0.4475 1.0000);fill-opacity:1;"/>
</g>
<defs>
<clipPath id="clip0_20884_67467">
<rect width="23.3333" height="23.3333" fill="white" style="fill:white;fill-opacity:1;" transform="translate(8.33398 8.33398)"/>
</clipPath>
</defs>
</svg>
