<svg width="24" height="24" viewBox="0 0 24 24" fill="none" xmlns="http://www.w3.org/2000/svg">
<g clip-path="url(#clip0_22002_35735)">
<path d="M17 1.59961H7C6.448 1.59961 6 2.04761 6 2.59961V10.5996C6 11.1516 6.448 11.5996 7 11.5996H17C17.552 11.5996 18 11.1516 18 10.5996V2.59961C18 2.04761 17.552 1.59961 17 1.59961ZM9 2.59961C9 2.70961 8.91 2.79961 8.8 2.79961C8.69 2.79961 8.6 2.70961 8.6 2.59961C8.6 2.48961 8.69 2.39961 8.8 2.39961C8.91 2.39961 9 2.48961 9 2.59961ZM8.2 2.59961C8.2 2.70961 8.11 2.79961 8 2.79961C7.89 2.79961 7.8 2.70961 7.8 2.59961C7.8 2.48961 7.89 2.39961 8 2.39961C8.11 2.39961 8.2 2.48961 8.2 2.59961ZM7.2 2.39961C7.31 2.39961 7.4 2.48961 7.4 2.59961C7.4 2.70961 7.31 2.79961 7.2 2.79961C7.09 2.79961 7 2.70961 7 2.59961C7 2.48961 7.09 2.39961 7.2 2.39961ZM17.6 10.5996C17.6 10.9296 17.33 11.1996 17 11.1996H7C6.67 11.1996 6.4 10.9296 6.4 10.5996V3.59961H17.6V10.5996Z" fill="#2C2C2C" style="fill:#2C2C2C;fill:color(display-p3 0.1725 0.1725 0.1725);fill-opacity:1;"/>
<path d="M8.00039 10.4004H16.4004C16.5104 10.4004 16.6004 10.3104 16.6004 10.2004C16.6004 10.0904 16.5104 10.0004 16.4004 10.0004H15.8004V6.80039C15.8004 6.58039 15.6204 6.40039 15.4004 6.40039H15.0004C14.7804 6.40039 14.6004 6.58039 14.6004 6.80039V10.0004H14.2004V7.80039C14.2004 7.58039 14.0204 7.40039 13.8004 7.40039H13.4004C13.1804 7.40039 13.0004 7.58039 13.0004 7.80039V10.0004H12.6004V7.80039C12.6004 7.58039 12.4204 7.40039 12.2004 7.40039H11.8004C11.5804 7.40039 11.4004 7.58039 11.4004 7.80039V10.0004H11.0004V8.80039C11.0004 8.58039 10.8204 8.40039 10.6004 8.40039H10.2004C9.98039 8.40039 9.80039 8.58039 9.80039 8.80039V10.0004H9.40039V9.20039C9.40039 8.98039 9.22039 8.80039 9.00039 8.80039H8.60039C8.38039 8.80039 8.20039 8.98039 8.20039 9.20039V10.0004H8.00039C7.89039 10.0004 7.80039 9.91039 7.80039 9.80039V4.60039C7.80039 4.49039 7.71039 4.40039 7.60039 4.40039C7.49039 4.40039 7.40039 4.49039 7.40039 4.60039V9.80039C7.40039 10.1304 7.67039 10.4004 8.00039 10.4004Z" fill="#2C2C2C" style="fill:#2C2C2C;fill:color(display-p3 0.1725 0.1725 0.1725);fill-opacity:1;"/>
<path d="M8.80127 8.39948C8.83927 8.39948 8.87527 8.38948 8.90927 8.36748L11.6593 6.59948H13.6013C13.6493 6.59948 13.6973 6.58148 13.7333 6.54948L15.3333 5.14948C15.4173 5.07748 15.4253 4.94948 15.3513 4.86748C15.2793 4.78348 15.1513 4.77548 15.0693 4.84948L13.5253 6.19948H11.6013C11.5633 6.19948 11.5253 6.20948 11.4933 6.23148L8.69327 8.03148C8.60127 8.09148 8.57327 8.21548 8.63327 8.30748C8.67127 8.36748 8.73527 8.39948 8.80127 8.39948Z" fill="#2C2C2C" style="fill:#2C2C2C;fill:color(display-p3 0.1725 0.1725 0.1725);fill-opacity:1;"/>
<path d="M3.00755 14.229C3.03395 14.4114 3.03635 14.517 3.06275 14.6154C3.56195 16.4512 4.08036 18.2823 4.55316 20.1254C4.67076 20.5885 4.93956 20.7133 5.34517 20.8045C7.68038 21.3277 10.0132 21.8604 12.3412 22.4124C12.9724 22.5612 13.5196 22.4964 14.0788 22.1364C15.8548 20.9941 17.6548 19.8854 19.4452 18.7647C20.8085 17.9127 22.1717 17.0608 23.5301 16.204C23.9861 15.9161 24.1277 15.5609 23.8709 15.2105C23.1965 14.2818 22.3565 13.6818 20.9813 14.205C20.2037 14.5002 19.462 14.8889 18.694 15.2105C18.238 15.4001 17.9428 15.5873 17.9428 16.2016C17.9452 17.0272 17.242 17.6223 16.2844 17.8071C14.2612 18.1935 12.2212 18.0255 10.186 17.9439C9.90999 17.9319 9.68919 17.7831 9.70359 17.4688C9.71799 17.1472 9.93879 17.0512 10.2316 17.0656C10.7956 17.0896 11.362 17.1424 11.926 17.1256C13.306 17.0848 14.686 17.0224 16.066 16.9432C16.4716 16.9192 16.8028 16.7104 16.9732 16.3144C17.23 15.7097 16.8412 15.0185 16.1524 14.9945C14.7268 14.9441 13.2964 14.9753 11.8684 14.9489C11.4268 14.9417 10.9708 14.9105 10.5508 14.7906C9.56439 14.5098 8.60438 14.1402 7.61798 13.8594C7.11158 13.7154 6.55717 13.5571 6.05077 13.6194C5.04036 13.7394 4.04916 14.0106 3.00755 14.229ZM1.71154 14.0538C1.14034 14.2074 0.672337 14.2986 0.233135 14.4738C0.103534 14.5242 -0.00686655 14.8074 0.000333493 14.9777C0.00993355 15.2537 0.122734 15.5249 0.197135 15.7985C0.729938 17.7471 1.26034 19.6934 1.80034 21.6396C1.93234 22.1124 2.11955 22.2084 2.58995 22.0956C2.87795 22.026 3.16595 21.954 3.45395 21.8748C3.91956 21.7476 4.04436 21.57 3.91476 21.0901C3.32435 18.8966 2.72675 16.7056 2.10755 14.5194C2.05475 14.3322 1.83394 14.193 1.71154 14.0538Z" fill="#2C2C2C" style="fill:#2C2C2C;fill:color(display-p3 0.1725 0.1725 0.1725);fill-opacity:1;"/>
<path d="M3.00977 14.2279C4.04897 14.0096 5.04258 13.7384 6.05538 13.6136C6.56179 13.5512 7.11619 13.7096 7.62259 13.8536C8.609 14.1343 9.569 14.5039 10.5554 14.7847C10.9754 14.9047 11.4314 14.9335 11.873 14.9431C13.301 14.9695 14.729 14.9407 16.157 14.9887C16.8458 15.0127 17.237 15.7062 16.9778 16.3086C16.8074 16.707 16.4762 16.9157 16.0706 16.9373C14.693 17.0165 13.313 17.0789 11.9306 17.1197C11.3666 17.1365 10.8002 17.0837 10.2362 17.0597C9.94341 17.0477 9.7226 17.1437 9.7082 17.4629C9.6938 17.7773 9.91461 17.9285 10.1906 17.9381C12.2258 18.0197 14.2658 18.1876 16.289 17.8013C17.2466 17.6189 17.9499 17.0237 17.9475 16.1958C17.9475 15.5814 18.2427 15.3943 18.6987 15.2047C19.4667 14.8831 20.2083 14.4943 20.9859 14.1991C22.3611 13.676 23.2011 14.2759 23.8755 15.2047C24.1299 15.555 23.9907 15.9102 23.5347 16.1982C22.1739 17.0549 20.8107 17.9045 19.4499 18.7588C17.6594 19.8795 15.8594 20.9882 14.0834 22.1305C13.5242 22.4905 12.977 22.5553 12.3458 22.4065C10.0178 21.8546 7.68499 21.3218 5.34978 20.7986C4.94418 20.7074 4.67538 20.5827 4.55777 20.1195C4.08497 18.2764 3.56657 16.4454 3.06737 14.6095C3.03857 14.5183 3.03617 14.4127 3.00977 14.2279Z" fill="#2C2C2C" style="fill:#2C2C2C;fill:color(display-p3 0.1725 0.1725 0.1725);fill-opacity:1;"/>
<path d="M1.71154 14.0527C1.83394 14.1919 2.05715 14.3311 2.10995 14.5159C2.72915 16.7021 3.32675 18.8932 3.91716 21.0866C4.04676 21.5642 3.92196 21.7442 3.45635 21.8713C3.17075 21.9481 2.88275 22.0201 2.59235 22.0921C2.11955 22.2073 1.93234 22.1089 1.80274 21.6362C1.26274 19.6899 0.732338 17.7437 0.199535 15.795C0.122734 15.5214 0.0123336 15.2502 0.000333493 14.9743C-0.00686655 14.8039 0.103534 14.5207 0.233135 14.4703C0.669937 14.2975 1.14034 14.2063 1.71154 14.0527Z" fill="#2C2C2C" style="fill:#2C2C2C;fill:color(display-p3 0.1725 0.1725 0.1725);fill-opacity:1;"/>
</g>
<defs>
<clipPath id="clip0_22002_35735">
<rect width="24" height="24" fill="white" style="fill:white;fill-opacity:1;"/>
</clipPath>
</defs>
</svg>
