<svg width="24" height="24" viewBox="0 0 24 24" fill="none" xmlns="http://www.w3.org/2000/svg">
<g clip-path="url(#clip0_22002_35746)">
<path d="M23.9536 24C23.953 21.1602 23.9512 18.3211 23.9512 15.4814C23.9512 10.3211 23.953 5.16024 23.9536 0C23.9691 0.0638723 23.9976 0.127745 23.9982 0.191617C24.0007 1.36495 24.0001 2.53892 24.0001 3.71226C24.0001 10.4029 24.0001 17.0935 23.9982 23.7841C23.9982 23.8563 23.9691 23.9278 23.9536 23.9994V24Z" fill="white" style="fill:white;fill-opacity:1;"/>
<path d="M11.8576 19.0706C9.50554 19.0884 7.17331 19.3235 4.86028 19.7623C4.60093 19.8115 4.492 19.7278 4.49138 19.4602C4.4889 18.2389 4.49262 17.0177 4.48828 15.7965C4.48767 15.5876 4.5836 15.5059 4.76805 15.4579C6.62182 14.9719 8.50407 14.6851 10.4123 14.5708C12.3527 14.4545 14.2888 14.5165 16.2113 14.8103C17.3087 14.9783 18.3925 15.237 19.4837 15.4496C19.7047 15.4924 19.7882 15.6093 19.787 15.845C19.779 17.0343 19.7839 18.2236 19.7827 19.4129C19.7827 19.7457 19.6954 19.8121 19.3674 19.7508C16.8847 19.289 14.3829 19.0476 11.8588 19.0706H11.8576Z" fill="#2C2C2C" style="fill:#2C2C2C;fill:color(display-p3 0.1725 0.1725 0.1725);fill-opacity:1;"/>
<path d="M8.61698 14.2458C8.45296 13.655 8.33907 13.1006 8.14348 12.5788C7.94727 12.0537 7.66936 11.5613 7.41992 11.0382C8.12677 10.5157 8.82309 10.0022 9.52808 9.48096C9.69892 9.67833 9.8747 9.86547 10.0282 10.0699C10.0703 10.1261 10.0542 10.2366 10.0517 10.3215C10.0195 11.3179 10.5803 12.1674 11.4877 12.4925C12.3239 12.7921 13.2814 12.4702 13.8286 11.6922C14.0892 11.3218 14.2396 10.9008 14.2142 10.439C14.2012 10.1976 14.2433 10.013 14.4296 9.85334C14.5447 9.75433 14.6246 9.61126 14.7323 9.47266C15.0894 9.73581 15.4403 9.99385 15.7901 10.2525C16.141 10.5112 16.4907 10.7705 16.8509 11.0369C16.3874 12.0748 15.7381 13.0252 15.7523 14.2529C13.3378 13.9737 10.9467 13.9667 8.61574 14.2446L8.61698 14.2458Z" fill="#2C2C2C" style="fill:#2C2C2C;fill:color(display-p3 0.1725 0.1725 0.1725);fill-opacity:1;"/>
<path d="M12.1231 10.2038C10.7262 10.1986 9.58357 9.00424 9.5879 7.55497C9.59285 6.10827 10.746 4.92919 12.1498 4.93557C13.5529 4.94196 14.6912 6.13062 14.685 7.58244C14.6788 9.02915 13.5263 10.2082 12.1231 10.2038Z" fill="#2C2C2C" style="fill:#2C2C2C;fill:color(display-p3 0.1725 0.1725 0.1725);fill-opacity:1;"/>
<path d="M7.20999 10.6077C6.82438 9.81248 6.45363 9.05113 6.08473 8.28913C5.83962 7.78326 5.59823 7.27484 5.35189 6.76961C5.06098 6.17432 5.23057 5.5324 5.76659 5.21432C6.29084 4.90326 6.91846 5.06741 7.25455 5.62438C7.91189 6.7134 8.55869 7.80945 9.20922 8.90294C9.23645 8.94893 9.2575 8.99939 9.29092 9.06837C8.60202 9.57807 7.92055 10.0814 7.20937 10.6071L7.20999 10.6077Z" fill="#2C2C2C" style="fill:#2C2C2C;fill:color(display-p3 0.1725 0.1725 0.1725);fill-opacity:1;"/>
<path d="M17.0592 10.6021C16.3554 10.0822 15.6739 9.5782 14.9727 9.0602C15.1918 8.69102 15.4004 8.33972 15.6096 7.98906C16.0744 7.20854 16.5349 6.42483 17.0053 5.6475C17.3525 5.07329 17.9715 4.89956 18.505 5.21253C19.0479 5.53125 19.2113 6.17317 18.9123 6.78762C18.3237 7.998 17.7394 9.21094 17.1526 10.4226C17.1285 10.4718 17.1025 10.5197 17.0592 10.6021Z" fill="#2C2C2C" style="fill:#2C2C2C;fill:color(display-p3 0.1725 0.1725 0.1725);fill-opacity:1;"/>
<path d="M6.00445 21.6881C5.87942 21.6945 5.82681 21.6996 5.7742 21.7002C4.61675 21.7002 3.4593 21.7015 2.30186 21.7002C1.95091 21.7002 1.86487 21.5521 2.03323 21.2404C2.26658 20.8092 2.4993 20.3768 2.74565 19.9533C2.82054 19.8243 2.81188 19.7349 2.74008 19.6103C2.49188 19.1786 2.25358 18.7404 2.01776 18.3016C1.87168 18.0301 1.96143 17.8743 2.26472 17.8717C2.78959 17.8679 3.31447 17.8756 3.83872 17.8673C3.99656 17.8647 4.03431 17.9273 4.03184 18.078C4.02441 18.5328 4.03493 18.9876 4.02751 19.4424C4.02255 19.7349 4.12468 19.9635 4.33822 20.1552C4.79253 20.5627 5.24004 20.9791 5.6894 21.3924C5.77977 21.4754 5.86828 21.561 6.00383 21.6887L6.00445 21.6881Z" fill="#2C2C2C" style="fill:#2C2C2C;fill:color(display-p3 0.1725 0.1725 0.1725);fill-opacity:1;"/>
<path d="M18.3027 21.6577C18.8208 21.1806 19.3104 20.7073 19.8241 20.2647C20.1293 20.0022 20.2735 19.7045 20.2518 19.2913C20.2277 18.8314 20.2463 18.3696 20.2463 17.8701C20.4728 17.8701 20.6777 17.8701 20.8825 17.8701C21.2527 17.8701 21.6234 17.8676 21.9936 17.8707C22.3235 17.8733 22.4076 18.0247 22.2442 18.3274C22.0072 18.7656 21.7584 19.1974 21.53 19.6406C21.4904 19.7179 21.4904 19.8553 21.5306 19.9325C21.7714 20.3963 22.0332 20.8472 22.2783 21.3084C22.3946 21.5268 22.3018 21.6967 22.0617 21.698C20.8349 21.7031 19.6087 21.6993 18.382 21.698C18.369 21.698 18.356 21.6858 18.3027 21.659V21.6577Z" fill="#2C2C2C" style="fill:#2C2C2C;fill:color(display-p3 0.1725 0.1725 0.1725);fill-opacity:1;"/>
<path d="M5.24147 7.7953C5.14924 7.89685 5.09787 7.99458 5.01926 8.0329C4.31427 8.37653 3.90514 8.93733 3.7863 9.73637C3.77392 9.82068 3.63899 9.94396 3.56348 9.94268C3.48487 9.9414 3.35304 9.81813 3.34066 9.73318C3.22305 8.9335 2.81516 8.37206 2.10832 8.02971C2.03775 7.99585 1.95481 7.88663 1.95915 7.81701C1.9641 7.73398 2.03899 7.61965 2.11327 7.58324C2.81021 7.2428 3.21501 6.68839 3.3388 5.9002C3.35304 5.80759 3.48859 5.73605 3.56843 5.6543C3.64518 5.73797 3.77578 5.81206 3.79126 5.90595C3.91567 6.68392 4.31613 7.2345 5.00255 7.57302C5.08302 7.61262 5.14182 7.70013 5.24209 7.79466L5.24147 7.7953Z" fill="#2C2C2C" style="fill:#2C2C2C;fill:color(display-p3 0.1725 0.1725 0.1725);fill-opacity:1;"/>
<path d="M22.3574 4.2403C22.2924 4.30928 22.2392 4.40573 22.16 4.44405C21.4624 4.78257 21.0576 5.33762 20.9351 6.12644C20.9208 6.21842 20.7834 6.28996 20.703 6.37044C20.6268 6.28549 20.4981 6.21012 20.4826 6.11431C20.3563 5.33762 19.9577 4.78641 19.2701 4.44788C19.1933 4.4102 19.106 4.30225 19.1036 4.22433C19.1011 4.1464 19.1816 4.02696 19.2558 3.99056C19.9627 3.64756 20.3669 3.08293 20.4876 2.28581C20.4999 2.20213 20.6367 2.08014 20.7122 2.08205C20.7908 2.08461 20.9208 2.20788 20.9338 2.29347C21.0514 3.08293 21.4494 3.64501 22.1507 3.97842C22.2417 4.02185 22.3308 4.06784 22.4212 4.11255C22.3995 4.15471 22.3778 4.1975 22.3568 4.23966L22.3574 4.2403Z" fill="#2C2C2C" style="fill:#2C2C2C;fill:color(display-p3 0.1725 0.1725 0.1725);fill-opacity:1;"/>
<path d="M10.5234 10.459C11.6078 11.067 12.6625 11.0722 13.7482 10.4596C13.7265 11.0766 13.4907 11.5257 13.0308 11.8342C12.4608 12.2167 11.8647 12.2251 11.2848 11.861C10.8001 11.5563 10.5501 11.0964 10.5234 10.459Z" fill="#2C2C2C" style="fill:#2C2C2C;fill:color(display-p3 0.1725 0.1725 0.1725);fill-opacity:1;"/>
<path d="M17.2342 19.8815C17.8835 19.9869 18.4981 20.0872 19.1548 20.1938C19.0867 20.2737 19.0539 20.3216 19.0125 20.3599C18.5693 20.7693 18.1286 21.1819 17.6761 21.5792C17.6025 21.6444 17.4576 21.6865 17.3735 21.6559C17.3054 21.631 17.2435 21.4828 17.2404 21.3876C17.2274 20.9022 17.2342 20.4167 17.2342 19.8809V19.8815Z" fill="#2C2C2C" style="fill:#2C2C2C;fill:color(display-p3 0.1725 0.1725 0.1725);fill-opacity:1;"/>
<path d="M5.0918 20.2009C5.77822 20.0892 6.39222 19.9895 7.03594 19.8848C7.03594 20.4379 7.04832 20.9617 7.02975 21.4848C7.0217 21.7051 6.79331 21.7632 6.61319 21.601C6.25296 21.2765 5.8983 20.945 5.54116 20.6161C5.40994 20.4954 5.27872 20.374 5.0918 20.2009Z" fill="#2C2C2C" style="fill:#2C2C2C;fill:color(display-p3 0.1725 0.1725 0.1725);fill-opacity:1;"/>
<path d="M6.14354 13.086C6.07855 13.1646 6.0377 13.2559 5.97209 13.2821C5.90649 13.3083 5.79817 13.2962 5.7406 13.2534C5.623 13.1665 5.52707 13.049 5.42308 12.9423C5.07956 12.5891 4.73666 12.2346 4.39376 11.8807C4.2743 11.7575 4.1895 11.6182 4.34177 11.4713C4.48227 11.3359 4.60854 11.4221 4.7218 11.539C5.1396 11.9727 5.56049 12.4039 5.97643 12.8401C6.0377 12.9046 6.07917 12.9902 6.14293 13.0854L6.14354 13.086Z" fill="#2C2C2C" style="fill:#2C2C2C;fill:color(display-p3 0.1725 0.1725 0.1725);fill-opacity:1;"/>
<path d="M20.0378 11.6216C19.9883 11.7097 19.9623 11.7883 19.9116 11.8413C19.474 12.2999 19.032 12.754 18.5907 13.2082C18.4781 13.3238 18.3499 13.3659 18.2286 13.2324C18.1178 13.1098 18.1568 12.984 18.2621 12.8741C18.7021 12.4181 19.1391 11.9582 19.5885 11.5124C19.6516 11.4491 19.781 11.4249 19.8732 11.4364C19.932 11.444 19.979 11.5507 20.0385 11.6209L20.0378 11.6216Z" fill="#2C2C2C" style="fill:#2C2C2C;fill:color(display-p3 0.1725 0.1725 0.1725);fill-opacity:1;"/>
<path d="M3.9977 13.5371C4.38021 13.6399 4.7194 13.7185 5.04683 13.8303C5.11058 13.852 5.1799 14.0213 5.15886 14.096C5.13782 14.1714 4.99731 14.2748 4.92737 14.2621C4.59499 14.1995 4.26447 14.1139 3.94323 14.0066C3.87638 13.9842 3.80644 13.8271 3.81758 13.7434C3.82811 13.6629 3.94137 13.5971 3.9977 13.5371Z" fill="#2C2C2C" style="fill:#2C2C2C;fill:color(display-p3 0.1725 0.1725 0.1725);fill-opacity:1;"/>
<path d="M19.2958 14.29C19.2432 14.2389 19.12 14.1738 19.1138 14.0984C19.1064 14.0071 19.1782 13.8467 19.25 13.8218C19.5632 13.7139 19.8863 13.6296 20.2112 13.5714C20.2855 13.558 20.426 13.6666 20.4557 13.7496C20.4792 13.8142 20.3963 13.9853 20.3288 14.0083C20.0076 14.1169 19.6752 14.1904 19.2964 14.29H19.2958Z" fill="#2C2C2C" style="fill:#2C2C2C;fill:color(display-p3 0.1725 0.1725 0.1725);fill-opacity:1;"/>
</g>
<defs>
<clipPath id="clip0_22002_35746">
<rect width="24" height="24" fill="white" style="fill:white;fill-opacity:1;"/>
</clipPath>
</defs>
</svg>
