<svg width="40" height="40" viewBox="0 0 40 40" fill="none" xmlns="http://www.w3.org/2000/svg">
<rect width="40" height="40" rx="8" fill="#E6F0FC" style="fill:#E6F0FC;fill:color(display-p3 0.9020 0.9412 0.9882);fill-opacity:1;"/>
<g clip-path="url(#clip0_20884_67483)">
<path d="M26.4463 23.7344L26.4473 23.7354C26.6292 23.9136 26.7739 24.1262 26.873 24.3604C26.9722 24.5946 27.0234 24.8465 27.0244 25.1006C27.0254 25.3546 26.9761 25.6068 26.8789 25.8418C26.7817 26.0767 26.6385 26.29 26.458 26.4697C26.2774 26.6496 26.0625 26.7918 25.8262 26.8887C25.5899 26.9855 25.3366 27.0352 25.0811 27.0342C24.8255 27.0331 24.5724 26.9816 24.3369 26.8828C24.1016 26.784 23.888 26.6402 23.709 26.459L23.708 26.458L18.7861 21.5576C18.9936 20.9231 19.0104 20.2434 18.834 19.5996L20.5635 17.8779L26.4463 23.7344ZM11.5996 8.45801C12.5106 8.12691 13.4963 8.05051 14.4492 8.24414C15.4711 8.45185 16.4079 8.95765 17.1396 9.69727C17.8713 10.4369 18.3655 11.3766 18.5586 12.3965C18.7516 13.4165 18.6348 14.471 18.2236 15.4248L18.2129 15.4482L16.4395 17.2139C15.8712 17.0589 15.2724 17.0518 14.7002 17.1953C14.1008 17.3457 13.5533 17.6546 13.1162 18.0898L12.667 18.5361C11.8916 18.4272 11.15 18.1491 10.4971 17.7178C9.82572 17.2742 9.26616 16.6826 8.86133 15.9893C8.45658 15.296 8.217 14.5196 8.16211 13.7197C8.11202 12.9891 8.21775 12.2568 8.46973 11.5703L9.02539 12.124L9.14746 12.2451L10.8584 13.9482L10.9707 14.0605L10.9717 14.0586L11.9492 15.0332L12.0059 15.0889L12.083 15.0684L14.3945 14.4521L14.4717 14.4316L14.4922 14.3545L15.1113 12.0537L15.1318 11.9766L15.0752 11.9199L14.082 10.9316L14.084 10.9307L13.9863 10.833L12.2754 9.12891L12.1533 9.00781L11.5996 8.45801Z" fill="#0668E1" stroke="#0668E1" style="fill:#0668E1;fill:color(display-p3 0.0235 0.4078 0.8824);fill-opacity:1;stroke:#0668E1;stroke:color(display-p3 0.0235 0.4078 0.8824);stroke-opacity:1;" stroke-width="0.276522"/>
<path d="M17.2461 18.7951L21.1567 14.9023" stroke="#0668E1" style="stroke:#0668E1;stroke:color(display-p3 0.0235 0.4078 0.8824);stroke-opacity:1;" stroke-width="1.38261" stroke-linecap="square" stroke-linejoin="round"/>
<path d="M15.5352 18.2285C15.8347 18.2286 16.1315 18.2873 16.4082 18.4014C16.685 18.5155 16.9367 18.6827 17.1484 18.8936C17.3601 19.1043 17.528 19.3546 17.6426 19.6299C17.7572 19.9053 17.8164 20.2009 17.8164 20.499C17.8164 20.7969 17.7571 21.0919 17.6426 21.3672C17.528 21.6426 17.3603 21.8936 17.1484 22.1045L11.5264 27.7002C11.4751 27.7513 11.4138 27.7917 11.3467 27.8193C11.2796 27.847 11.2074 27.8613 11.1348 27.8613C11.0621 27.8613 10.9899 27.847 10.9229 27.8193C10.8558 27.7916 10.7944 27.7513 10.7432 27.7002L8.2998 25.2666C8.19621 25.1634 8.13869 25.0235 8.13867 24.8779C8.13867 24.7323 8.19624 24.5924 8.2998 24.4893L13.9219 18.8936C14.1335 18.6829 14.3846 18.5155 14.6611 18.4014C14.938 18.2872 15.2355 18.2285 15.5352 18.2285ZM27.8135 10.0469L24.084 14.7021L21.2969 14.7607L21.3555 11.9873L26.0332 8.27441L27.8135 10.0469Z" fill="#0668E1" stroke="#0668E1" style="fill:#0668E1;fill:color(display-p3 0.0235 0.4078 0.8824);fill-opacity:1;stroke:#0668E1;stroke:color(display-p3 0.0235 0.4078 0.8824);stroke-opacity:1;" stroke-width="0.276522"/>
<path d="M22.82 21.1766C23.7761 19.6078 26.2241 19.6078 27.1801 21.1766L31.6762 28.5626C32.6122 30.1009 31.4072 32 29.4961 32H20.503C18.592 32 17.388 30.1009 18.324 28.5626L22.82 21.1766Z" fill="#E6F0FC" style="fill:#E6F0FC;fill:color(display-p3 0.9020 0.9412 0.9882);fill-opacity:1;"/>
<path d="M23.0925 21.5206C23.929 20.0634 26.071 20.0634 26.9075 21.5206L30.8415 28.3812C31.6605 29.81 30.6061 31.574 28.934 31.574H21.0651C19.393 31.574 18.3395 29.81 19.1585 28.3812L23.0925 21.5206ZM25 27.7134C24.8259 27.7134 24.659 27.7812 24.5359 27.9017C24.4129 28.0223 24.3437 28.1858 24.3437 28.3563C24.3437 28.5268 24.4129 28.6903 24.5359 28.8109C24.659 28.9314 24.8259 28.9992 25 28.9992C25.174 28.9992 25.3409 28.9314 25.464 28.8109C25.5871 28.6903 25.6562 28.5268 25.6562 28.3563C25.6562 28.1858 25.5871 28.0223 25.464 27.9017C25.3409 27.7812 25.174 27.7134 25 27.7134ZM25 23.8563C24.8839 23.8563 24.7727 23.9015 24.6906 23.9818C24.6086 24.0622 24.5625 24.1712 24.5625 24.2849V26.4277C24.5625 26.5414 24.6086 26.6504 24.6906 26.7308C24.7727 26.8112 24.8839 26.8563 25 26.8563C25.116 26.8563 25.2273 26.8112 25.3093 26.7308C25.3914 26.6504 25.4375 26.5414 25.4375 26.4277V24.2849C25.4375 24.1712 25.3914 24.0622 25.3093 23.9818C25.2273 23.9015 25.116 23.8563 25 23.8563Z" fill="#0668E1" style="fill:#0668E1;fill:color(display-p3 0.0235 0.4078 0.8824);fill-opacity:1;"/>
</g>
<defs>
<clipPath id="clip0_20884_67483">
<rect width="24" height="24" fill="white" style="fill:white;fill-opacity:1;" transform="translate(8 8)"/>
</clipPath>
</defs>
</svg>
