<svg width="80" height="80" viewBox="0 0 80 80" fill="none" xmlns="http://www.w3.org/2000/svg">
<rect width="80" height="80" rx="40" fill="#E6F0FC" style="fill:#E6F0FC;fill:color(display-p3 0.9020 0.9412 0.9882);fill-opacity:1;"/>
<path d="M58.3327 30.8327C58.3327 33.2638 57.3669 35.5954 55.6478 37.3145C53.9287 39.0336 51.5972 39.9993 49.166 39.9993C46.7349 39.9993 44.4033 39.0336 42.6842 37.3145C40.9651 35.5954 39.9993 33.2638 39.9993 30.8327C39.9993 28.4015 40.9651 26.07 42.6842 24.3509C44.4033 22.6318 46.7349 21.666 49.166 21.666C51.5972 21.666 53.9287 22.6318 55.6478 24.3509C57.3669 26.07 58.3327 28.4015 58.3327 30.8327ZM54.756 26.9093C54.6786 26.8317 54.5866 26.7702 54.4854 26.7282C54.3842 26.6862 54.2756 26.6645 54.166 26.6645C54.0564 26.6645 53.9479 26.6862 53.8466 26.7282C53.7454 26.7702 53.6534 26.8317 53.576 26.9093L47.4993 32.9877L44.756 30.2427C44.5995 30.0862 44.3873 29.9983 44.166 29.9983C43.9447 29.9983 43.7325 30.0862 43.576 30.2427C43.4195 30.3992 43.3316 30.6114 43.3316 30.8327C43.3316 31.054 43.4195 31.2662 43.576 31.4227L46.9093 34.756C46.9868 34.8336 47.0787 34.8952 47.18 34.9372C47.2812 34.9792 47.3897 35.0008 47.4993 35.0008C47.609 35.0008 47.7175 34.9792 47.8187 34.9372C47.92 34.8952 48.0119 34.8336 48.0893 34.756L54.756 28.0893C54.8336 28.0119 54.8952 27.92 54.9372 27.8187C54.9792 27.7175 55.0008 27.609 55.0008 27.4993C55.0008 27.3897 54.9792 27.2812 54.9372 27.18C54.8952 27.0787 54.8336 26.9868 54.756 26.9093ZM49.166 41.666C49.566 41.666 49.9605 41.6449 50.3493 41.6027C49.6182 42.836 48.6599 44.0193 47.4743 45.1527C47.4154 45.209 47.3742 45.2815 47.356 45.361L46.476 49.166H33.5227L32.646 45.361C32.6278 45.2815 32.5867 45.209 32.5277 45.1527C29.4777 42.241 27.916 38.9793 27.916 35.4193C27.9158 33.7241 28.2722 32.0479 28.9622 30.4994C29.6522 28.951 30.6603 27.5651 31.921 26.4317C33.1816 25.2984 34.6667 24.443 36.2795 23.9212C37.8924 23.3993 39.5971 23.2226 41.2827 23.4027C39.8319 24.942 38.8636 26.8724 38.4971 28.9557C38.1306 31.039 38.382 33.1839 39.2203 35.126C40.0586 37.068 41.4471 38.7222 43.2144 39.8844C44.9818 41.0465 47.0508 41.6659 49.166 41.666ZM45.896 51.666L45.4127 53.7627C45.2326 54.5405 44.809 55.2406 44.2035 55.761C43.5979 56.2814 42.8421 56.595 42.046 56.656L41.7577 56.666H38.2393C37.441 56.6661 36.6634 56.4114 36.0198 55.939C35.3762 55.4666 34.9002 54.8011 34.661 54.0393L34.5843 53.7593L34.101 51.666H45.896Z" fill="#0668E1" style="fill:#0668E1;fill:color(display-p3 0.0235 0.4078 0.8824);fill-opacity:1;"/>
</svg>
