<svg width="60" height="60" viewBox="0 0 60 60" fill="none" xmlns="http://www.w3.org/2000/svg">
<rect x="0.454545" y="0.454545" width="59.0909" height="59.0909" rx="12.2727" fill="#F2F8FF" style="fill:#F2F8FF;fill:color(display-p3 0.9490 0.9725 1.0000);fill-opacity:1;"/>
<rect x="0.454545" y="0.454545" width="59.0909" height="59.0909" rx="12.2727" stroke="#0668E1" style="stroke:#0668E1;stroke:color(display-p3 0.0235 0.4078 0.8824);stroke-opacity:1;" stroke-width="0.909091"/>
<path d="M41.2845 19.9164C40.9804 18.8855 40.3494 17.9814 39.4866 17.3405C38.6238 16.6996 37.5759 16.3566 36.5011 16.3634C35.2555 16.3645 34.0553 16.8315 33.1365 17.6726C32.2177 18.5137 31.6468 19.6681 31.536 20.9088H28.4678C28.3555 19.6668 27.7826 18.5117 26.8619 17.6706C25.9412 16.8295 24.7391 16.3632 23.492 16.3634C22.4188 16.3586 21.373 16.7025 20.512 17.3432C19.651 17.984 19.0214 18.887 18.7178 19.9164L14.9132 32.5952C14.871 32.7363 14.8496 32.8828 14.8496 33.03V34.5452C14.852 36.5539 15.6512 38.4797 17.0717 39.8999C18.4922 41.3202 20.4181 42.1189 22.4269 42.121C23.8993 42.119 25.3392 41.6881 26.5705 40.8808C27.8018 40.0735 28.7713 38.925 29.3602 37.5755H30.642C31.231 38.925 32.2004 40.0735 33.4317 40.8808C34.6631 41.6881 36.103 42.119 37.5754 42.121C39.5844 42.1189 41.5105 41.32 42.9311 39.8994C44.3517 38.4788 45.1506 36.5527 45.1526 34.5437V33.03C45.1526 32.8816 45.1314 32.7366 45.089 32.5952L41.2845 19.9164ZM22.4269 39.0907C21.2217 39.0891 20.0663 38.6097 19.214 37.7576C18.3617 36.9056 17.8819 35.7504 17.8799 34.5452C17.8799 34.43 17.9057 34.3225 17.9132 34.2088C17.9961 33.0676 18.5071 31.9998 19.3438 31.2193C20.1805 30.4388 21.2812 30.0032 22.4254 29.9997C23.6309 29.9997 24.7871 30.4786 25.6395 31.3311C26.4919 32.1835 26.9708 33.3397 26.9708 34.5452V34.5588C26.9656 35.7612 26.4848 36.9127 25.6335 37.7618C24.7821 38.6109 23.6293 39.0887 22.4269 39.0907ZM37.5754 39.0907C36.3729 39.0887 35.2202 38.6109 34.3688 37.7618C33.5174 36.9127 33.0366 35.7612 33.0314 34.5588V34.5452C33.0313 33.9483 33.1488 33.3572 33.3771 32.8057C33.6055 32.2542 33.9402 31.753 34.3622 31.3309C35.2145 30.4783 36.3706 29.9992 37.5761 29.999C38.7817 29.9988 39.9379 30.4775 40.7905 31.3298C41.643 32.1821 42.1221 33.3382 42.1223 34.5437C42.1207 35.7491 41.6412 36.9047 40.7888 37.7571C39.9364 38.6095 38.7808 39.089 37.5754 39.0907Z" fill="#0668E1" style="fill:#0668E1;fill:color(display-p3 0.0235 0.4078 0.8824);fill-opacity:1;"/>
</svg>
