<svg width="200" height="200" viewBox="0 0 200 200" fill="none" xmlns="http://www.w3.org/2000/svg">
<g clip-path="url(#clip0_15955_56852)">
<path d="M113.676 180.255L43.7388 158.184C19.014 150.381 6.80443 122.601 17.7748 99.1093L43.4328 44.1661C54.4032 20.6749 83.5416 12.2041 105.396 26.1537L167.214 65.6109C185.36 77.1933 192.115 100.429 183.006 119.935L165.467 157.493C156.358 176.998 134.205 186.735 113.676 180.255Z" fill="url(#paint0_linear_15955_56852)" style=""/>
<path d="M26.4395 48.1201H79.5918C80.6813 48.1202 81.5645 49.0042 81.5645 50.0938V96.3125C81.5643 97.4023 80.6812 98.2851 79.5918 98.2852H26.4395C25.3496 98.2852 24.4659 97.402 24.4658 96.3125V50.0938C24.4658 49.0038 25.3499 48.1201 26.4395 48.1201Z" fill="url(#paint1_linear_15955_56852)" stroke="#0668E1" style="stroke:#0668E1;stroke:color(display-p3 0.0235 0.4078 0.8824);stroke-opacity:1;" stroke-width="0.166667"/>
<path opacity="0.6" d="M62.3871 52.4492H29.0039V55.7876H62.3871V52.4492Z" fill="url(#paint2_linear_15955_56852)" style=""/>
<path opacity="0.6" d="M50.4891 57.834H29.0039V61.1724H50.4891V57.834Z" fill="url(#paint3_linear_15955_56852)" style=""/>
<g opacity="0.35">
<path d="M75.9996 93.7558H30.0332C29.9416 93.7558 29.8672 93.6818 29.8672 93.5898C29.8672 93.4982 29.9416 93.4238 30.0332 93.4238H75.9996C76.0912 93.4238 76.1656 93.4982 76.1656 93.5898C76.1656 93.6814 76.0912 93.7558 75.9996 93.7558Z" fill="#0668E1" style="fill:#0668E1;fill:color(display-p3 0.0235 0.4078 0.8824);fill-opacity:1;"/>
<path d="M75.9996 85.5332H30.0332C29.9416 85.5332 29.8672 85.4592 29.8672 85.3672C29.8672 85.2756 29.9416 85.2012 30.0332 85.2012H75.9996C76.0912 85.2012 76.1656 85.2752 76.1656 85.3672C76.1656 85.4588 76.0912 85.5332 75.9996 85.5332Z" fill="#0668E1" style="fill:#0668E1;fill:color(display-p3 0.0235 0.4078 0.8824);fill-opacity:1;"/>
<path d="M75.9996 77.3125H30.0332C29.9416 77.3125 29.8672 77.2381 29.8672 77.1465C29.8672 77.0549 29.9416 76.9805 30.0332 76.9805H75.9996C76.0912 76.9805 76.1656 77.0549 76.1656 77.1465C76.1656 77.2381 76.0912 77.3125 75.9996 77.3125Z" fill="#0668E1" style="fill:#0668E1;fill:color(display-p3 0.0235 0.4078 0.8824);fill-opacity:1;"/>
<path d="M75.9996 69.0898H30.0332C29.9416 69.0898 29.8672 69.0154 29.8672 68.9238C29.8672 68.8322 29.9416 68.7578 30.0332 68.7578H75.9996C76.0912 68.7578 76.1656 68.8318 76.1656 68.9238C76.1656 69.0154 76.0912 69.0898 75.9996 69.0898Z" fill="#0668E1" style="fill:#0668E1;fill:color(display-p3 0.0235 0.4078 0.8824);fill-opacity:1;"/>
</g>
<path d="M31.5703 93.5895L37.2199 86.6411L39.3599 88.2675L43.2975 82.4467L45.7583 84.6723L49.2891 81.0771L52.3707 83.9875L58.0203 74.9999L62.3859 80.1355L64.7823 73.8015L68.2063 74.8287L74.3695 67.0391V93.4811L31.5703 93.5895Z" fill="#0668E1" style="fill:#0668E1;fill:color(display-p3 0.0235 0.4078 0.8824);fill-opacity:1;"/>
<path d="M171.159 175.269H122.679C121.387 175.269 120.34 174.222 120.34 172.93V99.7201C120.34 98.4281 121.387 97.3809 122.679 97.3809H171.159C172.451 97.3809 173.499 98.4281 173.499 99.7201V172.93C173.498 174.221 172.451 175.269 171.159 175.269Z" fill="url(#paint4_linear_15955_56852)" style=""/>
<path d="M164.105 102.756H126.648V106.63H164.105V102.756Z" fill="url(#paint5_linear_15955_56852)" style=""/>
<path d="M150.226 109.059H126.648V111.643H150.226V109.059Z" fill="url(#paint6_linear_15955_56852)" style=""/>
<path d="M146.916 112.543H126.648V115.127H146.916V112.543Z" fill="url(#paint7_linear_15955_56852)" style=""/>
<path d="M133.559 158.032C132.18 158.032 131.062 156.914 131.062 155.536V128.016C131.062 126.637 132.18 125.52 133.559 125.52C134.938 125.52 136.055 126.637 136.055 128.016V155.536C136.055 156.914 134.938 158.032 133.559 158.032Z" fill="url(#paint8_linear_15955_56852)" style=""/>
<path d="M133.559 158.03C132.18 158.03 131.062 156.913 131.062 155.534V140.379C131.062 139 132.18 137.883 133.559 137.883C134.938 137.883 136.055 139 136.055 140.379V155.534C136.055 156.912 134.938 158.03 133.559 158.03Z" fill="url(#paint9_linear_15955_56852)" style=""/>
<path d="M146.918 158.032C145.539 158.032 144.422 156.914 144.422 155.536V128.016C144.422 126.637 145.539 125.52 146.918 125.52C148.297 125.52 149.415 126.637 149.415 128.016V155.536C149.415 156.914 148.297 158.032 146.918 158.032Z" fill="url(#paint10_linear_15955_56852)" style=""/>
<path d="M146.918 158.031C145.539 158.031 144.422 156.914 144.422 155.535V135.414C144.422 134.036 145.539 132.918 146.918 132.918C148.297 132.918 149.415 134.036 149.415 135.414V155.535C149.415 156.913 148.297 158.031 146.918 158.031Z" fill="url(#paint11_linear_15955_56852)" style=""/>
<path d="M160.278 158.032C158.899 158.032 157.781 156.914 157.781 155.536V128.016C157.781 126.637 158.899 125.52 160.278 125.52C161.656 125.52 162.774 126.637 162.774 128.016V155.536C162.774 156.914 161.656 158.032 160.278 158.032Z" fill="url(#paint12_linear_15955_56852)" style=""/>
<path d="M160.278 158.032C158.899 158.032 157.781 156.914 157.781 155.535V141.926C157.781 140.547 158.899 139.43 160.278 139.43C161.656 139.43 162.774 140.547 162.774 141.926V155.535C162.774 156.914 161.656 158.032 160.278 158.032Z" fill="url(#paint13_linear_15955_56852)" style=""/>
<path d="M136.781 162.539H130.328V166.993H136.781V162.539Z" fill="url(#paint14_linear_15955_56852)" style=""/>
<path d="M150.144 162.539H143.691V166.993H150.144V162.539Z" fill="url(#paint15_linear_15955_56852)" style=""/>
<path d="M163.504 162.539H157.051V166.993H163.504V162.539Z" fill="url(#paint16_linear_15955_56852)" style=""/>
<path d="M172.54 89.0953H102.876C101.663 89.0953 100.68 88.1117 100.68 86.8989V26.9269C100.68 25.7137 101.663 24.7305 102.876 24.7305H172.54C173.753 24.7305 174.736 25.7141 174.736 26.9269V86.8989C174.736 88.1121 173.753 89.0953 172.54 89.0953Z" fill="url(#paint17_linear_15955_56852)" style=""/>
<path d="M172.54 24.7305H102.876C101.663 24.7305 100.68 25.7141 100.68 26.9269V30.9473H174.736V26.9273C174.736 25.7141 173.753 24.7305 172.54 24.7305Z" fill="url(#paint18_linear_15955_56852)" style=""/>
<path d="M171.865 27.9208C171.865 28.8264 171.131 29.5604 170.226 29.5604C169.32 29.5604 168.586 28.8264 168.586 27.9208C168.586 27.0152 169.32 26.2812 170.226 26.2812C171.131 26.2812 171.865 27.0152 171.865 27.9208Z" fill="url(#paint19_linear_15955_56852)" style=""/>
<path d="M166.916 27.9208C166.916 28.8264 166.182 29.5604 165.276 29.5604C164.371 29.5604 163.637 28.8264 163.637 27.9208C163.637 27.0152 164.371 26.2812 165.276 26.2812C166.182 26.2812 166.916 27.0152 166.916 27.9208Z" fill="url(#paint20_linear_15955_56852)" style=""/>
<path d="M161.963 27.9208C161.963 28.8264 161.229 29.5604 160.323 29.5604C159.418 29.5604 158.684 28.8264 158.684 27.9208C158.684 27.0152 159.418 26.2812 160.323 26.2812C161.229 26.2812 161.963 27.0152 161.963 27.9208Z" fill="url(#paint21_linear_15955_56852)" style=""/>
<path d="M119.562 59.5681C126.481 59.5681 132.09 53.9595 132.09 47.0409C132.09 40.1223 126.481 34.5137 119.562 34.5137C112.644 34.5137 107.035 40.1223 107.035 47.0409C107.035 53.9595 112.644 59.5681 119.562 59.5681Z" fill="#0668E1" style="fill:#0668E1;fill:color(display-p3 0.0235 0.4078 0.8824);fill-opacity:1;"/>
<path d="M128.121 37.8973C123.21 33.2941 115.498 33.3865 110.704 38.1813C108.099 40.7857 106.882 44.2517 107.051 47.6621L119.562 47.0397L128.121 37.8973Z" fill="#9CC8FF" style="fill:#9CC8FF;fill:color(display-p3 0.6133 0.7847 1.0000);fill-opacity:1;"/>
<path d="M110.708 55.8975C112.211 57.4007 114.001 58.4395 115.902 59.0191L119.566 47.0391L107.055 47.6615C107.203 50.6571 108.42 53.6095 110.708 55.8975Z" fill="#3A92FF" style="fill:#3A92FF;fill:color(display-p3 0.2258 0.5723 1.0000);fill-opacity:1;"/>
<path d="M141.985 42.9774C142.906 42.9774 143.653 42.2305 143.653 41.309C143.653 40.3876 142.906 39.6406 141.985 39.6406C141.063 39.6406 140.316 40.3876 140.316 41.309C140.316 42.2305 141.063 42.9774 141.985 42.9774Z" fill="#0668E1" style="fill:#0668E1;fill:color(display-p3 0.0235 0.4078 0.8824);fill-opacity:1;"/>
<path d="M164.859 40.418H146.82V42.2008H164.859V40.418Z" fill="url(#paint22_linear_15955_56852)" style=""/>
<path d="M143.653 47.9848C143.653 48.9064 142.906 49.6532 141.985 49.6532C141.064 49.6532 140.316 48.906 140.316 47.9848C140.316 47.0632 141.064 46.3164 141.985 46.3164C142.906 46.3164 143.653 47.0632 143.653 47.9848Z" fill="#3A92FF" style="fill:#3A92FF;fill:color(display-p3 0.2258 0.5723 1.0000);fill-opacity:1;"/>
<path d="M160.34 47.0918H146.82V48.8746H160.34V47.0918Z" fill="url(#paint23_linear_15955_56852)" style=""/>
<path d="M141.985 56.327C142.906 56.327 143.653 55.5801 143.653 54.6586C143.653 53.7372 142.906 52.9902 141.985 52.9902C141.063 52.9902 140.316 53.7372 140.316 54.6586C140.316 55.5801 141.063 56.327 141.985 56.327Z" fill="#9CC8FF" style="fill:#9CC8FF;fill:color(display-p3 0.6133 0.7847 1.0000);fill-opacity:1;"/>
<path d="M166.916 53.7676H146.82V55.5504H166.916V53.7676Z" fill="url(#paint24_linear_15955_56852)" style=""/>
<path d="M112.544 66.4082H108.793V83.9622H112.544V66.4082Z" fill="url(#paint25_linear_15955_56852)" style=""/>
<path d="M118.552 72.4883H114.801V83.9623H118.552V72.4883Z" fill="url(#paint26_linear_15955_56852)" style=""/>
<path d="M124.563 66.4082H120.812V83.9622H124.563V66.4082Z" fill="url(#paint27_linear_15955_56852)" style=""/>
<path d="M130.571 72.4883H126.82V83.9623H130.571V72.4883Z" fill="url(#paint28_linear_15955_56852)" style=""/>
<path d="M136.579 66.4082H132.828V83.9622H136.579V66.4082Z" fill="url(#paint29_linear_15955_56852)" style=""/>
<path d="M142.587 72.4883H138.836V83.9623H142.587V72.4883Z" fill="url(#paint30_linear_15955_56852)" style=""/>
<path d="M148.598 66.4082H144.848V83.9622H148.598V66.4082Z" fill="url(#paint31_linear_15955_56852)" style=""/>
<path d="M154.606 72.4883H150.855V83.9623H154.606V72.4883Z" fill="url(#paint32_linear_15955_56852)" style=""/>
<path d="M160.618 66.4082H156.867V83.9622H160.618V66.4082Z" fill="url(#paint33_linear_15955_56852)" style=""/>
<path d="M166.626 72.4883H162.875V83.9623H166.626V72.4883Z" fill="url(#paint34_linear_15955_56852)" style=""/>
<path d="M24.3936 115.829H65.1338C66.3797 115.829 67.3895 116.839 67.3896 118.085V153.13C67.3896 154.376 66.3798 155.386 65.1338 155.386H24.3936C23.1477 155.386 22.1377 154.376 22.1377 153.13V118.085C22.1379 116.839 23.1478 115.829 24.3936 115.829Z" fill="url(#paint35_linear_15955_56852)" stroke="#0668E1" style="stroke:#0668E1;stroke:color(display-p3 0.0235 0.4078 0.8824);stroke-opacity:1;" stroke-width="0.166667"/>
<path d="M61.7762 120.568H27.457V124.804H61.7762V120.568Z" fill="#0668E1" style="fill:#0668E1;fill:color(display-p3 0.0235 0.4078 0.8824);fill-opacity:1;"/>
<path d="M53.5982 127.088H27.457V131.323H53.5982V127.088Z" fill="#0668E1" style="fill:#0668E1;fill:color(display-p3 0.0235 0.4078 0.8824);fill-opacity:1;"/>
<path d="M64.2261 153.174H44.6445V135.199H64.2261V153.174ZM45.0217 152.796H63.8485V135.576H45.0217V152.796Z" fill="url(#paint36_linear_15955_56852)" style=""/>
<path d="M53.014 140.865H48.6328V150.577H53.014V140.865Z" fill="url(#paint37_linear_15955_56852)" style=""/>
<path d="M60.0218 137.799H55.6406V150.577H60.0218V137.799Z" fill="url(#paint38_linear_15955_56852)" style=""/>
<path d="M40.5274 138.238H27.457V140.867H40.5274V138.238Z" fill="#0668E1" style="fill:#0668E1;fill:color(display-p3 0.0235 0.4078 0.8824);fill-opacity:1;"/>
<path d="M38.775 142.875H27.457V145.504H38.775V142.875Z" fill="#0668E1" style="fill:#0668E1;fill:color(display-p3 0.0235 0.4078 0.8824);fill-opacity:1;"/>
<path d="M35.9274 147.512H27.457V150.141H35.9274V147.512Z" fill="#0668E1" style="fill:#0668E1;fill:color(display-p3 0.0235 0.4078 0.8824);fill-opacity:1;"/>
<path d="M136.057 95.7527H135.679V93.2151H114.352V92.8379H136.057V95.7527Z" fill="url(#paint39_linear_15955_56852)" style=""/>
<path d="M135.871 96.3867C136.221 96.3867 136.504 96.1034 136.504 95.7539C136.504 95.4044 136.221 95.1211 135.871 95.1211C135.522 95.1211 135.238 95.4044 135.238 95.7539C135.238 96.1034 135.522 96.3867 135.871 96.3867Z" fill="url(#paint40_linear_15955_56852)" style=""/>
<path d="M114.984 93.0273C114.984 93.3769 114.701 93.6601 114.352 93.6601C114.002 93.6601 113.719 93.3769 113.719 93.0273C113.719 92.6777 114.002 92.3945 114.352 92.3945C114.701 92.3945 114.984 92.6777 114.984 93.0273Z" fill="url(#paint41_linear_15955_56852)" style=""/>
<path d="M83.726 157.149H83.3488V134.287H70.1992V133.91H83.726V157.149Z" fill="url(#paint42_linear_15955_56852)" style=""/>
<path d="M70.832 134.1C70.832 134.449 70.5488 134.732 70.1992 134.732C69.8496 134.732 69.5664 134.449 69.5664 134.1C69.5664 133.75 69.8496 133.467 70.1992 133.467C70.5488 133.467 70.832 133.75 70.832 134.1Z" fill="url(#paint43_linear_15955_56852)" style=""/>
<path d="M84.1679 157.15C84.1679 157.5 83.8847 157.783 83.5351 157.783C83.1855 157.783 82.9023 157.5 82.9023 157.15C82.9023 156.801 83.1855 156.518 83.5351 156.518C83.8847 156.518 84.1679 156.801 84.1679 157.15Z" fill="url(#paint44_linear_15955_56852)" style=""/>
<path d="M82.9624 110.574H67.8672V100.551H68.2444V110.196H82.9624V110.574Z" fill="url(#paint45_linear_15955_56852)" style=""/>
<path d="M68.6914 100.551C68.6914 100.9 68.4082 101.184 68.0586 101.184C67.709 101.184 67.4258 100.9 67.4258 100.551C67.4258 100.201 67.709 99.918 68.0586 99.918C68.4082 99.918 68.6914 100.201 68.6914 100.551Z" fill="url(#paint46_linear_15955_56852)" style=""/>
<path d="M83.5937 110.387C83.5937 110.736 83.3101 111.02 82.9609 111.02C82.6113 111.02 82.3281 110.736 82.3281 110.387C82.3281 110.037 82.6113 109.754 82.9609 109.754C83.3101 109.754 83.5937 110.037 83.5937 110.387Z" fill="url(#paint47_linear_15955_56852)" style=""/>
<path d="M92.6585 83.3937H92.2812V62.5469H98.9156V62.9245H92.6585V83.3937Z" fill="url(#paint48_linear_15955_56852)" style=""/>
<path d="M99.5469 62.7344C99.5469 63.084 99.2637 63.3672 98.9141 63.3672C98.5645 63.3672 98.2812 63.084 98.2812 62.7344C98.2812 62.3848 98.5645 62.1016 98.9141 62.1016C99.2633 62.1016 99.5469 62.3852 99.5469 62.7344Z" fill="url(#paint49_linear_15955_56852)" style=""/>
<path d="M92.4687 84.0254C92.8182 84.0254 93.1015 83.7421 93.1015 83.3926C93.1015 83.0431 92.8182 82.7598 92.4687 82.7598C92.1193 82.7598 91.8359 83.0431 91.8359 83.3926C91.8359 83.7421 92.1193 84.0254 92.4687 84.0254Z" fill="url(#paint50_linear_15955_56852)" style=""/>
<path d="M78.069 171.364L78.3642 210.036C77.326 213.09 76.8375 216.308 76.9189 219.526L77.6619 248.402C77.6721 248.944 78.0181 249.424 78.527 249.618C80.3082 250.282 84.4812 252.11 87.4431 248.668C87.6975 248.372 87.8298 247.983 87.84 247.595C88.0131 243.336 89.1632 217.452 92.3082 203.427C95.7383 188.106 97.3973 177.258 94.2115 169.975L78.0588 171.384L78.069 171.364Z" fill="#142E70" style="fill:#142E70;fill:color(display-p3 0.0784 0.1804 0.4392);fill-opacity:1;"/>
<path d="M89.776 180.811L90.0712 219.484C89.033 222.538 88.5445 225.755 88.6259 228.973L89.3689 257.85C89.3791 258.391 89.7252 258.871 90.2341 259.065C92.0152 259.729 96.1883 261.557 99.1501 258.115C99.4046 257.819 99.5369 257.431 99.5471 257.043C99.7201 252.783 100.87 226.899 104.015 212.875C107.445 197.553 109.104 186.705 105.919 179.422L89.7659 180.831L89.776 180.811Z" fill="#1B3D96" style="fill:#1B3D96;fill:color(display-p3 0.1059 0.2392 0.5882);fill-opacity:1;"/>
<path d="M107.337 176.275C107.337 176.275 105.891 158.604 106.879 155.069C107.683 152.209 107.805 149.206 107.245 146.285L105.729 137.694C103.693 130.289 97.7285 127.275 97.7285 127.275C92.8837 124.865 87.3366 119.86 81.6165 122.189C72.0083 126.111 75.3875 140.83 78.9091 147.797C80.7106 151.372 81.1279 155.488 79.876 159.288C78.5936 163.2 77.1687 167.102 76.4867 171.168C75.9778 174.14 76.0898 177.051 76.2933 179.983C76.4562 182.383 77.9015 184.508 80.0898 185.488L96.1102 192.108C97.0262 192.485 98.044 192.649 99.1025 192.628C100.924 192.598 102.533 191.464 103.174 189.758C103.764 188.206 104.304 186.275 104.578 184.028C105.403 183.844 104.762 183.987 105.586 183.803C106.075 184.61 106.655 185.887 107.072 187.685C107.418 186.837 107.622 185.917 107.642 184.978L107.683 183.057C107.734 180.79 107.622 178.512 107.347 176.254L107.337 176.275Z" fill="#659DE4" style="fill:#659DE4;fill:color(display-p3 0.3951 0.6167 0.8952);fill-opacity:1;"/>
<path d="M96.4764 127.879C94.3492 128.063 90.2271 127.931 88.3746 124.498C88.3746 124.498 88.1304 111.771 88.1304 111.761C88.0795 109.177 89.3721 106.623 91.4891 105.152C93.0464 104.069 95.0718 103.793 96.9243 103.722C98.3899 103.661 101.036 103.344 102.115 104.58C102.655 105.193 103.255 107.583 103.255 108.41V121.301C103.255 122.292 102.308 123.007 101.362 122.731C101.362 122.731 97.8301 122.282 97.7894 124.161V126.429C97.7894 127.185 97.2194 127.808 96.4764 127.879Z" fill="#EFB488" style="fill:#EFB488;fill:color(display-p3 0.9373 0.7059 0.5333);fill-opacity:1;"/>
<path d="M100.292 106.285C100.292 106.285 103.091 113.517 96.3025 115.478C96.3025 115.478 93.1676 122.118 89.1778 121.434C89.1778 121.434 82.0531 115.049 84.0073 109.942C84.0073 109.942 82.562 99.9011 95.6307 99.2168C95.6307 99.2168 98.6841 97.3475 100.893 99.0431C103.101 100.749 103.437 104.579 100.302 106.275L100.292 106.285Z" fill="#0D1D48" style="fill:#0D1D48;fill:color(display-p3 0.0510 0.1137 0.2824);fill-opacity:1;"/>
<path d="M99.2538 117.837L98.6126 117.531C98.1545 117.306 97.8594 116.836 97.8594 116.326V113.404H99.2538V117.837Z" fill="#0D1D48" style="fill:#0D1D48;fill:color(display-p3 0.0510 0.1137 0.2824);fill-opacity:1;"/>
<path d="M102.753 110.525L104.117 114.223C104.311 114.754 104.036 115.336 103.507 115.52L102.621 115.827L102.743 110.525H102.753Z" fill="#EFB488" style="fill:#EFB488;fill:color(display-p3 0.9373 0.7059 0.5333);fill-opacity:1;"/>
<path d="M106.875 155.074C107.679 152.214 107.801 149.211 107.242 146.289L105.725 137.699C105.196 135.758 104.392 134.134 103.496 132.775C102 133.787 100.575 134.9 99.2619 136.136C100.789 138.077 101.766 140.712 101.857 144.553C102.224 159.752 103.72 185.799 96.6562 192.316C97.3891 192.541 98.183 192.653 98.9972 192.653C100.87 192.643 102.529 191.458 103.201 189.701C103.781 188.159 104.31 186.259 104.575 184.042C105.399 183.859 104.748 184.002 105.572 183.818C106.061 184.625 106.641 185.902 107.058 187.709C107.404 186.862 107.608 185.942 107.628 185.003L107.669 183.082C107.72 180.815 107.608 178.537 107.333 176.279C107.333 176.279 105.888 158.608 106.875 155.074Z" fill="#478CE4" style="fill:#478CE4;fill:color(display-p3 0.2780 0.5502 0.8952);fill-opacity:1;"/>
<path d="M117.692 150.74L141.733 136.736C141.865 136.664 141.998 136.603 142.13 136.552L148.736 133.947C149.244 133.743 149.814 134.029 149.967 134.56C150.099 135.02 149.865 135.5 149.417 135.673L145.784 137.134C145.407 137.287 145.214 137.696 145.326 138.094C145.692 139.351 146.211 142.006 144.593 143.161C143.484 143.947 142.374 144.632 141.55 145.112C140.736 145.592 139.83 145.888 138.893 145.99L136.705 146.235C135.382 146.388 134.13 146.961 133.153 147.87L122.7 157.89L117.672 150.74H117.692Z" fill="#EFB488" style="fill:#EFB488;fill:color(display-p3 0.9373 0.7059 0.5333);fill-opacity:1;"/>
<path d="M98.9381 128.086C98.9381 128.086 105.808 129.107 108.729 133.704C111.315 137.769 118.399 150.17 118.399 150.17L119.61 149.659C119.61 149.659 123.488 154.194 123.427 157.708L117.126 161.028C117.126 161.028 114.582 163.194 110.002 155.921C105.422 148.648 99.3147 137.923 99.3147 137.923C99.3147 137.923 94.1034 130.895 98.9381 128.096V128.086Z" fill="#659DE4" style="fill:#659DE4;fill:color(display-p3 0.3961 0.6157 0.8941);fill-opacity:1;"/>
<path d="M118.695 149.109C118.695 149.109 122.848 153.624 123.53 158.302L127.856 155.237C127.856 155.237 127.52 148.598 122.767 146.637L118.695 149.109Z" fill="#E0E0E0" style="fill:#E0E0E0;fill:color(display-p3 0.8784 0.8784 0.8784);fill-opacity:1;"/>
<path d="M98.3855 106.716C98.3753 106.481 98.1819 106.297 97.9478 106.297C96.6145 106.297 92.0445 106.583 85.3066 110.209C84.4313 110.679 85.6832 114.417 87.7188 116.082C89.7544 117.747 93.9478 111.486 93.9478 111.486C93.9478 111.486 98.5687 111.067 98.3651 106.716H98.3855Z" fill="#10255C" style="fill:#10255C;fill:color(display-p3 0.0627 0.1451 0.3608);fill-opacity:1;"/>
<path d="M85.7266 106.091C85.9505 105.346 87.7418 100.483 95.4976 100.187C95.4976 100.187 98.2762 98.1646 100.76 99.8398C101.045 100.034 100.994 100.463 100.678 100.585C99.7927 100.912 98.1846 101.433 96.9327 101.392C96.2304 101.362 95.5383 101.566 94.9581 101.964C92.892 103.384 88.3016 106.316 85.808 106.204C85.7571 106.204 85.7266 106.152 85.7367 106.101L85.7266 106.091Z" fill="#10255C" style="fill:#10255C;fill:color(display-p3 0.0627 0.1451 0.3608);fill-opacity:1;"/>
</g>
<defs>
<linearGradient id="paint0_linear_15955_56852" x1="136.064" y1="33.1252" x2="72.0621" y2="170.189" gradientUnits="userSpaceOnUse">
<stop stop-color="#BBD9FE" style="stop-color:#BBD9FE;stop-color:color(display-p3 0.7347 0.8517 0.9962);stop-opacity:1;"/>
<stop offset="0.5" stop-color="#6AACFF" style="stop-color:#6AACFF;stop-color:color(display-p3 0.4144 0.6765 1.0000);stop-opacity:1;"/>
<stop offset="1" stop-color="#B5D6FF" style="stop-color:#B5D6FF;stop-color:color(display-p3 0.7106 0.8401 1.0000);stop-opacity:1;"/>
</linearGradient>
<linearGradient id="paint1_linear_15955_56852" x1="53.0016" y1="58.5006" x2="53.0153" y2="97.8599" gradientUnits="userSpaceOnUse">
<stop stop-color="white" style="stop-color:white;stop-opacity:1;"/>
<stop offset="1" stop-color="#C8E7FF" style="stop-color:#C8E7FF;stop-color:color(display-p3 0.7843 0.9059 1.0000);stop-opacity:1;"/>
</linearGradient>
<linearGradient id="paint2_linear_15955_56852" x1="45.6957" y1="52.6249" x2="45.6673" y2="55.668" gradientUnits="userSpaceOnUse">
<stop stop-color="#D2F2FF" style="stop-color:#D2F2FF;stop-color:color(display-p3 0.8221 0.9490 1.0000);stop-opacity:1;"/>
<stop offset="1" stop-color="#0668E1" style="stop-color:#0668E1;stop-color:color(display-p3 0.0235 0.4078 0.8824);stop-opacity:1;"/>
</linearGradient>
<linearGradient id="paint3_linear_15955_56852" x1="39.6673" y1="57.834" x2="39.6673" y2="61.0007" gradientUnits="userSpaceOnUse">
<stop stop-color="#C2DDFF" style="stop-color:#C2DDFF;stop-color:color(display-p3 0.7606 0.8677 1.0000);stop-opacity:1;"/>
<stop offset="1" stop-color="#0668E1" style="stop-color:#0668E1;stop-color:color(display-p3 0.0235 0.4078 0.8824);stop-opacity:1;"/>
</linearGradient>
<linearGradient id="paint4_linear_15955_56852" x1="146.919" y1="89.3974" x2="146.919" y2="159.506" gradientUnits="userSpaceOnUse">
<stop stop-color="#FFFFFE" style="stop-color:#FFFFFE;stop-color:color(display-p3 1.0000 1.0000 0.9961);stop-opacity:1;"/>
<stop offset="1" stop-color="#C8E7FF" style="stop-color:#C8E7FF;stop-color:color(display-p3 0.7843 0.9059 1.0000);stop-opacity:1;"/>
</linearGradient>
<linearGradient id="paint5_linear_15955_56852" x1="169.058" y1="97.3731" x2="131.575" y2="108.959" gradientUnits="userSpaceOnUse">
<stop stop-color="#0CB5F9" style="stop-color:#0CB5F9;stop-color:color(display-p3 0.0471 0.7098 0.9765);stop-opacity:1;"/>
<stop offset="1" stop-color="#625EFF" style="stop-color:#625EFF;stop-color:color(display-p3 0.3843 0.3686 1.0000);stop-opacity:1;"/>
</linearGradient>
<linearGradient id="paint6_linear_15955_56852" x1="171.462" y1="98.4732" x2="127.066" y2="114.44" gradientUnits="userSpaceOnUse">
<stop stop-color="#C8E7FF" style="stop-color:#C8E7FF;stop-color:color(display-p3 0.7843 0.9059 1.0000);stop-opacity:1;"/>
<stop offset="1" stop-color="#92B7D4" style="stop-color:#92B7D4;stop-color:color(display-p3 0.5725 0.7176 0.8314);stop-opacity:1;"/>
</linearGradient>
<linearGradient id="paint7_linear_15955_56852" x1="172.383" y1="101.031" x2="127.986" y2="116.998" gradientUnits="userSpaceOnUse">
<stop stop-color="#C8E7FF" style="stop-color:#C8E7FF;stop-color:color(display-p3 0.7843 0.9059 1.0000);stop-opacity:1;"/>
<stop offset="1" stop-color="#92B7D4" style="stop-color:#92B7D4;stop-color:color(display-p3 0.5725 0.7176 0.8314);stop-opacity:1;"/>
</linearGradient>
<linearGradient id="paint8_linear_15955_56852" x1="141.973" y1="139.175" x2="128.655" y2="143.291" gradientUnits="userSpaceOnUse">
<stop stop-color="#C8E7FF" style="stop-color:#C8E7FF;stop-color:color(display-p3 0.7843 0.9059 1.0000);stop-opacity:1;"/>
<stop offset="1" stop-color="#92B7D4" style="stop-color:#92B7D4;stop-color:color(display-p3 0.5725 0.7176 0.8314);stop-opacity:1;"/>
</linearGradient>
<linearGradient id="paint9_linear_15955_56852" x1="133.559" y1="138.369" x2="133.559" y2="158.927" gradientUnits="userSpaceOnUse">
<stop stop-color="#7FB8FF" style="stop-color:#7FB8FF;stop-color:color(display-p3 0.4990 0.7232 1.0000);stop-opacity:1;"/>
<stop offset="1" stop-color="#0668E1" style="stop-color:#0668E1;stop-color:color(display-p3 0.0235 0.4078 0.8824);stop-opacity:1;"/>
</linearGradient>
<linearGradient id="paint10_linear_15955_56852" x1="155.332" y1="139.175" x2="142.015" y2="143.291" gradientUnits="userSpaceOnUse">
<stop stop-color="#C8E7FF" style="stop-color:#C8E7FF;stop-color:color(display-p3 0.7843 0.9059 1.0000);stop-opacity:1;"/>
<stop offset="1" stop-color="#92B7D4" style="stop-color:#92B7D4;stop-color:color(display-p3 0.5725 0.7176 0.8314);stop-opacity:1;"/>
</linearGradient>
<linearGradient id="paint11_linear_15955_56852" x1="146.918" y1="133.113" x2="146.918" y2="155.388" gradientUnits="userSpaceOnUse">
<stop stop-color="#014AA5" style="stop-color:#014AA5;stop-color:color(display-p3 0.0043 0.2915 0.6462);stop-opacity:1;"/>
<stop offset="1" stop-color="#002F69" style="stop-color:#002F69;stop-color:color(display-p3 0.0000 0.1842 0.4115);stop-opacity:1;"/>
</linearGradient>
<linearGradient id="paint12_linear_15955_56852" x1="168.692" y1="139.175" x2="155.374" y2="143.291" gradientUnits="userSpaceOnUse">
<stop stop-color="#C8E7FF" style="stop-color:#C8E7FF;stop-color:color(display-p3 0.7843 0.9059 1.0000);stop-opacity:1;"/>
<stop offset="1" stop-color="#92B7D4" style="stop-color:#92B7D4;stop-color:color(display-p3 0.5725 0.7176 0.8314);stop-opacity:1;"/>
</linearGradient>
<linearGradient id="paint13_linear_15955_56852" x1="160.278" y1="141.291" x2="160.278" y2="159.028" gradientUnits="userSpaceOnUse">
<stop stop-color="#499BFF" style="stop-color:#499BFF;stop-color:color(display-p3 0.2875 0.6063 1.0000);stop-opacity:1;"/>
<stop offset="1" stop-color="#0668E1" style="stop-color:#0668E1;stop-color:color(display-p3 0.0235 0.4078 0.8824);stop-opacity:1;"/>
</linearGradient>
<linearGradient id="paint14_linear_15955_56852" x1="151.783" y1="127.58" x2="137.179" y2="157.372" gradientUnits="userSpaceOnUse">
<stop stop-color="#C8E7FF" style="stop-color:#C8E7FF;stop-color:color(display-p3 0.7843 0.9059 1.0000);stop-opacity:1;"/>
<stop offset="1" stop-color="#92B7D4" style="stop-color:#92B7D4;stop-color:color(display-p3 0.5725 0.7176 0.8314);stop-opacity:1;"/>
</linearGradient>
<linearGradient id="paint15_linear_15955_56852" x1="162.558" y1="132.86" x2="147.954" y2="162.652" gradientUnits="userSpaceOnUse">
<stop stop-color="#C8E7FF" style="stop-color:#C8E7FF;stop-color:color(display-p3 0.7843 0.9059 1.0000);stop-opacity:1;"/>
<stop offset="1" stop-color="#92B7D4" style="stop-color:#92B7D4;stop-color:color(display-p3 0.5725 0.7176 0.8314);stop-opacity:1;"/>
</linearGradient>
<linearGradient id="paint16_linear_15955_56852" x1="173.329" y1="138.141" x2="158.725" y2="167.933" gradientUnits="userSpaceOnUse">
<stop stop-color="#C8E7FF" style="stop-color:#C8E7FF;stop-color:color(display-p3 0.7843 0.9059 1.0000);stop-opacity:1;"/>
<stop offset="1" stop-color="#92B7D4" style="stop-color:#92B7D4;stop-color:color(display-p3 0.5725 0.7176 0.8314);stop-opacity:1;"/>
</linearGradient>
<linearGradient id="paint17_linear_15955_56852" x1="137.708" y1="21.9695" x2="137.708" y2="88.4445" gradientUnits="userSpaceOnUse">
<stop stop-color="#FFFFFE" style="stop-color:#FFFFFE;stop-color:color(display-p3 1.0000 1.0000 0.9961);stop-opacity:1;"/>
<stop offset="1" stop-color="#C8E7FF" style="stop-color:#C8E7FF;stop-color:color(display-p3 0.7843 0.9059 1.0000);stop-opacity:1;"/>
</linearGradient>
<linearGradient id="paint18_linear_15955_56852" x1="138.717" y1="58.0006" x2="137.619" y2="26.3667" gradientUnits="userSpaceOnUse">
<stop stop-color="#0CB5F9" style="stop-color:#0CB5F9;stop-color:color(display-p3 0.0471 0.7098 0.9765);stop-opacity:1;"/>
<stop offset="1" stop-color="#625EFF" style="stop-color:#625EFF;stop-color:color(display-p3 0.3843 0.3686 1.0000);stop-opacity:1;"/>
</linearGradient>
<linearGradient id="paint19_linear_15955_56852" x1="169.88" y1="26.1433" x2="170.52" y2="29.4347" gradientUnits="userSpaceOnUse">
<stop stop-color="#3891FF" style="stop-color:#3891FF;stop-color:color(display-p3 0.2183 0.5681 1.0000);stop-opacity:1;"/>
<stop offset="1" stop-color="#123B6E" style="stop-color:#123B6E;stop-color:color(display-p3 0.0725 0.2328 0.4308);stop-opacity:1;"/>
</linearGradient>
<linearGradient id="paint20_linear_15955_56852" x1="165.111" y1="27.0708" x2="165.751" y2="30.3622" gradientUnits="userSpaceOnUse">
<stop stop-color="#FFFFFE" style="stop-color:#FFFFFE;stop-color:color(display-p3 1.0000 1.0000 0.9961);stop-opacity:1;"/>
<stop offset="1" stop-color="#C8E7FF" style="stop-color:#C8E7FF;stop-color:color(display-p3 0.7843 0.9059 1.0000);stop-opacity:1;"/>
</linearGradient>
<linearGradient id="paint21_linear_15955_56852" x1="159.985" y1="26.0062" x2="160.808" y2="30.669" gradientUnits="userSpaceOnUse">
<stop stop-color="#FFFFFE" style="stop-color:#FFFFFE;stop-color:color(display-p3 1.0000 1.0000 0.9961);stop-opacity:1;"/>
<stop offset="1" stop-color="#C8E7FF" style="stop-color:#C8E7FF;stop-color:color(display-p3 0.7843 0.9059 1.0000);stop-opacity:1;"/>
</linearGradient>
<linearGradient id="paint22_linear_15955_56852" x1="171.93" y1="32.8122" x2="147.519" y2="45.7036" gradientUnits="userSpaceOnUse">
<stop stop-color="#C8E7FF" style="stop-color:#C8E7FF;stop-color:color(display-p3 0.7843 0.9059 1.0000);stop-opacity:1;"/>
<stop offset="1" stop-color="#92B7D4" style="stop-color:#92B7D4;stop-color:color(display-p3 0.5725 0.7176 0.8314);stop-opacity:1;"/>
</linearGradient>
<linearGradient id="paint23_linear_15955_56852" x1="174.193" y1="37.0978" x2="149.782" y2="49.9891" gradientUnits="userSpaceOnUse">
<stop stop-color="#C8E7FF" style="stop-color:#C8E7FF;stop-color:color(display-p3 0.7843 0.9059 1.0000);stop-opacity:1;"/>
<stop offset="1" stop-color="#92B7D4" style="stop-color:#92B7D4;stop-color:color(display-p3 0.5725 0.7176 0.8314);stop-opacity:1;"/>
</linearGradient>
<linearGradient id="paint24_linear_15955_56852" x1="177.666" y1="43.6758" x2="153.255" y2="56.5671" gradientUnits="userSpaceOnUse">
<stop stop-color="#C8E7FF" style="stop-color:#C8E7FF;stop-color:color(display-p3 0.7843 0.9059 1.0000);stop-opacity:1;"/>
<stop offset="1" stop-color="#92B7D4" style="stop-color:#92B7D4;stop-color:color(display-p3 0.5725 0.7176 0.8314);stop-opacity:1;"/>
</linearGradient>
<linearGradient id="paint25_linear_15955_56852" x1="110.668" y1="65.8744" x2="110.668" y2="93.9234" gradientUnits="userSpaceOnUse">
<stop stop-color="#3891FF" style="stop-color:#3891FF;stop-color:color(display-p3 0.2196 0.5686 1.0000);stop-opacity:1;"/>
<stop offset="1" stop-color="#174073" style="stop-color:#174073;stop-color:color(display-p3 0.0902 0.2510 0.4510);stop-opacity:1;"/>
</linearGradient>
<linearGradient id="paint26_linear_15955_56852" x1="116.676" y1="73.1887" x2="116.676" y2="96.8698" gradientUnits="userSpaceOnUse">
<stop stop-color="#0CB5F9" style="stop-color:#0CB5F9;stop-color:color(display-p3 0.0471 0.7098 0.9765);stop-opacity:1;"/>
<stop offset="1" stop-color="#625EFF" style="stop-color:#625EFF;stop-color:color(display-p3 0.3843 0.3686 1.0000);stop-opacity:1;"/>
</linearGradient>
<linearGradient id="paint27_linear_15955_56852" x1="122.688" y1="65.8744" x2="122.688" y2="93.9234" gradientUnits="userSpaceOnUse">
<stop stop-color="#3891FF" style="stop-color:#3891FF;stop-color:color(display-p3 0.2196 0.5686 1.0000);stop-opacity:1;"/>
<stop offset="1" stop-color="#0668E1" style="stop-color:#0668E1;stop-color:color(display-p3 0.0235 0.4078 0.8824);stop-opacity:1;"/>
</linearGradient>
<linearGradient id="paint28_linear_15955_56852" x1="128.696" y1="73.1887" x2="128.696" y2="96.8698" gradientUnits="userSpaceOnUse">
<stop stop-color="#0CB5F9" style="stop-color:#0CB5F9;stop-color:color(display-p3 0.0471 0.7098 0.9765);stop-opacity:1;"/>
<stop offset="1" stop-color="#625EFF" style="stop-color:#625EFF;stop-color:color(display-p3 0.3843 0.3686 1.0000);stop-opacity:1;"/>
</linearGradient>
<linearGradient id="paint29_linear_15955_56852" x1="134.704" y1="65.8744" x2="134.704" y2="93.9234" gradientUnits="userSpaceOnUse">
<stop stop-color="#3891FF" style="stop-color:#3891FF;stop-color:color(display-p3 0.2196 0.5686 1.0000);stop-opacity:1;"/>
<stop offset="1" stop-color="#174073" style="stop-color:#174073;stop-color:color(display-p3 0.0902 0.2510 0.4510);stop-opacity:1;"/>
</linearGradient>
<linearGradient id="paint30_linear_15955_56852" x1="140.711" y1="73.1887" x2="140.711" y2="96.8698" gradientUnits="userSpaceOnUse">
<stop stop-color="#0CB5F9" style="stop-color:#0CB5F9;stop-color:color(display-p3 0.0471 0.7098 0.9765);stop-opacity:1;"/>
<stop offset="1" stop-color="#625EFF" style="stop-color:#625EFF;stop-color:color(display-p3 0.3843 0.3686 1.0000);stop-opacity:1;"/>
</linearGradient>
<linearGradient id="paint31_linear_15955_56852" x1="146.723" y1="65.8744" x2="146.723" y2="93.9234" gradientUnits="userSpaceOnUse">
<stop stop-color="#3891FF" style="stop-color:#3891FF;stop-color:color(display-p3 0.2183 0.5681 1.0000);stop-opacity:1;"/>
<stop offset="1" stop-color="#174073" style="stop-color:#174073;stop-color:color(display-p3 0.0896 0.2509 0.4500);stop-opacity:1;"/>
</linearGradient>
<linearGradient id="paint32_linear_15955_56852" x1="152.731" y1="73.1887" x2="152.731" y2="96.8698" gradientUnits="userSpaceOnUse">
<stop stop-color="#0CB5F9" style="stop-color:#0CB5F9;stop-color:color(display-p3 0.0471 0.7098 0.9765);stop-opacity:1;"/>
<stop offset="1" stop-color="#625EFF" style="stop-color:#625EFF;stop-color:color(display-p3 0.3843 0.3686 1.0000);stop-opacity:1;"/>
</linearGradient>
<linearGradient id="paint33_linear_15955_56852" x1="158.743" y1="65.8744" x2="158.743" y2="93.9234" gradientUnits="userSpaceOnUse">
<stop stop-color="#3891FF" style="stop-color:#3891FF;stop-color:color(display-p3 0.2196 0.5686 1.0000);stop-opacity:1;"/>
<stop offset="1" stop-color="#174073" style="stop-color:#174073;stop-color:color(display-p3 0.0902 0.2510 0.4510);stop-opacity:1;"/>
</linearGradient>
<linearGradient id="paint34_linear_15955_56852" x1="164.751" y1="73.1887" x2="164.751" y2="96.8698" gradientUnits="userSpaceOnUse">
<stop stop-color="#0CB5F9" style="stop-color:#0CB5F9;stop-color:color(display-p3 0.0471 0.7098 0.9765);stop-opacity:1;"/>
<stop offset="1" stop-color="#625EFF" style="stop-color:#625EFF;stop-color:color(display-p3 0.3843 0.3686 1.0000);stop-opacity:1;"/>
</linearGradient>
<linearGradient id="paint35_linear_15955_56852" x1="44.6683" y1="123.165" x2="44.7639" y2="155.469" gradientUnits="userSpaceOnUse">
<stop stop-color="white" style="stop-color:white;stop-opacity:1;"/>
<stop offset="1" stop-color="#C8E7FF" style="stop-color:#C8E7FF;stop-color:color(display-p3 0.7843 0.9059 1.0000);stop-opacity:1;"/>
</linearGradient>
<linearGradient id="paint36_linear_15955_56852" x1="62.2958" y1="133.746" x2="46.5748" y2="154.627" gradientUnits="userSpaceOnUse">
<stop stop-color="#0CB5F9" style="stop-color:#0CB5F9;stop-color:color(display-p3 0.0471 0.7098 0.9765);stop-opacity:1;"/>
<stop offset="1" stop-color="#625EFF" style="stop-color:#625EFF;stop-color:color(display-p3 0.3843 0.3686 1.0000);stop-opacity:1;"/>
</linearGradient>
<linearGradient id="paint37_linear_15955_56852" x1="48.6328" y1="145.721" x2="53.014" y2="145.721" gradientUnits="userSpaceOnUse">
<stop stop-color="#B1D4FF" style="stop-color:#B1D4FF;stop-color:color(display-p3 0.6952 0.8316 1.0000);stop-opacity:1;"/>
<stop offset="1" stop-color="#0668E1" style="stop-color:#0668E1;stop-color:color(display-p3 0.0235 0.4078 0.8824);stop-opacity:1;"/>
</linearGradient>
<linearGradient id="paint38_linear_15955_56852" x1="55.6406" y1="144.188" x2="60.0218" y2="144.188" gradientUnits="userSpaceOnUse">
<stop stop-color="#B1D4FF" style="stop-color:#B1D4FF;stop-color:color(display-p3 0.6952 0.8316 1.0000);stop-opacity:1;"/>
<stop offset="1" stop-color="#0668E1" style="stop-color:#0668E1;stop-color:color(display-p3 0.0235 0.4078 0.8824);stop-opacity:1;"/>
</linearGradient>
<linearGradient id="paint39_linear_15955_56852" x1="124.674" y1="99.2733" x2="110.216" y2="235.09" gradientUnits="userSpaceOnUse">
<stop stop-color="#FFFFFE" style="stop-color:#FFFFFE;stop-color:color(display-p3 1.0000 1.0000 0.9961);stop-opacity:1;"/>
<stop offset="1" stop-color="#C8E7FF" style="stop-color:#C8E7FF;stop-color:color(display-p3 0.7843 0.9059 1.0000);stop-opacity:1;"/>
</linearGradient>
<linearGradient id="paint40_linear_15955_56852" x1="135.375" y1="100.413" x2="120.917" y2="236.231" gradientUnits="userSpaceOnUse">
<stop stop-color="#FFFFFE" style="stop-color:#FFFFFE;stop-color:color(display-p3 1.0000 1.0000 0.9961);stop-opacity:1;"/>
<stop offset="1" stop-color="#C8E7FF" style="stop-color:#C8E7FF;stop-color:color(display-p3 0.7843 0.9059 1.0000);stop-opacity:1;"/>
</linearGradient>
<linearGradient id="paint41_linear_15955_56852" x1="113.809" y1="98.1174" x2="99.3516" y2="233.935" gradientUnits="userSpaceOnUse">
<stop stop-color="#FFFFFE" style="stop-color:#FFFFFE;stop-color:color(display-p3 1.0000 1.0000 0.9961);stop-opacity:1;"/>
<stop offset="1" stop-color="#C8E7FF" style="stop-color:#C8E7FF;stop-color:color(display-p3 0.7843 0.9059 1.0000);stop-opacity:1;"/>
</linearGradient>
<linearGradient id="paint42_linear_15955_56852" x1="81.7177" y1="100.861" x2="67.26" y2="236.678" gradientUnits="userSpaceOnUse">
<stop stop-color="#FFFFFE" style="stop-color:#FFFFFE;stop-color:color(display-p3 1.0000 1.0000 0.9961);stop-opacity:1;"/>
<stop offset="1" stop-color="#C8E7FF" style="stop-color:#C8E7FF;stop-color:color(display-p3 0.7843 0.9059 1.0000);stop-opacity:1;"/>
</linearGradient>
<linearGradient id="paint43_linear_15955_56852" x1="73.8268" y1="100.023" x2="59.3693" y2="235.836" gradientUnits="userSpaceOnUse">
<stop stop-color="#FFFFFE" style="stop-color:#FFFFFE;stop-color:color(display-p3 1.0000 1.0000 0.9961);stop-opacity:1;"/>
<stop offset="1" stop-color="#C8E7FF" style="stop-color:#C8E7FF;stop-color:color(display-p3 0.7843 0.9059 1.0000);stop-opacity:1;"/>
</linearGradient>
<linearGradient id="paint44_linear_15955_56852" x1="89.4396" y1="101.683" x2="74.9813" y2="237.505" gradientUnits="userSpaceOnUse">
<stop stop-color="#FFFFFE" style="stop-color:#FFFFFE;stop-color:color(display-p3 1.0000 1.0000 0.9961);stop-opacity:1;"/>
<stop offset="1" stop-color="#C8E7FF" style="stop-color:#C8E7FF;stop-color:color(display-p3 0.7843 0.9059 1.0000);stop-opacity:1;"/>
</linearGradient>
<linearGradient id="paint45_linear_15955_56852" x1="75.98" y1="100.251" x2="61.5222" y2="236.068" gradientUnits="userSpaceOnUse">
<stop stop-color="#FFFFFE" style="stop-color:#FFFFFE;stop-color:color(display-p3 1.0000 1.0000 0.9961);stop-opacity:1;"/>
<stop offset="1" stop-color="#C8E7FF" style="stop-color:#C8E7FF;stop-color:color(display-p3 0.7843 0.9059 1.0000);stop-opacity:1;"/>
</linearGradient>
<linearGradient id="paint46_linear_15955_56852" x1="68.1791" y1="99.4202" x2="53.7211" y2="235.238" gradientUnits="userSpaceOnUse">
<stop stop-color="#FFFFFE" style="stop-color:#FFFFFE;stop-color:color(display-p3 1.0000 1.0000 0.9961);stop-opacity:1;"/>
<stop offset="1" stop-color="#C8E7FF" style="stop-color:#C8E7FF;stop-color:color(display-p3 0.7843 0.9059 1.0000);stop-opacity:1;"/>
</linearGradient>
<linearGradient id="paint47_linear_15955_56852" x1="83.9493" y1="101.101" x2="69.4914" y2="236.918" gradientUnits="userSpaceOnUse">
<stop stop-color="#FFFFFE" style="stop-color:#FFFFFE;stop-color:color(display-p3 1.0000 1.0000 0.9961);stop-opacity:1;"/>
<stop offset="1" stop-color="#C8E7FF" style="stop-color:#C8E7FF;stop-color:color(display-p3 0.7843 0.9059 1.0000);stop-opacity:1;"/>
</linearGradient>
<linearGradient id="paint48_linear_15955_56852" x1="91.4297" y1="101.897" x2="76.9719" y2="237.714" gradientUnits="userSpaceOnUse">
<stop stop-color="#FFFFFE" style="stop-color:#FFFFFE;stop-color:color(display-p3 1.0000 1.0000 0.9961);stop-opacity:1;"/>
<stop offset="1" stop-color="#C8E7FF" style="stop-color:#C8E7FF;stop-color:color(display-p3 0.7843 0.9059 1.0000);stop-opacity:1;"/>
</linearGradient>
<linearGradient id="paint49_linear_15955_56852" x1="94.7081" y1="102.244" x2="80.2507" y2="238.057" gradientUnits="userSpaceOnUse">
<stop stop-color="#FFFFFE" style="stop-color:#FFFFFE;stop-color:color(display-p3 1.0000 1.0000 0.9961);stop-opacity:1;"/>
<stop offset="1" stop-color="#C8E7FF" style="stop-color:#C8E7FF;stop-color:color(display-p3 0.7843 0.9059 1.0000);stop-opacity:1;"/>
</linearGradient>
<linearGradient id="paint50_linear_15955_56852" x1="90.5094" y1="101.798" x2="76.0515" y2="237.615" gradientUnits="userSpaceOnUse">
<stop stop-color="#FFFFFE" style="stop-color:#FFFFFE;stop-color:color(display-p3 1.0000 1.0000 0.9961);stop-opacity:1;"/>
<stop offset="1" stop-color="#C8E7FF" style="stop-color:#C8E7FF;stop-color:color(display-p3 0.7843 0.9059 1.0000);stop-opacity:1;"/>
</linearGradient>
<clipPath id="clip0_15955_56852">
<rect width="200" height="200" fill="white" style="fill:white;fill-opacity:1;"/>
</clipPath>
</defs>
</svg>
