<svg xmlns="http://www.w3.org/2000/svg" viewBox="0 0 714.91 899.65" xmlns:v="https://vecta.io/nano"><style><![CDATA[.CV{fill:#534535}.CW{fill:#ada392}.CX{fill:#aea493}.CY{fill:#ebe4d9}.CZ{fill:#827158}.Ca{fill:#ada493}.Cb{fill:#212515}.Cc{fill:#544636}.Cd{fill:#554737}.Ce{fill:#aca291}.Cf{fill:#eae3d8}.Cg{fill:#222616}.Ch{fill:#2c2f1f}.Ci{fill:#817158}.Cj{fill:#ada393}.Ck{fill:#232717}.Cl{fill:#afa594}.Cm{fill:#b6ad9c}.Cn{fill:#bbb2a2}.Co{fill:#f4eee3}.Cp{fill:#584a3b}.Cq{fill:#b1a797}.Cr{fill:#5a4c3c}]]></style><path d="M714.76 785.67v10c-1.36 14.01-2.76 28-5.04 41.9-1.29 7.84-4.83 14.81-7.41 22.16-.51 1.46-1.56 2.55-3.26 2.73-9.83.53-19.63-.71-29.4-.65-58.43.38-116.83-1.16-175.25-1.45-26.11-.13-52.27.29-78.35-.93-23.47-1.1-46.93-.11-70.37-.82-39.93-1.21-79.9-.09-119.81-1.22-30.8-.87-61.58.05-92.34-.87-10.77-.32-21.6-.26-32.31-1.63-2.7-1.08-2.87-3.52-2.84-5.84.18-12.64-.52-25.27.63-37.92.96-10.59.15-21.28.33-32.73-4.05 3.4-6.62 7.16-9.47 10.64-5.18 6.31-5.74 6.49-12.24 1.81-1.99-1.44-3.41-.55-5.01.3-4.41 2.34-8.88 4.57-13.39 6.72-1.62.77-3.46 1.92-5.16.67-1.74-1.29-.99-3.34-.69-5.12.28-1.63.75-3.23 1.03-5.08-1.75 1.36-3.32 2.7-4.34 4.31-4.34 6.92-10.84 8.91-18.57 9.6-9.43.85-18.83 2.52-27.15 7.66-3.38-2.26-3.3-5.37.41-7.21 3.27-1.61 6.84-2.56 10.38-3.42 3.86-.93 7.05-2.69 9.52-5.87 1.63-2.09 3.91-3.65 5.49-5.75 3.87-5.14 8.79-7.85 15.3-7.72 2.77.06 5.08-1.45 7.25-3 12.65-9 26.38-15.9 41-21.05 10.54-4.76 21.3-9.06 31.67-14.22-11.57 2.99-21.3 10.22-32.42 14.29-6.31-2.55-10.96-7.34-15.78-11.84-2.07-1.94-1.87-4.86-1.91-7.52-.17-9.6.5-19.23-.87-28.8 1.94-4.48.84-9.16.99-13.78.12-3.85-1.91-9 1.98-11.12 3.55-1.92 6.83 2.32 10.1 4.11 2.18 1.19 4.29 2.56 6.35 3.97 1.53 1.05 3.28 2.29 3.31 4.17.09 5.23 3.28 8.88 5.95 12.83.1 6.1 1.48 12.12 1.29 18.23-.68 3.4-.32 6.84-.3 10.24.04.15.04.34.12.52-.16-.62-.17-1.25-.18-1.88v-4.3c0-.99-.01-1.98.08-2.97.58-1.94.41-3.96.56-5.95a7.5 7.5 0 0 1 .25-1.49c1.01-2.1.4-4.46 1-6.62 2.48-4.36 5.8-4.81 9.33-1.04 3.08 3.29 5.07 7.37 7.44 11.17 3.17 5.1 9.37 5.11 12.03-.39 3.54-7.32 5.89-15.15 7.8-23.06.79-3.28-1.36-6.47-1.05-9.84-.18-2.74 1.59-4.45 3.55-5.62 4.3-2.57 5.15-6.29 5.14-10.98-.03-25.6-1.84-51.18-1.05-76.78.28-8.97.37-17.94.41-26.91 0-2 .05-3.99-.51-5.93-.61-.71.41-3.78-2.21-1.51-.61.53-1 1.31-1.56 1.91-3.25 3.46-5.07 3.42-7.86-.39-3.99-5.44-7.37-11.28-11.05-16.93-1.14-1.7-1.94-3.59-3.07-5.29-.38-.54-.82-1.03-1.18-1.58.43.71 1.02 1.31 1.44 2.03 1.21 1.96 2.14 4.09 3.55 5.94 7.09 11.49 12.99 23.63 19.71 35.33a12.2 12.2 0 0 1 1.55 4.21c.15 4.45.62 8.9.21 13.35-.17 1.84-.52 3.8-2.63 4.33-1.91.48-3.02-1.06-3.99-2.37-3.15-4.24-5.95-8.71-8.25-13.47-1.04-1.72-1.68-3.69-2.95-5.2.03.16.12.21.18.32 1.39 1.83 2.12 3.98 3.26 5.91 2.18 3.93 3.61 8.32 6.01 12.02 6.07 9.35 5.55 19.16 3.34 29.3-.39 1.8-.66 4-2.74 4.34-2.18.35-2.97-1.85-3.72-3.43-4.56-9.63-8.37-19.58-12.48-29.4l-32.53-77.79c-.77-1.84-1.18-3.8-1.92-5.65-.65-2.86-1.95-5.5-2.98-8.22-.63-2.5-1.91-4.77-2.52-7.28-.44-.78-.47-1.7-.83-2.51.3.9.41 1.87.85 2.73.95 2.93 2.06 5.79 3.22 8.64.94 2.83 2.08 5.59 2.91 8.46 9.57 24.32 16.99 49.38 25.34 74.11l21.36 64.98c.2.63.46 1.26.6 1.91.51 2.37 1.95 5.16-1.34 6.48-3.15 1.26-6.28.89-8.42-2.24-1.52-2.22-2.42-4.76-3.26-7.27a402.8 402.8 0 0 1-4.56-14.71c-.4-1.39-1.28-2.62-1.43-4.1.15-1.41-1.07-2.49-.96-3.81.01.08-.02.34-.02.4.97 1.85.71 4.02 1.78 5.77.23.96.65 1.85 1 2.76 3.01 9.96 5.74 19.99 8.14 30.11.53 2.23 1.44 4.45.6 6.8-1.68 2.1-3.6 1.13-5.39.29l-55.04-26.07c-2.24-1.07-3.8-2.71-4.59-5.01-1.27-3.69-3.92-6.06-7.12-8.04l-18.59-11.71c-2.03-1.34-4.06-2.16-6.55-1.2-1.54.59-3.27 1.14-4.32-.96-1.85-8.32.2-16.56.75-24.78l3.46-45.22 3.58-47.22c.96-15.26 2.72-30.46 3.34-45.73.47-11.68 5.52-21.74 10.6-31.82 3.38-.83 3.62 2.21 4.54 4 3 5.85 4.99 12.14 7.59 18.16.52 2.03 1.39 3.94 1.92 5.89a10.6 10.6 0 0 0 .06.23s.04 0 .02-.07c-.87-2.62-1.6-5.21-2.75-7.65-3.21-8.14-5.46-16.57-7.5-25.06 8.03-8.66 16.32-16.19 29.75-14.24 14.68 2.12 29.55.53 44.32.86 2.47.05 3.73-.8 4.44-3.49 1.92-7.29 5.96-13.67 9.53-20.23 1.33-2.44 3.87-3.54 6.2-4.84 4.78-2.67 10.07-4.39 14.5-7.71 1.13-.88 2.52-.63 3.79-.91 7.38-2.49 15.04-3.95 22.55-5.94 3.01-.8 5.88-.19 8.76.73 9.44 3.04 18.8 6.31 27.95 10.14 2.07.76 4 1.94 5.82 2.2-1.17-.13-2.54-.98-4.05-1.42-10.04-4.05-19.99-8.27-29.6-13.25-1.83-.95-4.31-1.4-4.12-4.33.94-2.44 3.36-2.64 5.33-3.51 1.46-.3 2.92-.61 3.56-2.25.22-.4.51-.73.89-.99 3.8-1.59 7.82-2.48 11.72-3.74a158.8 158.8 0 0 1 8.74-3.08c2.24-.91 4.69-1.32 7.3-2.84-3.16-1.59-6.07-2.28-8.84-3.31a8.2 8.2 0 0 1-5.61-6.44c-.55-2.61-1.26-5.2-1.57-7.83-.7-5.94-3.01-11.16-6.53-15.92-.04-1.53.09-3.01 1.2-4.21 1.73.95 1.56.83 2.89-1.07 4.21-6.06 9.42-11.17 15.3-15.6 2.58-1.94 5.24-1.62 7.93-.03 5.58 3.3 11.32 6.32 16.79 9.83 1.64 1.28 2.98 2.78 3.63 4.8 1.18 6.52 1.25 13.17 2.22 19.72.64 4.37-.81 8.14-4.03 12.53l11.15-3.47c1.88-.54 3.7-1.2 5.49-1.98 6.05-2.33 12.33-3.93 18.43-6.09 9.55-1.74 15.8-8.78 22.99-14.31 1.44-1.11 2.24-2.51 1.13-4.32-1.21-1.97-2.75-3.15-5.31-2.84-8.79 1.06-8.84 1-6.25-7.87 1.96-6.7 3.64-13.48 5.43-20.23 1.02-3.85-4.44-13.46-8.19-14.6-2.12-.65-3 1.02-4.01 2.24l-10.85 13.02c-.85 1.03-1.63 2.11-2.66 2.96-1.02.84-2.11 1.91-3.52 1.29-1.42-.62-1.46-2.13-1.41-3.47.45-10.49 1.03-20.74 8.42-29.49 4.79-5.67 8.51-12.28 12.67-18.49 2.48-3.71 3.46-3.61 6.96-.47 2.25 3.3 3.35 7.15 5.06 10.71.5 1.04.85 2.15 1.32 3.2 4.92 10.98 7.65 11.78 17.34 5.05l44.76-31.81c2.53-1.79 3.95-4.46 5.49-7.03l10-16.71c3.27-5.47 2.99-6.17-3.04-7.59-.82-.19-1.63-.35-2.07-1.17.53-3.03 2.93-3.19 5.27-3.46 6.36 2.19 12.64 4.64 19.1 6.56 3.64 1.49 7.48 2.41 11.13 3.87 1.92 1.38 5.67 0 6.13 3.25.45 3.19-2.5 4.86-4.63 6.62-4.74 3.92-9.07 8.29-13.75 12.29-6.6 5.64-8.69 14-12.17 21.49-.73 1.57.14 2.9 1.35 3.95 4.02 3.49 8.36 6.04 14.02 4.91 1.79-.36 3.6-.59 5.43-.71 4.25-.28 7.42 1.27 9.39 5.15 1.5 2.96 3.33 5.75 4.91 8.68 2.41 4.46 2.85 4.49 6.21.98.57-.6 1.11-1.24 1.74-1.78 3.05-2.61 5.05-2.65 6.76.88 2.16 4.44 5.17 5.03 9.32 3.72 4.84-1.54 8.76.43 12.37 3.42 3.27 2.71 6.67 4.97 11.21 3.02 2.8 1.63 2.95 4.61 3.56 7.27l5.65 24.98c4.86 7.76 12.67 12.86 18.14 19.94 0-1.37.07-2.85 1.98-3.26 4.85.13 8.67 3.07 12.89 4.85 2.77 1.17 4.03.67 4.44-2.25.21-1.48.46-2.95.72-4.43.41-2.34.84-4.71-1.9-6.05-2.76-1.36-5.3-1.44-7.81.79-2.7 2.39-4.64 5.73-8.31 6.96-1.61.55-2.98 0-4.12-1.08l-10.31-9.39c-1.65-1.48-2.95-3.39-.64-5.52 3.38-1.63 7.05-1.83 10.71-2.03 3.68-.2 6.08-1.58 5.89-5.73-.11-2.47 1.11-4.87.36-8.3l-13.89 12.46c-1.77 1.49-3.28 3.38-5.86 3.53-3.17-.87-2.43-3.54-2.52-5.7-.34-8.07.51-16.17-.55-24.23 1.17-3.76-.68-8.04 1.93-11.57 2.06-1.14 3.85 0 5.69.69 4.07 1.51 7.85 3.65 11.85 5.3 1.08.44 2.31.72 3.08-.63.63-1.12 0-2.05-.82-2.57-7.31-4.65-13.18-11.65-22.9-12.28-8.54-.55-13.94-10.28-10.77-18.22 4.88-12.22 8.91-24.76 13.64-37.05 1.71-4.43 3.96-7.62 8.87-8.35 1.89-.36 3.79-.57 5.71-.24 4.07-.02 5.36 2.73 5.9 6.08 1.83 11.44 5.02 22.68 4.87 34.4 0 .41-.19 1 .3 1.12-1.07-9.4.46-18.72 1.37-28.08.55-1.86 1.46-3.37 3.59-3.68 2.58.25 2.95 2.11 3.18 4.2.83 7.63.75 15.34 1.97 22.94.15 3.1-.31 6.24.4 9.32.18 1.37.11 2.76.13 4.14-.54 4.94 1.44 9.71 1 14.65-.38 5.19.69 10.28 1 15.42-.24 5.76 1.18 11.51.52 15.54.08-5.49-.36-12.69-.97-19.89-1.32-6.47.43-13.16-1.41-19.59-.44-8.02-.12-16.08-1.25-24.07a7.7 7.7 0 0 1-.29-1.78c.36-9.59-.72-19.13-1.08-28.69-.01-1.73.04-3.46-.06-5.2-.31-3.63 1.54-5.97 4.56-7.61.88-.48 1.72-1.04 2.65-1.39 2.68-1 5.28-4.34 8.13-2.24 3.16 2.33.47 5.83.14 8.81-.21.92-.78 1.73-.92 2.68-.05.31-.1.63-.18.93.16-.42.18-.87.29-1.31 1.28-3.21 1.64-6.87 4.68-9.17 5.79-2.38 11.99-2.58 18.08-3.24 2.38-.26 4.05 1.18 5.29 3.15.98 1.55 1.57 3.31 3.28 5.49l9.23-52.79c.38-1.41 1.48-2.6 1.33-4.11-.01.08-.08-.18-.08-.11.06.49-.02.9-.1 1.34-.66 1.43-1.45 2.75-2.25 4.08-3.77 4.87-7.67 9.59-12.87 13.07-2.52 1.69-5.13 3.08-8.26 3.12-3.22-.76-7.34-.27-7.52-5.32.16-1.6 1.08-2.8 2.09-3.96.91-1.07 2.15-1.81 3-2.95 1.29-1.52 2.57-3.09 4.08-4.33 8.87-7.25 14.1-16.81 17.55-27.37-2.55 2.31-5 4.99-7.59 7.51a31.7 31.7 0 0 0-2.48 2.44l-16.22 16.21c-1.31 1.27-2.62 2.55-4.31 3.36-12.11 5.26-24.9 8.29-37.65 11.44-.66.16-1.32-.08-1.94-.33-.46-.25-.77-.63-.94-1.12.8-4.43 4.35-7.25 6.57-10.83 4.94-7.99 9.53-16.24 15.36-23.53-.06.02-.2.13-.56.47-6.47 5.59-13.65 10.11-20.46 15.12-2.13 1.56-4.61 1.66-7.16 1.18-5.87-1.09-11.71-2.31-17.52-3.75a19 19 0 0 1-6.25-3.93c-1.16-1.09-2.61-2.39-.61-4.07 7.75-1.44 15.57-.35 23.36-.66 4.16-.16 8.32-.21 12.22-1.91 6.96-4.63 13.16-10.23 19.69-15.42 2.9-2.77 6.21-5.03 9.39-7.44 1.9-1.44 4.08-2.41 6.49-2.2 13.25 1.15 26.57 1.18 39.8 2.63 3.77.42 5.69 2.16 5.64 6.1-.15 12.34 2.97 24.29 4.57 36.42 2.44 18.58 6.52 36.89 8.6 55.54.77 6.91 1.91 13.78 2.14 20.75-.66 16.76-2.61 33.39-5.24 49.94-.43 1.84-1.19 3.61-1.19 5.56a5.4 5.4 0 0 1-.4 1.57c-.49.99-1.1 1.85-2.24 2.16-3.08-.92-3.49-3.84-4.35-6.22-4.52-12.45-9.41-24.77-13.25-37.46-.72-3.08-1.96-5.99-3.01-8.96-.21-1.16-.53-2.29-.9-3.41-.12-.47-.2-.95-.31-1.43.11.84.31 1.65.6 2.45.46 1.35.52 2.82 1.23 4.09 1.26 3.29 2.22 6.67 3.3 10.02 5.21 16.46 9.57 33.16 13.83 49.88.42 1.64.6 3.25.63 4.91.39 6.69-.14 13.37 0 20.06.04 1.96-.09 3.93.91 5.73 2.26 3.85 6.88 5.55 8.83 9.68 1.12 2.03 1.78 4.2 1.98 6.51-.35 4.05-2.72 3.66-5.2 2.14-4.4-2.69-8.5-5.82-12.58-8.97-2.97-2.3-6.25-3.68-9.96-4.26-12.98-2.03-25.85-4.63-38.84-6.57-2.13-.32-4.92-1.88-6.31.89-1.39 2.76-.34 5.53 1.79 7.75.89.93 1.57 2.16 3.01 2.47 1.22-.7 1.04-2.02 1.3-3.08.98-4.11 3.63-5.36 7.48-4.41l17.96 4.2c5.22 1.38 8.92 5.06 12.7 8.53 3.19 2.92 6.34 5.87 9.82 8.46.42.3.86.58 1.33.81 4.55.94 8.78.45 13.01-1.72 3.92-2.01 5.54-.9 5.71 3.5.16 4.15.22 8.31-.1 12.46-1.18 4.35-2.6 8.61-5.23 12.35-2.17 3.21-4.54 6.14-8.68 6.94-2.67.52-2.17 2.56-1.77 4.33l3.62 17.02c.68 3.47 2.04 6.8 2.06 10.4-.49 2.64-1.64 3.64-3.95 1.52a13.5 13.5 0 0 1-2.93-3.92c.71 3.34 1.47 6.24 2.14 9.16.38 1.66.97 3.36 2.76 3.87 2.43.68 2.08-2.13 3.34-2.99 5.46-3.8 11.39-6.77 17.27-9.83 5.18-2.7 5.65-3.41 4.14-9l-12.37-47.2a31.3 31.3 0 0 1-.07-4.84 6.8 6.8 0 0 1 .29-1.61c3.72-12.15 5.39-24.73 7.62-37.19.52-1.56 1.05-3.1 1.05-4.8s-.33-3.96 1.74-4.77c2.35-.93 3.56 1.23 4.83 2.62 6.13 6.7 11.55 14 17.47 20.88 1.71 1.99 3.59 3.85 5.06 6.04.71 8.56-1.1 16.89-2.59 25.21-4.83 26.96-12.52 53.06-24.36 77.83-1.75 3.67-2.86 6.98.79 10.33 1.7 1.56 1.96 4.17 2.52 6.43l12.05 51.48c.58 2.31 1.59 4.86-.51 7.08-1.64 1.01-3.49 1.21-5.31 1.03-12.76-1.22-25.58-1.36-38.35-2.48-8.26-.73-16.61-1.43-24.54 2.37-3.38 1.62-7.2 1.45-10.84 1.16-17.42-1.4-34.87-2.28-52.31-3.35l-54.77-3.51-53.82-3.14c-3.01-.2-5.56-1.12-7.09-3.89-.9-1.62-2.2-2.32-4.04-2.43l-60.73-4.49c-2.01-.14-5.6-1.59-5.88 1.42-.22 2.4 3.46 1.87 5.41 2.01l40.83 2.66c9.23.36 10.52 1.32 12.04 10.31 4.68 27.63 7.12 55.46 6.69 83.47-.58 37.93-5.44 75.38-14.22 112.28-6.36 26.76-13.94 53.18-23.51 78.99-.81 2.18-1.45 4.45-3.05 6.24-1.91 1.92-4.36 2.25-6.89 2.3-5.64.1-11.32.49-16.91-.1-7.62-.81-15.23-.74-22.85-.88-7.08-.12-8.23-1.9-5.38-8.59 6.64-15.55 12.37-31.44 17.88-47.4l3.72-11.86c-.56 2.09-1.76 5.36-2.66 8.72-6.04 18.35-13.09 36.28-22.13 53.38-3.26 6.16-7.94 7.33-13.37 3.53-.94-2.66.6-4.77 1.6-6.99 1.83-4.04 4.22-7.82 5.68-12.04 2.83-6.36 5.42-12.81 7.36-19.51 5.82-18.44 9.95-37.23 12.02-56.45 1.47-13.7 2.52-27.44 2.25-41.24-.31-2.94-.04-5.85.4-8.75.09-.3.15-.62.21-.93.08-.48.09-.96.13-1.44-.07.51-.08 1.03-.15 1.54-3.28 10.88-9.91 19.73-17.14 28.19-7.33 8.57-16.92 14.23-26.32 20.12-3.48 1.65-6.93 3.35-10.3 5.23-4.99 2.58-10.26 4.47-15.54 6.35-11.25 4.08-22.59 7.35-34.78 7.37-10.76.01-21.36 2.44-31.97 3.51 1.5.28 2.9-.07 4.33-.06 6.43.72 12.75 1.99 19.12 3.04 1.97.32 3.89.84 5.32 2.42 1.41 2.25 1.49 4.8 1.16 7.26-1.39 10.28-.81 20.61-.81 30.91 0 4.94-2.07 8.19-5.67 11.5-14.01 12.91-31.65 16.17-49.35 19.44-.89.16-2.03-.44-2.28.06 30.27-.41 60.85 1.55 91.44 1.48.58.01 1.17.04 1.75.07a7.7 7.7 0 0 1 1.72.32c4.25 1.39 8.71.02 12.99 1 7.75 1.31 15.56.61 23.33.49 15.91-.25 31.8-.98 47.7.51 6.28.59 12.65-.39 18.89.48 4.28.6 8.45 1.63 12.78.67.64-.11 1.28-.09 1.91.01 3.79.82 7.63.49 11.44.43 25.93-.43 51.84.92 77.76 1.36 15.6.26 31.26-.28 46.82.84 12.97.93 25.96-.07 38.83 1.04 12.48 1.08 24.91.54 37.36.74 12.12.19 24.2 1.71 36.34 1.04 7.66.12 15.32-.23 22.97.2 8.37 1.7 16.84.39 25.25.8 18.37 1.37 36.78.7 55.17 1.16a125 125 0 0 1 15.76 1.33l-.15-.07zm-18.99 113.97h-28.99c-10.02-1.16-20.07-.19-30.1-.51h-58.97c-9.66 0-19.32.13-28.98-.02l-114.88-.59c-37.8-.57-75.6.23-113.39-.48-30.47-.57-60.96.48-91.39-.62-38.3-1.38-76.59.02-114.86-.94-11.78-.3-23.6-.35-35.36-1.39-4.63-2.6-1.11-4.76.69-6.35L99.79 871c2.92-2.49 5.76-5.03 9.38-6.52 2.75-.96 5.59-.83 8.42-.83l122.41.22c46.29 1.21 92.59-.43 138.85.96 45.96 1.38 91.92-.4 137.85 1.02 35.64 1.1 71.27-.32 106.86 1.02 23.48.88 46.94.35 70.4.77 1.49.03 3.01-.12 4.42.54.13.1.35.19.37.31 1.61 10.63 1.28 21.08-2.97 31.15h-.01z" class="CY"/><path d="M41.67,844.48c.92-3.2-1.7-2.11-2.93-2.22-8.55-.8-17.11-1.55-25.51-3.48-4.83-1.11-9.7-2.17-13.23-6.11v-6c1.12-.04,1.13-.86,1.17-1.66,3.38-4.47,8.44-6.28,13.35-8.14,9.68-3.65,19.83-5.25,30.11-5.57,7.55-.23,15.07-2.3,22.67-.56,2.1,1.45,1.48,3.32.22,4.67-3.29,3.5-5.42,7.84-8.59,11.39-5.44,3.91-8.67,9.78-12.97,14.7-1.15,1.31-1.51,3.95-4.29,2.98h0Z" class="CV"/><path d="M714.76,785.67c-2.82,1.48-5.91,1.07-8.82.81-14.92-1.35-29.87-.46-44.8-.98-5.8-.2-11.59-.57-17.38-.86-2.07-.97-4.27-.22-6.39-.5-1.29-.17-2.44-.46-1.15-2.08,1.66-1.06,3.53-.82,5.34-.85,22.43-.29,44.83,1.15,67.25,1.48,1.5.02,2.99.18,4.38.85.56.32,1.09.7,1.57,1.13v1Z" class="Ce"/><path d="M606.8,898.64h29.99c.37.22.5.44.38.66s-.25.33-.37.33h-29.99c-.37-.22-.49-.44-.37-.66s.25-.33.37-.33h-.01Z" fill="#f5f1ec"/><path d="M636.79 899.64v-.99l24.81.02c1.76.01 3.68-.53 5.18.98h-29.99z" fill="#f0ebe3"/><path d="M606.8,898.64v1h-28.99v-.99h29-.01Z" fill="#f9f7f4"/><path d="M714.76,784.67l-.43-.08-.44.03c-1.98-2.02-2.06-4.24-.71-6.62.44-.53.96-.64,1.58-.33v7Z" fill="#d6d2c9"/><path d="M714.76 777.67a4.3 4.3 0 0 0-.88-.06c-1.97-1.88-1.88-3.85-.26-5.88l1.14-.05v6h0z" fill="#edebe7"/><path d="M302.77 84.58c-.81 5.31 3.05 9.84 8.23 10.31 9.76.87 17.9-1.65 23.57-10.16.53-.79 1.47-1.3 2.22-1.94 2.52 2.46 2.15 5.81 2.57 8.86.41 2.95.22 5.98.9 8.92.59 2.53-.55 5.64 1.82 7.53 3.25 2.59 6.86 4.72 10.81 6.12 2.26.8 4.23-.34 6.18-1.28 8.84-4.28 17.59-8.77 26.1-13.65 6.32-3.63 12.33-3 18.68-.64 3.64 1.35 4.51 3.56 2.86 6.99-2.03 4.21-5 7.91-6.91 12.15-4.81 10.65-12.37 18.63-21.94 25.23-10.27 7.08-10.72 11.11-4.09 21.9.44.71.67 1.52 1.12 2.23 1.23 3.51 4.3 5.29 6.92 7.56 4.16 3.6 7.73 7.63 7.25 13.74-1.1 2.07-4.46.81-5.15 3.5.38 1.57-.57 2.58-1.62 3.38-6.79 5.19-13.74 9.59-22.8 10.2-18.33 1.24-13.89-.14-23.4 13.51-1.14 1.64-2.47 3.21-3.29 5-3.83 8.46-11.17 9.46-19.15 9.43-4.35 0-6.28-2.29-6.86-6.31l-3.56-23.69c-.92-6.93-2.2-13.8-3.29-20.7a23 23 0 0 1 1.35-12.7c3.17-7.7 5.3-15.77 8.32-23.53.83-2.14 1.56-4.33-.2-7.19-3.3 10.08-6.05 19.64-9 29.14-.85 2.73-.76 6.74-4.23 7.23-3.12.44-4.31-3.17-5.93-5.4-7.26-9.95-13.82-20.38-20.76-30.55-1.31-1.92-2.82-3.77-2.51-6.34.71-6.81.84-13.62-.08-20.42-.77-1.49-1.65-2.96-3.08-3.86-3.47-2.2-5.09-5.47-6.17-9.31-1.32-4.73-2.62-4.97-6.38-1.68-1.38 1.21-2.35 2.82-3.8 3.96-1.79 1.41-3.18.99-3.68-1.19-.93-4.03-.78-7.89 2.7-10.86.74-1.19 2.28-1.31 2.81-2.02-.71.72-2.54.82-3.04 2.52-3.41 2.62-3.06 7.63-6.55 10.24-.85.64-1.08 2.34-2.51 1.99-1.27-.31-1.46-1.69-1.66-2.84-.45-2.57-.37-5.34-3.05-7.41-2.34 3.61-3.93 7.09-2.99 11.55.82 3.89-.72 5.19-4.32 3.39-4.25-2.12-8.49-2.44-13.04-1.95-4.39.48-8.04-1.69-11.6-3.87-2.16-1.32-2.28-3.1-.83-5.05 4.06-5.46 8.72-10.45 12.55-16.1 1.92-2.82 4.83-2.5 6.95-.47 5.72 5.49 13.05 4 19.79 4.92 3.13.43 1.93-1.63 1.12-3.15-.98-1.86-3.48-3.77.07-5.61 3.69-.35 7.29.3 10.87 1 5.91 1.17 11.85 1.74 17.8.63 4.45-.83 8.36 2.19 12.73 1.46 2.71-1.5 5.33-.55 7.96.29 4.34 1.87 9.07 2.69 13.22 5.04v-.05z" class="CY"/><path d="M267.87 133.85l20.35 30.73c2.39 3.58 4.91 7.07 8.08 11.63l12.7-41.64c2.96 4.16 4.34 7.47 2.54 11.95-3.16 7.87-5.6 16.03-8.73 23.9-1.82 4.56-1.75 8.93-.97 13.63l6.74 43.82c.5 3.6 2.05 4.42 5.22 4.02 3.46-.44 6.94-.83 10.42-.99 2.26-.11 3.11-1.71 4.11-3.19l12.15-18.3c1.94-3.1 4.16-4.63 8.01-4.76 6.12-.21 12.36-.59 18.29-2 6.71-1.6 11.71-6.65 17.12-10.72 3.4-2.15 5.92.11 8.57 1.71 1.82 1.1.68 2.19 0 3.3-5.06 8.39-9.84 16.96-15.26 25.11-3.35 5.04-9.18 7.51-14.03 10.92-11.39 7.99-22.25 16.75-34.22 23.92-.99-3.12 1.61-4.75 2.92-6.9.94-1.55 2.25-2.85 3.36-4.77-2.15.24-3.98.78-5.82 1.18-9.45 2.08-17.8.83-23.8-7.72-.39-.56-1.03-.8-1.72-.87-1.57-2.42-2.66-3.19-4.68 0-5.68 8.98-11.71 17.74-17.74 26.5a13.2 13.2 0 0 0-2.24 6.5c-.5 5.6-.14 11.25-1.68 18.21 4.83-3.6 7.05-7.68 10.08-10.96a87.3 87.3 0 0 0 7.9-9.61c2.15-3.1 3.66-2.41 5.61.02 2.08 2.59 4.21 5.16 6.54 7.51 2.15 2.16 2.5 4.3 1.62 7.2-2.59 8.58-4.91 17.25-7.28 25.89-.24.89-.99 1.83-.06 2.92 2.03.33 3.74-.94 5.49-1.64 2.84-1.14 4.58-.27 6.46 1.91 2.97 3.44 3.38 6.06-1.07 8.62-2.56 1.48-4.85 3.51-7.02 5.55-4.56 4.31-9.69 7.37-15.97 8.31-.98-.38-1.7-1.02-2.05-2.03-2.35-11.39 1.66-21.59 6.08-31.89a341.5 341.5 0 0 0-20.07 14.6c-2.32 1.81-4.39 4.17-7.67 4.33-1.83-.11-3.15-1.33-4.66-2.13-4.88-5.06-8.52-11.1-13.11-16.4-6.81-9.09-9.74-18.81-4.83-29.81 1.07-2.39 2.53-4.41 5.2-4.99 2.97-.64 4.22-2.85 5.66-5.17 4.98-7.99 6.47-17.06 8.41-26l4.89-21.44c.59-2.28 1-4.56.38-6.9-1.25-4.67.73-8.47 4.19-10.98 2.99-2.17 3.13-3.67.87-6.18-1.11-1.23-1.96-2.71-1.97-4.49.5-2.65 2.56-2.82 4.55-2.58 4.55.56 9.15.94 13.49 2.57.85 0 2.83 1.95 1.85-1.15-1.17-3.71-3.75-6.6-5.6-9.91-2.36-4.56-5.27-7.82-11.06-8.55-4.2-.53-7.39-4.01-9.74-7.77-1.13-6.23-.65-12.5-.37-18.75a7.6 7.6 0 0 1 1.92-4.99c.49-.48 1.04-.57 1.66-.27h0z" class="CW"/><path d="M631.66 493.95c-.55 4.09-3.74 6.54-5.95 9.6-1.57 1.61-3.52 1.5-5.56 1.35l-45.09-2.97c-3.15-.21-5.35 1.4-7.69 2.91-3.32 2.14-6.16 5.1-10.22 5.98-1.77.39-3.41-.54-5.15-.51l-70.62-6.08-74.06-6.05c-3.39-.31-5.78 1.07-8.1 3.05-3.73 3.19-7.86 4.98-12.86 4.02-2.02-.5-4.22-1.28-3.6 2.34 1.91 18.4 2.3 36.85 2.58 55.31v27.56c-.09 5.89.16 11.79-.16 17.68-1.19 3.68-.91 7.46-.68 11.24-.45 15.79-2.22 31.48-4.7 47.06-4.49 28.12-10.75 55.82-20.42 82.67-3.04 8.44-6.34 16.79-10.66 24.68-.63 1.52-1.3 3.03-2.9 3.82h0c-1.85 1.1-3.88.5-5.81.52-5.57.05-5.91-.6-3.2-5.49 14.61-39.08 25.77-79.1 32.83-120.25 5.37-31.27 7.78-62.76 7.04-94.47a419.7 419.7 0 0 0-6.45-64.54c-1.66-9.24-1.67-9.21-11.12-9.77l-44.37-2.58c-4.52-.17-4.16-2.89-4.28-5.57-.17-3.64 2.62-2.11 4.25-1.99l67.71 5.3c1.61.13 3.65-.14 3.51 2.38-.17 3.21 1.84 3.24 4.19 3.39l165.46 10.22c2.18.13 4.39.3 6.36-.81 5.92-3.35 12.2-3.61 18.83-3.12l50.84 3.11h.05z" class="CV"/><path d="M389.05 188.42c-2.12-6.09-5.14-11.48-11.05-14.76-2.26-1.25-3.95-3.05-4.14-5.84-.66-.87-.54-2.63-.2-2.62 4.71.14 6.16-5.02 10.09-6.03 3.54.23 7 2.47 10.62.37 3.18 2.54 1.38 6.2 2.08 9.3.48 2.12-.65 4.99 2.63 5.72 2.95.66 7.46-2.04 8.32-4.98.89-3.04 1.08-6.23 1.78-9.32.26-1.14.44-2.29.82-3.4.43-1.25.79-2.96 2.26-2.99 1.76-.04 2.22 1.78 2.65 3.19.68 2.23.91 4.57 1.29 6.87.85 5.2.94 5.25 5.93 3.25a11.5 11.5 0 0 0 2.64-1.39c1.98-1.61 1.53-3.86 1.64-5.98.09-1.92-.37-4.08 1.84-5.28 1.75-.09 2.58 1.26 3.47 2.37 2.27 2.84 5.16 2.47 8.05 1.55 3.2-1.02 1.92-3.66 1.77-5.81-.13-1.8-.35-3.59.55-5.28.28-.41.66-.68 1.14-.82 2.13.61 2.43 2.55 2.98 4.24 1.21 3.72 1.55 7.87 5.76 9.92 1.04.51 1.11 1.96 1.06 3.16-.22 5.09-7.01 10.52-12.17 9.85-3.37-.44-6.59-1.98-10.52-1.62 1.11 2.49 3.18 2.83 4.9 3.49 6.51 2.49 13.22 4.38 19.76 6.78 2.71.99 4.82.3 6.9-1.3 2.66-1 5.2.39 7.85.56-.76-5.49-.28-5.91 5.14-6.49 6.42-.68 12.91-.62 19.28-1.86 3.38-1.25 6.82-.33 10.92.18-1.67-2.07-3.47-2.43-5.05-3.1-8.27-3.47-16.75-6.4-25.09-9.69-2.68-1.06-5.4-2.12-4.39-6.01.48-1.86-1.25-2.45-2.32-3.45-1.15-1.07-3.6-1.68-1.84-4.11 2.45-1.13 4.91-.35 7.31.1 9.59 1.78 19.24 3.28 28.73 5.49 6.26 1.45 12.08 1.18 17.62-2.22 4.51-3.02 9.35-3.75 14.68-2.65 6.62 1.37 13.3 2.73 20.1.97 8.78-2.75 14.1-9.74 19.85-16.21 1.73 1.69.67 3.42-.08 4.99-4.18 8.78-10.1 16.21-17.57 22.42-3.12 2.59-7.41 2.76-10.69 5.04-13.62 7.02-28.08 12.07-42.24 17.82-2.92 1.19-5.92 2.21-8.88 3.31-17.95 6.6-36.14 12.5-54.59 17.52a7.2 7.2 0 0 0-5.84 5.89l-4.39 17.93c-1.8 7.29 3.1 12.81 10.24 10.55 7.54-2.39 14.06.23 20.89 2.07 3.36.9 5.14 3.56 6.39 6.55 2.42 5.83 5.99 11.21 7.46 17.38.67 2.79 1.8-.07 2.43.68 2.67 4.54 2.46 6.76-.93 10.01-1.96 3.05-4.14 3.84-7.07 1.02-1.42-1.37-3.38-2.17-4.86-3.49-3.65-3.27-7.61-4.66-12.3-2.58-4.74 2.1-7.4.22-8.92-4.35-.4-1.2-.84-2.57-2.61-3.32l-4.88 5.42c-2.61 2.96-4.91 2.65-6.89-.92l-6.56-11.78c-1.24-2.4-2.87-3.49-5.59-2.95-1.46.29-3.09-.02-4.45.46-8.03 2.86-13.61-1.7-19.39-6.03-2.2-1.64-1.04-3-.43-4.71 4.87-13.81 13.98-24.34 25.33-33.21 2.34-1.83 4.42-3.99 6.67-6.04-1.71-2.13-4.36-1.03-6.01-2.45 4.77-4.5 10.11-6.74 16.75-4.6 6.45 2.08 11.94-1.4 18.29-3.32-1.77-1.96-3.92-2.31-5.74-3.14-6.34-2.91-12.97-5.19-19.23-8.25-3.91-1.91-7.52-2.07-11.45-.33-3.95 1.75-8 3.5-12.46 1.19 1.18 3.33 3.11 4.16 6.21 2.61 2.25-1.13 4.84-2.18 6.6.74 1.83 3.03.45 5.44-2.09 7.28-2.4 1.73-4.64 3.87-7.9 3.88-6.4-2.12-13.54-2.38-18.77-7.44h-.09z" class="Ci"/><path d="M699.92 861.69l-1.18 6.93c-1.78 1.24-3.82.99-5.8.98-19.49-.02-38.99.48-58.46-.21-34.96-1.24-69.93.05-104.86-.92-46.12-1.28-92.24 0-138.34-1.06-46.28-1.07-92.58.04-138.84-1.04-45.79-1.07-91.57-.44-137.34-.89-2.49-.02-5-.2-7.35.91-2.69-3.92-6.54-7.01-8.26-11.62.02-.48.21-.9.54-1.24 36.78 1.2 73.59.55 110.37 1.36l101.38 1.03c31.3.97 62.61-.09 93.89 1.02 24.98.88 49.96-.04 74.9.9 31.47 1.19 62.95.02 94.39 1.06 32.13 1.06 64.27.28 96.39 1.03l24.92.64c1.33 0 2.7-.1 3.66 1.12h0z" class="CW"/><path d="M272.04 185.71l7.48 9.92c-5.71-.79-7.89 2.39-9.73 5.97-.37.72-1.02 1.72-.79 2.27 3.01 7.19-.66 13.75-2.12 20.38-2.99 13.57-4.48 27.66-12.21 39.79-.86 1.35-1.13 3.21-3.18 3.52-2.03.31-4.65-.42-5.49 2.36-1.18 3.89-4.17 7.21-3.39 11.74 1.17 6.87 2.26 13.74 7.14 19.21-.02 2.89 4.02 4.77 2.05 8.15-5.91-3.35-11.91-6.58-17.7-10.12a4.2 4.2 0 0 0-5.68.37c-5.78 4.56-10.91 9.73-15.09 15.77-1.69 2.44-2.44 1.75-3.33-.36-3.56-28.21 7.01-52.53 21.03-75.86 2.42-4.03 4.77-7.98 5.31-12.74.26-2.27 1.63-3.97 2.89-5.72l25.36-35.26c1.76-2.41 2.18-4.11-.05-6.38-2.09-2.13-3.82-4.61-5.7-6.94-.87-1.08-1.88-2.04-3.37-1.59-1.75.53-1.26 2.12-1.28 3.38l-.21 17.47c-.03 3.53-5.93 11.46-9.21 12.5-1.01.32-1.66-.04-2.12-.75-1.54-2.4-3.71-1.78-5.81-1.25-3.52.88-5.75-.39-6.84-3.8a17.5 17.5 0 0 0 10.44-11.82c.26-.95 1.06-1.68 1.86-2.3 5.97-4.61 5.95-5.79-.47-10.43-3.62 8.4-5.96 17.36-11.72 24.64-4.7-1.68-6.92-7.11-12.12-8.04-5.87-2.38-10.07-7-14.76-10.97-1.5-1.14-3.02-2.24-4.47-3.46-1.61-1.17-3.16-2.44-4.8-3.56-3.51-2.4-5.14-5.53-4.14-9.81.68-2.84 1.82-5.23 5.3-5.26 1.94-.19 3.55.55 5.02 1.77 3.5 2.89 3.62 4.49.15 8.45 5.21 1.43 10.74 1.68 14.65 5.68 4.77 2.88 8.92 6.34 10.41 12.42 2.23-1.26 2.21-3.03 2.48-4.54.83-4.75 1.44-9.52 4.72-13.44 1.51-1.8.58-3.92-.29-5.66-3.15-6.35-2.08-12.56.28-18.79 1.87-4.93 3.67-5.56 8.21-2.74 1.55.97 3.04 2.03 4.2 3.49 1.32 1.78 1.55 3.77 1.14 5.88-.56 2.15-2.04 3.62-3.68 4.99 2.11-.37 2.64-2.23 3.5-3.77.79-1.49.49-3.13.59-4.71 0-3.49 1.38-5.45 6.12-4.03a14.3 14.3 0 0 1-3.52-14.64c1.27-1.99 2.98-1.97 4.61-.69 2.66 2.09 4.05.6 5.46-1.56 1.52-2.33 2.88-4.81 4.83-6.81 1.26-1.29 2.86-2.79 3.87.36-.31 5.14 1.04 10.36-.88 15.4-1.43 8.27-.87 16.62-.93 24.94.55 1.64 1.95 2.62 3.01 3.86 2.25 2.62 3.23 5.48 2.89 9.07-.44 4.66-.8 9.38.11 14.05h-.03z" class="CV"/><path d="M114.14 262.72l22.8 17.09c.91 1.75 2.79 2.49 4.04 3.9 8.6 7.33 16.6 15.32 23.99 23.81 6.46 7.43 13.2 13.97 23.06 16.37 5.11 1.24 7.61 4.52 8.83 9.57 1.84 7.57 4.02 15.06 6.19 22.55.62 2.13 1.8 4.42-.04 6.6l-.1 1.28c-2.01 2.03-4.91 1.79-7.3 2.85-7.24 2.02-14.7 2.74-22.12 3.36-7.94.66-13.97-4.46-20.46-7.99-3.32-4.64-7.68-8.31-11.65-12.34-.67-.72-1.65-1.36-1.91-2.23-.7-2.36-1.84-.69-2.84-.47-6.34-3.91-10.07-10.38-15.05-15.61-3.03-3.18-6.5-6.18-8.24-10.45a29 29 0 0 0-1.32-2.61c-8.4-11.65-11.41-25.62-16.64-38.64-.57-1.42-.78-2.87-.17-4.35 2.04-3.04 5.71-1.75 8.36-3.17 4.58-2 7.6-5.74 10.58-9.53h-.01z" class="CY"/><path d="M100.02 853.53l-.04 1.01c-5.31 6.86-11.73 12.67-18.07 18.49a399.7 399.7 0 0 0-13.02 12.35c-3.05 3.07-6.13 6.08-9.9 8.27-7.1.67-13.4-2.64-20.07-4.08-1.71-2.01-.75-4.12-.09-6.11 5.59-16.82 10.54-33.83 15.87-50.73.7-2.22 1.48-4.41 3.44-5.9 1.61-6.08 7.08-9.64 9.75-15.03-.02-.54.07-1.06.26-1.57.12-.23.26-.46.38-.68 1.18-2.17 3.28-3.73 4.19-6-.13-1.02-.91-1.11-1.5-1.07-16.19 1.06-32.48 1.24-48.43 4.74-4.71 1.03-9.28 2.44-13.61 4.67-1.56.8-3.57 2.46-4.98-.41l-.27-1.77c.18-2.79 2.48-3.24 4.47-4.01 9.24-3.53 18.91-5.19 28.68-5.91 3.96-.29 6.39-1.86 8.75-4.67 3.25-3.88 6.8-7.49 11.14-10.61l-3.1 14.19c7.06-3.61 13.59-6.35 19.42-10.17 2.87-1.88 3.83-1.24 5.52.8 4.46 5.37 4.48 5.3 8.93-.25l13.08-15.86c.89 27.68-1.46 53.99-.77 80.3h-.03zm524.85-729.54c-.86 4.07.92 7.78 1.73 11.59l9.28 42.12c.59 1.13.53 2.02-.87 2.43-2.21-.46-3.21-2.3-4.24-3.97l-39.3-64.97c2.32 8.35 3.36 18.32 5.32 28.09 2.81 14.04 5.32 28.14 7.72 42.26.31 1.81.68 3.61.4 5.46-.72 2.09-.66 4.26-.62 6.42-.07 4.68.13 9.35-.13 14.03-.28 1.24-.69 2.36-2.21 2.51-1.55-25.89-7.31-51.18-10.84-76.78-1.49-10.84-4.56-21.66-4.41-32.46.11-7.98-3.16-8.14-8.8-8.41l-35.76-2.27c-1.94-.12-3.49.81-4.97 1.99l-10.2 7.96c-2.98-1.05-3.79-4.02-5.47-6.21-1.77-2.33-3.59-4.46-6.93-3.85-8.84 1.63-17.5-.41-26.22-1.26-9.03-.88-17.93-3.45-27.14-2.08-.66.1-1.27-.3-1.79-.74-1.48-5.83.58-9.55 6.06-10.88 2.43-.59 4.91-.95 7.42-.91 19.47.31 38.83-2.35 58.3-2.13 3.66.04 7.28-.65 10.92-.98 14.28-1.29 27.08 4.48 40.35 8.07 2.41.65 4.84 1.3 7.15 2.2 5.94 2.29 11.19 2.33 16.84-1.66 5.6-3.95 11.88-1.12 17.71.74 1.2.38 2.5.84 3.6 1.61l6.96 7.97c-3.09 2.77-7.2 3.28-10.86 4.74-3.16 1.26-4.63 2.9-3.6 6.39 1.23 4.15 1.61 8.49 2.7 12.67.6 3.45 2.18 6.71 1.91 10.32h-.01z" class="CW"/><path d="M75.01 707.62c-.11-.29-.14-.58-.09-.89 1.35-2.73-.04-5.7.47-7.45-.27 1.78.65 4.72-.46 7.47L47.5 675.84c-1.25-1.4-1.34-2.87-1.16-4.6.34-3.3 0-6.75.81-9.91 1.95-7.53-1.06-12.53-6.95-16.8-3.48-2.52-6.42-5.77-9.63-8.66-1.26-1.13-2.68-2.14-1.58-4.15 3.78-3.5 7.21-2.78 11.25.06 6.64 4.67 13.69 8.78 20.61 13.06 1.74 1.08 3.41 2.21 3.84 4.33.93 4.53 3.96 6.66 7.99 8.56 17.99 8.5 36.22 16.49 53.85 25.74.68.36 1.62.24 2.44.34 5.64.9 10.68 2.84 13.84 8.01 2.12 5.73 1.64 11.21-.87 16.83-2.17 4.85-3.61 10.02-5.28 15.08-.66 2.02-1.66 3.31-3.82 4.14-7.78 3-7.74 3.1-12.16-4.09-2.01-3.26-3.89-6.61-6.06-9.76-2.36-3.43-5.54-3.45-7.48-.26-1.6 2.3.02 5.06-1.07 7.43l.17.24-.16.25c-1.35 2.02-.06 4.45-1.01 6.53l-.09 2.51c-2.8-.57-.99-2.81-1.52-4.2 0-6.3-.78-12.52-1.88-18.72-3.61-2.48-6.24-5.45-5.36-10.29.41-2.25-.66-3.69-2.62-4.84a387.9 387.9 0 0 1-14.05-8.6c-2.53-1.62-3.09-.72-3.03 1.83l.18 17.97c-.01 1.33 1.2 3.59-1.7 3.76h.01zm45.63-214.1c.72-1.43-.42-2.08-1.21-2.89-3.36-3.47-6.49-7.19-10.11-10.38-14.28-12.59-22.75-29.39-32.86-45-.7-1.08-2.53-2.4-.48-3.75 1.96-1.29 2.6.8 3.39 1.85 9.71 12.9 19.84 25.47 29.57 38.36 3.8 5.04 9.81 8.41 14.82 12.53.66.54 1.71 1.07 2.17.21 2.82-5.33 7.91-9.5 8.28-16.1.17-3.04-.95-5.26-3.32-7.31-8.43-7.3-16.66-14.83-24.96-22.27-.04-1.64.64-1.85 1.88-.95l23.21 15.85c4.53.99 8.29 3.15 10.89 7.11 3.65 9.14 5.62 18.78 7.78 28.31.91 4-2.32 7.84-3.99 11.57-1.61 3.6-2.06 6.71-.11 10.33a31.3 31.3 0 0 1 3.67 16.3c-.29 7.9-.07 15.82-.07 23.8-1.76.03-2.58-1.41-3.66-2.3-8.21-6.78-16.14-13.92-24.62-20.35-7.74-5.87-13.3-13.02-17.57-21.76-9.06-18.51-18.85-36.67-28.34-54.98-.8-1.2-.67-1.95.96-1.96l25.17 39.47c2.21 3.58 4.6 5.24 8.82 4.47 2.25-.41 4.62-.1 6.94-.12 1.26.93 2.52 1.1 3.75-.06v.02z" class="CV"/><path d="M254.81,673.51c7.45-5.5,15.77-9.76,22.4-16.44,9.01-9.09,15.8-19.59,20.81-31.3.61-.64,1.23-.64,1.87-.04.36,3.33.46,6.66.02,9.98-1.39,6.99-4.8,13.24-8.78,18.82-8.31,11.65-8,24.42-7.08,37.68.99,14.2,3.02,28.42,1.01,42.71-1.47,6.6-4.19,12.73-7.1,18.79-1.39,2.25-3.65,2.61-6.03,2.91-5.94.76-11.93.94-17.89,1.58-6.2.66-8.34-1.3-7.94-7.57.74-11.62,2.24-23.17,3.22-34.78,1.03-12.26,2.12-24.52,3.59-36.74.24-2.03.67-3.93,1.92-5.58l-.02-.02Z" class="Cb"/><path d="M476.91 264.75l-.41 4.29c-3.55-7.6-6.8-14.01-9.55-20.63-1.65-3.97-3.73-6.7-8.23-7.58-6.24-1.23-12.28-4.15-18.73-.64-1.68.91-11.38-3.25-12.52-4.89-.82-1.18-.12-2.21.15-3.31l6.3-25.6c.35-1.4.6-2.68 2.54-3.19 19.74-5.24 39.07-11.79 58.4-18.35 1.58 2.87-1.61 6.35 1.14 9.08-3.96.49-5.47 3.02-6.73 6.63l-15.05 40.73c-1.35 3.44-.65 5.33 1.96 7.6 3.91 3.41 7.32 7.2 13.38 6.06 2.62-.49 4.46 1.96 6.5 3.32l13.18 9.04c1.54 1.05 3.26 1.84 1.44 4.18-1.37 1.76-2.24 3.59-5.1 2.14-5.48-2.79-11.12-5.27-16.69-7.88-3.17.97-1.03 3.5-1.48 5.26s.72 4.35-2.3 4.62c-2.89.26-3.66-2-3.77-4.22-.19-3.96-1.96-7.29-3.67-10.59-.7.75.26 1.44.03 2.12-.02.71-.24 1.33-.77 1.82h-.02z" class="CV"/><path d="M480.97 360.62l-48.37-40.04c7.67 1.67 13.21 7.4 20.26 10.17 8.13 2.76 14.69 8.27 21.97 12.53 8.03 4.7 15.66 10.02 23.66 14.78 3.04 1.81 4.7 4.14 3.48 7.81-1.26 7.23-3.39 14.23-5.58 21.22-1.15 3.66-2.37 3.76-5.48 1.85l-86.5-52.87a21.5 21.5 0 0 0-7.36-2.82l-44.09-8.6c1.66-2.74 4.06-.98 6.17-1.03l55.57 3.9c3.35.23 5.88 2.16 8.61 3.64l56.39 30.73c.81.39 1.83.07 2.52.72-.05-.02.18-.21.14-.22-.85-.33-1.16-1.03-1.39-1.79v.02z" class="CZ"/><path d="M142.81 691.81c-3.91-3.89-9.64-4.63-13.84-8.01l-9.13-37.98c-.34-1.08.15-1.33 1.11-1.11l7.64 20.04c.7 1.78 1.19 3.7 3.82 4.03 4.89.62 5.7-.14 4.16-4.82L99.54 551.65c-3.23-9.93-7.38-19.58-9.61-29.84-.5-1.1-.89-2.14 1.01-2.06l20.28 48.17 26.64 63.43c.64 1.51 1.43 2.96 2.38 4.9 1.39-1.33 1.24-2.82 1.68-4.1 4.38-12.85-.46-24-6.23-35.02-1.07-2.05-1.84-4.26-2.75-6.39-.63-1.17-.81-2.11 1.02-2.03l11.87 17.65c1.73-6.95.87-12.82 1.09-18.61.55-.41 1.05-.15 1.53.06.41-1.11-.38-2.08-.28-3.13-.25-5.31-.18-10.62-.1-15.92.03-2.14-.02-4.36 1.81-5.98 1.91 4.8.86 9.83.93 14.73l.31 56.4.98 42.39c.17 4.33-.91 7.25-4.83 9.34-2.31 1.23-5.27 2.47-4.45 6.17h0z" class="CW"/><path d="M601.94 209.95l.84-2.14c1.21-4.76.14-9.62.57-14.41.15-.63.54-.92 1.19-.88 1.43.74 1.54 2.13 1.75 3.48.34 1.23.53 2.49.79 3.74 0 1.78.65 3.37 1.47 4.91 2.75 9.12 2.74 9.06 12.34 7.74 5.6-.77 11.14-1.9 16.77-2.51 2.1-.23 4.33-.85 6 1.19l-1.05 53.57c-4.83 2.98-8.31-1.06-12.32-2.35-3.98-2.98-8.76-3.88-13.41-5.12a4.7 4.7 0 0 1-2.12-.82c-.4-.33-.71-.74-.93-1.21-1.2-3.03.41-6.47-1.35-9.42-1.79-5.77-1.47-11.81-2.17-17.67.25.52.29 1 .27 1.53-.04.48-.14.92-.29 1.37-2.25 8.49-3.32 17.24-5.96 25.62-.6 1.89-.97 3.86-1.96 5.61-1.48 2.04-2.16 4.37-2.5 6.83-1.3 3.02-1.37 6.59-4.06 8.97-3.03-.7-2.23-3.13-2.33-5.15.04-.53.16-1.04.34-1.53.93-1.52 1.6-3.15 1.83-4.94l-.13-.32.23-.26c1.18-1.69.06-3.76.91-5.51l4.59-40.93c.34-3.12.46-6.27.68-9.41v.02z" class="Cb"/><path d="M254.81 673.51l-2.15 28.2-2.74 27.64-2.16 23.73c-.24 2.26.06 3.82 2.6 3.49 9.17-1.2 18.5-.84 27.57-2.88l-8.22 17.86c-.08 2.75-1.64 4.53-4.22 4.51-7.85-.05-15.73.72-23.56-.43-4.41-.83-8.96.49-13.34-.81 5.85-1.43 11.79-.31 17.68-.64a63.4 63.4 0 0 1 4.97-.07c-7.76.57-15.56-.59-23.3.45l-.45.05-.44-.08c-1.88-1.05-3.13-2.74-4.4-4.4-2.64-3.57-4.67-7.45-6.09-11.66.02-1.76-1.3-3.68.62-5.21 3.65-.99 7.27-.17 10.88.29 2.59.33 4.64 0 5.15-3.13 3.84-23.64 8.52-47.14 11.47-70.92.04-.33-.02-.66-.03-1l10.14-5h.02z" class="CV"/><path d="M320.66 275.86c.33.35.71.68.99 1.07 6.42 8.92 6.61 9.25 16.43 3.68 13.56-7.69 27.98-13.01 42.94-17.06 1.85-.5 3.76-1.73 5.23.82 1.35 2.36 0 3.85-1.56 5.13-3.27 2.69-2.71 4.23.79 6.49 6.78 4.37 13.62 6.5 21.48 3.57 2.23-.83 4.11-1.12 4.92 2.06.72 2.8.71 4.42-2.59 5.63-10.76 3.96-21.4 8.24-32.02 12.58-5.04 2.06-9.01-1.08-13.32-2.36-1.86-.55-.69-2.16.07-3.25l7.08-10.26c.83-1.21 1.98-2.44.51-3.96-1.41-1.45-2.43-.07-3.47.56l-13.59 8.37c-2.41 1.42-3.26 3.45-2.38 5.88 1.1 3.04-.28 4.47-2.86 5.13-4.11 1.05-7.52 4.64-12.62 2.42-1.68-.73-4.1 2.36-5.92 4.04-1.8 1.66-2.95 1.17-3.51-1.01l-7.48-29.35.87-.18h0z" class="CW"/><path d="M196.97 640.73c3.04-5.67 7.32-10.46 9.61-16.77 3.9-10.75 2.43-20.77-1.41-30.93-.69-1.82-1.11-3.75-1.7-5.81 2.34.05 3.02 1.76 4 2.92 4.32 5.16 4.32 5.21 7.6-.87 1.74-3.22 3.04-6.73 5.12-9.71 3.37-4.85 4.5-9.64 2.54-15.44-1.61-4.78 1.83-8.88 3.26-13.2.47-1.41 1.57-.71 2.2.23l3.59 5.53 11.48-30.01 8.05 12.26c1 1.55.61 3.17.08 4.8-8.74 26.83-19.95 52.53-34.83 76.58-5.05 8.16-12.32 14.34-18.51 21.48-.94.21-1.4-.04-1.07-1.08v.02zM203 362.61l-8.69-32.16c-.57-2.15-1.69-3.46-3.89-4-11.45-2.78-19.87-9.68-27.34-18.64-7.1-8.52-15.36-16.07-23.11-24.05-.18-.97.15-1.42 1.18-1.2l25.03 14.48c7.57 4.56 15.12 9.1 23.79 11.3 7.26 1.85 13.36 5.81 19.16 10.34 3.83 2.85 5.51 6.91 6.4 11.41.06.33.21.65.22.97.29 10.94 4.4 18.71 16.45 20.01.85.09 2.01.39 2.3 2.3l-10.58 3.36c-2.15-1.19-2.63-3.63-4.34-5.91-1.58 3.18-3.5 5.85-4.59 9-4.06.63-7.52 3.9-11.99 2.76v.03z" class="Cj"/><path d="M223.88 769.74c1.4 1.37 2.59 2.89 3.19 4.8-16.45.3-32.88.35-49.33-.54-9.96-.54-19.95-.2-29.93-.43-5.56-.13-11.12-.63-16.76-1.58 10.06-2.64 20.02-5.81 30.22-7.78 11.34-2.19 18.65-10.42 27.47-16.44 1.3-.89 1.23-2.24 1.26-3.58l.81-41.36c2.29-1.64 3.68.08 5 1.48 5.81 6.15 10.56 13.2 16.44 19.3 2.48 2.57 3.29 5.92 3.19 9.61-.09 3.76-.66 7.62.76 11.3.57 3.04 2.33 6 .66 9.19l1.01 5c-3.49-.17-4.07-3.45-5.8-5.48-1.39-1.63-2.18-3.71-3.97-5.73-1.98 6.26-2.84 12.43-3.99 18.52-.43 2.27 1 2.98 2.9 2.99 5.63.02 11.19 1.63 16.85.74h.02z" class="CW"/><path d="M216.87 753.7l-1.95-9.04c-1.03-3.73.23-7.65-.57-11.3-3.77-17.21 6.53-30.46 12.33-44.98.6-1.51 1.72-2.83 3.28-3.61l14.7-6.27c2.23.45 2.24 1.88 1.92 3.76l-9.73 57.68c-.66 3.91-1.49 7.81-1.86 11.74-.28 2.95-1.56 4.43-4.41 3.91-4.55-.84-9.26-.4-13.7-1.9h0z" class="Cb"/><path d="M574.82 415.8c9.1-4.13 16.03 1.5 24.34 5.35l-16.31 7.42c-1.78.82-3.24-.16-4.74-.79l-21.57-9.22c-2.99-1.37-5.32-1.47-8.25.4-6.59 4.2-13.85 7.44-20.16 12-8.83 6.39-18.5 7.76-28.86 6.9a60 60 0 0 1-32.95-13c-.64-.51-1.19-1.15-1.72-1.79-.18-.22-.16-.62-.32-1.36 11.4 2.53 22.77 3.41 34.28 3.25 18.04-.25 34.91-4.61 50.52-13.63 2.65-1.53 4.65-1.81 7.25-.02 3.43 2.36 7.2 4.16 11.49 4.41 2.34-.66 4.68-.83 7 .08h0z" class="CV"/><path d="M459.66 85.62c10.95-3.12 21.51.94 32.25 1.72 7.56.54 15.05 2.76 22.73.65 2.95-.81 5.35.03 7.11 3 1.77 2.98 4.06 5.64 5.23 8.98l-17.94 14.08c-5.3-.63-10.39-2.17-15.46-3.71-4.97-1.51-7.63-5.7-10.03-9.88-1.33-2.33-.24-4.18 2.32-4.96 3.19-.98 6.48-1.29 9.81-1.13-7.62-.46-15.16-1.53-22.71-2.58-5.86-.82-6.6-.2-7.43 5.63-.3 2.14-.72 4.25-1.36 6.31.21 16.45-9.28 28.39-18.75 40.34-.82.87-1.43 1.95-2.43 2.66l-.36.23c-4.24-3.82-3.76-8.43-2.21-13.21 4.52-7.17 8.55-14.65 13.32-21.67 2.98-4.39 4.12-8.98 2.97-14.18-.54-2.44-.66-4.95-.72-7.44-.06-2.51.48-4.71 3.67-4.83h-.01z" class="CZ"/><path d="M630.75 260.97c3.82 1.66 7.48 3.82 11.86 3.67 1.22 16.99 1.28 33.99.05 50.98-2.63.06-3.48-2.2-4.81-3.77l-19.7-23.52c-.41-.49-.75-1.11-1.75-.86-1.71 2.47.32 5.81-1.55 8.34-2.31-2.01-2.33-4.87-1.89-7.34 1.67-9.36-.94-18.73.31-28.06.22-1.64.05-3.34 1.75-4.34l1.41-.14c.43.04.63.17.59.41-.04.29-.12.43-.22.43-1.2 2.05.05 4.42-.73 6.53.71-2.14-.48-4.57.88-6.62 4.92.41 9.33 2.45 13.8 4.31v-.02z" class="CW"/><path d="M307.94 465.68l-14.47-43.52c-.57-1.7-.43-4.59-3.25-4.25-2.5.3-4.6 1.61-5.33 4.52l-8.95 34.73c-.32 1.24-.19 2.65-1.6 3.6l.05-30.6c.02-1.61.95-3.25-.64-4.61-.64-1.54.1-2.65 1.14-3.66-.8-4.9 1.07-8.5 4.93-11.57 5.19-4.12 10.08-8.63 15.06-13.01 1.19-1.05 2.45-1.7 4.05-1.45l56.94 8.89c-2.33 3.12-5.33 1.1-8.07 1.05l-42.59-3.11c-4.6-.38-5.56.97-4.78 5.58 3.09 18.44 5.72 36.96 8.52 55.44.57 1.13.75 2.06-1.03 1.96h.02z" class="Ca"/><path d="M615 472.58c1.27 3.22-1.42 2.09-2.56 2.12l-47.29 1.09c-2.18.04-4.28.14-6.28 1.06-1.1-4.38-1.97-8.76-.04-13.15 7.48-1.59 15.02-2.92 22.02-6.25 9.56-4.53 16.44-11.2 18.32-22.08.11-.62.5-1.18 1.07-2.48 4.9 13.72 10.62 26.4 14.73 39.69-6.03 1.5-12.17.25-18.24.74 6.07-.65 12.21.81 18.25-.74h.02zm-8.21-132.81l13.89 50.9c.79 2.83-.7 3.85-2.76 4.93l-21.09 11.2c-5.15-1.26-2.03-5.41-2.85-8.18l-2.28-10.79c1.93-9.8 4.37-19.48 7.09-29.08l4.77-11.03c1.52-1.3.39-3.05.77-4.54.37-1.46 0-3.47 2.47-3.41h-.01z" class="CV"/><path d="M229.96 684.78c-3.21 7.31-6 14.84-9.74 21.87-5.08 9.54-5.74 19.65-5.44 30.04l.14 7.97c-1.94-3.92-.98-8.12-.93-12.16.05-3.26-.99-5.76-2.97-8.1l-16.86-19.83c-.88-1.03-1.82-1.95-3.35-1.75l-24.85-4.15c-1.49-.97-3.19-.16-4.73-.54-2.33-.57-1.64-1.46-.13-2.33 14.55-2.29 29.15-4.05 43.9-4.75 8.65-.42 16.56-4.47 24.97-6.27h0z" class="CZ"/><path d="M285.04 734.9l-3.73-63.56c-.14-2.34 1.3-4.08 2.27-5.97 5.14-10.05 10.4-20.04 16.31-29.68.31 33.86-3.6 67.08-14.85 99.2h0z" class="CV"/><path d="M185.89,667.64c10.59-10.99,21.25-21.9,30.32-34.27,18.01-24.58,31.94-51.22,41.46-80.18.61-1.86.77-3.94,2.32-5.41,1.76-.04,1.6.85.95,1.97-8.88,32.46-17.57,65-37.87,92.81-2.77,3.8-6.19,6.62-10.26,9.1-8.8,5.36-17.22,11.36-25.79,17.1-1,.25-1.36-.14-1.12-1.13h-.01Z" class="Cj"/><path d="M476.8 438.75c23.4 12.16 47.76 21.46 74.09 24.86 1.95.25 3.94.11 5.92.15-3.28 3.07-3.87 6.45-1.51 10.43.87 1.46.57 3.21-.44 4.71-3.15 2.97-6.52 5.06-11 2.81-14.2-3.85-27.35-9.85-38.88-19.13l-32.33-23.4c1-3.84 2.71-.86 4.16-.43h0z" class="CV"/><path d="M281.99 564.64l-15.17-30.71c-1.46-1.04-2.46-2.4-2.78-4.2-2.01-3.02-2.83-8.99-5.4-8.85-3.41.19-2.28 6.5-5.21 9.48-2.27-2.62-2.07-5.97-3.35-8.7-6.78-14.53-6.5-28.96-.37-43.76 2.91-7.02 4.28-14.67 6.41-22.03.32-1.1.7-2.34 1.46-3.13 1.67-1.75 4.41-3.14 6.22-2.35 2.41 1.05.1 3.5-.44 5.1l-13.28 38.2c-.72 2.08-2.71 4.84-.38 6.42 2.27 1.54 3.98-1.53 5.86-2.66 2.27-1.36 4.34-3.05 6.49-4.6.21.27.45.56.44.87-.11 4.17 2.03 6.26 6.44 6.27l12.4.04c1.97.04 4.02-.04 5.52 1.63.02.31 0 .62-.08.93-7.53 1.44-15.14.16-22.7.7-1.34.1-3.41-1.39-4.04 1.25l20.78 51.99c.79 1.99 1.47 4.03 2.2 6.05.46 1.08.73 2.07-1.02 2.06h0z" class="Cj"/><path d="M336.87 586.73c-.42-28.94-3.33-57.66-7.81-86.24-1.08-6.9-1.15-6.97 5.61-6.73 5.97.22 11.93.84 17.91.93 3.33.05 3.87 2.14 4.08 4.51.53 6.12 1.72 12.2 1.28 18.38.69 7.88 1.02 15.8 1.34 23.7.77 18.86-.41 37.71-.9 56.57a3.8 3.8 0 0 1-.47 1.9l.02.02c-2.83-.68-1.45-2.98-1.47-4.46l-.1-38.78c0-1.6.55-3.32-.59-4.8-1.72-6.97-.63-14.15-1.59-21.22-1-7.37-1.05-14.88-1.3-22.34-.13-3.83-1.33-5.66-5.61-5.56-16.17.35-12.73-1.71-10.88 12.92 2.76 21.82 2.74 43.71 2.5 65.62l-.1 5.48c-.61.67-1.25.66-1.93.09h.01zm165.1-220.87c.59-3.74-2.1-5.2-4.66-6.79l-42.75-26.56c-.67-.42-1.13-1.17-1.69-1.76 4.36-.02 8.59.97 12.77 1.97 3.57.85 6.56.34 9.05-2.31 3.85-4.09 7.73-3.9 12.38-1.07 5.24 3.19 10.89 5.72 16.38 8.49 1.11.56 2.12 1.1 1.95 2.53-.99 8.52-.98 17.18-3.41 25.51h-.02z" class="CW"/><path d="M606.79 339.77c-3 1.86-.8 5.85-3.24 7.94.52-5.56 1.27-11.12.01-17.36-5.92 4.83-12.1 5.85-18.79 3.44 2.77-1.08 5.65-.25 7.2-.4-1.54.31-4.44-.83-7.19.4l-14.25-12.36c-2.76-2.57-5.7-4.33-9.44-5.09-5.69-1.15-11.38-2.41-16.92-4.14-3.8-1.18-5.18-.12-5.43 3.61-.13 1.96-.73 3.9-1.11 5.87-6.53-3.15-9.34-8.06-8.55-14.18.31-2.41 1.24-3.12 3.56-2.73l48.15 8.06c2.04.34 3.49 1.85 5.1 3.01l14.49 10.58c2.83 2.14 2.23-.13 2.32-1.63 4.31 1.5 3.5 5.02 3.27 8.29-.51 1.17-.37 2.54-.99 3.79.89-.48-.17-2.74 1.84-2.11l-.01 5h-.02z" class="CV"/><path d="M496 193.92c-2.37-.25-5.01-.17-2.88-3.91.88-1.55 1.17-3.44 1.73-5.17 15.48-6.31 31.22-12 46.42-19l4.51-2.08c3.91-.61 2.99 2.16 2.39 3.93-1.63 4.79-3.11 9.74-7.38 13.06l-4.09 8.98c-1.91.06-1.31-1.11-1.05-2.12-.02-3.07.24-6.11.65-9.74l-12.22 6.43c-1.95 1-1.35 2.75-1.46 4.31-.58 1.68-.19 3.41-.31 5.11-.01 1.22.03 2.45-.04 3.68-.28 2.78-2.01 4.39-4.43 5.41l-2.12 2.88c-1.72 2.89-3.2 1.62-4.32-.41-1.44-2.61-2.5-5.45-3.39-8.27-1.09-3.47-3.06-4.44-6.33-3.35l-5.69.26h0z" class="Cb"/><path d="M540.8 180.75l5.91-13.29c.5-1.2 2.09-3.15-.91-3.69 9.19-3.26 16.36-9.11 21.66-17.2 2.87-4.39 6.32-8.53 7.2-13.96l2.12-3.81c2.51.27 1.37 1.83 1.08 3.08l-9.55 58.16c-2.97-2.72-3.76-5.95-5.08-8.75-1.24-2.63-2.65-3.77-5.74-3.15-5.52 1.1-11.12 1.77-16.68 2.63v-.02z" class="CV"/><path d="M442.87 403.78c6.28-2.14 6.16-2.08 2.58-8.64-4.13-7.56-8.01-15.26-12.38-23.63 3.82.17 5.98 2.3 9.43 3.09-3.46-5.58-6.74-10.36-11.62-13.86-.01-1.67.77-1.72 1.96-.97l16.68 8.92c2.59 1.36 4.42 3.47 6.08 5.77l14.5 20.22c3.14 4.45 3.09 4.47-2.09 5.15l-14.76 1.98c-1.18.15-2.33.31-3.18 1.2-2.22 2.3-4.66 2.18-7.23.71l.05.05h-.02z" class="Ca"/><path d="M153.04 360.65l13.81 6.86c2.66 1.34 5.43 1.2 8.26.81l20.71-2.76c1.39-.07 3.08-1.29 3.88.98l-5.76 2.22c-2.9 3.28-6.94 4.34-10.89 5.47-2.85.82-5.76 1.48-8.68 2.05-3.91.77-7.19 2.23-8.62 6.31l-2.83-.69c-6.44-5.24-13.34-10.01-19.24-15.8-13.01-12.76-22.74-27.95-30.83-44.22-.29-1.08.2-1.38 1.18-1.17l23.07 25.94a9.2 9.2 0 0 1 3.83 2.68 180.1 180.1 0 0 0 12.11 11.33h0z" class="CV"/><path d="M595.92 277.83l2.87-9.19c1.04-2.16.95-4.69 2.21-6.78 3.22-8.97 4.89-18.3 6.62-27.63.32-1.71.13-3.59 2.18-4.42.46.39.75.89.88 1.48.55 7.81 2.43 15.47 2.61 23.32-.38 19.19-5.38 37.55-9.97 55.99a5.5 5.5 0 0 1-2.14 3.25c-3.3.49-3.72-2.2-4.43-4.27-1.87-5.45-3.47-10.98-4.41-16.65.88 5.99 2.86 11.92-.48 17.83-2.16-4.42-.75-9.12-.99-13.68-.25-4.79-.03-9.61-.01-14.41.36-.25.74-.28 1.12-.08.32-.03.27.96.84.28.45-2.08 1.36-3.82 3.11-5.05h-.01z" class="Cf"/><path d="M407.82 195.86l7.29-5.16c2.2-1.38 2.96-2.97 1.74-5.37-1.41-2.77-3.13-.85-4.58-.21-6.78 3-6.79 3.03-9.55-6.23 6.51 4.32 11.73.69 17.18-1.25 1.92-.68 3.81-1.2 5.8-.34l30.14 13.03c.56.24 1.02.74 2.46 1.81-8.42 2.16-15.25 7.3-23.84 4.56-4.15-1.32-8.11-1.8-11.35 2.11-1.05 1.26-2.82.71-4.26.99l-11.03-3.96v.02z" class="CV"/><path d="M526.15 109.84l-20.2 31.74c-.83 1.32-2 2.15-3.22 2.99-3.07 3.89-7.25 4.29-11.68 3.58-9.62-1.55-19.2-3.32-28.92-4.16a3.3 3.3 0 0 1-1.36-.94c-.38-1.4.61-1.86 1.59-2.34 3.63-.38 7.11-.91 10.04-3.62 2.27-2.11 5.03-.8 7.56 0 3.31 1.05 6.56 2.58 10.13 1.13 1.05-.43 2.47-.56 2.81-1.8.4-1.43-1.07-1.9-1.93-2.57-3.02-2.33-6.13-4.55-9.14-6.89-1.35-1.05-3.37-1.74-3-4.1 5.54 1.06 11.15 1.85 16.59 3.27 3.47.9 5.96.06 8.69-1.99 6.5-4.89 13.2-9.51 19.82-14.24.72-.72 1.47-.66 2.23-.06h0z" class="CZ"/><path d="M609.85 230.67a4.1 4.1 0 0 1-.06-.86v-.57c-.05-1.23.24-2.57-1-3.45.17-.96.2-2.26 1.49-2.18 1.57.09 1.57 1.6 1.46 2.68-.51 5.01 1.31 9.83 1.06 14.81-.06 1.31-.15 2.68.99 3.7 1.31 3.52-.28 7.29.9 10.82.1.15.21.3.32.44.12 13.25.66 26.5-.18 39.75-1.77 12.87-3.45 25.76-7.85 38.09-.8.4-1.58.69-2-.49-.11-3.05-.52-6.01-2.32-8.61l-1.9-6.02c-.61-1.67-1.54-3.34-.04-5.03 5.22-19.24 9.4-38.68 11.19-58.57 1.34-5.83-.88-11.47-1.09-17.23-.08-2.28.12-4.96-.99-7.26l.02-.02z" class="Cg"/><path d="M385.94 336.14l19.2 17.28c1.86 1.66 2.49 3.87 3.1 6.12l10.26 37.45c1.1 3.75-.99 5.3-3.36 6.78-2.34 1.46-4.42 5.16-6.93 4.04-2.67-1.18-1.07-5.11-1.35-7.82l-2.7-29.19c-.27-3.31-1.71-5.99-3.42-8.67L384.89 337l1.04-.85h0z" class="Ca"/><path d="M538.3 335.76l8.49 39.26 3.78 17.52c.7 3.11.1 4.34-3.42 3.34l-26.09-6.96c3.38-2.66 6.87-3.5 10.2-4.37 3.58-.94 4.61-2.91 4.6-6.44-.06-14.09 1.56-28.13 1-42.24l1.44-.11h0z" class="CX"/><path d="M63.74 639.51l-17.02-15.89c-1.04-.98-1.19-2.23-1-3.67l5.38-42.35 1.28-.14 12.81 61.5-1.45.55z" class="Ca"/><path d="M462.81 103.79l1.96-11.73c.23-1.35.46-2.75 2.34-2.52l33.36 4.25c.1.01.16.27.42.75-4.6.77-9.06 1.75-13.58 2.2-4.4.43-3.33 1.72-1.65 4.58 3.67 6.25 9.45 8.21 15.93 9.56 2.59.54 5.81.14 7.43 3.17-1.74 2.08-4.02 2.61-6.65 2.62l-31.32.37-.4-.72c1.24-2.37 3.57-2.08 5.66-2.21 6.5-.39 12.96.28 17.61 1.05-2.76.08-6.96-.47-10-4.57-1.95-2.62-5.27-2.37-8.13-3.1-4.36-1.11-9.44.24-12.99-3.7h.01z" class="CV"/><path d="M241.93 775.64c6.76-.83 13.52-.09 20.27.04 3.6.07 6-.93 7.51-4.13 6.49 2.6 8.86 1.76 11.86-4.09 8.73-17.05 15.64-34.86 22.32-52.78 2.49.28 1.36 1.78 1.01 3.01-4.52 16.86-10.65 33.14-17.58 49.14-2.58 5.96-2.68 5.82 3.99 5.94l39.77.91c1.97.04 4.01.29 5.74-1.04-1.4 3.55-.74 5.46 3.61 4.89 1.77-.23 3.6.04 5.41.08-2.7 1.99-5.82 1.1-8.65.87-23.99-1.96-48.02-1.86-72.05-1.94-7.73-.03-15.53.87-23.2-.9h-.01z" class="CW"/><path d="M286.85 501.67l-23.8-.18c-5.47-.04-5.53-.18-2.71-5.08.65-1.13 1.15-2.36 1.71-3.54 2.63-4.49 7.58-5.01 11.77-6.71 3.51-1.42 7.18-2.55 11.08-2.43l17.02-.08c1.09-.3 2.02.12 2.66.91 1.09 1.35 3.49 2.37 2.82 4.21-.57 1.56-2.94.82-4.51 1.06-4.05.62-8.2.46-12.15 1.77h0c-4.83 1.99-4.38 6.02-3.89 10.06h0z" class="Cc"/><path d="M252.02 432.62c-5.5.34-10.02 3.39-14.81 5.59-2.82 1.3-4.77 1.13-7.2-.81l-25.26-19.53c4.97-2.21 8.88-2.55 12.81.97 2.71 2.42 6.24 3.93 8.89 6.41 3.42 3.2 6.43 3.39 10.04.53 3.91-3.09 8.3-3.67 13.18-2.37 3.34.89 6.89 1.02 10.34 1.49-.94 3.19-4 2.4-6.16 3.21-2.3.87-4.8 1.11-7.2 1.68-.62.24.38.76.07.18 2.61-.81 4.47-.1 5.3 2.65h0z" class="CX"/><path d="M554.81,148.81c-3.18,2.41-6.54,3.4-10.62,2.38-4.31-1.07-8.79-1.43-13.15-2.31-3.98-.8-6.96,1.53-10.27,2.89-5.32-.58-10.69-.97-15.87-2.37-1.36-.37-4.61-.39-2.02-3.42,13.49-3.51,26.92-7.23,40.02-12.04,2.62,2.78,3.85,6.24,4.86,9.82-.3,5.39,4.7,3.36,7.05,5.04h0Z" class="Ca"/><path d="M478.83 122.86c5.13 3.86 10.16 7.87 15.44 11.52 2.75 1.9 1.9 2.5-.34 3.95-4.94 3.19-9.75 2.29-14.59.14-3.18-1.42-5.84-1.64-8.23 1.53-2.18 2.9-5.51 1.38-8.36 1.63-.78-2.74 1.08-4.41 2.68-5.98 2.75-2.69 2.76-5.41.76-8.44-.73-1.1-1.45-2.23-1.99-3.44-.97-2.2-3.07-4.55-.91-6.83 2.04-2.16 4.8-1.71 7.34-.41l.42.5c1.94 2.81 5.2 3.87 7.77 5.83h0z" class="CV"/><path d="M442.77 419.82l-45.82-4.56-15.78-1.51c-2.1-.17-4.06-.28-4.28-3.01-.87-2.24.06-2.69 2.06-2.1 8.58.61 17.03 2.18 25.47 3.78 5.42 1.03 10.35.85 14.97-2.66 6.94-5.27 15.12-6.11 23.5-5.99l-.05-.05c-.03 1.9-1.47 2.08-2.78 2.03-4.28-.17-4.71 3.5-6.2 6.08-.84 1.45.21 2.06 1.39 2.52 1.52.58 3.37-.02 4.67 1.33-.71 1.04.33 1 .82 1.31.79.87 2.84.81 2.04 2.81v.02z" class="CX"/><path d="M303.89,237.8c.21-.73.57-2.11,1.38-1.02,8.92,11.94,20.53,9.65,33.12,5.72-2.44,5.96-7.09,9.45-9.44,14.38-.73.68-1.4,1.42-2.19,2.02-7.49,5.74-10.97,4.96-15.24-3.8-2.76-5.66-5.1-11.52-7.64-17.3h.01Z" class="CZ"/><path d="M345.84 777.61l1.15-3.99c3.19-1.18 6.51-.93 9.8-.93l29.73.08c2.43.05 5.47-.53 6.42 3-.93.9-2.12.88-3.28.87-12.96-.12-25.94.52-36-.4 11.75.63 26.41.88 41.05-.03 5.38-.33 10.58.92 15.89.94 10.83.03 21.69-.49 32.48.15 17.79 1.05 35.62.09 53.36 1.13 12.15.71 24.32-.23 36.38.93 12.99 1.25 25.95.41 38.91.8 2.16.06 4.34.15 6.44-.58a11 11 0 0 1 5.49.05c2.29 1.57 4.9 1.52 7.53 1.61 1.79.06 4.13-.54 4.58 2.33l-68.26-1.24-23.88-.68c-20.09-.76-40.21-.56-60.28-1.31-15.28-.57-30.58-.04-45.83-.95-15.78-.94-31.55-.61-47.33-.91-1.51-.03-2.99-.12-4.34-.89v.02z" class="CW"/><path d="M307.69,551.47c.5,3.12.51,6.41,1.58,9.31,3.35,9.06-.05,17.22-2.62,25.78-.36-.39-.68-.59-.65-.73,2.82-13.4-6.15-22.44-12.1-32.57-2.33-3.96-4.26-7.92-2.07-12.59,1.69,2.75,3.62,3.58,6.69,1.65,2.46-1.54,5.36-2.84,7.97.1.4.61.65,1.28.77,1.99.63,2.32.79,4.67.43,7.05h0Z" class="CX"/><path d="M265.91 342.76l-15.15 5.23c8.47-9.7 5.6-19.84 4.36-29.79-.22-1.8-.13-3.64-.18-5.46 3.8-.63 4.3 3.43 6.74 4.73 3.48 2.76 6.81 5.71 9.46 9.28 4.07 5.47 3.62 10-1.06 13.57a18 18 0 0 0-4.17 2.44h0z" class="CW"/><path d="M502.88 145.98c-.6 1.36.11 1.64 1.31 1.81l13.18 2c1.42.21 3.13-.18 3.4 1.97-5.82 4.04-11.93 4.25-18.79 2.66-11.89-2.76-23.98-4.63-35.99-6.88-2.67-.46-6.09-.13-4.84-4.66 8.41-.99 16.5 1.22 24.62 2.7 5.83 1.06 11.45 1.67 16.97-1.02l.14 1.41h0z" class="Cf"/><path d="M355.52 421.7c-7.95.38-15.89.92-23.84 1.06-3.41.06-4.54 1.28-4.88 4.63-.93 9.16-2.29 18.28-4.58 27.45l-3.28-21.14c-.58-3.77-1.02-7.56-1.67-11.32-.94-5.45-.39-6.16 5.25-5.5l33.01 4.08c0 .25-.01.49-.02.74h0zm149.45 40.88c12.74 6.82 25.58 13.45 38.88 19.13l-72.97-8c2.01-2.74 4.64-1.27 7.09-1.05l31.68 2.04c1.2.07 2.93.83 3.56-.73.59-1.45-1.08-2.22-1.85-3.22l-6.39-8.16h0z" class="CX"/><path d="M149.88 562.78l-.02 23.99c-.97 1.2.21 2.89-.95 4.05l-1.99-3.07-20.96-39.03c-.72-1.23-.67-2.07 1.06-2.03l12.23 17.99c1.38 2.1 2.37 2.38 3.92.23l5.54-6.96c1.7 1.58.5 3.41 1.18 4.84h0z" class="Cc"/><path d="M165.75 382.6c-1.68-4.46.18-6.2 4.61-6.98 8.08-1.42 15.91-3.92 23.58-6.85 0 1.51 1.16 1.76 2.24 2.26l31.67 14.79c.12 1.88-.88 1.51-1.96.98l-30.27-10.04c-2.27-.76-4.36-.98-6.77-.3-7.66 2.19-15.39 4.11-23.09 6.13h0zm25.31 52.97l41.18 32.93c3.96 3.12 1.29 5.89-.44 8-2.14 2.6-3.34-.81-4.42-1.89l-37.42-37.88c-.22-.94.1-1.37 1.1-1.16h0z" class="CX"/><path d="M252.02 432.62c-1.74-1.74-4.82-1.19-6.5-3.95l14.5-3.77 14.87-3c.07 1.36-.37 2.56-1.14 3.66-1.28 3.56-2.74 7.07-3.78 10.7-.92 3.21-2.24 3.91-5.3 2.26-4.09-2.2-8.42-3.96-12.65-5.9h0z" class="Cc"/><path d="M477.88 258.74c2.85 3.92 5.64 7.85 5.04 13.12-.2 1.73.52 3.04 2.51 2.81 1.97-.23 1.45-1.92 1.49-3.14.05-1.66-.22-3.33-.09-4.98.1-1.19.86-1.76 2.03-.81-2.59 3.28.37 7.56-1.98 10.88 1 9.85.18 19.72.41 29.57.02.95-.38 1.56-1.43 1.55-3.21-8.96-4.57-18.4-7.01-27.56-.5-1.89-.64-3.91-2.05-5.45 1.55-3.31 1.64-6.64.09-9.98l-.13-1.91c-.29-1.54-1.64-3.38 1.1-4.1h.02z" class="CX"/><path d="M506.7,322.69c2.84-2.78,5.78-5.46,8.47-8.39,1.72-1.87,3.39-2.09,5.73-1.35,6.76,2.15,6.78,2.06,5.39,9.28-1.27,6.55-4.91,8.43-10.92,5.64-2.85-1.33-5.64-2.79-8.45-4.19-.39-.15-.55-.34-.48-.59.07-.27.16-.4.27-.4h0Z" class="Cc"/><path d="M591.7 282.85c-.29-.03-.58-.09-.86-.17-2.16-12.43-6.54-24.29-9.43-36.53-1.45-6.12-3.1-12.19-4.66-18.28-.28-1.21-1.43-2.71 1-3.02l14.94 40.17c.52 1.39.73 2.93 2.15 3.8.58 1.01.73 2-.11 2.95l.02-.05c-1.09 2.88-.05 6-1.02 8.89-.56.85-1 1.81-2.03 2.24h0z" class="CX"/><path d="M268.92 339.78c4.62-3.9 4.85-7.96.69-12.45l-8.78-9.42c-.32-1.04.13-1.35 1.1-1.15l4.04 1.96c8.58 3.14 16.46 7.42 22.79 14.19l1.09 1.83-18.69 6.19c-1.09.29-2.3.82-2.25-1.14h0z" class="Cg"/><path d="M305.97 544.69l-.23-1.79c-.29-1.18-1.57-1.82-1.85-2.91-1.08-4.29-2.79-4.27-5.32-1.02-.71.92-1.91 1.62-3.09 1.03-1.52-.77-1.19-2.32-.76-3.53l3.11-7.84c.91-1.16 1.58-2.78 2.77-3.41 7.58-4.04 10.34-11.7 14.27-18.5 2.45.13 1.18 1.92 1.36 3.06-.86 7.91-5.62 14.77-6.1 22.82-.18 2.95-.23 5.94-.73 8.85-.3 1.75-.32 4.28-3.44 3.25h.01z" fill="#232616"/><path d="M564.89,112.93c3.24-4.17,7.12-7.65,11.64-11.45-4.11,15.48-12.16,27.56-23.94,37.22-1.47.15-1.47-.94-1.63-1.91,2.75-7.18,6.83-13.65,10.92-20.1,1.22-1.08,1.91-2.58,3.01-3.76Z" class="Ck"/><path d="M489.95 305.91l20.62-18.59c.53 6.41-.86 11.65-1.3 16.93-.14 1.76-1.77 1.75-3.06 1.91l-14.32 1.71c-1.85.55-2.99.39-1.95-1.95h.01z" fill="#837259"/><path d="M501.69,193.66c4.46-2.02,7.23-.83,8.4,4.11.57,2.41,1.76,4.66,2.43,7.05.65,2.34,1.81,1.84,3.22.86.42,9.99-1.78,19.79-2.39,29.79-2.21-5.23-2.39-10.91-3.47-16.37-1.42-7.15-2.81-14.33-3.69-21.56-.39-3.2-2.03-3.72-4.49-3.89h0Z" class="CX"/><path d="M575.84,371.66c-5.61,11.68-10.63,22.3-20.42,30.04-.36-12.2,5.83-21.46,20.42-30.04Z" class="Cd"/><path d="M598.78 358.74c2.09 2.03.19 4.16-.17 6.02-1.38 7.12-3.25 14.15-4.9 21.22-.27 1.14-.96 1.66-2.03 1.85L587 367.68c-.33-1.42-.44-3.02 1.52-2.69 5.37.92 7.49-3.11 10.26-6.25z" fill="#242818"/><path d="M305.97,544.69c2.08-.39,1.95-2.04,1.88-3.51-.61-11.33,3.54-21.46,7.84-31.56,1.24,4.36.86,8.76.26,13.16-.92,10.09-3.1,19.82-8.25,28.69-1.05-2.14-1.79-4.35-1.72-6.78h-.01Z" fill="#544737"/><path d="M562.81 116.81l-11.04 19.99c-.57 1.43-1.01 2.91-1.91 4.19.03 1.48-1.26 1.95-2.1 2.76-2.91-2.64-4.55-5.9-4.86-9.82l19.94-19.02c.54.64.56 1.27-.03 1.89h0z" class="Ci"/><path d="M404.89 430.88c-.28.17-.55.43-.86.48-7.76 1.24-7.82 1.23-8.06 9.38-.14 4.64-.17 9.27-1.56 14.72-1.92-4.24-1.78-8.15-2.55-11.81-1-4.7-1.71-9.45-2.57-14.18-.36-1.97-.74-3.82 2.39-3.3l16.19 2.58c.37 2.61-2.51.66-2.97 2.12h-.01zM93.8 755.76c.19-2.08 2-2.48 3.43-3.2l23.13-11.64c3.13-1.63 5.9-1.41 9.25.65-5.65 3.51-11.7 5.25-17.32 7.9-4.65 2.19-9.46 4.03-14.14 6.15-1.47.67-2.8.89-4.26.21l-.08-.06h0z" fill="#afa595"/><path d="M489.95 305.91c-.09 1.39.88 1.73 1.95 1.95-.13.61-.57 1.58-.34 1.76 5.12 4.27 9.15 9.81 15.14 13.06l.22.99c-1.66.98-.27 3.21-2.14 4.66-6.14-7.02-13.91-12.47-18.89-20.59 1.89-2.73.83-5.81.9-8.71.18-7.47.09-14.94.11-22.41 1.64 8.54.39 17.17.94 25.75.08 1.31-1.59 4.21 2.12 3.54h0z" fill="#aea494"/><path d="M442.77 419.82l-2.94-2.06c-.06-1.86 1-1.57 2.15-1.12 4.67.82 8.72 2.77 12.32 5.97 6.92 6.16 15.17 10.51 22.5 16.13-1.38.15-2.98-1.74-4.16.43l-29.87-19.36h0z" class="Cd"/><path d="M230.01 403.98c3.03-1.34 5.33-2.17 8.11-1.44 4.8 1.26 9.67 2.24 14.49 3.4 1.06.26 2.58.27 2.72 1.68.14 1.37-1.42 1.66-2.27 2.35a6.7 6.7 0 0 1-7.84.91c-4.81-2.33-10.16-3.54-15.21-6.92v.02z" fill="#afa695"/><path d="M378.85 346.8l19.51 27.04c-5.93-1.88-11.37-3.89-13.62-10.61-1.78-5.32-4.63-10.29-7.01-15.41-.24-1.01.18-1.3 1.12-1.02h0zM141.91 460.79c-3.98-1.83-7.32-4.65-10.89-7.11 3.63-2.22 1.71-6.16 2.72-9.2.92-2.74.85-5.81 1.22-8.73 1.15-.64 1.43.44 1.98.99l4.97 24.04h0z" class="Cl"/><path d="M297.85,528.62c.57,3.72-2.09,6.81-2.16,10.82,2.64-1.09,3.31-3.73,5.13-5.19,1.84-1.47,2.73-1.52,3.18,1.04.46,2.56,1.16,5.08,1.75,7.61-3.22-2.85-5.46.45-7.87,1.47-6.09,2.59-6.02,2.77-6.05-3.7,1.24-4.4,2.49-8.8,6.02-12.05h0Z" fill="#534536"/><path d="M600.74 313.74l.04 5.03c-2.4-3.31-5.71-5.61-8.93-8.01v-18.73l1.11-.21 5.53 17.78c.47 1.55.3 3.41 2.25 4.14z" fill="#afa695"/><path d="M593.97 398.62c1.71 2.46.34 6 2.85 8.18-1.47 1.27 1.54 4.8-1.77 4.6-2.63-.16-5.46-1.58-6.14-4.95l-3.13-15.27c3.28 2.29 4.36 5.47 6.42 7.8 1.13 1.27 1.4.86 1.76-.36h.01z" class="Cl"/><path d="M51 435.76l2.98-4.01c3.09 2.14 2.62 5.83 3.63 8.8 1.79 5.26 2.98 10.73 4.43 16.12.49 1.13.83 2.17-1.07 2.07l-9.98-22.98h0zm306.91 163.99c1.12-27.39 1.47-54.77.03-82.16 1.8 5.77 1.42 11.82 1.63 17.68a593.3 593.3 0 0 1-.85 61.69c-.06.95-.53 1.87-.8 2.8h-.01z" fill="#b0a695"/><path d="M554.85 478.9c-.14-3.18-1.54-5.98-2.77-8.82-1.36-3.17-1.85-5.76 3.06-5.4.52.04 1.1-.6 1.65-.92l2.03-.07c.53 4.38 2.13 8.76.04 13.15l-4.01 2.05h0z" class="Ck"/><path d="M595.76 783.59c-2.36-1.74-5.07-.6-7.6-.92-1.67-.21-3.78.61-4.35-1.99 1.07-1.33 2.59-1.55 4.07-1.35 12.9 1.79 25.86.39 38.78.86 1.8.07 3.69-.19 5.2 1.2.82 1.99-.07 2.81-1.98 2.73-3.74-.15-7.5.53-11.21-.42l-22.91-.12h0z" class="Ce"/><path d="M517.85 202.81l3.79-5.35c2.12 6.54 1.59 13.29 1.71 20 .04 2.11-.6 4.3.51 6.32v-.02c.99 5.84.23 11.72.41 17.58.03.94-.38 1.55-1.45 1.45l-.09-3.84c-1.17-2.96.42-6.21-.91-9.15l-2.06-23.57c-.12-1.42.22-3.12-1.92-3.41h.01z" class="Ca"/><path d="M355.77 551.73c1.67 1.42 1.08 3.37 1.08 5.12l.04 37.74c0 1.76-.51 3.69 1.02 5.17.3 4.36-.55 8.63-1.06 12.93-1.48.12-1.51-.94-1.46-1.91.18-3.71-.54-7.45.44-11.12l-.08-47.93h.02z" fill="#b0a695"/><path d="M214.99 359.86c-1.27-.29-1.52-.98-.9-2.11l5.28-9.78a23.1 23.1 0 0 1 4.54 8.79l-8.93 3.1h0z" fill="#594b3b"/><path d="M261.94 316.76l-1.1 1.15-5.9-5.17-3.15-3.71c-.54-2.75-3.24-4.96-2.05-8.15 4.63 4.86 8.08 10.63 12.2 15.88z" fill="#292c1c"/><path d="M522.83,242.79c2.18-6.24.38-12.7,1.02-19.02,1.88,8.24.6,16.61,1.04,24.9.01,2.75,2.02,5.76-1.06,8.11-.26-4.67-1.43-9.27-1.01-13.99h.01Z" class="Cm"/><path d="M264.04 529.74l2.78 4.2c-2.28 0-1.76 1.96-2.2 3.21-1.48 4.13-1.62 8.66-3.68 12.62l-.95-1.97c.06-6.31 3.89-11.77 4.06-18.05h0z" class="Cn"/><path d="M355.85 599.67c.66 4.32-1.16 8.83 1.02 13.03.67 5.83-1.67 11.3-1.97 17.02-.34.47-.69.49-1.02 0l.1-6.01c1.06-2.27-.26-4.81.82-7.08.58-5.63-.86-11.39 1.05-16.94v-.02z" fill="#beb5a6"/><path d="M523.84,256.78c1.93-2.5.52-5.43,1.06-8.11,1.96,6.6.49,13.38,1.05,20.05.17,1.5,1.58,3.34-1.11,4.05.23-5.37-1.59-10.61-.99-16h-.01Z" fill="#bfb6a7"/><path d="M618.67 783.71l9.26-.06c1.59-.02 3.4.32 3.85-1.97 1.69-1.13 3.25-1.71 4 .98 2.26 2.27 5.71-.26 7.98 1.97-8.37-.29-16.79.9-25.1-.92h.01z" class="CW"/><path d="M477.97 472.66c-2.34.51-4.94-.74-7.09 1.05-4.08.52-8-.97-12.03-1.02-1.31-.87-2.88-.05-4.19-.6-1.14-.48-1.55-1.2.22-1.4l4.98.16c2.28 1.04 4.82-.24 7.1.8 3.66.4 7.46-.62 11.01 1.01h0z" fill="#bab1a1"/><path d="M378.95,408.65c-1.2.19-1.96.83-2.06,2.1-3.07-3.18-7.26-2.22-10.98-2.93-2.37-.45-4.94.54-7.18-.95,1.7-2.26,4.27.4,6.12-1.07,4.87.12,9.57,1.08,14.1,2.86h0Z" fill="#c6beaf"/><path d="M523.87 223.79c-1.32-1.14-1.07-2.7-1.02-4.16.26-7.43-.22-14.81-1.2-22.17l.28-3.65c.29-.52.58-.52.89 0 .57 9.99 1.41 19.97 1.06 29.99h-.01z" class="Cm"/><path d="M524.83 272.77c1.36-1.08.84-2.67 1.11-4.05 1.93 7.47.41 15.03.2 22.59l-1.31-18.54z" fill="#d2c9bc"/><path d="M260.03 504.54c-.98-3.39 1.83-1.89 2.82-1.9 7.97-.13 15.94-.06 23.91-.05-.05 2.06-1.64 1.08-2.47 1.09l-19.47.07c-1.62.01-3.36-.44-4.79.79h0z" class="Co"/><path d="M301.93,483.66c-5.67,1.78-11.34,1.64-17.02.08,5.67-1.07,11.35-.94,17.02-.08Z" fill="#4b3c2c"/><path d="M304.9 717.69c-.06-1.09.09-2.26-1.01-3.01l3.82-12.08 1.19.31c-.49 5.11-2 10-4.01 14.78h.01z" fill="#bcb2a3"/><path d="M445.86 471.65l-15.91-1.71c4.41-.92 8.74-2.07 12.9-.2.6 1.28 3.21-.6 3.01 1.92h0z" fill="#d4cbbe"/><path d="M313.3,685.79c-.16,5.34-1.7,9.76-2.88,14.53-1.47-3.52-.37-9.19,2.88-14.53Z" fill="#d1c9bc"/><path d="M336.87 586.73l1.93-.09c.59 5.27-.43 10.41-1.93 15.61v-15.51h0z" fill="#ccc3b5"/><path d="M445.86 471.65l-3.01-1.92c4.01.4 8.14-.88 12.03.95.59 2.12 3.16.29 3.96 1.99l-12.98-1.03h0z" fill="#c7beb0"/><path d="M227.95 774.56c8.15-2.07 16.39-.15 24.57-1.07l.02 1.34h-23.95l-.39.03-.25-.3h0z" fill="#4d3f2e"/><path d="M364.84,405.79c-1.8,1.71-4.09.61-6.12,1.07-3.63-.45-7.41.66-10.92-1.06,2.67-.52,5.59.9,8.07-1.05,3.07-.36,5.98.65,8.96,1.04h.01Z" fill="#bcb3a3"/><path d="M577.75 224.85c-1.05.77-.88 1.94-1 3.02-1.38-3.24-2.6-6.52-2.96-10.05-.61-1.11-.86-2.05.96-1.97l2.99 9h.01z" fill="#bdb4a5"/><path d="M101.59 707.78c2.19 6.17 2.3 12.6 2.28 19.04-.36.36-.65.31-.87-.15l-1.41-18.89h0z" class="Cp"/><path d="M315.95 522.78l-.26-13.16c.06-1.06.52-2.23-.81-2.9.49-1.57 1.82-2.93 1.86-.25.07 5.42 1.01 10.96-.79 16.31h0z" fill="#838174"/><path d="M432.84 359.78l-1.96.97c-2.85-1.06-4.88-3.29-7.06-5.44 3.2 1.09 6.37 2.19 9.02 4.47z" fill="#c4bbac"/><path d="M90.93 519.75l-1.01 2.06c-1.67-2.43-2.12-5.32-3.03-8.03-.46-1.09-.85-2.15 1.05-2.02l2.99 7.99h0z" fill="#b6ad9d"/><path d="M404.89 430.88l2.97-2.12c3.02-.24 5.83.67 8.67 2.12h-11.64z" fill="#b4ab9b"/><path d="M87.94 511.77l-1.05 2.02c-1.63-2.81-2.56-5.86-3.01-9.06.37-.35.74-.36 1.13-.02 1.29 2.23 2.43 4.52 2.93 7.07h0z" fill="#cdc4b6"/><path d="M103 726.67c.3 0 .59.06.87.15.15 1.36-.44 2.93 1.12 3.88l-.2 4.81c-.42.69-.12 1.64-.82 2.22-1.93-3.54-1.14-7.33-.97-11.06z" fill="#75695a"/><path d="M359.13 323.63c-2.01.59-4.31-.53-6.17 1.03l-6.95-.98c1.19-2.53 3.23-1.13 4.98-1.09 2.71.35 5.56-.36 8.14 1.04z" fill="#958770"/><path d="M60.98 458.74l1.07-2.07c1.81 2.74 2.01 5.99 2.86 9.03-1.14.6-1.41-.4-1.88-1.03l-2.05-5.93z" fill="#c3b9ab"/><path d="M75.96,449.76c-.84.39-.84,1.21-.96,1.96-1.92-1.98-2.72-4.58-3.87-6.98.22-.5.28-1.12.96-1.27,1.56,1.93,3.04,3.91,3.88,6.29h0Z" fill="#807566"/><path d="M350.99 322.59c-1.62.56-3.58-.46-4.98 1.09l-5.77-1.03c3.63-.76 7.21-1.45 10.75-.06z" fill="#bcb1a0"/><path d="M107.82 437.83c-.74.08-1.5.15-1.88.95l-5.99-5.02c-.23-.89-.06-1.38.99-.98l6.88 5.05z" fill="#7a6f60"/><path d="M353.88 629.7h1.02l-1.03 9.97c-.89.24-1.38.08-.98-.98.18-3.02-.6-6.14 1-9h0z" fill="#cac1b3"/><path d="M281.99 564.64l1.02-2.06c1.76 2.02 2.24 4.59 3 7.04.37 1.08-.13 1.28-1.06 1.07l-2.95-6.04h0z" class="Cn"/><path d="M161.1,695.8c-.67,1.04-.56,1.7.83,1.89,1.38.18,2.87-.07,4.04.98-1.79-.03-3.61.08-5.38-.13-1.19-.15-3.14-.27-2.84-1.9.3-1.6,2.13-.85,3.36-.83h0Z" fill="#d0c7b8"/><path d="M117.97,635.69c1.27,1.45,1.61,3.26,1.94,5.07-.94.8.18,2.3-1.02,3.01-1.28-2.18-1.66-4.61-1.95-7.06-.37-1.05.12-1.25,1.02-1.02h0Z" fill="#cec6b8"/><path d="M288.93,575.69c2,1.9,2.11,4.5,3.49,8.1-3.06-2.13-3.51-4.33-4.46-6.17.67-.47.15-1.53.97-1.93Z" fill="#dad3c6"/><path d="M122.67 543.02a15.3 15.3 0 0 1-3.71-7.56c2.9 1.95 3.78 4.24 4.95 6.29-.3.54-.42 1.25-1.25 1.27h.01z" fill="#8d8374"/><path d="M225.88 386.8l1.96-.98c2.22.88 4.7 1.29 6.62 4.07-3.34-.88-6.12-1.48-8.58-3.09z" fill="#c4bbad"/><path d="M122.67 543.02l1.25-1.27 3.1 4.94c-.83.43-.95 1.23-1.06 2.03-1.6-1.61-2.4-3.69-3.29-5.71h0z" fill="#6d6151"/><path d="M191.06 435.57l-1.1 1.16c-1.77-.89-2.94-2.4-4.06-3.96-.25-.95.11-1.3 1.06-1.06l4.1 3.86z" fill="#c3baac"/><path d="M352.88 638.7l.98.98-1.21 6.73c-.66-2.63-1.58-5.24.23-7.7h0z" fill="#dcd4c8"/><path d="M186.96 431.7l-1.06 1.06-4.94-4.54c2.47.58 4.62 1.46 6 3.48z" fill="#d6cec1"/><path d="M572.72,213.86c-1.14-1.91-2.26-3.82-1.35-6.71,1.72,1.89,2.03,3.81,2.4,5.69-.36.33-.42.97-1.05,1.02h0Z" fill="#d8d0c3"/><path d="M288.93 575.69l-.97 1.93-3.02-6.94 1.06-1.07c1.73 1.66 1.8 4.12 2.93 6.08z" fill="#c6bcae"/><path d="M133.96 588.7l-1.02 2.03-3.04-5.99c-.33-1.05.15-1.27 1.07-1.04l3 5.01h-.01z" fill="#bcb3a3"/><path d="M199.69 366.54c-1.09-1.14-2.63-.48-3.88-.98l7.08-1.66c.73 3.06-1.95 1.98-3.2 2.65h0z" fill="#9d9285"/><path d="M85.01 504.7l-1.13.03c-1.27-1.4-1.41-3.16-1.44-5.01 1.93 1.11 2.53 2.89 2.57 4.99h0z" fill="#d9d2c5"/><path d="M378.85 346.8l-1.12 1.02a10 10 0 0 1-2.53-5.49c2.25.99 2.83 2.83 3.64 4.48h0z" fill="#ccc4b6"/><path d="M136.95 436.75l-1.98-.99v-5.42c1.88 2.25 2.06 4.3 1.98 6.42h0z" fill="#b7ae9e"/><path d="M307.94 465.68l1.03-1.96c1.45 1.84.98 3.85.74 6.27a7.1 7.1 0 0 1-1.77-4.3h0z" fill="#cfc6b8"/><path d="M521.83,229.8c1.89,2.89.72,6.09.91,9.15-1.56-2.93-.75-6.09-.91-9.15Z" class="Cm"/><path d="M195.92,644.69c-.79,1.41-1.74,2.66-3.77,3.46.37-2.09,1.12-3.52,2.68-4.52.67.04.79.64,1.09,1.06h0Z" fill="#d3cbbe"/><path d="M300.72 664.07v6.21l-.48.03v-6.21l.48-.04h0z" fill="#f3ede2"/><path d="M185.89 667.64l1.12 1.13c-.92 1.56-2.56 2.15-4.01 3.01-1.06.34-1.29-.15-1.06-1.08l3.94-3.06h0z" fill="#bcb3a4"/><path d="M130.97 583.7l-1.07 1.04a5.3 5.3 0 0 1-1.78-4.31c2.07.45 2.1 2.14 2.84 3.27h.01z" fill="#d0c9bb"/><path d="M72.08 443.47l-.96 1.27c-.95-1.3-1.95-2.59-1.99-4.71 1.85.64 2.51 1.94 2.95 3.45h0z" fill="#8f8576"/><path d="M97.05,431.69c-1.34-.59-2.37-1.45-2.82-3.05,1.95-.29,2.91.76,3.83,1.87.04.72-.52.92-1.01,1.18Z" fill="#cfc7bb"/><path d="M577.85 131.87c-.39-1.02.02-2.31-1.08-3.08l1-3.02c.95-.24 1.38.1 1.21 1.09-.23 1.7.03 3.52-1.13 5.01z" fill="#867866"/><path d="M181.94 670.7l1.06 1.08-4.06 2.94c-.36.45-.71.42-1.05-.02.99-1.7 2.34-3.03 4.05-4z" fill="#cbc2b3"/><path d="M466.96,471.64c-2.38-.13-4.88.81-7.1-.8,2.39.09,4.87-.69,7.1.8Z" fill="#c7beb0"/><path d="M354.8,616.61c-.16,2.37.82,4.88-.82,7.08.1-2.38-.71-4.87.82-7.08Z" fill="#cac1b3"/><path d="M574.82,415.8c-2.34.36-4.67.47-7-.08,2.35-1.47,4.69-1.56,7,.08Z" fill="#f4ede3"/><path d="M117.97 635.69l-1.02 1.02c-1-1.01-1.58-2.66-.31-3.18 1.69-.69 1.05 1.28 1.34 2.16h-.01z" fill="#dad3c6"/><path d="M290.75 491.61l5.75.29c-1.97.7-3.96 1.48-5.75-.29h0z" fill="#f6f0e5"/><path d="M118.89 643.77c.12-1.08-.08-2.26 1.02-3.01l1.04 3.95-1.11 1.11-.95-2.04h0z" class="Cn"/><path d="M480.97 360.62l2.94 2.08c.21.98-.08 1.46-1.16 1.17l-3.05-1.97 1.27-1.28z" fill="#d0c7b8"/><path d="M268.92,339.78l2.25,1.14-5.26,1.83c.61-1.39,1.47-2.52,3.01-2.97Z" fill="#474838"/><path d="M106.07 721.16c.21-2.5-1.12-5.22 1.07-7.43a18.6 18.6 0 0 1-1.07 7.43z" class="Cp"/><path d="M535.66 187.61l1.05 2.12-1.31 3.71c-1.14-2.48-.75-4.17.27-5.83h-.01z" fill="#595a4b"/><path d="M63.03 464.67l1.88 1.03c.74.67 1.56 2 .36 2.13-1.52.16-2.18-1.58-2.24-3.16z" fill="#e1d9cd"/><path d="M598.69,230.03c-.02,2.78.47,4.25-.48,5.77-.56-1.74-.69-3.3.48-5.77Z" fill="#f6efe4"/><path d="M103.97 737.73l.82-2.22c.09 1.86.66 3.82-.99 5.53-1.08-1.35.47-2.25.17-3.32h0z" fill="#c3baae"/><path d="M105.07,728.18c.12-2.21-.93-4.6,1.01-6.53.12,2.25-.11,4.44-1.01,6.53Z" class="Cp"/><path d="M605 333.41l2 .49c.18.35.12.64-.2.88l-1.63 2.86c-.72-1.44-.22-2.85-.17-4.23h0z" class="CV"/><path d="M549.86 141c-.02-1.7.71-3.05 1.91-4.19l.83 1.9c-.41 1.36-1.78 1.58-2.74 2.29h0z" fill="#515040"/><path d="M195.92 644.69l-1.09-1.06 2.14-2.89 1.07 1.08-2.11 2.87h-.01z" fill="#c0b7a8"/><path d="M572.72 213.86l1.05-1.02.99 3-.96 1.97c-1.26-1.07-.91-2.58-1.08-3.95h0z" fill="#c9c0b2"/><path d="M441.98 416.65c-.78.25-1.71.21-2.15 1.12-.81-.38-1.74-.59-2.06-1.61l2.14-.46 2.06.95h0z" fill="#817666"/><path d="M299.88 625.72l-1.87.04c-.06-1.39.39-2.51 1.62-3.3.83 1.07.64 2.15.25 3.25h0z" fill="#606253"/><path d="M97.05 431.69l1.01-1.18 2.88 2.27-.99.98-2.9-2.07z" fill="#a59b8e"/><path d="M177.89 674.7l1.05.02c-.48.78-.9 1.68-2.04 1.52-.17-.02-.3-.43-.44-.66l1.43-.88h0z" fill="#ded6c9"/><path d="M522.81 193.8h-.89c-.15-1.79-.17-3.55.71-5.2l.18 5.19z" class="Ca"/><path d="M120.64 493.52c-1.21 2.1-2.48 1.32-3.75.06l3.75-.06z" fill="#483a29"/><path d="M596.67,260.29c.04,1.89.77,3.9-.91,5.51-.25-1.93.22-3.73.91-5.51Z" class="Ch"/><path d="M578.98 126.86l-1.21-1.09c.11-.83.48-1.84 1.39-1.33 1.09.62.48 1.64-.17 2.42h-.01z" fill="#c5bcad"/><path d="M562.81 116.81l.03-1.89c.48-.87 1.01-1.7 2.06-1.99a6.2 6.2 0 0 1-2.09 3.88z" fill="#756b57"/><path d="M526.15 109.84l-2.23.06c.72-1.03 1.65-2.22 2.89-1.69.83.35 0 1.22-.66 1.63h0z" fill="#a29580"/><path d="M594.73 271.77l.11-2.95.82-2.44c.06 1.86.78 3.84-.93 5.39z" class="Ch"/><path d="M393.05 775.59c-9.88-1.66-19.86-.39-29.77-1-5.43-.33-10.96.87-16.3-.97 9.78-19.2 16.22-39.61 21.52-60.39a491.6 491.6 0 0 0 14.45-93.51c1.13-3.67-.23-7.51.76-11.2l.33-17.74c.68-.14 1.1.13 1.27.8.13 6.84.02 13.69.08 20.8.03.4 1.03-.62.47-.26-.17.11-.28-.01-.31-.37-.38-5.43-.03-10.87-.2-16.3-.05-1.76.58-3.67-.87-5.22-.23-8.65-.09-17.31-.07-25.95 1.9-3.95.63-8.16.94-12.25.2-2.63-.09-5.28.07-7.91l-.13 17.99c-.21.7-.64.88-1.29.55-.35-19.02-1.9-37.97-3.09-56.94.76-1.82 2.37-2.05 4.04-2.16 6.1 1.36 10.91-.88 15-5.29 1.82-1.96 4.02-2.35 6.77-2.11l137.11 11.6c2.97.25 5.92.75 8.88 1.13 1.77 1.46 2.48 3.46 3.02 5.6 8.21 32.07 17.24 63.92 27.52 95.39 10.64 32.55 22.29 64.75 36.29 96.04 2.89 5.88 4.91 12.15 8.04 17.92.88 1.39 1.21 3.02 1.96 4.47.78 1.22 1.16 2.68 2.24 3.72-1.16-1.27-1.66-2.92-2.52-4.36a20.1 20.1 0 0 0-2.4-5.01c-2.81-6.32-5.3-12.77-8.39-18.97-14.03-33.31-25.64-67.51-36.83-101.84-9.09-27.86-17.03-56.08-24.58-84.4-.66-2.46-2.11-5.05-.19-7.64.58-.33 1.29-.54 1.72-1 8.72-9.53 19.85-8.86 31.28-7.77 11.92 1.14 23.9 1.71 35.85 2.53-.64 5.74 1.31 11.15 2.49 16.58 7.66 35.17 16.44 70.05 28.58 104 2.23 6.23 4.64 12.4 6.97 18.6-1.84.66-3.21-.47-4.61-1.29l-24.74-14.08a17.8 17.8 0 0 1-8.73-10.42l-29.98-87.4c-1.3-3.87-.35-6.52 3.4-8.06 3.21-1.32 6.21-3.14 9.05-4.13-3.61-.1-7.69.72-11.8.98-3.35.21-3.83 1.77-2.99 4.6l9.36 30.55 12.04 39.14c2.51 7.67.92 15.22.21 22.75-.71 7.47-.09 14.45 2.68 21.5 11.82 30.11 24.81 59.66 41.77 87.28 12.06 19.65 25.89 37.94 42.83 53.73.61.57 1.25 1.11 1.73 1.79.57.81 1.28 1.67.79 2.7-.54 1.14-1.73.73-2.67.76-9.32.27-18.65.11-27.92-.59-10.47-.79-20.93-.03-31.4-.82-18.4-1.39-36.91.19-55.31-1.55-4.98-.47-9.95.48-14.94.49-14.3.03-28.59-.67-42.9-1.01l-99.55-2.14c-10.77-.13-21.57 0-32.33-.86-1.61-.13-3.37.37-4.68-1.07h-.02z" class="CY"/><path d="M530.83 778.69l66.88 1.27c15.48.71 30.94.39 46.41.88l54.83 1.76c1.58.05 3.26.5 5.16-.64-5.83-5.58-11.5-11.06-16.76-16.98-17.02-19.18-30.72-40.54-42.58-63.18-11.29-21.56-20.67-43.96-29.65-66.54-2.3-5.79-3.22-11.71-2.07-17.59 2.5-12.82.43-24.86-3.67-37.09-6.56-19.55-12.12-39.44-18.34-59.11-1.25-3.96-.31-4.79 3.58-4.88 6.12-.14 12.22-.91 19.89-1.54-4.49 3.6-8.61 5.02-12.41 6.87-6.21 3.04-6.26 2.93-4.11 9.18l28.42 83.15c1.97 5.87 5.1 9.85 10.7 12.8 9.1 4.79 18.31 9.5 26.63 15.69 10.84 29.99 24 58.95 40.48 86.24 5.08 8.41 6.82 17.08 7.55 26.41.43 5.46 1.22 10.9 1.85 16.34l.26 5.89v7.01c-26.02-1.02-52.04-2.19-78.1-1.95-1.09-1.34-2.6-.92-4-.98-15.99-.34-32.01.78-47.97-1.01h-5.01c-10.21 1.02-20.45.6-30.66.25-4.93-.17-9.92.15-14.82-.76-1.02-.19-2.51.45-2.48-1.48h0z" class="CW"/><path d="M459.66 85.62c-2.07 1.55-2.76 3.53-2.04 6.06 2.86 10.16.31 18.98-6.12 27.21-3.65 4.67-6.4 10.04-9.55 15.1-6.42 2.06-11.7-1.06-16.71-4.18-2.56-1.59-1.59-4.83-1.09-7.45 2.7-13.89 6.16-27.62 9.16-41.44.38-1.76 1.1-3.49.77-5.8-4.79 2.45-7.63-.02-9.26-4.09-2.5-6.23-6.95-7.76-13.38-7.66a94.6 94.6 0 0 0-35.9 7.51c-7.33 3.1-8.73 2.51-11.58-4.75-1.21-3.09-2.39-6.21-3.97-9.14a80.8 80.8 0 0 1 34.61-14.2c26.64-4.21 50.7 3.67 73.6 16 5.33 2.87 10 3.1 15.55 2.4 7.06-.89 14.22-1.1 21.35-1.3 21.72-.6 43.36-1.88 64.81-5.77 11.11-2.01 20.99 2.04 29.96 8.34 3.93 2.76 7.45 6.21 12.37 7.08 7.47 1.32 10.92 7.53 15.53 12.35-2.3-.33-4.64-.46-6.88-1.04-6.85-1.76-13.36-2.18-18.83 3.47-1.62 1.67-3.49 1.3-5.53.69-10.33-3.11-20.84-5.7-31.02-9.24-9.06-3.15-18.21-3.25-27.52-2.8l-37.26 1.91c-10.11.69-20.23.76-30.35 1.13-8.27.3-9.36 1.53-10.71 9.6h0z" class="CY"/><path d="M359.98 56.98c2.69-.7 2.86 1.45 3.55 3.09 1.6 3.78 1.56 9.3 4.91 10.99 3.23 1.63 7.25-2.23 10.93-3.61 12.66-4.76 25.72-6.32 39.14-5.82a4.7 4.7 0 0 1 4.36 2.68l1.95 3.48c2.7 5.02 6.65 6.26 11.85 3.72-.36 6.16-2.23 11.78-3.43 17.49l-7.9 35.48c-.81 3.35-.1 4.98 3.22 5.8 4.49 1.1 8.61 3.6 13.38 3.72-2.34 4.46.06 8.66.69 12.96l.37 5.47c.11 2.74 3.13 6.17-2.05 7.63-6.58 1.86-8.7 1.23-11.4-3.92-.23-.44-.48-.87-.73-1.31-2.72-3.05-1.97-6.31-.64-9.64.34-.86 1.09-1.99-.18-2.6a3.1 3.1 0 0 0-3.31.37c-1.02.87-.18 1.85.31 2.64 4.13 6.61 1.88 13.87 2.11 20.87.02.62-.82.98-1.41 1.29-3.62.12-7.2 4.87-9.84 2.55-2.1-1.85-1.5-6.79-2.01-10.37-.25-1.77-.27-3.58-1.83-5.46l-3.11 16.41c-.73 3.56-9.08 7.05-12.26 5.32-1.84-1-1.67-2.64-1.81-4.29-.35-4.06.48-8.21-.88-12.2-1.81-1.46-1.54-3.19-.66-4.99 1.62-3.58 3.48-7.01 6.11-9.99.69-.78 1.8-1.78.84-2.99-.77-.96-2.05-.95-3.21-.88-1.34.07-2.02.96-2.32 2.18-.37 1.46-.28 2.94-.02 4.4.38 2.15.49 4.24-.72 6.2-2.52 3.51-5.58 6.1-10.18 6.15-1.28.53-2.2 1.49-2.76 2.69-1.24 2.65-2.3 5.08-6.13 3.21-1.23-.61-.71 1.38-1.08 2.14-4.23-4.29-5.82-9.57-6.06-15.46-.1-2.36.22-4.23 2.4-5.52.85-.5 1.43-1.46 2.28-1.92 16.23-8.84 24.44-24.25 32.7-39.67 1.54-2.88 1.5-4.06-1.92-5.22-6.43-2.19-12.19-2.6-18.46 1.2-8.51 5.15-17.68 9.21-26.45 13.95-2.8 1.51-4.96 1.14-7.87.06-8.58-3.17-12.95-8.63-12.56-18.06.2-4.77-.72-9.59-1.14-14.38 6.57-6.41 13.41-12.54 17.74-20.93 1.05-2.02 3.6-3.27 5.46-4.87l.03-.04zm-93.17 59.94c-3.49 2.99-5.34 7.17-7.8 10.89-1.75 2.63-3.03 3.2-5.11.46-.9-1.18-1.86-3.13-3.94-1.41-1.39-1.8.16-3.05.84-4.45.92-1.9 2.42-3.58 2.23-6.36-2.44.52-3.31 2.6-4.55 4.07-5.47 6.49-13.97 7.21-20.38 1.41-2.58-2.34-5.2-4.55-8.18-6.35-.51-.98-.11-2.76-2.24-2.25-2.72.65-5.43-.02-8.15-.32-1.31-.27-2.44-.93-3.55-1.63-2.84-1.77-5.67-5.31-8.19.52-.62 1.44-2.56 1.22-4.03.77-2.04-.63-4.15-.92-6.2-1.49-3.97-.74-7.85-1.83-11.75-2.84-4.09-1.36-5.63-4.48-5.9-8.49.15-1.8 1.24-3.05 2.57-4.06 1.75-1.34 1.76-2.7.98-4.73-1.8-4.65-.26-7.26 4.92-9.18 1.92.45 3.18 2.36 5.33 2.57 1.34-3.28-.16-6.33-.15-9.39 0-2.76-1.34-6.8 2.9-7.2 3.64-.35 4.53 3.14 4.99 6.24.96 6.38 3.9 8.11 12.77 7.52 4.99-1.79 6.66-4.21 6.21-9.27-.25-2.89 1.16-3.9 3.81-3.78 1.58.07 3.21.98 5.04-.49-2.35-2.36-4.47-4.83-7.56-6.14-5.78-2.46-7.95-1.03-8.05 5.18-.02 1.16.23 2.3.31 3.45.1 1.48.28 3.02-1.3 3.97-7.93.18-7.87.17-8.61-7.72-.31-3.32.02-6.62.42-9.86.41-3.34.31-6.5-.81-9.65 3.12-2.84 6.57-1.12 9.91-.65 3.15.44 5.82 2.28 9.83 3.64-4.33-3.87-8.08-5.91-13.09-4.84-4.47.96-8.89-.15-13.31-.76-2.58-.35-4.75-1.52-6.37-3.53-1.12-1.4-2.69-3.02-1.52-4.85 1.18-1.85 3.25-1.14 5-.55a18.5 18.5 0 0 1 3.61 1.68c4.02 2.42 8.12 2.52 12.94.42-3.5-1.9-6.98-2.73-10.24-4.04-1.53-.61-3.7-1.25-3.48-3.06.26-2.15 2.7-2.08 4.45-2.36 2.91-.46 5.55.71 8.21 1.63 4.68 1.63 9.05 4.08 14.08 5.08-1.28-1.59-3.22-2.24-4.84-3.33-2.29-1.55-3.71-3.5-2.28-6.29 1.48-2.87 3.75-2.05 5.94-.97.33-.35.28-.99-.16-1.9-.89-1.98-1.66-4.01-2.17-6.1-1.37-5.61.83-8.02 6.43-7.02 2.45.44 4.84 1.14 7.23 1.84 4.28 1.25 8.3 2.44 12.99.41 4-1.74 6.31 1.5 7.56 5.13.05 1.3-.03 2.67 1.51 3.32 1.52 1.07 2.84 2.38 4.22 3.61 4.32 4.31 8.97 7.61 15.63 7.01 3.72-.33 6.85 2.16 10.26 3.33.4 3.02 2.66 4.48 4.84 6.2 2.54 2.01 6.55 2.64 6.99 6.82-1.1 1.68-2.82 2.61-5.12 3.93 3.07.8 5.68 1.62 7.18 4.1.21.12.44.19.68.23 4.87 4.06 6.76 10.42 11.37 14.68l2.92 7.11c-5.03 1.43-8.49-1.09-11.44-4.87-2.5 2.68-2.25 6.48-4.61 8.92-2.01 0-3.96-2.8-6.03-.14-2.14-2.25-2.64-5.29-3.83-8-.57-1.31-1.19-3.03.34-4.1 1.44-1.01 2.84-.09 4.08.81.51.37.71 1.04 1.31 1.32-2.9-5.49-3.73-5.77-9.01-3.08-4.26 2.17-6.6 1.66-9.14-1.99.96-2.54 3.13-3.68 5.33-4.7-5.26-1.02-5.76-3.92-2.62-16.92-3.76 2.17-3.06 5.67-3.46 8.67-.25 1.86.83 4.01-1.31 5.42-6.38 1.83-11.71 5.08-15.12 11.02-2.66 4.63-3.11 4.74-7.17 1.32-2.04-1.72-4.49-1.96-6.88-2.52-.81.18-1.64-1.26-2.4.06 2.65 2.71 7.17 3.93 6.86 8.87-1.5 2.72 1.39 3.29 2.44 4.63 1.13 1.45 1.93 2.52.69 4.33-1.22 1.79-2.53 1.81-4.25.94-.88-.44-1.94-1.06-2.8-.9-7.41 1.33-13.62-1.09-19.15-5.83-1.45-1.24-2.5-.41-3.22.85-3.5 6.09-8.1 11.31-12.83 16.42-1.42 1.53-1.36 2.35.56 3.25 4.35 2.02 8.56 4.87 13.65 3.12 5.29-1.81 8.95 2.35 14.48 3.77-3.95-6.14-.57-10.91 1.11-15.94.83-2.47 1.56-2.98 3.53-.73 2.76 3.17 2.98 6.88 2.89 10.86 4.24-3.2 4.84-8.85 8.99-11.83.5-.49.88-.41 1.15.24-2.97 3.55-1.89 7.67-1.91 12.77 3.11-3.96 5.55-7.21 9.29-9.05 1.45-.71 2.92-1.64 3.4.71 1.27 6.28 3.09 12.13 9.39 15.33.38.19.33 1.21.48 1.85.07 1.81.86 3.73-.88 5.23l.02-.02z" class="CW"/><path d="M212.82 26.02c-1.74-.49-3.37-3.66-5.28-.23-1.66 2.99.81 3.73 2.65 4.74 1.45.8 3.05 1.38 4.42 2.3 1.07.72 3.53.73 2.57 2.81-.72 1.55-2.48 1.97-4.33 1.17-4.42-1.91-8.89-3.71-13.33-5.55-3.71-1.54-7.44-2.93-12.09-.68l18.52 7.01c-5.43 1.95-9.45 3.84-13.84 3.04-4.29-.78-7.6-4.58-12.83-4.78 1.82 3.59 3.47 6.5 7.44 6.98 2.38 1.37 5.86.79 7.19 4.04 3.47 1.01 3.12 3.65 2.67 6.31a65.4 65.4 0 0 0-.7 17.17c.22 2.23.39 4.52 3.22 1.98 2.41-2.16 2.84.29 3.94 1.34 1.41-1.27 3-2.34 4.77-.92 1.53 1.23.91 3.03.44 4.57-.56 1.86-1.09 3.84-3.3 4.53-4.35 3.82-8.29-.28-12.36-.8-3.05-.39-2.53-3.38-2.67-5.64-.07-1.15-.06-2.32-.26-3.46-.33-1.97-1.51-3.79-3.47-3.6-2.48.25-1.29 2.64-1.23 4.04.19 4.28.72 8.54 1.01 12.82.14 2.11-.8 2.94-2.59 1.4-1.86-1.6-4.34-2.51-5.53-4.87-.84-1.36-.84-3.31-2.77-3.91-8.13-.07-16.52-2.7-23.85 3.41-2.85 2.38-5.27 1.07-6.76-2.08-1.62-3.45-1.16-7.14-1.17-10.87-1.48.64-2.51 2.39-4.38 1.51l6.95-25.99c1.09.39 1.98 1.75 3.38.72 1.81-2.19 2.51-5.18 5-6.87 1.3-1.07 2.8-1.64 4.46-1.8 3.14 1.53 5.03.33 6.02-2.8.39-.72.85-1.4 2.16-2.77-4.84 2.94-9.41 4.22-12.92 7.46-2.57 1.51-2.49 5.31-5.53 6.42-.66-.73-1.37-1.37-2.46-1.28.23-6.38 2.53-12.08 7.2-16.25 4.99-4.44 10.73-7.81 14.76-13.57 2.53-3.61 7.13-4.73 12.1-2.54 3.53 1.55 7.11-.93 10.5-2.14 5.47-1.95 11.04-3.81 16.17-6.47 5.7-2.96 11.32-1.84 17.01-.97l27.92 4.57a11 11 0 0 1 7.22 3.8c1.92 2.23 4.03 4.29 6.05 6.43-.69 1.23.18 2.17.59 3.19 1.2 2.95 1.33 5.79-1.16 8.15-2.71 2.56-5.67 1.97-8.63.39-1.89-1-3.66-2.18-5.36-3.46-1.48-1.2-2.95-2.42-4.46-3.58-.95-.67-1.91-1.34-1.84-2.71-1.22-1.57-2.38-3.19-3.68-4.68-1.14-1.31-2.66-1.69-3.88-.26-2.45 2.87-5.24 2.09-8.21 1.21-4.14-1.23-8.32-2.35-12.51-3.39-4.28-1.06-5.5.28-4.24 4.59.74 2.55 1.61 5.07 2.42 7.6.46 1.37 1.2 2.85-1.15 3.21h.02zm430.84 185.05c-10.08.58-19.95 2.71-29.9 4.2-3.65.55-5.17.06-5.38-3.77-.12-2.27-.94-4.5-1.45-6.75-1.4-1.55-.01-3.64-1.03-5.27-.28-.96-1.61-1.81-.32-2.94-.33-2.19-.3-4.48-1.67-6.41-.14-1.08-1.07-2.11-.18-3.25l-14.55-80.87.78-.43 44.86 74.16c.68.53 1.35.6 2.03 0l6.81 31.3v.03z" class="CY"/><path d="M114.14 262.72c.15 6.46-5.85 7.62-9.4 10.89-4.62-.23-9.8 1.5-12.52-4.34-1.5 1.65-.78 3.04-1.11 4.27-1.17 4.28-4.93 6.73-9.29 6.13-2.95-.4-5.69-1.6-8.62-1.98-1.34-.46-2.64-1.08-4.11-1.01-4.37-.81-7.88-3.79-12.13-4.91-1.95-.72-2.7-2.63-3.99-4-.27-1.5.85-1.68 1.86-1.97 2.73-.14 5.05 1.43 7.63 1.91 5.25.99 6.91-.77 6.16-6.05-.43-3-2.51-5.9-.78-9.09 4.95-.51 9.77.7 14.65 1.1 5.27.44 5.68.13 5.17-5.18-.08-.56-.12-1.11-.14-1.67.28-5.66-1.84-11.1-1.45-16.76.17-2.46-.15-4.99 1.27-7.22a4.6 4.6 0 0 1 3.51-1.63c5.14-.18 10.24-.39 14.88-3.09 1.02-.6 2.27-.17 3.26.59l5.15 43.97v.04z" class="CW"/><path d="M108.99 218.75c-.49.03-1.15-.13-1.45.12-5.81 5-12.86 3.91-19.66 4.04-2 1.61-4.1 1.5-5.78-.24-2.12-2.21-2.43-4.95-1.23-7.81 1.12-.76 1.07-1.94 1.13-3.08.31-.15.63-.19.96-.13.88-5.1-3.74-12.81-8.55-13.86-4.77-1.05-9.32-3.17-14.34-3.04-.13-.11-.32-.18-.38-.32-3.9-9.55-3.89-9.65 6.3-8.58 5.08.53 10.13 1.46 15.18 2.24 3.15.49 5.34 2.48 7.32 4.79l18.07 21.09c1.21 1.41 2.2 2.9 2.42 4.8v-.02zM4.17 811.47c.62.14 1.45.62 1.82.38 10.35-6.62 22.26-7.61 33.93-9 10.37-1.24 20.87-1.49 31.32-2.02 1.69-.09 4.15-1.06 5 .86.71 1.59-1.53 2.69-2.6 3.87-1.55 1.7-2.4 4.06-4.68 5.09-4.34-1.19-8.82.06-11.49-.4 2.68.25 7.14-.64 11.49.41l-1.08 1.14c-15.89.13-31.68 1.01-47.21 4.94-6.98 1.77-12.91 5.73-19.49 8.27-1.01-4.96 2.03-9.01 3-13.53h-.01z" class="CY"/><path d="M214.09,173.52c-3.54-3.52-8.28-3.72-12.76-4.61-1.76-.35-4.16-.23-4.19-2.56-.04-2.38,2.64-1.21,3.91-2.03.41-.26.82-.51,1.55-.95-2.51-2.07-3.41-5.89-7.59-5.48-4.27-1.46-3.37,2.02-3.93,4.11-1.07,4.48,1.28,7.14,4.79,9.31,1.53.95,2.84,2.24,4.25,3.37.25,1.55,1.57,2.2,2.6,3.09,2.57,2.08,4.64,4.63,6.7,7.17,1.45,1.79,1.31,1.98-.48,3.87-9.17-.11-14.68-6.18-19.6-12.66-2.09-2.76.53-7.32-2.44-10.3.25-4.67-1.1-9.28-.63-13.97-.96-6.57,2.47-10.53,7.91-13.28.43-.28.91-.44,1.41-.5,5.03,1.76,7.23,5.89,8.77,10.56.49,1.49.37,3.78,2.67,3.54,3.58-.38,4.44,1.85,4.52,4.48.14,4.74,4.55,6.22,6.69,9.41-.33,2.04,1.22,3.81.85,5.86-1.33,1.61-3.33,1.03-5,1.54v.03Z" class="CW"/><path d="M41.01 175.76L25.16 138.7c-1.05-2.44-2.05-4.87 1.13-6.29 3.26-1.46 3.93 1.39 4.81 3.45 10.59 24.88 21.96 49.43 31.82 74.62.54 1.37.86 2.83 1.28 4.25-5.45-.98-6.83-5.93-9.45-9.61-.92-.25-.04.74-.5.82-.3.38-.64.67-1.05.91-3.25 1.07-6.47 2.21-9.88.67-2.4-2.76-.34-5.08 1.07-7.09 3.04-4.35 2.99-8.57.37-12.97-1.86-3.7-3.31-7.53-3.74-11.69h0z" fill="#534636"/><path d="M176.97 76.76c2.45 1.28 2.38 3.01.88 4.99-3.27 3.1-5.84 6.28-1.89 10.72 1.07 1.21-.08 2.09-.97 2.84l-4.17 3.42c-2.34 2.98-6.65.16-9 3.09-1.27 1.54-.87 3.52-1.4 5.24-.51 1.65-.69 3.89-3.47 2.8l-8.04-4.99c-.8-2.33-.95-4.81-1.77-7.17-1.1-3.15-.48-6.17 1.55-8.91 1.38-1.86 2.83-3.69 4.02-5.67 2.79-4.68 6.95-6.86 12.14-5.57 4.28 1.06 8.01-2.29 12.14-.77l-.02-.02z" class="CV"/><path d="M187.89 151.78l.73 10.68c.07 1.4.45 3.08-1.72 3.4-3.77-3.77-7.77-6.71-6.91-13.66.45-3.67-4.07-7.99-6.45-11.97-1.94-3.25-4.56-6.22-2.62-10.52.85-1.89-.7-2.55-2.28-3.01-3.19-.93-6.35-1.96-9.52-2.94.41-4.75 4.38-3.86 7.31-4.62 2.5 1.13 5.23 1.22 7.89 1.66 1.32 1.91 2.9 2.69 5.42 2.36 5.14-.67 6.71.51 8.89 5.6-.05 1.04-.55 1.81-1.39 2.39-6.01 1.47-7.72 5.2-4.47 10.53 1.98 3.25 3.88 6.5 5.12 10.11h0z" class="Cc"/><path d="M68.17,252.71c.83,3.53,1.45,7.13,2.54,10.58,1.33,4.22-.71,5.75-4.37,6.44-4.27.8-7.63-1.77-11.37-2.91-1.57-.77-3.36-.52-4.99-1.02-2.2-3.79-6.68-5.29-9.01-8.96,3.93-3.78,8.27-6.54,14.08-5.51,2.69,1.5,5.19,1.13,7.72-.54,1.44-.95,2.98-2.06,4.94-1.33,1.16.95,1.35,2.03.47,3.26h-.01Z" class="CY"/><path d="M176.97 76.76c-5.7 2.1-11.53 3.14-17.63 2.27-.67-.09-1.74.44-2.13 1.01-4.36 6.32-11.48 11.52-8.54 20.87.38 1.22.17 2.62.24 3.94-3.66-9.87-8.05-19.48-10.42-29.81-.43-1.87-.54-3.56.45-5.24l6.07-5.14c0 4.34-.28 7.77.06 11.13.58 5.66 2.69 6.63 6.77 3.02a11.3 11.3 0 0 1 9.54-3.01c5.18.68 10.5-1.03 15.6.96h-.01z" class="CX"/><path d="M41.01 175.76l4.95 11.07c.99 1.59.74 3.28-.25 4.6-3.52 4.71-6.75 9.69-11.58 13.27-.16-.05-.34-.07-.46-.16-8.45-6.36-8.53-6.74-2.23-14.83 2.52-3.23 5.07-6.45 7.76-9.54 1.16-1.33 1.85-2.68 1.82-4.41h0z" class="CY"/><path d="M80.87 214.87c.23.61.71 1.23.67 1.83-.32 4.6 2.15 6.28 6.35 6.23l1.02 24.9c-1.2.36-1.98-.38-2.42-1.23-3.51-6.85-8.43-13.01-10.16-20.89-2.41 2.19-4.43 1.57-6.14-.89-.25-.41-.39-.86-.44-1.34.01-2.98 3.53-4.71 2.74-8.13-.23-1 1.55-.72 2.46-.7 1.97.04 3.94.15 5.92.23h0z" class="CZ"/><path d="M39.17 249c-.77-2.74 1.71-4.67 1.81-7.19 2.2-3.23 4.52-6.29 9.05-6.05 1.52.51 3.09.6 4.68.59 1.66-.04 3.29.25 4.92.5 2.57.39 5.73.21 6.61 3.31.9 3.16-.68 5.75-3.31 7.64-5.97 2.79-12.32 3.01-18.74 2.82-1.81-.06-3.61-.22-5.01-1.61h0zm127.75-129.21c-2.54 1.44-5.84 1.39-7.8 3.97-2.23-2.92-1.28-6.25-.71-9.27.4-2.13-.07-3.37-1.46-4.64 2.52-.25 1.85-2.29 2.04-3.76.28-2.08-.35-4.3.98-6.21 2.03-1.1 4.23-.29 6.33-.54 2.42-.28 3.59.84 4.14 3.2.95 4.05 1.66 8.11 1.56 12.28-.6 2.78-1.8 4.95-5.09 4.98h.01z" class="Cf"/><path d="M621.75 113.83l-3.85-15.78c-.37-1.58-.04-3.11 1.75-3.6 5.07-1.39 9.59-4.58 15.07-4.58 2.17 3.1 2.92 6.36 1.07 9.9-5.4.59-7.8 4.36-9.76 8.85-.89 2.04-.87 5.13-4.28 5.21z" class="CZ"/><path d="M96.02 275.85c4.51 12.8 8.07 25.97 14.65 37.97.87 1.59 2.06 3.02 2.37 4.89-.15.75-.59 1.21-1.35 1.35l-20.8-32.14c.22-4.66.49-9.29 5.14-12.06h-.01z" class="CX"/><path d="M39.03 235.85l-.09-11.96c1.94-1.07 4.11.8 6.03-.5 5.22-.75 10.33-2.65 15.73-1.5 1.03.51 1.7 1.33 2.07 2.41.36 4.27-2.84 6.57-5.19 9.35-1.71 1.39-3.86 1.62-5.86 2.25-1.33.1-2.66-.24-4-.06-2.9.5-5.8 2.07-8.7 0h.01zm4.1-29.18l10.76-.71c1.66.34 2.15 1.6 2.4 3.05-.91 7.54-2.12 8.78-9.3 10.36-3.34.74-6.65 1.6-9.98 2.41-2.32-3.13.73-6.23.04-9.42-.44-2.05-.12-4.26-.14-6.39 2.27-1.58 4.27-.7 6.21.7h0z" class="Cf"/><path d="M250.19 22.66l7.33 4.13c2.26 1.55 3.95.56 5.91-.48 2.22-1.17 1.53-2.93 1.43-4.73-.11-1.94-2.18-3.93.07-5.84l6.72 7.16c3.19 2.99 5.01 6.39 4.36 10.85-.9 1.68-2.22 1.2-3.37.49-3.7-2.27-7.72-2.57-11.92-2.41-5.81.22-8.14-4.97-11.93-7.9-.15-1.09.26-1.58 1.38-1.29l.02.02z" fill="#544737"/><path d="M96.02 275.85l-5.14 12.06c-5.3-6.03-12.76-7.77-19.95-10.04-.1-2.01 1.05-1.62 2.23-1.15l6.36 1.08c7.82 1.53 10.77-1.19 9.78-9.03-.1-.79-.01-1.6-.01-2.4.58-.03 1.07-.19 1.18-.05 3.62 4.68 8.7 6.45 14.27 7.3-2.79 1.21-6.13.27-8.72 2.24h0z" fill="#564838"/><path d="M621.75,113.83c1.85-3.68,3.55-7.44,5.6-11.01,1.86-3.23,4.44-5.32,8.44-3.05-2.42,2.63-4.04,5.62-3.66,9.3.67,6.52-1.98,11.34-7.26,14.93-2.53-2.93-2.56-6.63-3.12-10.16h0Z" fill="#242718"/><path d="M288.84,80.88c-.5-4.9,2.74-8.42,4.67-13.01,1.07,7.02,6.61,7.46,11.39,8.96,2.71,3.52.08,5.58-2.12,7.75-5.29,1.21-9.23-2.66-13.93-3.7h-.01Z" class="Cd"/><path d="M55.05 208.73l-1.16-2.77.08-1.15c-.28-.95.08-1.24.99-.96 2.87 3.81 5.7 7.64 9.24 10.88 2.34 2.6 1.82 7.02 5.55 8.74l1.09.47c1.1 2.08 1.13 4.24-.63 5.78-2.19 1.92-4.3.1-6.35-.77-1.89-.85-1.01-2.89-1.81-4.21l-1.03-2.04c-3.29-1.28-2.8-4.8-4.26-7.17-1.55-2.02-.88-4.59-1.71-6.79h0z" class="Ck"/><path d="M43.13 206.67a10.5 10.5 0 0 1-6.21-.7l-2.78-1.27c2.04-5.24 6.68-8.55 9.77-13.01 1.06-1.53 2.26-2.85 2.05-4.86 3.44 4.96 3.63 9.78-.35 14.62-1.22 1.48-2.46 3.1-2.48 5.22z" class="CX"/><path d="M60.07 194.74c.09-1.69.99-1.69 2.37-1.36l16.01 3.57c1.7.36 2.57 1.47 3.03 2.96l4.47 14.76c-3.04.93-2.66-2.04-3.97-2.88-1.24-7.62-6.03-11.55-13.28-13.35-3-.74-5.77-2.43-8.64-3.69h0z" class="Cq"/><path d="M39.17 249c7.91-.76 16.02.65 23.72-2.27.68 2.6-1.44 3.16-3.01 4.1-1.52.9-3.29 1.18-4.87 1.95-3.16-1.52-5.57.6-8.2 1.67l-5.84 2.4c-1.11-2.49-1.54-5.14-1.79-7.83V249z" class="Cl"/><path d="M55.05 208.73l3 6.07c1.27 2.74-.28 3.91-2.59 4.66l-7.58 2.1c-1.65.63-3.5 1.18-3.79 3.39-2.19 1.97-3.47-.5-5.14-1.06l-1.93-2.11c.1-2.38 2.17-2.2 3.62-2.64 1.73-.53 3.54-1.06 5.32-1.07 6.32 0 8.62-3.74 9.09-9.34h0z" class="CX"/><path d="M208.93 188.81c1.51-2.95-1.67-3.67-2.68-5.37-1.23-2.06-2.99-3.8-4.53-5.68.72-.51 1.41-.58 2.06.12l14.18 11.9c-3.04-.07-6.11.14-9.04-.97h0z" fill="#e5ded3"/><path d="M301.97,69.72c-6.98-2.42-7.63-9.75-11.36-14.68,6.56,2.75,9.2,8.53,11.36,14.68Z" fill="#eae4d9"/><path d="M39.03,235.85c2.97-.54,5.91-1.4,8.98-1,.6.77,2.75.15,1.95,2.18-2.03-.47-3.36.58-4.67,1.95-1.2,1.25-2.18,2.96-4.31,2.83-1.31-1.77-2.37-3.62-1.95-5.96h0Z" class="Cq"/><path d="M289.92 54.8c-3.2-1.69-6.73-2.38-10.64-3.39 2.53-2.73 5.65-3.51 8.59-4.63l2.06 8.02h0z" fill="#e8e1d7"/><path d="M56.97,271.79c2.84-1.98,4.53,1.18,6.85,1.62,1.84.35,3.53,1.5,5.28,2.3-.28,1.09-1.44,1.2-2.09,1.88-3.55-1.57-7.54-2.4-10.03-5.8h-.01Z" fill="#685b4d"/><path d="M146,42.9c1.01-.66,1.86-.86,2.07.73.34.88,2.59.22,1.7,2.1-2.61,2.03-3.2-.04-3.89-1.91.06-.3.1-.61.11-.92h0Z" fill="#b2a898"/><path d="M67 277.59c.12-1.27.97-1.72 2.09-1.88 1.41.11 2.86.09 4.08 1-.89.1-1.72.31-2.23 1.15l-3.94-.27z" fill="#57493a"/><path d="M141.14 282.58l-1.18 1.2c-1.32-1.09-3.34-1.63-3.02-3.97 1.44.85 3.18 1.27 4.2 2.76h0zm-91.17-16.79c2.04-1.49 3.44.1 4.99 1.02l-1.99.98-3-2.01h0z" fill="#c6beb1"/><path d="M636.85 179.77l-.51 2.13c-1.02-.35-1.17-1.32-1.52-2.14l1.05-2.07.98 2.08h0z" fill="#c3bbac"/><path d="M111.69 320.05l1.35-1.35.99 2-1.18 1.17-1.16-1.83h0z" fill="#918778"/><path d="M58.98 893.64c.47-2.8 3.11-3.75 4.82-5.42l32.18-30.93c1.16-1.11 2.16-2.57 3.99-2.76l6.29 7.53c1.04 1.25 2.28 2.44 1.47 4.33l-30.97 27.13-17.78.12h0z" class="CV"/><path d="M58.12 826.82l-18.31 59.39-.9 3.35h0c-6.41 1.27-12.89.34-19.33.55-4.82.15-9.65.09-14.48-.02-1.07-.02-2.82.85-3.01-1.36 13.53-14.44 26.69-29.23 39.56-44.26l14.71-17.93c.9-1.11 1.39-1.33 1.75.27h0z" class="Cb"/><path d="M2.11 888.74c5.23 2.07 10.68.7 16.01.88 6.92.24 13.86-.02 20.8-.06-.7.87-1.69.91-2.69.92l-31.59.21c-.89 0-3.89 1.49-2.53-1.94h0z" class="CW"/><path d="M266.8,65.97c3.15,2.12,6.14,2.88,9.35-.16,1.24-1.17,2.77-3.69,4.96-1.73,2.17,1.94,5.87,3.05,5.02,7.17-.26,1.24.32,2.62-.79,3.97-1.81-1.99-1.59-5.78-5.57-5.97-.17,4.14,3.66,7.3,3.04,11.49-1.42,1.29-3.01,1.31-4.61.46-4.19-2.21-8.53-1.91-13.06-1.33-8.65,1.1-16.94-1.55-25.34-2.96-1.98-4-6.18-5.8-8.95-9.02.74-2.74,2.55-1.45,4.11-1.09,4.14.25,8.59-.11,10.46,7.01,2.83-8.84,8.82-12.74,15.06-16.34,1.21-.7,2.7-2.87,3.52.39,1.77,2.41.83,5.76,2.8,8.1h0Z" class="CV"/><path d="M266.81 116.92c.48-1.71-.39-3.65.88-5.23 2.13 7.37 1.77 14.76.18 22.15-.3-.07-.6-.09-.91-.07l-.16-16.85h.01z" fill="#ece5db"/><path d="M220.08,92.93c-.5,6.91-1.04,7.11-7.64,3.18,2.17-1.8,4.8-2.08,7.64-3.18Z" fill="#b0a696"/><path d="M247.05 90.09l-1.15-.24 4.81-6.02c3.12 4.19 2.89 4.54-3.66 6.26z" fill="#5e5040"/><path d="M288.77 332.91l-22.79-14.19c8.64-4.93 15.81-11.89 23.97-17.49 2.01-1.38 3.94-2.86 6.48-4.04-3.72 11.75-9.46 22.96-7.65 35.72h-.01z" class="CZ"/><path d="M272.04 185.71c-4.01-3.86-2.21-8.83-1.82-13.13.34-3.81-.21-6.65-2.67-9.36-1.14-1.25-1.93-2.69-1.52-4.5 4.49 2.74 8.09 6.62 14.35 6.55 3.68-.05 4.34 5.58 6.55 8.51-1.32 2.78-.76 5.26 1.02 7.69 1.11 1.52 2.63 2.98 2.01 5.21l-14.61-2.54c-1.44-.25-3.1-.83-3.3 1.57h-.01z" class="Ci"/><path d="M289.96 186.67l-4.6-6.22c-1.64-2.62-1.86-5.14 1.57-6.67 2.73 4.6 6.77 8.65 6.22 14.68-1.71.52-2.1-1.26-3.19-1.79z" fill="#574939"/><path d="M556.86 509.8c14.52 56.41 31.9 111.91 52.54 166.39l10.39 27.51c.49 1.32 1.32 2.76-1.08 3.05-6.08-11.66-10.94-23.87-15.66-36.1-20.12-52.18-36.09-105.67-50.03-159.79-.16-.64-.21-1.31-.31-1.97l4.15.91h0z" class="CW"/><path d="M381.87 601.71v-46.67h.99l-.06 34.99c-.06 3.89 1.09 7.93-.93 11.67h0z" fill="#4c3e2e"/><path d="M384.95 563.66l-.08 27.05c-.28.04-.55.06-.83.07l-.03-28.12a20.6 20.6 0 0 1 .83.13c.32.15.44.34.37.54-.08.22-.16.33-.25.33h-.01z" fill="#bcb4a7"/><path d="M379.87,627.71c1.38-7.38.95-14.85,1-22.3,0-1.32-.13-2.69,1-3.71h0c-.34,8.67.87,17.41-1.02,26.02-.34.5-.66.47-.98-.02h0Z" fill="#524434"/><path d="M381.08 545.39v-12.13c.14 0 .28-.02.41-.03v11.96l-.41.2z" fill="#4c3d2d"/><path d="M450.33 489.93h10.13v.5h-10.22l.09-.5z" fill="#4c3e2e"/><path d="M383.71,608.53c.19,3.76.9,7.56-.76,11.2-.16-3.76-.55-7.54.76-11.2Z" fill="#bcb4a7"/><path d="M379.87 627.71l.98.02v8.76h-.98v-8.77h0z" fill="#4a3b2b"/><path d="M383.5 480.56h-6.22l-.03-.48h6.21l.04.48z" fill="#4b3d2c"/><path d="M384.95,503.56c-.96,1.45-2.79,1.26-4.04,2.16-.71-4.56,2.2-2.37,4.04-2.16Z" fill="#f6f0e6"/><path d="M376.08 529.44v-5.25l.44-.05v5.13l-.44.16h0z" fill="#4a3c2c"/><path d="M379.66 506.13v5.24l-.48.01v-5.31l.48.06z" fill="#483a2a"/><path d="M461.15 142.89c.22 3 3.65 2.67 4.84 4.66.91 2.03 3.19 2.22 4.71 3.45 1.53 1.25 3.57 1.74 1.33 4.4-2.18 2.59.88 2.81 2.31 3.37l30.08 11.71c1.69.65 3.94 1.01 3.05 3.55-.87 2.49-2.91 1.54-4.62.93-2.51-.89-5.01-1.93-7.56-.14-8.44-.76-16.69-2.59-24.94-4.37-4.06-.88-5.93.26-6.21 4.42-.17 2.5-1.34 4.78-2.33 7.06-.72 2.79-1.84 4.05-5.17 2.78-8.35-3.2-16.85-5.99-25.32-8.87-2.29-.78-4.15-1.85-3.18-4.57.89-2.48 2.98-1.35 4.68-.98 1.62.35 3.2.87 4.81 1.23 7.89 1.8 9.06 1.41 13.24-5.46 1.17-1.93 3.03-4.95-1.87-4.89-1.95.02-1.79-1.47-2.22-2.68-1.38-3.89-1.76-8.09-3.77-11.78-.08-1.08-.25-2.18.81-2.95 3.69.27 7.22-.77 10.82-1.25 1.92-.25 3.89-1.13 5.76.23.24.11.5.16.76.13v.02z" class="CV"/><path d="M461.8 181.94c-.71-4.56 1.34-8.75 1.87-13.14.14-1.15 1.5-1.09 2.5-.85 9.69 2.33 19.84 2.73 29.1 6.88l-20.76 2.08c-1.43.15-3.4-.52-4.15.86-.85 1.57 1.31 2.36 1.96 3.59.37.7.94 1.28 1.81 2.43-4.66.5-8.33-1.99-12.34-1.85h.01z" fill="#e9e2d7"/><path d="M425.71,167.75c1.73-7.53,2.78-14.98-2.33-21.81-.95-1.27-2.68-2.61-1.78-4.32.78-1.47,2.73-.72,4.16-.8,6.23-.33,6.34-.24,3.71,5.5-1.3,2.84-2.36,5.52-.63,8.51-1.93,2.71-.59,5.79-.97,8.67-.22,1.69.6,3.86-2.16,4.25h0Z" fill="#84735b"/><path d="M393.8 153.84l.18 5.87c-.25 1.65-.3 3.57-2.86 2.67-2.44-.85-5.25-.65-7.3-2.6l10.04-5.9-.06-.04h0z" fill="#584b3a"/><path d="M187.9 128.83c-2.25-3.76-4.94-6.07-9.72-3.88-4.39 2.01-3.96-1.58-4.28-4.12-1.02-1.7-.39-3.42-.06-5.13.85-2 .91-4.49 3.36-5.52a15.4 15.4 0 0 1 5.53-.51c1.55.27 3.12.1 4.68.19l.66.04c1.16.04 2.47-.26 3.44.18 3.74 1.73 6.47 2.31 6.79-3.32.11-1.91 1.9-1.79 3.41-.63 2.62 2 5.34 3.87 8.02 5.8 3.02 2.21 7.19.28 10.12 2.79 2.68-.1 4.58 1.19 6.45 3.03 2.18 2.15 4.04 4.63 7.38 5.59 7.45 2.15 12.26-.78 15.95-7 .93-1.56 1.71-4.62 4.71-2.58 2.72 1.85.67 3.83-.22 5.6-1.27 2.56-2.77 5.01-4.18 7.5-1.85 6.6 1.49 11.91 5.11 16.56-2.68 2.21-6.78-5.08-7.14 2.39-1.13 1.69-.04 3.73-.86 5.46-.47 3.31-2.29 5.33-5.66 5.68-1.02.11-2.53.47-2.49-1.44.03-1.19-.67-2.98 1.61-2.73 2.43.27 3-1.58 3.93-3.09 1.79-2.13 1.48-4.08-.47-5.91-.44-.23-.9-.41-1.31-.68-7.33-5.02-6.82-4.83-9.8 3.29-2.28 6.2-.19 11.24 1.83 16.63.54 1.45 2.07 3.31.27 4.53-5.67 3.88-4.42 10.31-6.18 15.63-.55 1.67.47 4.59-2.52 4.52-2.78-.07-2.83-2.58-3.22-4.78-.91-5.01-6.08-6.16-8.95-9.41.81-2.83 3.38-1.04 4.95-1.88 1.17-1.02 2.5-.48 3.78-.37 2 .16 3.59-.26 3.92-2.85-2.78-1.34-6.38 1.28-8.75-1.7-4.75-2.46-8.59-5.49-8.11-11.67.15-1.89-1.04-2.47-2.48-1.13-2.6 2.41-3.53.73-3.74-1.6-.5-5.72-3.9-9.7-7.61-13.56-4.35-1.96-6.76-5.52-8.14-9.92h0z" class="CY"/><path d="M230.09 197.83c-.55-2.28-1.31-4.5 1.93-5.64 1.49-.52 1.61-2.39 2.14-3.77l7.01-18.23c3.48 2 5.29 5.11 7.85 7.44.55.5 1.34 1.69.05 1.8-5.06.43.14 3.27-1.63 4.81-4.14-1.79-5.62 1.16-6.79 4.71-1.7 5.16-4.14 9.48-10.68 8.79l.12.09h0z" fill="#e9e2d7"/><path d="M191.07 161.99l-.13-2.94c.02-1.29-.26-2.99 1.22-3.44 1.59-.49 1.66 1.77 2.85 2.27-2.39.34-3.44 1.95-3.93 4.11h-.01z" fill="#978c7b"/><path d="M203.79 177.88l-2.06-.12c-.78-.9-3.01-1.05-1.62-3.09l3.68 3.21h0z" fill="#c3baad"/><path d="M243.97 143.8c3.02 1.74 2.75 3.74.47 5.91.37-2.01 1.25-4.07-.47-5.91zm3.09 7.48c-.05-1.87-.75-3.85.86-5.46.2 1.9-.06 3.72-.86 5.46z" fill="#e0d8cd"/><path d="M153.04,360.65c-6.04-1.61-9.21-6.69-13.15-10.85.39-.99,1.01-1.54,2.14-1.1,3.85,3.82,8.5,6.89,11.01,11.95Z" class="Ce"/><path d="M142.03 348.7l-2.14 1.1a6.6 6.6 0 0 1-2.79-3.16c3.21-3.06 3.44.99 4.93 2.06z" fill="#b9afa0"/><path d="M603.81 192.96c-.59 4.93 1.2 10.03-1.03 14.85l.19-14.88c.3-.39.58-.36.84.04h0z" fill="#262a1a"/><path d="M603.81 192.96l-.42-.04h-.42c-.13-2.06-.9-4.19.76-6.02l1.13 2.91c.59 1.01.64 2.01-.07 3-.34-.04-.66 0-.98.15h0z" fill="#626051"/><path d="M74.94,706.75v-9.76c.81,3.28,1.89,6.58-.01,9.75v.02h.01Z" fill="#473928"/><path d="M477.88,258.74c-1.49,1.07-.8,2.72-1.1,4.1-1.21-1.4-.85-3.14-1-4.77-.06-.62.02-1.54.91-1.34.88.2,1.09,1.15,1.19,2h0Z" fill="#8c8170"/><path d="M482.74 363.87l1.16-1.17c1.01.52 1.95 1.11 2.43 2.55-1.65.57-2.55-.64-3.59-1.38h0z" fill="#b9ae9c"/><path d="M148.91,590.81c.19-1.38-.35-2.93.95-4.05-.24,1.37,1.42,3.18-.95,4.05Z" fill="#443625"/><path d="M592.71,280.69c.47-3.04.75-6.12,2.04-8.97.45,2.02-.79,4.37,1.17,6.1.31,2.64-2.38,4.31-2.22,6.9-2.53-.81-1.25-2.55-.99-4.04h0Z" class="Ch"/><path d="M616.81 256.77l-.38-.86c5.11.73 10.1 1.79 14.32 5.05l-13.95-4.2h.01z" class="Cg"/><path d="M614.7,255.61c-1.9-3.47-.43-7.23-.9-10.82,1.98,3.47.62,7.21.9,10.82Z" fill="#191d0d"/><path d="M600.99,261.85c-.33,2.39-.54,4.82-2.21,6.78.03-2.49.23-4.92,2.21-6.78Z" class="Ch"/><path d="M604.79 192.81l.07-3c1.58 2.11 1.08 4.43.73 6.75l-.79-3.75h-.01z" fill="#d9d3c7"/><path d="M608.79,225.79c.64-.17,1.43-1.1,1.85.11.41,1.21.33,2.45-.84,3.34-1.5-.81-1.02-2.2-1-3.45h0Z" fill="#7a7a6b"/><path d="M605.9 199.49l1.03 5.27c-1.8-1.47-.99-3.45-1.03-5.27z" fill="#262a1a"/><path d="M223.88 769.74c-2.24 3.58-5.7 1.67-8.5 1.55-2.95-.13-5.93-.71-8.91-.49-3.78.28-5.21-.95-4.16-4.87 1.9-7.13 2.48-14.59 5.19-22.33l10.38 15.1c1.71 3.84 3.58 7.59 6 11.04h0z" class="CY"/><path d="M203.01 729.76l-4.12 33.62c-.26 2.17-.84 3.54-3.44 2.68l-16.95-5.46c4.04-2.92 7.19-5.54 10.66-7.61a14.9 14.9 0 0 0 7.08-9.68c1.65-6.26 3.82-12.38 5.76-18.55 2.56 1.22 1.25 3.22 1.01 5.01h0z" class="CV"/><path d="M203.01,729.76c-.41-1.66.5-3.58-1.01-5.01-.1-2.03.57-3.81,2.31-6.61.4,4.72-.21,8.18-1.3,11.61h0Z" fill="#736656"/><path d="M460.38 142.75l-13.81 2.91c-1.5.31-2.57-.2-2.77-1.89 2.68-3.76 5.02-7.84 8.11-11.22 6.96-7.59 9.9-16.49 10.04-26.57 0-.73.56-1.46.86-2.19l18.16 2.86c1.33.21 2.91.25 3.55 1.52 2.71 5.31 7.6 6.4 12.84 7.73-6.78 0-13.56-.04-20.34.02-2.14.02-4.34-.45-6.39.62-.47.17-.92.44-1.4.49-4.55.45-5.69 2.69-3.4 6.72.65 1.15 1.34 2.28 2.09 3.36 2.45 3.55 2.27 6.58-1.23 9.48-1.61 1.33-2.64 3.34-3.94 5.04l-2.38 1.13h.01z" class="Cb"/><path d="M616.8,256.77v7.75c-.82-2.62-1.82-5.26,0-7.75h0Z" fill="#b7ad9b"/><path d="M615 472.58c-6.52 2.58-13.22.42-19.81 1.2l-.03-1.21h19.85-.01zM584.78 333.8c3.16-1.96 6.46-.85 9.74 0h-9.75.01z" fill="#4b3d2d"/><path d="M609.85 230.67c2 8.05 3.55 16.15 2.08 24.5l-2.08-24.5h0z" fill="#ded8cd"/><path d="M592.71 280.69c.4 1.33-.35 2.94.99 4.04-.1 1.07-.44 2.87-1.4 2.38-1.52-.77-.2-2.81-.59-4.26l1.01-2.16h0z" fill="#545547"/><path d="M530.83 778.69c.88.96 2.05.95 3.22.99 14.91.5 29.81 1.44 44.75 1-.41.27-.83.77-1.24.77-14.12.04-28.25.98-42.36-.47-.99-.1-1.99-.32-2.97-.28-18.47.72-36.88-1.22-55.34-1.06-22.78.21-45.56-.72-68.32-1.29l-46.86-.62c-4.16-.1-8.09-1.92-12.35-.86l.04-1.26h43.65l77.64 1.26 60.14 1.84v-.02z" class="Ce"/><path d="M618.7,706.75c1.13-.75,1.06-1.91,1.08-3.05,3.35,6.02,5.28,12.65,8.04,18.92.6,1.06.77,1.93-.9,1.94l-8.22-17.82h0Z" fill="#b5ac9b"/><path d="M385.53 591.08v22.3l-.45.01v-22.68l.45.37z" fill="#f1eae0"/><path d="M384.95 563.66c-.08-.29-.11-.58-.11-.87V543.1c.5 6.86 2.12 13.74.11 20.56z" fill="#f1eadf"/><path d="M629.92,727.56c1.37,1.82,2.47,3.74,2.86,6.55-2.25-1.65-3.12-3.54-3.92-5.49.25-.45.39-1.02,1.05-1.06h.01Z" fill="#cdc4b6"/><path d="M629.92 727.56l-1.06 1.06-1.94-4.05.9-1.95c1.39 1.35 1.92 3.07 2.1 4.93h0z" fill="#c0b7a8"/><path d="M475.51 503.55h-6.19l-.03-.46h6.1l.12.46z" fill="#f5efe4"/><path d="M454.65,502.74c3.6-1.46,5.79-.77,7.97-.67-2.17,1.12-4.35.46-7.97.67Z" class="Co"/><path d="M364.58 97.53c.33 1.34-.46 2.13-1.48 2.81l-4.13 2.77c-6.55 4.13-10.36 3.86-16.32-1.13-.9-.75-2.22-1.75-1.53-2.82 2.71-4.17 3.35-9.95 8.93-11.95 1.87-.67 3.77-1.23 5.64-1.89 7.74-2.73 7.8-2.67 8.23 5.81.11 2.14.44 4.27.67 6.4h-.01z" class="CZ"/><path d="M393.86,153.88c.24-3.81-1.59-7.46-.86-11.3.31-1.62.53-3.73,2.61-3.62,2.56.14,5.17.77,7.58,1.66.81.3-.05,1.86-.64,2.59-2.9,3.55-5.21,7.61-8.75,10.63l.06.04h0Z" fill="#83725a"/><path d="M204.95 81.86l2.75-7.9c-1.6-1.61-3.22.92-4.66-.28-.72-4.06-1.35-8.02-.26-12.24.69-2.68 1.67-2.74 4.04-2.72 6.62.05 10.19 5.01 14.71 8.43 1.36 1.03.82 2.12-.67 2.46-2.21.5-4.37 1.36-6.71-.08-1.73-1.06-3.64.45-2.54 1.81 4.74 5.87-2.06 7-3.84 10.1-.33.57-1.44 3.37-2.81.44v-.02z" class="CZ"/><path d="M266.8,65.97c-6.3-.84-2.23-5.27-2.8-8.1.83-3.78-.17-7.68.85-11.51.52-1.95,1.06-3.42,3.06-4.02,1.43-.43,3.15-1.17,4.24-.03,1.18,1.25-.49,2.39-1.16,3.36-2.58,3.73-2.3,7.98-1.89,12.02.45,4.33,3.92.94,6.18,1.79-2.3,3-5.77,4.27-8.48,6.49h0Z" fill="#eae3d7"/><path d="M193.91,46.88c-2.29-1.53-5.23-1.91-7.19-4.04,5.71.78,11.35,1.17,17.17.21,4.43-.73,10.72,4.49,11.88,9.45-7.36-2.72-14.12-6.44-21.87-5.62h0Z" fill="#564838"/><path d="M177.92,110.9c-2.52.8-1.32,3.67-2.81,5.04-1.42-.21-2.92.95-4.29-.23-.45-3.42-1.25-6.85-1.26-10.27,0-4.85-2.06-6.43-6.64-5.42-.92.2-1.96-.09-2.94-.15,3.44-2.03,7.25-.56,10.85-1.14,1.08,3.09,1.26,6.77,5.23,7.97-.3,1.82,2.92,2.06,1.87,4.21h-.01Z" fill="#84745c"/><path d="M225.75 38.21l14.66.86c-5.57 7.35-6.4 7.23-14.66-.86z" fill="#594b3b"/><path d="M248.98 54.92l-7.51 3.66c-1.44.74-2.79 1.15-3.9-.44-.8-1.15-2.75-1.93-2.07-3.56.59-1.41 2.36-.66 3.59-.69l9.71-.03.18 1.06z" class="Cd"/><path d="M242.96,113.34c-7.19-3.33-7.27-3.69-3.14-12.51,1.89,3.95,1.92,7.99,3.14,12.51Z" class="Cr"/><path d="M221.6,52.28c2.16,3.76.79,7.72,1.34,11.6-6.4-2.8-6.67-5.17-1.34-11.6Z" fill="#5c4e3f"/><path d="M219.86,114.72c-3.74.38-7.56,1.07-10.12-2.79,3.37-1.01,6.93.29,10.33-.87,1.08-.37,2.41.19,2.55,1.59.2,1.99-2.03,1.1-2.76,2.07h0Z" fill="#655848"/><path d="M177.92,110.9c-.11-1.63-4.71-1.26-1.87-4.2,4.12.66,8.19,1.49,12.03,3.2l-.24-.14c-1.42,1.33-3.45-.16-4.9,1.04-1.67.3-3.33,1-5.02.1Z" class="Cr"/><path d="M245.45 48.07l5.37.04c.99.08 2.72-.2 2.31 1.57-.29 1.25-1.46 2.37-2.99 1.58-1.51-.78-3.46-.93-4.69-3.18h0z" fill="#5b4e3e"/><path d="M250.19 22.66l-1.38 1.29-3.93-3.08c-.14-.97.2-1.45 1.24-1.2l4.08 2.99h-.01z" fill="#6f6252"/><path d="M212.82,26.02c1.15-.8,1.08-2.03,1.15-3.21.88,1.41,2.29,2.93.99,4.51-.61.74-1.54-.59-2.14-1.29h0Z" fill="#d6cec1"/><path d="M246.11 19.66l-1.24 1.2c-.78-.91-3.79-1.26-.8-3.13l2.04 1.93h0z" fill="#928776"/><path d="M234.96,66.81c-1.39.28-3.03-.39-4.11,1.09-1.11-.64-2.19-1.5-.07-1.99,1.36-.32,2.97-.25,4.18.9h0Z" fill="#6c5e4f"/><path d="M193.9 65.77c-15.19-5.47-19.03-7.89-24.38-14.95 7.11 3.38 12.73 2.46 17.9-1.53 1.07-.82 2.27-.18 3.01.86.62.87.09 1.74-.63 2.09-4.38 2.14-2.29 4.61-.47 7.12l4.57 6.41h0z" fill="#aea594"/><path d="M153.04 36.88c4.35-4.9 10.85-5.82 16.91-10.04-1.1 3.56-2.67 5.17-4.08 6.88-1.74 2.36-4.42 2.57-6.98 3.05l-3.97 1.97c-.53.49-1.14.7-1.75.23-.79-.62-.78-1.36-.12-2.1h-.01z" fill="#5f5142"/><path d="M158.88 36.77c1.98-1.81 4.64-2.07 6.98-3.05l-3.58 6.39c-2.08-.42-.93-3.77-3.4-3.34z" fill="#b8af9f"/><path d="M153.04 36.88c-.34 1.59.38 2.11 1.87 1.87-2.69 1.6-3.24 4.79-5.13 6.98l-1.7-2.1c2.92-1.32 2.44-5.13 4.96-6.75z" fill="#cbc3b5"/><path d="M55.01 252.77c-.07-2.3 1.95-2.23 3.31-2.9 1.68-.83 3.89-.87 4.57-3.15 2.47-4.75 1.16-7.51-3.93-8.26l-4.86-.76c-.7-2.67 1.66-2.73 3.07-3.5 2.85-1.57 5.82-2.95 6.86-6.43 4.29 2.3 6.75 1.36 6.8-3.84 3.05 4.34 4.54.54 6.67-1.98.77 10.45 7.26 17.61 11.39 25.87.07.31.13.62.19.93-1.98 1.22-2.01 1.25-4.05-.1-3.05-2.02-5.61-4.66-8.51-6.89-2.39-1.84-3.75-1.32-4.89 1.33-1.09 2.53-1.62 5.52-4.66 6.72-1.51.96-3.15 1.78-4.52 2.92-2.55 2.14-4.96 2.08-7.45.05h.01z" class="CV"/><path d="M66.98 249.8l4.2-9.46c1.13-2.65 2.51-3.08 4.8-1.07 3.57 3.14 7.33 6.06 11.01 9.08.64.52 1.24 1.16 2.11.39 1.87 6.24.78 8.01-5.12 6.8-5.25-1.08-10.96.38-15.81-2.83-.24-1.03-.14-2.21-1.19-2.91h0z" class="CZ"/><path d="M68.95 810.65H54.29c4.9-.48 9.83-2.13 14.66 0h0z" fill="#f2ebe0"/><path d="M47.7 811.45h-5.25l-.05-.44h5.14l.16.44z" fill="#f4ede2"/><path d="M187.89,151.78c-3.46-3.58-5.79-7.96-8-12.31-1.57-3.08.46-6.13,2.06-8.67,1.14-1.83,3.26-.81,4.92.05,3.87,1.47,5.58,5.12,8.08,7.97.12,1.08-.16,2.04-1.27,2.36-5.56,1.58-6.37,5.7-5.79,10.61h0Z" class="Cg"/><path d="M217.99,166.71c2.32.58,4.57-.18,6.84-.43,1.67-.18,3.61-.49,4.57,1.01,1.18,1.85-1.08,2.78-1.89,4.04-.95,1.47-1.96,3.17-4.32,1.82-1.26-.72-2.76-1.02-4.14-1.51-1.02-1.5-4.73-2.42-1.05-4.93h0Z" class="Cr"/><path d="M194.94 138.82l-8.08-7.97 1.04-2.01 8.14 9.92-1.1.06h0z" fill="#b8afa0"/><path d="M54.96 203.85l-.99.96c-1.13-.68-2.66-1.87-1.54-2.86 1.18-1.02 1.86.93 2.53 1.89h0z" fill="#3b3828"/><path d="M170.82 115.72c1.4.64 3.08-3.99 4.29.23l-1.21 4.89c-2.81 2.9-4.95 1.26-6.98-1.04l3.9-4.07h0z" fill="#2a2d1d"/><path d="M64.03 227.78c1.51 2.27 1.03 3.77-1.41 5.19-2.81 1.64-6.39 1.9-8.52 4.73-1.44.13-2.9.43-4.14-.68l-1.95-2.18 3.85-.1c1.54-1.07 4.15.51 5.08-2.06 1.4-2.84 4.55-4.56 5.1-7.95l1.99 3.04h0z" class="CW"/><path d="M44.07 224.95c-3.34-3.04.12-3.88 1.8-4.51 3.05-1.15 6.31-1.82 9.53-2.4 2.02-.37 2.92-1.21 2.65-3.24l2.97 7.89-16.94 2.26h0z" fill="#584a3a"/><path d="M56.94 232.68c-.65 3.26-3.22 1.77-5.08 2.06l5.08-2.06z" class="Cq"/><path d="M206.91 137.83a5 5 0 0 0-3.82-.31c-1.23.42-2.19-.12-2.81-1.36-2.14-4.27-.22-15.92 3.64-18.47 3.51-2.31 7.14.25 9.23 2.48 4.83 5.14 8.85 11.04 13.64 17.19-5.88.57-10.58-3.01-15.74-1.77-.92 1.6-2.98 1.09-4.15 2.24h.01z" class="CX"/><path d="M206.91 137.83c.14-3.06 1.9-3.1 4.15-2.24 3.51 2.49 6.81 5.36 10.56 7.38 5.64 3.03 6.15 7.92 6.2 14.51l-20.91-19.65h0z" class="Cd"/><path d="M248.63,126.09v9.47h-.46v-9.47h.46Z" class="Co"/><path d="M182.94,110.8c1.4-1.45,3.21-.97,4.9-1.04-1.43,1.31-3.16,1.19-4.9,1.04Z" fill="#766a5b"/></svg>