<svg width="200" height="200" viewBox="0 0 200 200" fill="none" xmlns="http://www.w3.org/2000/svg">
<g clip-path="url(#clip0_16205_72297)">
<path d="M123.123 139.978C122.57 140.141 121.753 139.705 122.168 139.344C121.865 139.35 121.548 139.164 121.504 138.874C121.446 138.496 121.825 138.206 122.101 137.928C122.478 137.547 122.709 137.056 122.933 136.575C123.406 135.561 123.383 134.279 123.192 134.33C122.712 134.458 122.237 134.762 122.102 135.228C122.023 135.498 122.069 135.793 121.966 136.057C121.882 136.275 121.706 136.445 121.532 136.605C121.472 136.661 121.405 136.718 121.325 136.735C121.157 136.771 121.009 136.617 120.943 136.462C120.839 136.219 120.836 135.948 120.833 135.683C120.827 135.036 120.833 134.346 121.194 133.799C121.314 133.617 121.468 133.46 121.603 133.289C121.751 133.102 121.877 132.897 122.043 132.726C122.258 132.505 123.612 131.253 124.243 130.895C126.32 128.575 128.005 129.299 128.702 131.088C129.035 131.946 128.789 134.156 128.549 135.354C128.541 135.39 128.543 135.424 128.534 135.461C128.518 135.527 128.498 135.601 128.48 135.675C128.479 135.679 128.475 135.693 128.474 135.697C128.052 137.353 126.97 140.71 125.502 140.266C125.485 140.159 125.465 140.053 125.447 139.945C123.808 140.845 124.189 139.664 123.123 139.978Z" fill="#FFC7AD" style="fill:#FFC7AD;fill:color(display-p3 1.0000 0.7804 0.6784);fill-opacity:1;"/>
<path d="M140.485 192.18C140.482 192.017 140.486 191.856 140.496 191.693C140.606 190.031 139.962 188.627 139.35 187.091C139.123 186.517 138.874 185.917 138.388 185.533C137.28 184.657 135.526 185.424 134.824 186.644C134.498 187.209 134.318 187.844 134.026 188.427C133.471 189.533 132.354 190.852 131.008 190.913C129.2 190.993 127.167 190.376 125.335 190.267C124.622 190.224 123.882 190.2 123.219 190.466C121.657 191.092 121.207 193.592 121.765 194.988C122.109 195.849 122.892 196.473 123.736 196.872C125.002 197.47 126.671 197.815 128.069 197.711C129.568 197.601 131.002 197.749 132.378 198.392C134.739 199.498 137.484 201.086 139.867 198.932C140.504 198.358 140.816 197.495 140.89 196.644C141.021 195.134 140.505 193.675 140.485 192.18Z" fill="#2D2331" style="fill:#2D2331;fill:color(display-p3 0.1765 0.1373 0.1922);fill-opacity:1;"/>
<path d="M153.451 188.758C153.267 188.187 152.858 188.343 152.407 188.215C151.847 188.056 151.324 187.661 150.893 187.285C150.339 186.799 149.861 186.235 149.347 185.708C148.016 184.342 146.43 183.221 144.695 182.418C144.162 182.171 143.605 181.951 143.02 181.897C141.908 181.793 140.839 182.29 139.835 182.774C138.864 183.243 138.864 183.863 138.815 184.823C138.791 185.281 138.804 185.746 138.92 186.19C139.156 187.084 139.781 187.822 140.421 188.494C141.159 189.27 141.954 190.017 142.908 190.506C143.689 190.905 144.562 191.124 145.294 191.606C145.786 191.931 146.192 192.363 146.548 192.828C146.829 193.194 147.041 193.666 147.436 193.924C148.26 194.458 149.24 194.891 150.229 194.961C152.175 195.099 153.788 193.927 153.863 191.933C153.891 191.219 153.764 190.507 153.637 189.803C153.557 189.363 153.534 189.018 153.451 188.758Z" fill="#2D2331" style="fill:#2D2331;fill:color(display-p3 0.1765 0.1373 0.1922);fill-opacity:1;"/>
<path d="M138.405 131.268C138.813 130.732 139.558 130.608 140.224 130.491C143.153 129.973 146.015 128.82 148.897 128.127C150.192 127.816 151.49 127.602 152.801 127.576L155.655 125.021C155.903 126.751 155.892 128.446 156.244 130.139C156.813 132.883 156.185 135.652 155.765 138.369C155.527 139.915 155.287 141.462 155.049 143.008C154.827 144.439 154.495 145.905 154.497 147.343C154.503 150.511 153.963 155.252 153.728 158.414C153.664 159.286 153.601 160.158 153.547 161.03C153.376 163.78 153.529 166.549 153.661 169.296C153.784 171.877 153.677 175.486 153.87 178.052C154.072 180.75 154.388 183.419 154.371 186.13C154.365 187.065 154.624 190.42 153.725 190.998C152.626 191.706 151.304 191.907 150.068 191.949C148.567 192 146.926 191.563 145.96 190.358C144.993 189.152 144.76 179.928 144.661 178.54C144.438 175.429 144.218 171.34 144.002 168.239C143.894 166.691 143.77 165.145 143.633 163.599C143.559 162.747 143.479 161.895 143.396 161.042C143.326 160.315 143.463 158.899 143.115 158.268C141.623 155.55 140.343 151.14 140.121 149.536C139.808 147.256 139.792 141.577 139.556 139.29C139.339 137.197 138.567 135.268 138.192 133.201C138.073 132.544 137.998 131.8 138.405 131.268Z" fill="#2D2331" style="fill:#2D2331;fill:color(display-p3 0.1765 0.1373 0.1922);fill-opacity:1;"/>
<path d="M132.66 164.759C132.663 164.861 132.665 164.962 132.668 165.061C132.716 167.767 132.82 170.472 132.897 173.177C132.937 174.611 132.614 186.123 132.602 188.003C132.593 189.394 132.365 190.876 132.517 192.26C132.613 193.145 133.085 193.942 133.874 194.299C138.103 196.215 140.538 193.882 141.094 192.921C143.997 187.905 143.215 168.674 143.417 163.735C143.467 162.489 143.332 162.947 143.406 161.702C143.467 160.708 143.871 159.288 143.587 158.325C143.042 156.479 140.578 157.526 139.374 157.938C137.621 158.537 135.429 158.831 133.925 159.984C132.422 161.136 132.608 163.057 132.66 164.759Z" fill="#3B2E41" style="fill:#3B2E41;fill:color(display-p3 0.2314 0.1804 0.2549);fill-opacity:1;"/>
<path d="M132.28 127.525C133.863 126.106 138.751 127.845 140.587 127.953C142.244 128.05 143.901 128.045 145.56 128.055C146.191 128.058 146.668 128.204 147.252 127.946C147.963 127.632 148.621 127.282 149.4 127.154C150.396 126.99 151.516 127.211 152.184 127.961C153.326 129.243 152.979 131.766 152.654 133.297C152.227 135.312 151.266 137.18 150.211 138.936C148.935 141.059 147.492 143.111 146.58 145.426C145.607 147.895 144.819 150.496 144.305 153.101C143.72 156.061 143.842 160.598 143.532 163.598C143.495 163.968 143.448 164.345 143.299 164.687C143.042 165.28 142.508 165.707 141.966 166.064C140.631 166.941 139.11 167.53 137.536 167.808C136.693 167.956 135.832 168.016 134.976 167.981C134.326 167.956 133.497 167.65 132.905 167.975C132.536 165.466 132.805 162.875 132.278 160.408C131.724 157.818 131.842 153.522 131.753 150.861C131.556 145.018 131.424 135.796 131.581 129.951C131.6 129.223 131.634 128.458 132.017 127.836C132.091 127.721 132.178 127.616 132.28 127.525Z" fill="#3B2E41" style="fill:#3B2E41;fill:color(display-p3 0.2314 0.1804 0.2549);fill-opacity:1;"/>
<path d="M130.187 95.8122C130.188 95.751 130.189 95.6898 130.191 95.6287C130.214 94.5793 130.217 93.3583 130.83 92.4438C131.367 91.6436 132.412 91.2287 133.202 90.7276C135.855 89.046 138.697 87.6577 141.659 86.5996C146.17 84.988 150.772 81.7066 155.583 84.4014C156.073 84.6755 156.538 84.9998 156.941 85.3896C159.418 87.7815 159.135 91.6421 158.747 94.7385C158.202 99.0781 156.327 103.468 155.645 107.784C154.723 113.618 154.957 119.676 155.729 125.529C155.865 126.563 155.703 128.085 155.703 128.085C155.703 128.085 149.478 129.692 144.765 129.935C138.865 130.238 136.713 129.874 136.121 129.494C134.458 128.425 131.656 128.171 131.747 126.576C132.134 119.835 131.522 111.053 130.845 104.352C130.559 101.511 130.142 98.6706 130.187 95.8122Z" fill="#EBE9EB" style="fill:#EBE9EB;fill:color(display-p3 0.9216 0.9137 0.9216);fill-opacity:1;"/>
<path d="M131.746 126.575C131.669 127.688 131.578 130.089 131.578 130.089C131.578 130.089 138.689 131.629 144.59 131.325C149.304 131.083 156.036 128.764 156.036 128.764C156.036 128.764 155.685 125.157 155.663 124.975C147.467 128.113 138.493 128.277 131.746 126.575Z" fill="#2D2331" style="fill:#2D2331;fill:color(display-p3 0.1765 0.1373 0.1922);fill-opacity:1;"/>
<path d="M132.734 126.803C132.734 127.974 132.734 129.145 132.734 130.315C133.31 130.422 134.077 130.555 134.972 130.691C135.066 129.522 135.25 128.335 135.62 127.302C134.628 127.17 133.66 127.006 132.734 126.803Z" fill="#3B2E41" style="fill:#3B2E41;fill:color(display-p3 0.2314 0.1804 0.2549);fill-opacity:1;"/>
<path d="M150.628 126.502C150.011 126.646 149.392 126.778 148.773 126.895C148.773 128.262 148.773 129.473 148.773 130.738C149.476 130.595 150.171 130.435 150.837 130.271C150.846 129.001 150.496 127.666 150.628 126.502Z" fill="#3B2E41" style="fill:#3B2E41;fill:color(display-p3 0.2314 0.1804 0.2549);fill-opacity:1;"/>
<path d="M134.535 91.9222C133.697 91.6967 132.787 91.7004 131.867 91.9871C129.088 92.8529 129.29 95.0776 129.349 97.4128C129.431 100.652 129.625 103.938 129.07 107.149C128.604 109.84 127.327 112.369 126.628 115.007C125.618 118.815 124.146 122.989 123.888 126.928C123.742 129.155 124.534 131.921 126.889 132.758C130.113 133.903 131.527 129.403 132.305 127.15C133.372 124.054 134.112 120.894 135.313 117.847C136.967 113.651 138.063 109.265 138.561 104.79C138.868 102.029 139.823 97.3391 138.359 94.7578C137.629 93.4689 135.864 92.2789 134.535 91.9222Z" fill="#F7F7F7" style="fill:#F7F7F7;fill:color(display-p3 0.9686 0.9686 0.9686);fill-opacity:1;"/>
<path d="M140.457 82.7129C140.283 81.5309 139.383 81.8058 139.838 80.7336C140.225 79.8235 140.812 78.9857 141.599 78.3815C142.387 77.7772 143.382 77.4191 144.376 77.4743C144.719 77.4935 144.949 77.688 145.288 77.6888C146.227 77.6925 147.17 77.5141 148.107 77.649C149.038 77.7831 149.901 77.8502 149.9 78.8929C149.899 80.2834 149.835 81.6216 150.283 82.9885C150.523 83.7195 150.887 84.4232 150.951 85.1888C151.077 86.6943 148.208 86.9367 146.837 87.5941C145.151 88.4032 140.316 86.7341 140.401 86.0333C140.528 84.9715 140.615 83.7807 140.457 82.7129Z" fill="#FFC7AD" style="fill:#FFC7AD;fill:color(display-p3 1.0000 0.7804 0.6784);fill-opacity:1;"/>
<path d="M136.458 67.5908C135.893 68.2731 135.451 69.0417 135.315 69.9429C135.012 71.9495 135.827 74.012 135.388 76.0038C134.963 77.9338 135.796 82.3153 139.633 83.4391C141.575 84.0072 145.405 83.3418 146.637 82.756C148.291 81.9704 149.383 80.381 150.36 78.8423C158.374 66.2216 141.893 61.031 136.458 67.5908Z" fill="#FFC7AD" style="fill:#FFC7AD;fill:color(display-p3 1.0000 0.7804 0.6784);fill-opacity:1;"/>
<path d="M152.698 65.1084C152.309 64.7127 151.833 64.3723 151.252 64.1033C151.076 64.0215 150.888 63.9463 150.764 63.7982C150.671 63.6877 150.623 63.5484 150.561 63.4187C150.288 62.8366 149.743 62.4254 149.179 62.1144C147.041 60.9347 144.447 60.8787 142.026 61.2235C141.208 61.34 140.389 61.5006 139.629 61.8241C138.763 62.1933 137.997 62.7636 137.305 63.3966C136.325 64.2927 135.394 65.3457 134.886 66.5822C134.649 67.1577 134.602 67.7664 134.435 68.3493C134.284 68.8739 134.469 69.4936 134.909 69.8275C135.1 69.9719 135.322 70.0633 135.52 70.1952C136.333 70.739 136.486 71.9947 136.837 72.8443C137.058 73.3815 137.498 73.6748 137.624 74.2517C137.754 74.8523 137.743 75.4787 137.935 76.0674C138.026 76.3467 138.213 76.6488 138.508 76.6658C138.63 76.6732 138.75 76.629 138.854 76.5648C139.196 76.3548 139.373 75.9599 139.486 75.5767C139.6 75.1942 139.673 74.7897 139.887 74.4514C139.918 74.4021 139.956 74.352 140.012 74.3299C140.057 74.3129 140.107 74.3181 140.156 74.3277C140.567 74.4065 140.838 74.7108 141.035 75.0557C141.273 75.4735 141.4 75.9422 141.527 76.4049C141.723 77.133 141.748 77.7498 141.84 78.4734C141.934 79.2073 142.143 79.9906 142.661 80.5455C143.824 81.7901 146.064 81.7201 147.578 81.3871C148.126 81.2669 148.677 81.1395 149.183 80.8978C150.351 80.3399 151.148 79.2457 151.892 78.1941C152.573 77.2317 153.262 76.2495 153.62 75.1294C153.823 74.4986 153.915 73.8376 154.008 73.1811C154.379 70.5224 154.661 67.1098 152.698 65.1084Z" fill="#A26749" style="fill:#A26749;fill:color(display-p3 0.6353 0.4039 0.2863);fill-opacity:1;"/>
<path d="M140.791 73.126C142.298 72.801 142.963 74.6174 142.135 76.2187C141.893 76.6859 141.409 77.1398 141.061 77.5348C138.678 80.2377 137.621 77.8465 138.371 76.935C140.111 74.8179 138.896 73.5342 140.791 73.126Z" fill="#FFC7AD" style="fill:#FFC7AD;fill:color(display-p3 1.0000 0.7804 0.6784);fill-opacity:1;"/>
<path d="M140.763 76.0374C140.914 75.8531 142.497 74.5835 141.212 74.0654C140.856 73.921 140.535 74.2592 140.536 74.61C140.537 74.792 140.62 74.9667 140.62 75.1487C140.619 75.2563 140.589 75.3616 140.547 75.4611C140.43 75.7323 139.94 76.0484 140.097 76.3977C140.236 76.7064 140.676 76.1435 140.763 76.0374Z" fill="#F3A984" style="fill:#F3A984;fill:color(display-p3 0.9529 0.6627 0.5176);fill-opacity:1;"/>
<path d="M140.394 86.0361C140.07 86.9035 140.006 87.2395 140.196 87.6624C140.711 88.8076 143.714 88.8732 144.513 88.8415C145.447 88.8046 150.878 87.7022 151.286 85.5218C151.324 85.3147 150.697 83.9868 150.581 83.8203C149.753 84.6773 146.895 86.14 144.848 86.4097C143.367 86.6043 141.972 86.4599 140.394 86.0361Z" fill="#F7F7F7" style="fill:#F7F7F7;fill:color(display-p3 0.9686 0.9686 0.9686);fill-opacity:1;"/>
<path d="M128.617 157.932L131.98 155.994L131.976 157.343L128.613 159.281L128.617 157.932Z" fill="#8E8E8E" style="fill:#8E8E8E;fill:color(display-p3 0.5567 0.5567 0.5567);fill-opacity:1;"/>
<path d="M102.359 142.899L105.723 140.961L131.976 155.993L128.613 157.932L102.359 142.899Z" fill="#C2C2C2" style="fill:#C2C2C2;fill:color(display-p3 0.7606 0.7606 0.7606);fill-opacity:1;"/>
<path d="M128.605 157.933L128.601 159.281L102.348 144.249L102.351 142.9L128.605 157.933Z" fill="#A0A0A0" style="fill:#A0A0A0;fill:color(display-p3 0.6275 0.6275 0.6275);fill-opacity:1;"/>
<path d="M118.035 150.967L114.672 149.029L114.633 135.506L117.996 137.444L118.035 150.967Z" fill="#A0A0A0" style="fill:#A0A0A0;fill:color(display-p3 0.6275 0.6275 0.6275);fill-opacity:1;"/>
<path d="M117.996 137.444L114.633 135.506L115.817 134.828L119.18 136.767L117.996 137.444Z" fill="#A0A0A0" style="fill:#A0A0A0;fill:color(display-p3 0.6275 0.6275 0.6275);fill-opacity:1;"/>
<path d="M119.18 136.766L119.218 150.288L118.035 150.966L117.996 137.443L119.18 136.766Z" fill="#8E8E8E" style="fill:#8E8E8E;fill:color(display-p3 0.5567 0.5567 0.5567);fill-opacity:1;"/>
<path d="M117.996 137.681L114.633 135.743L114.391 50.9277L117.753 52.8658L117.996 137.681Z" fill="#A0A0A0" style="fill:#A0A0A0;fill:color(display-p3 0.6275 0.6275 0.6275);fill-opacity:1;"/>
<path d="M117.753 52.8667L114.391 50.9287L115.576 50.25L118.939 52.188L117.753 52.8667Z" fill="#C2C2C2" style="fill:#C2C2C2;fill:color(display-p3 0.7606 0.7606 0.7606);fill-opacity:1;"/>
<path d="M118.939 52.1875L119.181 137.003L117.996 137.681L117.754 52.8662L118.939 52.1875Z" fill="#8E8E8E" style="fill:#8E8E8E;fill:color(display-p3 0.5567 0.5567 0.5567);fill-opacity:1;"/>
<path d="M57.7288 180.062L56.0467 179.093L56.043 177.742L57.7244 178.711L57.7288 180.062Z" fill="#C2C2C2" style="fill:#C2C2C2;fill:color(display-p3 0.7606 0.7606 0.7606);fill-opacity:1;"/>
<path d="M57.7244 178.714L56.043 177.745L115.697 143.588L117.378 144.557L57.7244 178.714Z" fill="#C2C2C2" style="fill:#C2C2C2;fill:color(display-p3 0.7606 0.7606 0.7606);fill-opacity:1;"/>
<path d="M117.376 144.555L117.38 145.905L57.7271 180.062L57.7227 178.712L117.376 144.555Z" fill="#8E8E8E" style="fill:#8E8E8E;fill:color(display-p3 0.5567 0.5567 0.5567);fill-opacity:1;"/>
<path d="M67.2537 192.956L70.6173 191.018L70.6128 192.366L67.25 194.304L67.2537 192.956Z" fill="#8E8E8E" style="fill:#8E8E8E;fill:color(display-p3 0.5567 0.5567 0.5567);fill-opacity:1;"/>
<path d="M41.0039 177.922L44.3667 175.984L70.62 191.017L67.2565 192.955L41.0039 177.922Z" fill="#C2C2C2" style="fill:#C2C2C2;fill:color(display-p3 0.7606 0.7606 0.7606);fill-opacity:1;"/>
<path d="M67.257 192.954L67.2533 194.303L41 179.271L41.0045 177.922L67.257 192.954Z" fill="#A0A0A0" style="fill:#A0A0A0;fill:color(display-p3 0.6275 0.6275 0.6275);fill-opacity:1;"/>
<path d="M56.6796 185.991L53.3167 184.052L53.2773 170.529L56.6409 172.467L56.6796 185.991Z" fill="#A0A0A0" style="fill:#A0A0A0;fill:color(display-p3 0.6275 0.6275 0.6275);fill-opacity:1;"/>
<path d="M56.6409 172.466L53.2773 170.528L54.461 169.85L57.8245 171.788L56.6409 172.466Z" fill="#A0A0A0" style="fill:#A0A0A0;fill:color(display-p3 0.6275 0.6275 0.6275);fill-opacity:1;"/>
<path d="M57.8281 171.791L57.8668 185.314L56.6832 185.992L56.6445 172.468L57.8281 171.791Z" fill="#8E8E8E" style="fill:#8E8E8E;fill:color(display-p3 0.5567 0.5567 0.5567);fill-opacity:1;"/>
<path d="M60.0475 161.611L56.6847 159.673C55.0538 158.732 54.0426 156.733 54.0352 153.893L57.398 155.831C57.4054 158.671 58.4166 160.67 60.0475 161.611Z" fill="#DDE3FF" style="fill:#DDE3FF;fill:color(display-p3 0.8683 0.8915 1.0000);fill-opacity:1;"/>
<mask id="mask0_16205_72297" style="mask-type:luminance" maskUnits="userSpaceOnUse" x="54" y="153" width="7" height="9">
<path d="M60.0475 161.611L56.6847 159.673C55.0538 158.732 54.0426 156.733 54.0352 153.893L57.398 155.831C57.4054 158.671 58.4166 160.67 60.0475 161.611Z" fill="white" style="fill:white;fill-opacity:1;"/>
</mask>
<g mask="url(#mask0_16205_72297)">
<path d="M60.0475 161.611L56.6847 159.673C55.0538 158.732 54.0426 156.733 54.0352 153.893L57.398 155.831C57.4054 158.671 58.4166 160.67 60.0475 161.611Z" fill="#DDE3FF" style="fill:#DDE3FF;fill:color(display-p3 0.8683 0.8915 1.0000);fill-opacity:1;"/>
</g>
<path d="M110.707 0.608625L114.07 2.54665C112.417 1.59459 110.13 1.7287 107.605 3.17448L104.242 1.23646C106.767 -0.210056 109.055 -0.344174 110.707 0.608625Z" fill="#C7C7C7" style="fill:#C7C7C7;fill:color(display-p3 0.7804 0.7804 0.7804);fill-opacity:1;"/>
<mask id="mask1_16205_72297" style="mask-type:luminance" maskUnits="userSpaceOnUse" x="104" y="0" width="11" height="4">
<path d="M110.707 0.608625L114.07 2.54665C112.417 1.59459 110.13 1.7287 107.605 3.17448L104.242 1.23646C106.767 -0.210056 109.055 -0.344174 110.707 0.608625Z" fill="white" style="fill:white;fill-opacity:1;"/>
</mask>
<g mask="url(#mask1_16205_72297)">
<path d="M107.605 3.17379L104.242 1.23578C106.767 -0.210001 109.055 -0.344119 110.707 0.608679L114.07 2.5467C112.417 1.59464 110.13 1.72875 107.605 3.17379Z" fill="#C7C7C7" style="fill:#C7C7C7;fill:color(display-p3 0.7804 0.7804 0.7804);fill-opacity:1;"/>
</g>
<path d="M57.3899 155.832L54.0271 153.894L53.7031 40.5488L57.066 42.4869L57.3899 155.832Z" fill="#C7C7C7" style="fill:#C7C7C7;fill:color(display-p3 0.7804 0.7804 0.7804);fill-opacity:1;"/>
<path d="M66.1285 26.9304L62.7656 24.9924L104.246 1.24023L107.61 3.17825L66.1285 26.9304Z" fill="#C7C7C7" style="fill:#C7C7C7;fill:color(display-p3 0.7804 0.7804 0.7804);fill-opacity:1;"/>
<path d="M57.066 42.4877L53.7032 40.5497C53.6868 34.8299 57.7407 27.8641 62.7596 24.9902L66.1225 26.9283C61.1035 29.8021 57.0497 36.7679 57.066 42.4877Z" fill="#C7C7C7" style="fill:#C7C7C7;fill:color(display-p3 0.7804 0.7804 0.7804);fill-opacity:1;"/>
<mask id="mask2_16205_72297" style="mask-type:luminance" maskUnits="userSpaceOnUse" x="53" y="24" width="14" height="19">
<path d="M57.066 42.4877L53.7032 40.5497C53.6868 34.8299 57.7407 27.8641 62.7596 24.9902L66.1225 26.9283C61.1035 29.8021 57.0497 36.7679 57.066 42.4877Z" fill="white" style="fill:white;fill-opacity:1;"/>
</mask>
<g mask="url(#mask2_16205_72297)">
<path d="M57.066 42.4877L53.7032 40.5497C53.6868 34.8299 57.7407 27.8641 62.7596 24.9902L66.1225 26.9283C61.1035 29.8021 57.0497 36.7679 57.066 42.4877Z" fill="#C7C7C7" style="fill:#C7C7C7;fill:color(display-p3 0.7804 0.7804 0.7804);fill-opacity:1;"/>
</g>
<path d="M117.049 121.674C117.064 127.393 113.009 134.361 107.991 137.233L95.5148 144.373L90.8911 147.021L86.1247 149.748L85.7406 149.972L66.5132 160.982C62.9267 163.035 59.8194 162.445 58.3349 159.859C57.7398 158.82 57.4032 157.467 57.3972 155.832L57.2917 119.908L57.155 71.1562L57.0703 42.4868C57.0703 42.4035 57.0703 42.3144 57.0755 42.2311C57.1758 36.5585 61.1836 29.7585 66.1283 26.9274L68.7035 25.4543L101.039 6.93333L107.606 3.17299C112.625 0.299853 116.707 2.60853 116.722 8.32827L116.802 35.8695L116.896 68.7068L117.049 121.674Z" fill="#F2F4FF" style="fill:#F2F4FF;fill:color(display-p3 0.9490 0.9573 1.0000);fill-opacity:1;"/>
<path d="M57.8199 171.417L54.457 169.478L114.625 135.055L117.988 136.993L57.8199 171.417Z" fill="#C2C2C2" style="fill:#C2C2C2;fill:color(display-p3 0.7606 0.7606 0.7606);fill-opacity:1;"/>
<path d="M56.8133 173.15L53.4505 171.211C53.3442 171.15 53.2781 171.02 53.2773 170.834L56.6402 172.773C56.6417 172.958 56.7071 173.089 56.8133 173.15Z" fill="#A0A0A0" style="fill:#A0A0A0;fill:color(display-p3 0.6275 0.6275 0.6275);fill-opacity:1;"/>
<mask id="mask3_16205_72297" style="mask-type:luminance" maskUnits="userSpaceOnUse" x="53" y="170" width="4" height="4">
<path d="M56.8133 173.15L53.4505 171.211C53.3442 171.15 53.2781 171.02 53.2773 170.834L56.6402 172.773C56.6417 172.958 56.7071 173.089 56.8133 173.15Z" fill="white" style="fill:white;fill-opacity:1;"/>
</mask>
<g mask="url(#mask3_16205_72297)">
<path d="M56.8133 173.15L53.4505 171.211C53.3442 171.15 53.2781 171.02 53.2773 170.834L56.6402 172.773C56.6417 172.958 56.7071 173.089 56.8133 173.15Z" fill="#A0A0A0" style="fill:#A0A0A0;fill:color(display-p3 0.6275 0.6275 0.6275);fill-opacity:1;"/>
</g>
<path d="M56.637 172.77L53.2735 170.832L53.0312 86.0156L56.3941 87.9536L56.637 172.77Z" fill="#A0A0A0" style="fill:#A0A0A0;fill:color(display-p3 0.6275 0.6275 0.6275);fill-opacity:1;"/>
<path d="M56.3941 87.9546L53.0312 86.0166L54.2163 85.3379L57.5792 87.2759L56.3941 87.9546Z" fill="#C2C2C2" style="fill:#C2C2C2;fill:color(display-p3 0.7606 0.7606 0.7606);fill-opacity:1;"/>
<path d="M57.5789 87.2773L57.8196 171.419L117.987 136.995L117.991 138.346L57.2312 173.109C56.9035 173.297 56.6382 173.146 56.6367 172.773L56.3945 87.9553L57.5789 87.2773Z" fill="#8E8E8E" style="fill:#8E8E8E;fill:color(display-p3 0.5567 0.5567 0.5567);fill-opacity:1;"/>
<path opacity="0.2" d="M116.898 68.7103L58.3361 159.864C57.741 158.825 57.4044 157.472 57.3985 155.836L57.293 119.912L116.803 35.873L116.898 68.7103Z" fill="#DDDEFA" style="fill:#DDDEFA;fill:color(display-p3 0.8667 0.8706 0.9804);fill-opacity:1;"/>
<path opacity="0.2" d="M101.04 6.93555L57.155 71.1584L57.0703 42.489C57.0703 42.4057 57.0703 42.3166 57.0755 42.2333L68.7035 25.4565L101.04 6.93555Z" fill="#DDDEFA" style="fill:#DDDEFA;fill:color(display-p3 0.8667 0.8706 0.9804);fill-opacity:1;"/>
<mask id="mask4_16205_72297" style="mask-type:luminance" maskUnits="userSpaceOnUse" x="57" y="1" width="61" height="162">
<path d="M117.049 121.676C117.066 127.395 113.01 134.361 107.993 137.233L95.5149 144.377L90.8912 147.024L86.127 149.752L85.7399 149.975L66.511 160.985C61.4912 163.859 57.4114 161.553 57.3951 155.834L57.0704 42.4876C57.054 36.7686 61.1093 29.8028 66.1268 26.9282L107.608 3.17674C112.626 0.304343 116.708 2.61155 116.724 8.33055L117.049 121.676Z" fill="white" style="fill:white;fill-opacity:1;"/>
</mask>
<g mask="url(#mask4_16205_72297)">
<path d="M100.36 49.4124C103.778 52.8618 105.367 57.7363 105.922 62.5408C106.478 67.3446 106.113 72.2014 106.208 77.0362C106.441 88.8972 109.438 100.508 111.31 112.226C112.104 117.199 112.692 122.332 111.513 127.23C110.334 132.128 107.061 136.803 102.246 138.398C96.9759 140.145 90.6544 138.073 85.9638 141.028C83.523 142.565 81.6143 145.406 78.7232 145.464C75.7081 145.524 73.6597 142.508 72.4144 139.784C67.4823 128.996 65.6842 116.976 65.9562 105.135C66.2289 93.2927 68.5092 81.5784 71.4396 70.0947C72.6982 65.1612 74.1017 60.2004 76.6331 55.7732C78.8837 51.8375 82.6151 47.3653 87.1467 45.9549C91.7563 44.5202 97.0227 46.0441 100.36 49.4124Z" fill="#0154BA" style="fill:#0154BA;fill:color(display-p3 0.0049 0.3293 0.7298);fill-opacity:1;"/>
<path d="M104.77 69.1665C102.676 65.9323 100.749 61.2641 97.8077 55.8752C97.0157 54.4235 96.4354 52.8296 96.1367 51.1945C95.8365 49.5446 96.1263 48.0597 96.6568 46.4364C96.8975 45.7017 97.2668 44.8941 98.0091 44.6111C98.6852 44.3532 99.4223 44.6317 100.042 44.953C103.778 46.8933 106.302 50.731 107.726 54.5341C109.05 58.0719 110.869 61.4159 112.167 64.9787C112.414 65.6552 112.722 66.3656 112.825 67.0877C113.317 70.5157 111.416 72.9762 108.924 72.3241C107.704 72.005 105.907 70.9247 104.77 69.1665Z" fill="#F7F7F7" style="fill:#F7F7F7;fill:color(display-p3 0.9686 0.9686 0.9686);fill-opacity:1;"/>
<path d="M101.962 66.7167C102.238 66.3918 102.488 66.0454 102.7 65.6755C103.255 64.7087 103.238 63.6498 103.459 62.5769C103.495 62.4045 103.548 62.2114 103.703 62.1266C103.843 62.05 104.027 62.0935 104.151 62.1952C104.233 62.263 104.443 62.7257 104.505 62.7029C104.632 62.6557 104.784 62.33 104.866 62.2232C105.011 62.0375 105.163 61.8562 105.32 61.6801C105.643 61.3175 105.991 60.9771 106.361 60.661C107.089 60.0376 107.901 59.5099 108.769 59.0995C108.846 59.0634 108.926 59.0265 109.012 59.0236C109.097 59.0207 109.19 59.0582 109.226 59.1349C109.267 59.2189 109.229 59.3183 109.186 59.4009C108.858 60.0427 108.277 60.4989 107.797 61.022C107.59 61.2468 107.46 61.5128 107.263 61.7479C107.008 62.0515 106.778 62.3757 106.577 62.7162C107.397 61.8488 108.309 61.0663 109.293 60.3861C109.495 60.2461 109.982 59.9403 110.238 60.0508C110.586 60.2004 110.264 60.6647 110.131 60.8459C109.723 61.3986 109.315 61.952 108.907 62.5054C109.354 61.8982 109.979 61.3979 110.646 61.0471C110.975 60.8747 111.199 60.7339 111.366 61.151C111.475 61.4259 111.421 61.7589 111.202 61.9667C110.871 62.2821 110.535 62.5842 110.215 62.9144C109.772 63.3749 109.353 63.8635 109.012 64.4044C109.451 64.1524 109.896 63.8989 110.383 63.7618C110.784 63.6491 111.305 63.5916 111.698 63.7699C111.958 63.8885 112.255 64.2703 111.961 64.5046C111.649 64.7529 111.319 64.9814 110.978 65.1892C110.258 65.6261 109.487 65.9946 108.859 66.5635C107.964 67.3762 107.486 68.5759 106.509 69.2914C105.526 70.0106 104.835 70.7836 103.549 70.9804C102.395 71.1572 101.174 70.8529 100.241 70.1558C100.044 70.0084 99.8527 69.836 99.7658 69.6076C99.6462 69.2936 99.7502 68.9326 99.9434 68.6577C100.137 68.3828 100.41 68.175 100.671 67.9621C101.135 67.5855 101.575 67.1721 101.962 66.7167Z" fill="#FFC7AD" style="fill:#FFC7AD;fill:color(display-p3 1.0000 0.7804 0.6784);fill-opacity:1;"/>
<path d="M86.1518 147.716C86.5589 151.412 86.5686 155.138 86.5775 158.855C86.5805 159.983 86.9654 161.045 86.8576 162.186C86.7893 162.914 86.5203 163.65 85.9772 164.145C85.4288 164.645 84.6561 164.848 83.9116 164.842C82.3899 164.827 80.9322 163.972 80.071 162.728C78.8027 160.894 79.1021 158.566 78.8867 156.465C78.7321 154.961 78.6229 153.452 78.5575 151.941C78.4743 150.03 79.1616 149.166 80.5644 147.968C81.6454 147.045 82.6753 145.549 83.9116 144.887C84.5053 144.57 85.3627 144.856 85.8412 145.277C86.3739 145.747 86.6555 146.456 86.709 147.162L86.1518 147.716Z" fill="#2D2331" style="fill:#2D2331;fill:color(display-p3 0.1765 0.1373 0.1922);fill-opacity:1;"/>
<path d="M96.6753 142.604C97.8396 142.794 99.0678 143.551 100.114 144.039C102.604 145.2 105.034 146.486 107.463 147.769C109.18 148.677 113.012 150.262 112.145 152.799C111.746 153.967 110.557 154.738 109.333 154.955C106.895 155.387 104.774 154.666 102.838 153.302C100.923 151.955 98.755 150.961 96.4777 150.396C94.5251 149.911 93.2664 148.836 93.2018 146.753C93.1394 144.719 94.2219 142.207 96.6753 142.604Z" fill="#2D2331" style="fill:#2D2331;fill:color(display-p3 0.1765 0.1373 0.1922);fill-opacity:1;"/>
<path d="M103.351 98.9952C102.501 105.258 103.305 123.551 97.1533 121.924C95.2245 121.414 91.8773 118.045 91.5778 113.878C91.4166 111.631 91.5385 108.436 91.4166 106.187C91.164 101.538 86.6109 86.5764 96.1681 83.7062C97.6043 83.2744 99.8207 80.461 101.04 81.4587C101.29 81.6636 102.08 82.6459 102.677 84.7777C103.017 85.9936 103.198 87.8483 103.422 89.479C103.805 92.2733 103.82 95.5341 103.351 98.9952Z" fill="#2D2331" style="fill:#2D2331;fill:color(display-p3 0.1765 0.1373 0.1922);fill-opacity:1;"/>
<path d="M100.746 144.376C100.517 145.698 99.6921 147.15 95.1531 146.968C93.9205 146.919 93.2265 143.359 93.0274 142.406C92.17 138.3 92.9011 133.428 92.6173 129.236C92.1655 122.58 91.4589 117.853 91.7531 114.784C91.8742 113.515 93.4843 114.869 94.2065 113.815C95.9556 111.26 102.368 112.829 102.146 114.103C101.186 119.58 100.757 144.32 100.746 144.376Z" fill="#2D2331" style="fill:#2D2331;fill:color(display-p3 0.1765 0.1373 0.1922);fill-opacity:1;"/>
<path d="M90.4288 117.117C90.3909 118.534 90.2423 119.951 90.1145 121.362C89.9057 123.645 89.6739 125.924 89.4346 128.203C88.098 140.989 87.9159 147.529 86.7739 150.173C85.831 152.358 82.8873 152.105 80.9956 151.426C80.1671 151.129 79.3885 150.621 78.9233 149.879C78.4709 149.156 78.3512 148.283 78.2554 147.437C77.3214 139.244 77.9299 131.123 80.1092 123.171C80.6196 121.305 81.2549 119.384 82.3813 117.786C82.7825 117.216 85.0071 121.163 85.623 120.832C86.288 120.473 84.8206 119.318 85.574 119.396C86.9946 119.542 88.3483 120.247 89.2763 121.325L90.4288 117.117Z" fill="#3B2E41" style="fill:#3B2E41;fill:color(display-p3 0.2314 0.1804 0.2549);fill-opacity:1;"/>
<path d="M80.934 84.1366C80.934 84.1351 81.5202 83.3938 81.5329 83.4004C83.594 84.5139 86.1789 84.3238 88.6434 84.6848C93.9641 85.4645 94.3489 86.4136 97.9324 84.1815C98.8649 85.096 97.8225 91.2925 97.659 92.0891C96.6961 96.8 93.6542 96.492 93.4365 98.6931C92.9305 103.795 91.9773 113.872 91.0515 118.915C90.6911 120.876 90.2684 122.886 89.1576 124.547C87.861 126.483 85.6781 127.482 83.3577 127.203C82.7596 127.132 82.1592 126.926 81.7246 126.513C80.7141 125.55 79.6085 125.77 79.7838 124.391C80.2943 120.372 79.9362 114.703 79.1731 110.724C77.6276 102.678 77.1685 93.8856 80.934 84.1366Z" fill="#3B2E41" style="fill:#3B2E41;fill:color(display-p3 0.2314 0.1804 0.2549);fill-opacity:1;"/>
<path d="M80.7227 75.8945L80.7397 75.9129C80.9111 77.243 81.0253 78.5805 81.0728 79.9194C81.009 78.5739 80.8925 77.2305 80.7227 75.8945Z" fill="#F3A984" style="fill:#F3A984;fill:color(display-p3 0.9529 0.6627 0.5176);fill-opacity:1;"/>
<path d="M81.0742 79.918C81.1133 80.7352 81.1324 81.5524 81.1324 82.3703C81.117 82.363 81.1015 82.3563 81.086 82.3482C81.1081 81.5391 81.103 80.7285 81.0742 79.918Z" fill="#F3A984" style="fill:#F3A984;fill:color(display-p3 0.9529 0.6627 0.5176);fill-opacity:1;"/>
<path d="M81.0701 79.9206C81.0054 78.575 80.8895 77.2317 80.7194 75.8957L80.7365 75.9141C80.5143 74.2009 80.2 72.5016 79.8129 70.8296C79.1234 67.8496 78.3306 65.4665 77.5096 62.5175C77.0512 60.872 76.0518 58.3784 75.9144 57.2038C75.5986 54.4927 77.1805 52.4007 80.7194 50.0235C83.1104 48.4171 87.8864 46.3044 92.5577 44.855C99.0983 42.8248 100.017 45.1902 101.898 50.3647C103.649 55.1817 103.143 63.1232 102.359 68.2505C101.944 70.9659 101.689 73.7049 101.595 76.4498C101.513 78.8145 101.784 81.0642 102.18 83.3803C96.4584 87.4015 88.6524 86.3787 82.1222 84.8084C81.715 84.7347 81.3286 84.6146 80.9586 84.4591C81.0901 82.9522 81.1243 81.4356 81.0701 79.9206Z" fill="#DCD8D8" style="fill:#DCD8D8;fill:color(display-p3 0.8627 0.8471 0.8471);fill-opacity:1;"/>
<path d="M101.845 81.0742C101.94 81.8391 102.05 82.6047 102.182 83.3777C96.4607 87.3989 88.6547 86.3761 82.1245 84.8058C81.7173 84.7321 81.331 84.6113 80.9609 84.4565C81.0412 83.5457 81.0739 82.6313 81.085 81.7168C86.5468 83.7897 96.1561 84.8198 101.845 81.0742Z" fill="#2D2331" style="fill:#2D2331;fill:color(display-p3 0.1765 0.1373 0.1922);fill-opacity:1;"/>
<path d="M83.5787 82.5007C83.5787 83.3348 83.5787 84.2545 83.5787 85.1409C83.0876 85.0334 82.6017 84.9214 82.1224 84.8064C81.9932 84.7828 81.8787 84.7283 81.7539 84.6959C81.7539 83.7423 81.7539 82.7836 81.7539 81.9473C82.3327 82.1433 82.9368 82.3305 83.5787 82.5007Z" fill="#3B2E41" style="fill:#3B2E41;fill:color(display-p3 0.2314 0.1804 0.2549);fill-opacity:1;"/>
<path d="M96.3443 83.1621C96.3443 83.9189 96.3443 84.8452 96.3443 85.798C95.744 85.9166 95.1347 86.0036 94.5195 86.0669C94.5195 85.1856 94.5195 84.3043 94.5195 83.4222C95.1355 83.3566 95.747 83.2756 96.3443 83.1621Z" fill="#3B2E41" style="fill:#3B2E41;fill:color(display-p3 0.2314 0.1804 0.2549);fill-opacity:1;"/>
<path d="M92.6712 80.0824C93.383 80.6808 94.2233 81.3985 94.9225 81.9961C95.9352 80.4207 95.9627 80.2888 96.9019 78.7067C96.9316 69.3231 96.5259 60.5298 94.265 51.5449C93.3904 52.161 92.9506 52.4697 92.0664 53.0872C93.2143 61.6823 93.9261 70.6259 92.6712 80.0824Z" fill="#3B2E41" style="fill:#3B2E41;fill:color(display-p3 0.2314 0.1804 0.2549);fill-opacity:1;"/>
<path d="M95.2053 51.3305C95.2149 51.3695 95.2201 51.4115 95.2187 51.4624C95.2112 51.7269 95.047 52.0585 94.9564 52.3061C94.761 52.8426 94.5135 53.3613 94.2208 53.8521C94.0596 54.1211 93.8679 54.3959 93.5759 54.5146C93.249 54.6472 92.8685 54.5492 92.5602 54.3775C92.2087 54.1815 91.5646 53.8919 91.6433 53.4557C91.7124 53.0754 91.8484 52.6922 91.9747 52.3275C92.2318 51.5817 92.5803 50.6562 93.275 50.1993C94.0551 49.6872 94.6101 50.4558 95.0225 51.0283C95.1087 51.1492 95.177 51.2236 95.2053 51.3305Z" fill="#3B2E41" style="fill:#3B2E41;fill:color(display-p3 0.2314 0.1804 0.2549);fill-opacity:1;"/>
<path d="M85.3185 47.5319C85.1506 52.7697 95.0586 52.8588 94.9159 47.9327C94.7175 41.0679 94.2962 40.2801 91.0345 39.2161C90.1406 38.9242 89.2067 38.7002 88.2623 38.6833C84.82 38.6207 86.1529 40.3538 86.2822 41.563C86.6663 45.1502 85.3787 45.6462 85.3185 47.5319Z" fill="#F3A984" style="fill:#F3A984;fill:color(display-p3 0.9529 0.6627 0.5176);fill-opacity:1;"/>
<path d="M85.3187 47.5319C85.3789 45.6476 86.6665 45.1502 86.2831 41.563C86.1538 40.3538 84.8209 38.6207 88.2632 38.6833C89.2076 38.7002 90.1423 38.9242 91.0353 39.2161C94.2518 40.2661 94.705 41.0509 94.9079 47.6542C92.1669 47.3933 89.7448 44.3934 86.9511 46.1738C86.2073 46.7272 85.7058 47.4397 85.3581 48.2267C85.3246 48.0064 85.3105 47.7743 85.3187 47.5319Z" fill="#F3A984" style="fill:#F3A984;fill:color(display-p3 0.9529 0.6627 0.5176);fill-opacity:1;"/>
<path d="M86.9531 46.1709C89.7468 44.3905 92.169 47.3897 94.91 47.6513C94.9129 47.7449 94.9159 47.834 94.9181 47.9298C95.0534 52.6275 86.0489 52.7645 85.3594 48.2238C85.7078 47.4368 86.2094 46.7243 86.9531 46.1709Z" fill="#F3A984" style="fill:#F3A984;fill:color(display-p3 0.9529 0.6627 0.5176);fill-opacity:1;"/>
<path d="M93.3008 50.7575C93.4761 51.3175 94.2229 51.5128 94.7155 51.8385C94.9324 51.9814 95.3084 52.2585 95.5915 52.2003C95.8768 52.1414 96.0484 51.7648 96.145 51.5312C96.8449 49.8415 97.2447 47.9986 97.2632 46.1689C97.2692 45.5897 97.1741 44.9419 96.7149 44.533C96.304 44.166 95.5952 44.0879 95.0907 44.3075C94.5498 44.5425 94.4183 45.6 94.6114 46.0885C95.3032 47.8409 94.5148 49.8592 93.3008 50.7575Z" fill="#F7F7F7" style="fill:#F7F7F7;fill:color(display-p3 0.9686 0.9686 0.9686);fill-opacity:1;"/>
<path d="M93.3835 50.7824C93.3835 50.7824 92.5231 52.1316 91.4732 53.0579C91.2124 53.2878 91.0029 53.5707 90.6544 53.4595C88.9537 52.9186 85.3724 49.9364 84.6606 48.0492C84.4035 47.3683 84.9006 46.5224 85.2929 45.9874C85.3635 45.8924 85.9111 45.1562 86.0151 45.084C86.0857 45.1901 86.455 46.543 87.0531 47.4162C88.4276 49.4294 90.942 50.4522 93.3835 50.7824Z" fill="#F7F7F7" style="fill:#F7F7F7;fill:color(display-p3 0.9686 0.9686 0.9686);fill-opacity:1;"/>
<path d="M103.354 71.0266C103.121 72.3375 101.786 73.3065 100.69 74.0124C97.3835 76.1413 84.4285 85.4681 81.9848 79.2112C81.6125 78.2584 82.7151 76.9091 83.4812 76.0455C84.4344 74.9719 94.2235 69.2131 99.5954 67.8181C100.304 67.6339 101.068 67.4814 101.729 67.7128C102.791 68.0856 103.535 70.0119 103.354 71.0266Z" fill="#EBE9EB" style="fill:#EBE9EB;fill:color(display-p3 0.9216 0.9137 0.9216);fill-opacity:1;"/>
<path d="M91.1831 66.5286C90.7544 66.5338 90.3264 66.5058 89.9037 66.4328C88.7988 66.2442 87.9845 65.5589 87.0082 65.0467C86.8514 64.9642 86.6679 64.8824 86.5029 64.9473C86.3536 65.0062 86.2711 65.1742 86.2719 65.3334C86.2719 65.4395 86.4992 65.8942 86.442 65.9266C86.3246 65.9944 85.9747 65.9037 85.8387 65.8993C85.6017 65.8927 85.3647 65.8934 85.1284 65.9015C84.6402 65.9192 84.1543 65.9693 83.6736 66.0518C82.7255 66.214 81.7997 66.5006 80.9282 66.9052C80.8509 66.9413 80.7714 66.9796 80.7142 67.043C80.6577 67.1063 80.628 67.2014 80.6644 67.278C80.7045 67.362 80.8056 67.3959 80.8977 67.4158C81.6065 67.572 82.3302 67.4166 83.0428 67.3812C83.3489 67.3657 83.6387 67.4343 83.947 67.4328C84.3453 67.4306 84.7435 67.46 85.1366 67.5219C83.9403 67.5993 82.7515 67.8012 81.5969 68.1225C81.3599 68.1888 80.8115 68.3679 80.735 68.6346C80.631 68.9965 81.1964 69.0444 81.4223 69.0569C82.1118 69.0959 82.802 69.1343 83.4915 69.1733C82.7344 69.1306 81.9476 69.2912 81.2506 69.5801C80.9081 69.7223 80.6555 69.8048 80.8747 70.1968C81.0196 70.4555 81.3131 70.625 81.614 70.5896C82.0702 70.5366 82.5182 70.4702 82.9789 70.4363C83.6193 70.3884 84.2658 70.3789 84.904 70.4607C84.4292 70.6368 83.9485 70.8166 83.5324 71.1032C83.1906 71.339 82.8147 71.7016 82.7047 72.115C82.6319 72.3891 82.7411 72.8592 83.1096 72.7826C83.5012 72.7008 83.8883 72.5947 84.2665 72.4643C85.063 72.1909 85.8409 71.8335 86.6827 71.7148C87.8842 71.5446 89.1228 71.9403 90.2997 71.6463C91.4833 71.3501 92.5242 71.3125 93.4946 70.4518C94.3654 69.6796 94.9041 68.5506 94.9539 67.3937C94.9643 67.1498 94.9509 66.8934 94.8283 66.6819C94.6596 66.3908 94.3127 66.2405 93.9753 66.2147C93.6388 66.1882 93.3036 66.2655 92.9715 66.3304C92.3853 66.4468 91.7842 66.5212 91.1831 66.5286Z" fill="#FFC7AD" style="fill:#FFC7AD;fill:color(display-p3 1.0000 0.7804 0.6784);fill-opacity:1;"/>
<path d="M112.213 70.9787C111.162 72.5107 109.854 72.6676 108.554 72.7973C106.77 72.9756 104.984 73.1326 103.192 73.2188C100.89 73.3293 93.6825 72.5785 93.2575 72.4967C92.461 72.3441 91.5114 72.3942 90.891 71.787C90.5559 71.4591 90.3962 70.9971 90.2817 70.5446C90.0113 69.4835 89.7475 68.0901 90.1903 67.0518C90.7558 65.7261 93.3942 65.8175 94.6409 65.7099C98.2289 65.4012 101.844 65.2449 105.446 65.2884C107.034 65.3076 108.638 65.3518 110.214 65.5787C110.846 65.6701 112.203 65.7652 112.549 66.4343C113.242 67.7784 112.797 70.1261 112.213 70.9787Z" fill="#F7F7F7" style="fill:#F7F7F7;fill:color(display-p3 0.9686 0.9686 0.9686);fill-opacity:1;"/>
<path d="M96.8148 49.2964C98.8306 47.7268 99.4703 44.7925 99.1739 44.6598C98.9651 44.5663 97.3795 44.1168 97.1143 44.4484C96.9085 44.7063 97.2963 45.5625 97.3587 45.8742C97.5749 46.9516 96.1922 48.3561 96.8148 49.2964Z" fill="#0668E1" style="fill:#0668E1;fill:color(display-p3 0.0235 0.4078 0.8824);fill-opacity:1;"/>
<path d="M80.5916 77.1784C79.2379 73.911 78.0179 69.5965 76.2911 64.229C75.826 62.7832 75.5964 61.2365 75.6477 59.6927C75.7004 58.1342 76.2896 56.8108 77.1418 55.3952C77.5282 54.7541 78.0543 54.0651 78.8314 53.9104C79.5403 53.7689 80.1956 54.1285 80.7291 54.5124C83.9426 56.824 85.5883 60.7074 86.1746 64.4029C86.7199 67.8405 87.7854 71.1705 88.3003 74.6265C88.3984 75.2838 88.5499 75.9795 88.4994 76.6574C88.2624 79.8769 85.9078 81.868 83.6305 80.9159C82.5153 80.4487 81.3272 78.9543 80.5916 77.1784Z" fill="#EBE9EB" style="fill:#EBE9EB;fill:color(display-p3 0.9216 0.9137 0.9216);fill-opacity:1;"/>
<path d="M97.6852 30.5238C98.4438 31.5628 98.9297 32.7875 99.0055 34.1183C99.0382 34.6909 98.9825 35.2686 98.8264 35.8213C98.6793 36.3452 98.3866 36.85 98.4193 37.4085C98.4572 38.0636 98.9817 38.7629 99.2388 39.365C99.4706 39.9095 99.6237 40.527 99.4379 41.0886C99.3317 41.4113 99.1229 41.6891 98.9594 41.9868C98.18 43.4053 99.1392 45.3559 97.6859 46.4354C97.3226 46.7044 96.8775 46.7818 96.4295 46.8356C95.8693 46.9026 93.2859 46.3676 92.2754 46.0036C91.1594 45.6013 90.0196 44.4495 89.177 43.6198C88.5173 42.9698 87.4295 42.1512 86.9822 41.3479C86.8448 41.1011 87.1301 41.0355 86.8596 40.9264C86.6962 40.8616 86.4361 39.8727 86.2593 39.8661C86.0483 39.8572 85.7511 39.6479 85.5653 39.5426C85.2101 39.3399 85.1031 40.1697 84.9642 39.7865C84.3765 38.1638 83.6565 36.5139 83.609 34.7631C83.5659 33.1596 83.4373 31.7897 84.3824 30.3602C85.092 29.2865 86.1552 28.4686 87.3322 27.9314C89.1295 27.112 91.2158 26.9359 93.1269 27.4414C94.939 27.9211 96.5944 29.0294 97.6852 30.5238Z" fill="#FFC7AD" style="fill:#FFC7AD;fill:color(display-p3 1.0000 0.7804 0.6784);fill-opacity:1;"/>
<path d="M92.1658 33.5764C91.5937 33.558 90.4978 33.4342 90.101 33.9522C89.5512 34.6692 89.9762 35.675 90.1241 36.4547C90.3291 37.5394 90.4725 38.6388 90.6449 39.7287C90.6813 39.9586 90.7147 40.2047 90.613 40.4147C90.4688 40.7095 90.0877 40.8281 89.7622 40.7684C89.4375 40.7087 89.1582 40.5105 88.8981 40.3079C88.4493 39.9593 88.0288 39.5806 87.6224 39.1849C87.2843 38.8562 86.9158 38.5121 86.4819 38.9306C86.0115 39.3846 86.042 40.3919 86.1995 40.9703C86.227 41.072 86.4492 41.8399 86.1312 41.8436C85.8117 41.8472 83.0039 38.98 82.8783 34.1092C82.7572 29.4365 86.0249 28.5648 86.0249 28.5648C86.0249 28.5648 87.4649 26.1449 91.2601 26.3239C95.1074 26.5059 98.6627 27.948 100.71 31.3679C100.36 32.5366 99.2459 33.3575 98.0616 33.6818C96.8772 34.006 95.6208 33.9117 94.4 33.7776C93.6578 33.6958 92.9111 33.6007 92.1658 33.5764Z" fill="#A26749" style="fill:#A26749;fill:color(display-p3 0.6353 0.4039 0.2863);fill-opacity:1;"/>
<path d="M86.3972 37.8105C84.9944 37.8105 84.7574 39.5533 85.8065 40.817C86.1119 41.1855 86.6305 41.4965 87.0176 41.7809C89.6634 43.7263 90.1367 41.3977 89.2927 40.7323C87.3326 39.1834 88.1626 37.8098 86.3972 37.8105Z" fill="#FFC7AD" style="fill:#FFC7AD;fill:color(display-p3 1.0000 0.7804 0.6784);fill-opacity:1;"/>
<path d="M87.4692 41.0314C87.299 40.8965 85.6443 40.0712 86.6853 39.3638C86.9728 39.1685 87.325 39.4065 87.3934 39.719C87.4283 39.8803 87.3882 40.052 87.4238 40.2134C87.4446 40.3092 87.4922 40.3977 87.5487 40.4772C87.7054 40.6968 88.2032 40.8833 88.1312 41.223C88.0688 41.5251 87.5672 41.1087 87.4692 41.0314Z" fill="#F3A984" style="fill:#F3A984;fill:color(display-p3 0.9529 0.6627 0.5176);fill-opacity:1;"/>
<path d="M81.0767 54.6329C73.6429 64.3664 75.36 77.7506 78.8826 89.4509C81.654 98.6547 86.0251 107.399 87.835 116.834C89.833 127.25 88.5535 138.259 84.2181 147.95C81.0611 148.269 77.8617 148.587 74.7284 148.087C71.5959 147.586 68.4842 146.163 66.6215 143.616C64.4861 140.696 64.3011 136.84 64.3019 133.232C64.3026 126.736 64.6399 120.209 63.7877 113.768C62.8032 106.325 60.2451 99.1263 59.6247 91.6446C58.5027 78.1131 63.385 64.4608 71.2192 53.3264C73.8472 49.5918 80.347 46.0732 83.9959 46.4224C86.9293 46.7032 88.1813 51.3979 88.1813 51.3979C88.1813 51.3979 85.0733 49.3995 81.0767 54.6329Z" fill="#0668E1" style="fill:#0668E1;fill:color(display-p3 0.0235 0.4078 0.8824);fill-opacity:1;"/>
</g>
</g>
<defs>
<clipPath id="clip0_16205_72297">
<rect width="200" height="200" fill="white" style="fill:white;fill-opacity:1;"/>
</clipPath>
</defs>
</svg>
