<svg width="300" height="60" viewBox="0 0 300 60" fill="none" xmlns="http://www.w3.org/2000/svg">
<path d="M7.01536 22.7441C7.79485 22.7441 8.48772 22.7441 9.00738 22.8372C9.52704 22.8372 10.0467 22.9302 10.4797 23.0232C10.9128 23.1162 11.4324 23.2092 11.9521 23.3953L11.6923 25.9068C11.1726 25.9068 10.7396 25.8138 10.2199 25.8138C9.78687 25.8138 9.26721 25.7208 8.83416 25.7208C8.3145 25.7208 7.70824 25.7208 7.01536 25.7208C6.06266 25.7208 5.28317 25.9068 4.76352 26.3719C4.24386 26.744 3.81081 27.4881 3.6376 28.4183C3.37777 29.3485 3.29116 30.6508 3.29116 32.4182C3.29116 34.1855 3.37777 35.3948 3.6376 36.418C3.89742 37.3482 4.24386 38.0923 4.76352 38.4644C5.28317 38.8365 6.06266 39.1156 7.01536 39.1156C8.14129 39.1156 9.00738 39.1156 9.78687 39.0225C10.5663 39.0225 11.2592 38.9295 12.0387 38.8365L12.2985 41.255C11.5191 41.5341 10.8262 41.7201 9.96008 41.8131C9.1806 41.9061 8.14129 41.9992 7.01536 41.9992C5.28317 41.9992 3.89742 41.7201 2.94472 41.069C1.90541 40.4178 1.21253 39.4876 0.692875 38.0923C0.259828 36.418 0 34.5576 0 32.2321C0 29.9066 0.259828 28.0462 0.692875 26.651C1.12592 25.2557 1.90541 24.3255 2.85811 23.6743C3.89742 23.0232 5.28317 22.7441 7.01536 22.7441Z" fill="#1B1C17" style="fill:#1B1C17;fill:color(display-p3 0.1059 0.1098 0.0902);fill-opacity:1;"/>
<path d="M19.7456 28.0469C21.2179 28.0469 22.4305 28.2329 23.2966 28.698C24.1627 29.1631 24.8555 29.9073 25.202 30.8375C25.5484 31.7677 25.8082 33.1629 25.8082 34.8373C25.8082 36.5116 25.635 37.8139 25.202 38.8371C24.8555 39.8603 24.1627 40.6045 23.2966 40.9766C22.4305 41.4417 21.2179 41.6277 19.7456 41.6277C18.2732 41.6277 17.1473 41.4417 16.2812 40.9766C15.4151 40.5115 14.7222 39.7673 14.3758 38.8371C13.9428 37.8139 13.7695 36.5116 13.7695 34.8373C13.7695 33.1629 13.9428 31.8607 14.3758 30.8375C14.8088 29.8142 15.4151 29.0701 16.2812 28.698C17.0607 28.2329 18.2732 28.0469 19.7456 28.0469ZM19.7456 30.4654C19.0527 30.4654 18.4464 30.5584 18.0134 30.8375C17.5803 31.1165 17.3205 31.5816 17.1473 32.1397C16.9741 32.7909 16.8875 33.628 16.8875 34.8373C16.8875 35.9535 16.9741 36.8837 17.1473 37.5349C17.3205 38.186 17.667 38.6511 18.0134 38.8371C18.4464 39.1162 18.9661 39.2092 19.7456 39.2092C20.5251 39.2092 21.0447 39.1162 21.4778 38.8371C21.9108 38.5581 22.1706 38.186 22.3439 37.5349C22.5171 36.8837 22.6037 36.0465 22.6037 34.8373C22.6037 33.7211 22.5171 32.7909 22.3439 32.1397C22.1706 31.4886 21.9108 31.0235 21.4778 30.8375C21.0447 30.6514 20.4385 30.4654 19.7456 30.4654Z" fill="#1B1C17" style="fill:#1B1C17;fill:color(display-p3 0.1059 0.1098 0.0902);fill-opacity:1;"/>
<path d="M30.0546 28.3259L30.3145 30.8375L30.5743 31.2095V41.3487H27.543V28.3259H30.0546ZM35.5976 28.0469C37.8495 28.0469 38.9754 29.2561 38.9754 31.6746V41.4417H35.9441V32.6978C35.9441 31.9537 35.8575 31.4886 35.5976 31.2095C35.3378 30.9305 34.9914 30.8375 34.4717 30.8375C33.8655 30.8375 33.2592 31.0235 32.5663 31.3026C31.96 31.5816 31.1806 32.0467 30.2279 32.6048L30.1413 30.6514C31.0073 29.8142 31.9601 29.2561 32.8261 28.791C33.7788 28.2329 34.6449 28.0469 35.5976 28.0469Z" fill="#1B1C17" style="fill:#1B1C17;fill:color(display-p3 0.1059 0.1098 0.0902);fill-opacity:1;"/>
<path d="M43.6484 28.3259L43.9082 30.8375L44.168 31.2095V41.3487H41.1367V28.3259H43.6484ZM49.1914 28.0469C51.4432 28.0469 52.5692 29.2561 52.5692 31.6746V41.4417H49.5378V32.6978C49.5378 31.9537 49.4512 31.4886 49.1914 31.2095C48.9316 30.9305 48.5851 30.8375 48.0655 30.8375C47.4592 30.8375 46.8529 31.0235 46.1601 31.3026C45.5538 31.5816 44.7743 32.0467 43.8216 32.6048L43.735 30.6514C44.6011 29.8142 45.5538 29.2561 46.4199 28.791C47.4592 28.2329 48.3253 28.0469 49.1914 28.0469Z" fill="#1B1C17" style="fill:#1B1C17;fill:color(display-p3 0.1059 0.1098 0.0902);fill-opacity:1;"/>
<path d="M60.4487 28.0469C62.4407 28.0469 63.8265 28.419 64.6926 29.1631C65.5587 29.9073 65.9917 31.0235 65.9917 32.4188C65.9917 33.628 65.7319 34.4652 65.2122 35.1164C64.6926 35.7675 63.8265 36.0465 62.5273 36.0465H55.5986V34.0931H61.7478C62.2675 34.0931 62.7006 33.9071 62.7872 33.628C62.9604 33.349 63.047 32.8839 63.047 32.4188C63.047 31.6746 62.8738 31.2095 62.4407 30.9305C62.0077 30.6514 61.488 30.4654 60.6219 30.4654C59.8424 30.4654 59.2362 30.5584 58.8031 30.8375C58.3701 31.0235 58.1103 31.4886 57.937 32.0467C57.7638 32.6048 57.6772 33.535 57.6772 34.6513C57.6772 35.8605 57.7638 36.7907 58.0236 37.4418C58.1969 38.093 58.6299 38.5581 59.063 38.7441C59.5826 39.0232 60.1889 39.1162 61.055 39.1162C61.6612 39.1162 62.3541 39.1162 63.1336 39.0232C63.9131 38.9302 64.6926 38.9302 65.4721 38.8371L65.7319 40.8836C65.2988 41.0696 64.7792 41.2556 64.1729 41.3487C63.5666 41.4417 62.9604 41.5347 62.3541 41.6277C61.7478 41.7207 61.1416 41.7207 60.6219 41.7207C59.1496 41.7207 57.937 41.4417 57.0709 40.9766C56.2048 40.5115 55.512 39.7673 55.0789 38.7441C54.6459 37.7209 54.4727 36.4186 54.4727 34.8373C54.4727 33.1629 54.6459 31.7677 55.0789 30.7444C55.512 29.7212 56.1182 29.0701 56.9843 28.605C57.937 28.2329 59.063 28.0469 60.4487 28.0469Z" fill="#1B1C17" style="fill:#1B1C17;fill:color(display-p3 0.1059 0.1098 0.0902);fill-opacity:1;"/>
<path d="M73.6134 28.0469C74.0465 28.0469 74.4795 28.0469 74.9992 28.1399C75.5188 28.1399 76.0385 28.2329 76.4716 28.3259C76.9912 28.419 77.4243 28.605 77.8573 28.791L77.5109 30.8375C76.9046 30.8375 76.2983 30.7444 75.6921 30.7444C75.0858 30.7444 74.5661 30.7444 74.1331 30.7444C73.267 30.7444 72.6607 30.8375 72.1411 31.1165C71.6214 31.3956 71.275 31.7677 71.1018 32.4188C70.9285 33.0699 70.7553 33.9071 70.7553 35.0233C70.7553 36.1396 70.8419 36.9767 71.1018 37.6279C71.275 38.279 71.708 38.6511 72.1411 38.9302C72.6607 39.2092 73.267 39.3022 74.1331 39.3022C74.3929 39.3022 74.7394 39.3022 75.0858 39.3022C75.5188 39.3022 75.9519 39.3022 76.3849 39.2092C76.818 39.2092 77.3376 39.1162 77.7707 39.1162L78.0305 41.1626C77.4243 41.4417 76.6448 41.6277 75.8653 41.8138C75.0858 41.9068 74.3063 41.9998 73.5268 41.9998C72.0545 41.9998 70.9286 41.8138 70.0625 41.3487C69.1964 40.8836 68.5901 40.1394 68.157 39.2092C67.8106 38.186 67.5508 36.8837 67.5508 35.2094C67.5508 33.535 67.724 32.2328 68.157 31.2095C68.5901 30.1863 69.1964 29.5352 70.0625 29.0701C71.0152 28.2329 72.2277 28.0469 73.6134 28.0469Z" fill="#1B1C17" style="fill:#1B1C17;fill:color(display-p3 0.1059 0.1098 0.0902);fill-opacity:1;"/>
<path d="M87.8179 28.3282V30.5607H79.0703V28.4212L81.4088 28.3282H87.8179ZM84.1803 24.6074V37.4441C84.1803 38.0022 84.2669 38.3743 84.5267 38.6534C84.7865 38.8394 85.133 39.0254 85.6526 39.0254H87.2982L87.6446 41.2579C87.3848 41.3509 87.0384 41.4439 86.6053 41.537C86.1723 41.63 85.8258 41.63 85.4794 41.723C85.133 41.723 84.7865 41.723 84.5267 41.723C83.4874 41.723 82.6213 41.4439 82.1016 40.7928C81.4954 40.1417 81.2355 39.3045 81.2355 38.1883V24.6074H84.1803Z" fill="#1B1C17" style="fill:#1B1C17;fill:color(display-p3 0.1059 0.1098 0.0902);fill-opacity:1;"/>
<path d="M98.9853 23.0254C99.938 23.0254 100.804 23.0254 101.757 23.0254C102.709 23.0254 103.662 23.0254 104.528 23.1184C105.394 23.1184 106.26 23.2114 107.04 23.3044L106.867 26.2811H100.284C99.8514 26.2811 99.5915 26.3741 99.3317 26.6531C99.1585 26.8392 98.9853 27.2113 98.9853 27.6764V36.9783C98.9853 37.4434 99.0719 37.7225 99.3317 38.0015C99.5049 38.1876 99.8514 38.3736 100.284 38.3736H106.867L107.04 41.3502C106.26 41.4432 105.394 41.4432 104.528 41.5363C103.662 41.5363 102.709 41.6293 101.757 41.6293C100.804 41.6293 99.8514 41.6293 98.9853 41.6293C97.8593 41.6293 96.9932 41.2572 96.387 40.6061C95.6941 39.9549 95.3477 39.0247 95.3477 37.9085V26.6531C95.3477 25.5369 95.6941 24.6067 96.387 23.9556C96.9932 23.3044 97.9459 23.0254 98.9853 23.0254Z" fill="#0668E1" style="fill:#0668E1;fill:color(display-p3 0.0235 0.4078 0.8824);fill-opacity:1;"/>
<path d="M106.009 30.4648H95.7891V33.3484H106.009V30.4648Z" fill="#0668E1" style="fill:#0668E1;fill:color(display-p3 0.0235 0.4078 0.8824);fill-opacity:1;"/>
<path d="M115.888 22.7441C116.667 22.7441 117.36 22.7441 117.966 22.8372C118.573 22.8372 119.092 22.9302 119.525 23.0232C120.045 23.1162 120.478 23.2092 120.998 23.3953L120.738 26.3719C120.218 26.3719 119.699 26.2789 119.266 26.2789C118.833 26.2789 118.313 26.2789 117.793 26.2789C117.274 26.2789 116.667 26.2789 115.888 26.2789C115.022 26.2789 114.415 26.4649 113.896 26.837C113.376 27.2091 113.116 27.7672 112.856 28.6974C112.683 29.5346 112.597 30.7438 112.597 32.3251C112.597 33.9065 112.683 35.1157 112.856 35.9529C113.03 36.7901 113.376 37.4412 113.896 37.8133C114.415 38.1854 115.022 38.3714 115.888 38.3714C117.014 38.3714 117.966 38.3714 118.746 38.2784C119.525 38.2784 120.305 38.1854 121.084 38.0923L121.431 41.069C120.651 41.348 119.872 41.5341 119.006 41.6271C118.14 41.7201 117.187 41.8131 115.974 41.8131C114.242 41.8131 112.77 41.5341 111.731 40.8829C110.691 40.2318 109.912 39.3016 109.392 37.9063C108.872 36.511 108.699 34.6506 108.699 32.3251C108.699 29.9997 108.959 28.1393 109.392 26.744C109.825 25.3487 110.605 24.3255 111.731 23.7674C112.77 23.0232 114.156 22.7441 115.888 22.7441Z" fill="#0668E1" style="fill:#0668E1;fill:color(display-p3 0.0235 0.4078 0.8824);fill-opacity:1;"/>
<path d="M130 20.6065C130 22.0948 128.874 23.3041 127.488 23.3041C126.102 23.3041 124.977 22.0948 124.977 20.6065C124.977 19.1182 126.102 18.002 127.488 18.002C128.874 18.002 130 19.1182 130 20.6065ZM125.583 20.6065C125.583 21.8158 126.362 22.7459 127.488 22.7459C128.528 22.7459 129.394 21.8158 129.394 20.6995C129.394 19.4903 128.614 18.5601 127.488 18.5601C126.362 18.4671 125.583 19.4903 125.583 20.6065ZM127.142 22.0018H126.536V19.3972C126.795 19.3042 127.055 19.3042 127.488 19.3042C127.921 19.3042 128.181 19.3972 128.354 19.4903C128.528 19.5833 128.614 19.7693 128.614 20.0484C128.614 20.3274 128.441 20.6065 128.094 20.6995C128.354 20.7925 128.441 20.9786 128.528 21.3507C128.614 21.7227 128.614 21.9088 128.701 22.0018H128.094C128.008 21.9088 128.008 21.6297 127.921 21.3507C127.835 21.0716 127.748 20.9786 127.402 20.9786H127.142V22.0018ZM127.142 20.5135H127.402C127.748 20.5135 128.008 20.4205 128.008 20.1414C128.008 19.8623 127.835 19.7693 127.488 19.7693C127.315 19.7693 127.228 19.7693 127.142 19.7693V20.5135Z" fill="#0668E1" style="fill:#0668E1;fill:color(display-p3 0.0235 0.4078 0.8824);fill-opacity:1;"/>
<path d="M151 60.0005C150.5 60.0005 150 59.6405 150 59.2805V0.720006C150 0.360003 150.5 0 151 0C151.5 0 152 0.360003 152 0.720006V59.4005C152 59.6405 151.5 60.0005 151 60.0005Z" fill="#1B1C17" style="fill:#1B1C17;fill:color(display-p3 0.1059 0.1098 0.0902);fill-opacity:1;"/>
<path d="M203.112 40.8809L199.867 47.4533H198.767L195.508 40.8809H196.817L198.836 45.0751C198.92 45.2577 198.994 45.445 199.059 45.6372C199.134 45.8294 199.203 46.0168 199.268 46.1993H199.366C199.431 46.0168 199.5 45.8294 199.575 45.6372C199.649 45.445 199.723 45.2625 199.797 45.0895L201.817 40.8809H203.112ZM199.923 46.5597V50.826H198.697V46.5597H199.923Z" fill="#0668E1" style="fill:#0668E1;fill:color(display-p3 0.0235 0.4078 0.8824);fill-opacity:1;"/>
<path d="M191.491 40.709C191.946 40.7186 192.415 40.7426 192.897 40.781C193.38 40.8195 193.863 40.8916 194.346 40.9972L194.262 41.9197C193.863 41.9005 193.422 41.8861 192.939 41.8765C192.456 41.8572 191.992 41.8476 191.547 41.8476C191.203 41.8476 190.906 41.862 190.655 41.8909C190.414 41.9101 190.214 41.9677 190.056 42.0638C189.898 42.1503 189.782 42.2992 189.708 42.5106C189.643 42.7124 189.611 42.9959 189.611 43.361C189.611 43.9087 189.703 44.2931 189.889 44.5141C190.084 44.7255 190.395 44.884 190.822 44.9897L192.772 45.4942C193.515 45.6767 194.021 45.9986 194.29 46.4598C194.569 46.9115 194.708 47.5216 194.708 48.2903C194.708 48.8668 194.643 49.3329 194.513 49.6884C194.392 50.0439 194.202 50.3178 193.942 50.5099C193.682 50.6925 193.348 50.8174 192.939 50.8847C192.531 50.9616 192.048 51 191.491 51C191.175 51 190.762 50.9856 190.251 50.9568C189.75 50.9279 189.17 50.8511 188.51 50.7261L188.594 49.7893C189.142 49.8085 189.583 49.8277 189.917 49.8469C190.251 49.8565 190.539 49.8613 190.781 49.8613C191.022 49.8613 191.273 49.8613 191.533 49.8613C192.025 49.8613 192.41 49.8229 192.689 49.746C192.976 49.6692 193.176 49.5154 193.287 49.2848C193.408 49.0542 193.468 48.7131 193.468 48.2615C193.468 47.8771 193.427 47.5793 193.343 47.3679C193.26 47.1565 193.125 46.9979 192.939 46.8922C192.763 46.7769 192.535 46.6856 192.257 46.6184L190.265 46.0995C189.569 45.9169 189.077 45.5999 188.789 45.1482C188.51 44.6966 188.371 44.0913 188.371 43.3322C188.371 42.7557 188.431 42.2944 188.552 41.9485C188.682 41.593 188.872 41.3288 189.123 41.1558C189.383 40.9732 189.708 40.8531 190.098 40.7955C190.488 40.7378 190.952 40.709 191.491 40.709Z" fill="#0668E1" style="fill:#0668E1;fill:color(display-p3 0.0235 0.4078 0.8824);fill-opacity:1;"/>
<path d="M183.919 40.8809C184.03 40.8809 184.128 40.9145 184.211 40.9818C184.295 41.0394 184.35 41.1211 184.378 41.2268L187.47 50.826H186.203L183.71 42.6681C183.673 42.5336 183.631 42.399 183.584 42.2645C183.547 42.1204 183.51 41.9859 183.473 41.861H183.083C183.046 41.9859 183.009 42.1204 182.972 42.2645C182.935 42.399 182.893 42.5336 182.846 42.6681L180.353 50.826H179.086L182.178 41.2268C182.206 41.1211 182.261 41.0394 182.345 40.9818C182.428 40.9145 182.526 40.8809 182.637 40.8809H183.919ZM185.701 46.6173V47.7127H180.827V46.6173H185.701Z" fill="#0668E1" style="fill:#0668E1;fill:color(display-p3 0.0235 0.4078 0.8824);fill-opacity:1;"/>
<path d="M174.134 40.8691C174.598 40.8691 175.062 40.8691 175.526 40.8691C176 40.8691 176.464 40.8787 176.919 40.898C177.383 40.9076 177.829 40.9268 178.256 40.9556L178.2 41.9501H174.342C174.055 41.9501 173.841 42.027 173.702 42.1807C173.572 42.3249 173.507 42.5651 173.507 42.9014V48.8108C173.507 49.1471 173.572 49.3921 173.702 49.5459C173.841 49.6996 174.055 49.7765 174.342 49.7765H178.2L178.256 50.7566C177.829 50.7854 177.383 50.8046 176.919 50.8142C176.464 50.8238 176 50.8286 175.526 50.8286C175.062 50.8383 174.598 50.8431 174.134 50.8431C173.567 50.8431 173.117 50.6893 172.783 50.3818C172.458 50.0647 172.291 49.642 172.281 49.1135V42.5987C172.291 42.0606 172.458 41.6378 172.783 41.3304C173.117 41.0229 173.567 40.8691 174.134 40.8691ZM172.532 45.0634H177.657V46.0867H172.532V45.0634Z" fill="#0668E1" style="fill:#0668E1;fill:color(display-p3 0.0235 0.4078 0.8824);fill-opacity:1;"/>
<path d="M297.088 27.7812C298.11 27.7812 298.848 27.9734 299.303 28.3578C299.767 28.7421 299.999 29.3139 299.999 30.0729C300.009 30.6975 299.883 31.1876 299.623 31.5431C299.363 31.889 298.95 32.062 298.384 32.062H294.428V31.1107H298.077C298.384 31.1107 298.583 31.005 298.676 30.7936C298.769 30.5726 298.815 30.3324 298.815 30.0729C298.806 29.6213 298.676 29.2994 298.425 29.1073C298.175 28.9151 297.748 28.819 297.144 28.819C296.652 28.819 296.262 28.8959 295.974 29.0496C295.696 29.1937 295.496 29.4532 295.375 29.8279C295.264 30.1931 295.208 30.7071 295.208 31.3701C295.208 32.1196 295.278 32.6913 295.417 33.0853C295.566 33.4793 295.798 33.7483 296.114 33.8924C296.429 34.0366 296.847 34.1086 297.367 34.1086C297.729 34.1086 298.124 34.0942 298.551 34.0654C298.987 34.027 299.377 33.9837 299.721 33.9357L299.846 34.7572C299.633 34.8437 299.368 34.9158 299.052 34.9734C298.746 35.0311 298.425 35.0743 298.091 35.1031C297.766 35.132 297.474 35.1464 297.214 35.1464C296.434 35.1464 295.807 35.0263 295.334 34.7861C294.86 34.5362 294.512 34.1423 294.289 33.6042C294.076 33.0565 293.969 32.3358 293.969 31.4422C293.969 30.5198 294.076 29.7943 294.289 29.2658C294.512 28.7277 294.851 28.3482 295.306 28.1272C295.77 27.8966 296.364 27.7812 297.088 27.7812Z" fill="#1B1C17" style="fill:#1B1C17;fill:color(display-p3 0.1059 0.1098 0.0902);fill-opacity:1;"/>
<path d="M290.695 25.877V33.0403C290.695 33.3766 290.764 33.6168 290.904 33.761C291.043 33.9051 291.28 33.9772 291.614 33.9772H292.644L292.784 34.914C292.635 34.9524 292.463 34.9861 292.268 35.0149C292.073 35.0437 291.883 35.063 291.697 35.0726C291.512 35.0918 291.363 35.1014 291.252 35.1014C290.685 35.1014 290.254 34.938 289.956 34.6113C289.659 34.2846 289.511 33.8138 289.511 33.1988V25.877H290.695ZM292.853 27.9525V28.9181H288.285V28.0245L289.622 27.9525H292.853Z" fill="#1B1C17" style="fill:#1B1C17;fill:color(display-p3 0.1059 0.1098 0.0902);fill-opacity:1;"/>
<path d="M284.552 27.7812C285.053 27.7812 285.476 27.8533 285.819 27.9974C286.172 28.132 286.437 28.3626 286.613 28.6893C286.79 29.016 286.878 29.4628 286.878 30.0297V34.9734H285.945L285.764 33.4456L285.68 33.2871V30.0297C285.68 29.5973 285.583 29.2898 285.388 29.1073C285.202 28.9151 284.84 28.819 284.301 28.819C283.948 28.819 283.503 28.8382 282.964 28.8767C282.435 28.9151 281.91 28.9583 281.39 29.0064L281.279 28.0983C281.595 28.0407 281.938 27.9878 282.31 27.9398C282.69 27.8918 283.076 27.8533 283.466 27.8245C283.856 27.7957 284.218 27.7812 284.552 27.7812ZM286.321 30.6495L286.307 31.5719L283.062 31.5863C282.737 31.5959 282.509 31.6872 282.379 31.8602C282.249 32.0235 282.184 32.2541 282.184 32.552V32.9988C282.184 33.364 282.268 33.633 282.435 33.806C282.602 33.9693 282.871 34.051 283.243 34.051C283.503 34.051 283.795 34.0029 284.12 33.9068C284.454 33.8012 284.789 33.6426 285.123 33.4312C285.457 33.2198 285.764 32.9508 286.042 32.6241V33.5321C285.94 33.6666 285.792 33.8252 285.597 34.0077C285.411 34.1807 285.183 34.3537 284.914 34.5266C284.654 34.69 284.362 34.8293 284.037 34.9446C283.721 35.0503 283.377 35.1031 283.006 35.1031C282.607 35.1031 282.254 35.0311 281.948 34.8869C281.641 34.7332 281.4 34.5122 281.223 34.2239C281.056 33.9261 280.973 33.5657 280.973 33.1429V32.3791C280.973 31.8314 281.135 31.4086 281.46 31.1107C281.794 30.8032 282.259 30.6495 282.853 30.6495H286.321Z" fill="#1B1C17" style="fill:#1B1C17;fill:color(display-p3 0.1059 0.1098 0.0902);fill-opacity:1;"/>
<path d="M275.625 27.7779C276.071 27.7779 276.512 27.8404 276.948 27.9653C277.385 28.0806 277.802 28.2632 278.202 28.513L278.132 29.2769C277.696 29.1424 277.31 29.0367 276.976 28.9598C276.642 28.8829 276.284 28.8445 275.904 28.8445C275.514 28.8445 275.198 28.9165 274.957 29.0607C274.724 29.1952 274.553 29.4498 274.441 29.8246C274.33 30.1993 274.274 30.7326 274.274 31.4244C274.274 32.1163 274.325 32.6544 274.427 33.0387C274.539 33.4231 274.711 33.6921 274.943 33.8459C275.175 33.9996 275.472 34.0765 275.834 34.0765C276.103 34.0765 276.345 34.0428 276.558 33.9756C276.781 33.8987 277.013 33.7786 277.255 33.6152C277.505 33.4519 277.798 33.2453 278.132 32.9955L278.243 33.8603C277.872 34.2158 277.45 34.5185 276.976 34.7683C276.503 35.0181 275.992 35.143 275.444 35.143C274.59 35.143 273.977 34.8308 273.606 34.2062C273.244 33.5816 273.062 32.6592 273.062 31.4389C273.062 30.526 273.155 29.8054 273.341 29.2769C273.527 28.7388 273.81 28.3544 274.191 28.1238C274.571 27.8932 275.049 27.7779 275.625 27.7779ZM279.163 24.8809V34.9701H278.243L278.104 33.745L277.979 33.6441V28.8301L278.062 28.6139C278.025 28.3448 278.002 28.0854 277.993 27.8356C277.983 27.5857 277.979 27.3215 277.979 27.0428V24.8809H279.163Z" fill="#1B1C17" style="fill:#1B1C17;fill:color(display-p3 0.1059 0.1098 0.0902);fill-opacity:1;"/>
<path d="M271.136 27.9523V34.9715H269.966V27.9523H271.136ZM270.829 24.9688C271.071 24.9688 271.191 25.0937 271.191 25.3435V26.165C271.191 26.4149 271.071 26.5398 270.829 26.5398H270.272C270.031 26.5398 269.91 26.4149 269.91 26.165V25.3435C269.91 25.0937 270.031 24.9688 270.272 24.9688H270.829Z" fill="#1B1C17" style="fill:#1B1C17;fill:color(display-p3 0.1059 0.1098 0.0902);fill-opacity:1;"/>
<path d="M264.188 27.7779C264.633 27.7779 265.074 27.8404 265.511 27.9653C265.947 28.0806 266.365 28.2632 266.764 28.513L266.695 29.2769C266.258 29.1424 265.873 29.0367 265.539 28.9598C265.204 28.8829 264.847 28.8445 264.466 28.8445C264.076 28.8445 263.761 28.9165 263.519 29.0607C263.287 29.1952 263.115 29.4498 263.004 29.8246C262.892 30.1993 262.837 30.7326 262.837 31.4244C262.837 32.1163 262.888 32.6544 262.99 33.0387C263.101 33.4231 263.273 33.6921 263.505 33.8459C263.737 33.9996 264.034 34.0765 264.397 34.0765C264.666 34.0765 264.907 34.0428 265.121 33.9756C265.344 33.8987 265.576 33.7786 265.817 33.6152C266.068 33.4519 266.36 33.2453 266.695 32.9955L266.806 33.8603C266.435 34.2158 266.012 34.5185 265.539 34.7683C265.065 35.0181 264.554 35.143 264.007 35.143C263.152 35.143 262.54 34.8308 262.168 34.2062C261.806 33.5816 261.625 32.6592 261.625 31.4389C261.625 30.526 261.718 29.8054 261.904 29.2769C262.089 28.7388 262.372 28.3544 262.753 28.1238C263.134 27.8932 263.612 27.7779 264.188 27.7779ZM267.725 24.8809V34.9701H266.806L266.667 33.745L266.541 33.6441V28.8301L266.625 28.6139C266.588 28.3448 266.565 28.0854 266.555 27.8356C266.546 27.5857 266.541 27.3215 266.541 27.0428V24.8809H267.725Z" fill="#1B1C17" style="fill:#1B1C17;fill:color(display-p3 0.1059 0.1098 0.0902);fill-opacity:1;"/>
<path d="M257.966 27.7812C259.192 27.7812 259.805 28.425 259.805 29.7126V34.9734H258.621V30.0585C258.621 29.5877 258.547 29.2658 258.398 29.0928C258.249 28.9103 257.999 28.819 257.646 28.819C257.228 28.819 256.81 28.9247 256.392 29.1361C255.975 29.3475 255.478 29.6357 254.902 30.0009L254.847 29.1217C255.376 28.6989 255.9 28.3722 256.42 28.1416C256.94 27.9014 257.456 27.7812 257.966 27.7812ZM254.847 27.9542L254.944 29.2946L255.028 29.5108V34.9734H253.844V27.9542H254.847Z" fill="#1B1C17" style="fill:#1B1C17;fill:color(display-p3 0.1059 0.1098 0.0902);fill-opacity:1;"/>
<path d="M249.396 27.7812C249.897 27.7812 250.32 27.8533 250.663 27.9974C251.016 28.132 251.281 28.3626 251.457 28.6893C251.633 29.016 251.722 29.4628 251.722 30.0297V34.9734H250.788L250.607 33.4456L250.524 33.2871V30.0297C250.524 29.5973 250.426 29.2898 250.231 29.1073C250.046 28.9151 249.684 28.819 249.145 28.819C248.792 28.819 248.347 28.8382 247.808 28.8767C247.279 28.9151 246.754 28.9583 246.234 29.0064L246.123 28.0983C246.438 28.0407 246.782 27.9878 247.153 27.9398C247.534 27.8918 247.919 27.8533 248.309 27.8245C248.699 27.7957 249.061 27.7812 249.396 27.7812ZM251.165 30.6495L251.151 31.5719L247.906 31.5863C247.581 31.5959 247.353 31.6872 247.223 31.8602C247.093 32.0235 247.028 32.2541 247.028 32.552V32.9988C247.028 33.364 247.112 33.633 247.279 33.806C247.446 33.9693 247.715 34.051 248.087 34.051C248.347 34.051 248.639 34.0029 248.964 33.9068C249.298 33.8012 249.633 33.6426 249.967 33.4312C250.301 33.2198 250.607 32.9508 250.886 32.6241V33.5321C250.784 33.6666 250.635 33.8252 250.44 34.0077C250.255 34.1807 250.027 34.3537 249.758 34.5266C249.498 34.69 249.205 34.8293 248.88 34.9446C248.565 35.0503 248.221 35.1031 247.85 35.1031C247.451 35.1031 247.098 35.0311 246.791 34.8869C246.485 34.7332 246.244 34.5122 246.067 34.2239C245.9 33.9261 245.816 33.5657 245.816 33.1429V32.3791C245.816 31.8314 245.979 31.4086 246.304 31.1107C246.638 30.8032 247.102 30.6495 247.697 30.6495H251.165Z" fill="#1B1C17" style="fill:#1B1C17;fill:color(display-p3 0.1059 0.1098 0.0902);fill-opacity:1;"/>
<path d="M241.786 24.8516C242.195 24.8516 242.543 24.8612 242.831 24.8804C243.128 24.8996 243.397 24.9332 243.638 24.9813C243.889 25.0197 244.144 25.0726 244.404 25.1398L244.279 26.1055C244 26.0767 243.74 26.0527 243.499 26.0334C243.267 26.0142 243.016 25.9998 242.747 25.9902C242.478 25.9806 242.157 25.9758 241.786 25.9758C241.164 25.9758 240.672 26.1007 240.31 26.3505C239.948 26.6004 239.688 27.0183 239.53 27.6045C239.381 28.1906 239.307 28.9881 239.307 29.9971C239.307 31.006 239.381 31.8035 239.53 32.3897C239.688 32.9758 239.948 33.3938 240.31 33.6436C240.672 33.8934 241.164 34.0183 241.786 34.0183C242.38 34.0183 242.877 34.0087 243.276 33.9895C243.685 33.9607 244.084 33.9174 244.474 33.8598L244.599 34.8111C244.2 34.9264 243.787 35.008 243.36 35.0561C242.942 35.1137 242.417 35.1426 241.786 35.1426C240.867 35.1426 240.129 34.9792 239.572 34.6525C239.024 34.3162 238.625 33.7733 238.374 33.0238C238.132 32.2743 238.012 31.2654 238.012 29.9971C238.012 28.7287 238.132 27.7198 238.374 26.9703C238.625 26.2208 239.024 25.6827 239.572 25.356C240.129 25.0197 240.867 24.8516 241.786 24.8516Z" fill="#0668E1" style="fill:#0668E1;fill:color(display-p3 0.0235 0.4078 0.8824);fill-opacity:1;"/>
<path d="M236.162 30.8633V31.8001H231.914V30.8633H236.162Z" fill="#1B1C17" style="fill:#1B1C17;fill:color(display-p3 0.1059 0.1098 0.0902);fill-opacity:1;"/>
<path d="M227.962 27.9542L228.115 29.2946L228.227 29.5108V34.9734H227.043V27.9542H227.962ZM231.291 27.7812L231.152 28.9343H230.762C230.362 28.9343 229.963 29.0208 229.564 29.1937C229.165 29.3571 228.677 29.5925 228.101 29.9L228.004 29.1361C228.505 28.7133 229.007 28.3818 229.508 28.1416C230.019 27.9014 230.511 27.7812 230.984 27.7812H231.291Z" fill="#1B1C17" style="fill:#1B1C17;fill:color(display-p3 0.1059 0.1098 0.0902);fill-opacity:1;"/>
<path d="M222.354 27.7812C223.375 27.7812 224.114 27.9734 224.569 28.3578C225.033 28.7421 225.265 29.3139 225.265 30.0729C225.274 30.6975 225.149 31.1876 224.889 31.5431C224.629 31.889 224.216 32.062 223.649 32.062H219.694V31.1107H223.343C223.649 31.1107 223.849 31.005 223.942 30.7936C224.035 30.5726 224.081 30.3324 224.081 30.0729C224.072 29.6213 223.942 29.2994 223.691 29.1073C223.44 28.9151 223.013 28.819 222.41 28.819C221.918 28.819 221.528 28.8959 221.24 29.0496C220.961 29.1937 220.762 29.4532 220.641 29.8279C220.53 30.1931 220.474 30.7071 220.474 31.3701C220.474 32.1196 220.544 32.6913 220.683 33.0853C220.831 33.4793 221.063 33.7483 221.379 33.8924C221.695 34.0366 222.113 34.1086 222.633 34.1086C222.995 34.1086 223.389 34.0942 223.816 34.0654C224.253 34.027 224.643 33.9837 224.986 33.9357L225.112 34.7572C224.898 34.8437 224.634 34.9158 224.318 34.9734C224.011 35.0311 223.691 35.0743 223.357 35.1031C223.032 35.132 222.739 35.1464 222.479 35.1464C221.7 35.1464 221.073 35.0263 220.599 34.7861C220.126 34.5362 219.778 34.1423 219.555 33.6042C219.341 33.0565 219.234 32.3358 219.234 31.4422C219.234 30.5198 219.341 29.7943 219.555 29.2658C219.778 28.7277 220.116 28.3482 220.571 28.1272C221.036 27.8966 221.63 27.7812 222.354 27.7812Z" fill="#1B1C17" style="fill:#1B1C17;fill:color(display-p3 0.1059 0.1098 0.0902);fill-opacity:1;"/>
<path d="M218.294 27.9512L215.578 35.3595C215.466 35.667 215.327 35.9697 215.16 36.2676C214.993 36.5654 214.789 36.8345 214.547 37.0747C214.315 37.3245 214.037 37.5263 213.712 37.6801C213.396 37.8338 213.029 37.9203 212.611 37.9395L212.5 37.1324C213.048 36.9498 213.47 36.7048 213.767 36.3973C214.064 36.0898 214.301 35.7151 214.478 35.2731L214.812 34.4371C214.886 34.2449 214.96 34.0335 215.035 33.8029C215.109 33.5723 215.179 33.3657 215.244 33.1832L217.012 27.9512H218.294ZM212.709 27.9512L214.505 33.1832C214.552 33.3273 214.598 33.4714 214.645 33.6155C214.691 33.7501 214.728 33.8894 214.756 34.0335H215.076L214.686 34.9704H214.324C214.232 34.9704 214.143 34.9416 214.06 34.8839C213.985 34.8263 213.934 34.7494 213.907 34.6533L211.441 27.9512H212.709Z" fill="#1B1C17" style="fill:#1B1C17;fill:color(display-p3 0.1059 0.1098 0.0902);fill-opacity:1;"/>
<path d="M207.31 27.7812C208.09 27.7812 208.712 27.9014 209.177 28.1416C209.65 28.3818 209.989 28.7758 210.193 29.3235C210.398 29.8616 210.5 30.5774 210.5 31.471C210.5 32.3646 210.398 33.0853 210.193 33.633C209.989 34.1711 209.65 34.5602 209.177 34.8005C208.712 35.0407 208.09 35.1608 207.31 35.1608C206.54 35.1608 205.918 35.0407 205.444 34.8005C204.98 34.5602 204.641 34.1711 204.427 33.633C204.223 33.0853 204.121 32.3646 204.121 31.471C204.121 30.5774 204.223 29.8616 204.427 29.3235C204.641 28.7758 204.98 28.3818 205.444 28.1416C205.918 27.9014 206.54 27.7812 207.31 27.7812ZM207.31 28.819C206.818 28.819 206.428 28.9007 206.141 29.064C205.862 29.2178 205.662 29.4868 205.542 29.8712C205.421 30.2555 205.361 30.7888 205.361 31.471C205.361 32.1532 205.421 32.6865 205.542 33.0709C205.662 33.4552 205.862 33.7291 206.141 33.8924C206.428 34.0462 206.818 34.123 207.31 34.123C207.803 34.123 208.193 34.0462 208.48 33.8924C208.768 33.7291 208.972 33.4552 209.093 33.0709C209.214 32.6865 209.274 32.1532 209.274 31.471C209.274 30.7888 209.214 30.2555 209.093 29.8712C208.972 29.4868 208.768 29.2178 208.48 29.064C208.193 28.9007 207.803 28.819 207.31 28.819Z" fill="#1B1C17" style="fill:#1B1C17;fill:color(display-p3 0.1059 0.1098 0.0902);fill-opacity:1;"/>
<path d="M201.504 24.8809L201.49 33.0387C201.49 33.3462 201.569 33.5816 201.727 33.745C201.894 33.8987 202.126 33.9756 202.423 33.9756H203.078L203.217 34.9124C203.134 34.9509 203.013 34.9845 202.855 35.0133C202.707 35.0421 202.549 35.0614 202.382 35.071C202.224 35.0902 202.089 35.0998 201.978 35.0998C201.476 35.0998 201.072 34.9461 200.766 34.6386C200.469 34.3311 200.32 33.8891 200.32 33.3126V24.8809H201.504Z" fill="#1B1C17" style="fill:#1B1C17;fill:color(display-p3 0.1059 0.1098 0.0902);fill-opacity:1;"/>
<path d="M196.112 27.7812C196.939 27.7812 197.533 28.0983 197.895 28.7325C198.257 29.3571 198.438 30.2795 198.438 31.4998C198.438 32.4031 198.345 33.1237 198.16 33.6618C197.974 34.1903 197.691 34.5699 197.31 34.8005C196.939 35.0311 196.46 35.1464 195.876 35.1464C195.43 35.1464 194.989 35.0839 194.552 34.959C194.125 34.8341 193.708 34.6419 193.299 34.3825L193.369 33.6474C193.805 33.7723 194.19 33.878 194.525 33.9645C194.859 34.0414 195.212 34.0798 195.583 34.0798C195.982 34.0798 196.298 34.0077 196.53 33.8636C196.772 33.7195 196.948 33.46 197.059 33.0853C197.171 32.7106 197.226 32.1821 197.226 31.4998C197.226 30.8368 197.175 30.3132 197.073 29.9288C196.971 29.5445 196.809 29.2706 196.586 29.1073C196.372 28.9343 196.084 28.8478 195.722 28.8478C195.351 28.8478 194.984 28.9391 194.622 29.1217C194.26 29.3042 193.837 29.5829 193.355 29.9576L193.243 29.1361C193.494 28.8574 193.777 28.6172 194.093 28.4154C194.409 28.2136 194.738 28.0599 195.082 27.9542C195.434 27.8389 195.778 27.7812 196.112 27.7812ZM193.201 27.9542L193.327 29.4099L193.41 29.5973V34.0942L193.355 34.2672C193.383 34.5362 193.396 34.7957 193.396 35.0455C193.406 35.2953 193.41 35.5596 193.41 35.8382V37.8705H192.227V27.9542H193.201Z" fill="#1B1C17" style="fill:#1B1C17;fill:color(display-p3 0.1059 0.1098 0.0902);fill-opacity:1;"/>
<path d="M188.286 27.7812C188.871 27.7812 189.317 27.9446 189.623 28.2713C189.939 28.598 190.097 29.0784 190.097 29.7126V34.9734H188.927V30.0585C188.918 29.6261 188.834 29.3139 188.676 29.1217C188.518 28.9199 188.249 28.819 187.868 28.819C187.627 28.819 187.395 28.8622 187.172 28.9487C186.959 29.0256 186.722 29.1505 186.462 29.3235C186.202 29.4964 185.886 29.7222 185.515 30.0009L185.445 29.1361C185.937 28.6845 186.415 28.3482 186.88 28.1272C187.344 27.8966 187.813 27.7812 188.286 27.7812ZM181.002 27.9542L181.086 29.2946L181.211 29.5108V34.9734H180.027V27.9542H181.002ZM183.843 27.7812C184.419 27.7812 184.86 27.9446 185.167 28.2713C185.473 28.5884 185.631 29.0688 185.64 29.7126V34.9734H184.498V30.0585C184.498 29.6069 184.41 29.2898 184.233 29.1073C184.057 28.9151 183.792 28.819 183.44 28.819C183.207 28.819 182.98 28.8574 182.757 28.9343C182.544 29.0112 182.302 29.1361 182.033 29.309C181.773 29.482 181.453 29.7126 181.072 30.0009L180.988 29.1361C181.48 28.6845 181.959 28.3482 182.423 28.1272C182.887 27.8966 183.361 27.7812 183.843 27.7812Z" fill="#1B1C17" style="fill:#1B1C17;fill:color(display-p3 0.1059 0.1098 0.0902);fill-opacity:1;"/>
<path d="M174.134 25.0137C174.598 25.0137 175.062 25.0137 175.526 25.0137C176 25.0137 176.464 25.0233 176.919 25.0425C177.383 25.0521 177.829 25.0713 178.256 25.1002L178.2 26.0947H174.342C174.055 26.0947 173.841 26.1715 173.702 26.3253C173.572 26.4694 173.507 26.7096 173.507 27.0459V32.9553C173.507 33.2916 173.572 33.5367 173.702 33.6904C173.841 33.8441 174.055 33.921 174.342 33.921H178.2L178.256 34.9011C177.829 34.9299 177.383 34.9492 176.919 34.9588C176.464 34.9684 176 34.9732 175.526 34.9732C175.062 34.9828 174.598 34.9876 174.134 34.9876C173.567 34.9876 173.117 34.8338 172.783 34.5264C172.458 34.2093 172.291 33.7865 172.281 33.258V26.7433C172.291 26.2052 172.458 25.7824 172.783 25.4749C173.117 25.1674 173.567 25.0137 174.134 25.0137ZM172.532 29.2079H177.657V30.2312H172.532V29.2079Z" fill="#0668E1" style="fill:#0668E1;fill:color(display-p3 0.0235 0.4078 0.8824);fill-opacity:1;"/>
<path d="M220.277 10.0215V17.1848C220.277 17.5211 220.346 17.7614 220.486 17.9055C220.625 18.0496 220.862 18.1217 221.196 18.1217H222.226L222.366 19.0585C222.217 19.097 222.045 19.1306 221.85 19.1594C221.655 19.1883 221.465 19.2075 221.279 19.2171C221.094 19.2363 220.945 19.2459 220.834 19.2459C220.267 19.2459 219.836 19.0826 219.538 18.7559C219.241 18.4292 219.093 17.9583 219.093 17.3434V10.0215H220.277ZM222.435 12.097V13.0627H217.867V12.169L219.204 12.097H222.435Z" fill="#1B1C17" style="fill:#1B1C17;fill:color(display-p3 0.1059 0.1098 0.0902);fill-opacity:1;"/>
<path d="M214.653 11.9238C214.857 11.9238 215.085 11.9334 215.335 11.9527C215.586 11.9719 215.841 12.0055 216.101 12.0535C216.371 12.1016 216.617 12.1689 216.84 12.2553L216.686 13.0481C216.38 13.0192 216.055 13 215.711 12.9904C215.377 12.9712 215.089 12.9616 214.848 12.9616C214.309 12.9616 213.882 13.0384 213.567 13.1922C213.251 13.3459 213.024 13.615 212.884 13.9993C212.745 14.3837 212.675 14.917 212.675 15.5992C212.675 16.2814 212.745 16.8195 212.884 17.2135C213.024 17.5978 213.251 17.8669 213.567 18.0206C213.882 18.1743 214.309 18.2512 214.848 18.2512C214.987 18.2512 215.168 18.2464 215.391 18.2368C215.614 18.2272 215.851 18.2128 216.101 18.1936C216.361 18.1743 216.607 18.1455 216.84 18.1071L216.965 18.9286C216.621 19.0535 216.245 19.1448 215.837 19.2025C215.438 19.2601 215.038 19.289 214.639 19.289C213.859 19.289 213.232 19.1689 212.759 18.9286C212.285 18.6884 211.942 18.2993 211.728 17.7612C211.524 17.2231 211.422 16.5024 211.422 15.5992C211.422 14.696 211.529 13.9753 211.742 13.4372C211.956 12.8991 212.299 12.5148 212.773 12.2842C213.246 12.0439 213.873 11.9238 214.653 11.9238Z" fill="#1B1C17" style="fill:#1B1C17;fill:color(display-p3 0.1059 0.1098 0.0902);fill-opacity:1;"/>
<path d="M207.065 11.9258C208.086 11.9258 208.825 12.118 209.279 12.5023C209.744 12.8867 209.976 13.4584 209.976 14.2175C209.985 14.842 209.86 15.3321 209.6 15.6876C209.34 16.0335 208.927 16.2065 208.36 16.2065H204.405V15.2552H208.054C208.36 15.2552 208.56 15.1495 208.653 14.9381C208.746 14.7171 208.792 14.4769 208.792 14.2175C208.783 13.7659 208.653 13.444 208.402 13.2518C208.151 13.0596 207.724 12.9635 207.121 12.9635C206.629 12.9635 206.239 13.0404 205.951 13.1941C205.672 13.3383 205.473 13.5977 205.352 13.9725C205.241 14.3376 205.185 14.8517 205.185 15.5147C205.185 16.2641 205.254 16.8359 205.394 17.2298C205.542 17.6238 205.774 17.8928 206.09 18.037C206.406 18.1811 206.824 18.2532 207.344 18.2532C207.706 18.2532 208.1 18.2388 208.527 18.2099C208.964 18.1715 209.354 18.1283 209.697 18.0802L209.823 18.9018C209.609 18.9882 209.344 19.0603 209.029 19.118C208.722 19.1756 208.402 19.2188 208.068 19.2477C207.743 19.2765 207.45 19.2909 207.19 19.2909C206.41 19.2909 205.784 19.1708 205.31 18.9306C204.837 18.6808 204.488 18.2868 204.266 17.7487C204.052 17.201 203.945 16.4803 203.945 15.5867C203.945 14.6643 204.052 13.9388 204.266 13.4103C204.488 12.8722 204.827 12.4927 205.282 12.2717C205.747 12.0411 206.341 11.9258 207.065 11.9258Z" fill="#1B1C17" style="fill:#1B1C17;fill:color(display-p3 0.1059 0.1098 0.0902);fill-opacity:1;"/>
<path d="M200.31 11.9258C201.536 11.9258 202.148 12.5696 202.148 13.8571V19.118H200.965V14.2031C200.965 13.7322 200.89 13.4103 200.742 13.2374C200.593 13.0548 200.342 12.9635 199.99 12.9635C199.572 12.9635 199.154 13.0692 198.736 13.2806C198.318 13.492 197.822 13.7803 197.246 14.1454L197.19 13.2662C197.72 12.8434 198.244 12.5167 198.764 12.2861C199.284 12.0459 199.799 11.9258 200.31 11.9258ZM197.19 12.0987L197.288 13.4392L197.371 13.6554V19.118H196.188V12.0987H197.19Z" fill="#1B1C17" style="fill:#1B1C17;fill:color(display-p3 0.1059 0.1098 0.0902);fill-opacity:1;"/>
<path d="M192.212 11.9238C193.438 11.9238 194.051 12.5676 194.051 13.8552V19.116H192.867V14.2011C192.867 13.7303 192.793 13.4084 192.644 13.2354C192.496 13.0529 192.245 12.9616 191.892 12.9616C191.474 12.9616 191.056 13.0673 190.639 13.2787C190.221 13.4901 189.724 13.7783 189.148 14.1435L189.093 13.2643C189.622 12.8415 190.146 12.5148 190.666 12.2842C191.186 12.0439 191.702 11.9238 192.212 11.9238ZM189.093 12.0968L189.19 13.4372L189.274 13.6534V19.116H188.09V12.0968H189.093Z" fill="#1B1C17" style="fill:#1B1C17;fill:color(display-p3 0.1059 0.1098 0.0902);fill-opacity:1;"/>
<path d="M183.049 11.9238C183.829 11.9238 184.451 12.0439 184.915 12.2842C185.389 12.5244 185.727 12.9183 185.932 13.466C186.136 14.0041 186.238 14.72 186.238 15.6136C186.238 16.5072 186.136 17.2279 185.932 17.7756C185.727 18.3137 185.389 18.7028 184.915 18.943C184.451 19.1833 183.829 19.3034 183.049 19.3034C182.278 19.3034 181.656 19.1833 181.182 18.943C180.718 18.7028 180.379 18.3137 180.166 17.7756C179.962 17.2279 179.859 16.5072 179.859 15.6136C179.859 14.72 179.962 14.0041 180.166 13.466C180.379 12.9183 180.718 12.5244 181.182 12.2842C181.656 12.0439 182.278 11.9238 183.049 11.9238ZM183.049 12.9616C182.557 12.9616 182.167 13.0433 181.879 13.2066C181.6 13.3603 181.401 13.6294 181.28 14.0137C181.159 14.3981 181.099 14.9314 181.099 15.6136C181.099 16.2958 181.159 16.8291 181.28 17.2135C181.401 17.5978 181.6 17.8717 181.879 18.035C182.167 18.1888 182.557 18.2656 183.049 18.2656C183.541 18.2656 183.931 18.1888 184.219 18.035C184.506 17.8717 184.711 17.5978 184.831 17.2135C184.952 16.8291 185.012 16.2958 185.012 15.6136C185.012 14.9314 184.952 14.3981 184.831 14.0137C184.711 13.6294 184.506 13.3603 184.219 13.2066C183.931 13.0433 183.541 12.9616 183.049 12.9616Z" fill="#1B1C17" style="fill:#1B1C17;fill:color(display-p3 0.1059 0.1098 0.0902);fill-opacity:1;"/>
<path d="M175.774 9C176.183 9 176.531 9.00961 176.819 9.02883C177.116 9.04804 177.385 9.08167 177.627 9.12972C177.877 9.16815 178.133 9.221 178.393 9.28826L178.267 10.2539C177.989 10.2251 177.729 10.2011 177.487 10.1819C177.255 10.1627 177.005 10.1482 176.735 10.1386C176.466 10.129 176.146 10.1242 175.774 10.1242C175.152 10.1242 174.66 10.2491 174.298 10.499C173.936 10.7488 173.676 11.1668 173.518 11.7529C173.37 12.3391 173.295 13.1366 173.295 14.1455C173.295 15.1544 173.37 15.952 173.518 16.5381C173.676 17.1242 173.936 17.5422 174.298 17.792C174.66 18.0419 175.152 18.1668 175.774 18.1668C176.369 18.1668 176.865 18.1572 177.265 18.138C177.673 18.1091 178.072 18.0659 178.462 18.0082L178.588 18.9595C178.188 19.0748 177.775 19.1565 177.348 19.2045C176.93 19.2622 176.406 19.291 175.774 19.291C174.855 19.291 174.117 19.1277 173.56 18.801C173.012 18.4647 172.613 17.9218 172.362 17.1723C172.121 16.4228 172 15.4139 172 14.1455C172 12.8771 172.121 11.8682 172.362 11.1187C172.613 10.3693 173.012 9.83116 173.56 9.50446C174.117 9.16815 174.855 9 175.774 9Z" fill="#1B1C17" style="fill:#1B1C17;fill:color(display-p3 0.1059 0.1098 0.0902);fill-opacity:1;"/>
</svg>
