<svg width="26" height="40" viewBox="0 0 26 40" fill="none" xmlns="http://www.w3.org/2000/svg">
<path d="M12.8051 14.3297L14.3715 14.9801C15.212 15.3302 16.2814 15.3323 17.1251 14.9888L24.7351 11.8946C24.8986 11.8276 25 11.7087 25 11.5813V8.87167C25 7.62492 23.8718 6.49917 22.132 6.013L8.65833 2.24897C5.56135 1.3825 2.13408 2.88423 2.13408 5.10548V9.24765C2.13408 9.48749 2.09157 9.72085 2.01308 9.94341C2.00327 9.96934 2 9.99526 2 10.0212C2.00654 11.1621 2.00981 12.3008 2.00981 13.3833V30.0492C2.00981 30.0643 2.00981 30.0816 2.01308 30.0968C2.16352 31.0907 3.03341 31.9809 4.36116 32.4779L17.9819 37.5946C19.4307 38.1391 21.2097 38.1348 22.6552 37.5838C23.3812 37.3072 23.9666 36.9139 24.3721 36.4494C24.7776 35.9848 25 35.4533 25 34.8979V28.1629C25 27.8755 24.5225 27.6983 24.1497 27.8474L16.7589 30.8379C16.131 31.0929 15.3461 31.1037 14.7018 30.8703L11.0195 29.5328C10.1856 29.2303 9.66885 28.6512 9.66885 28.0224C9.66885 26.9572 11.4413 26.309 12.8051 26.8751L14.6659 27.6486C15.3265 27.9209 16.1669 27.9252 16.8308 27.6551L24.7351 24.4399C24.8986 24.3729 25 24.2541 25 24.1266V15.6175C25 15.3302 24.5225 15.153 24.1497 15.3021L16.7589 18.2926C16.131 18.5475 15.3461 18.5583 14.7018 18.325L11.0195 16.9875C10.1856 16.685 9.66885 16.1059 9.66885 15.4771C9.66885 14.4118 11.4413 13.7636 12.8051 14.3297Z" fill="#0668E1" style="fill:#0668E1;fill:color(display-p3 0.0235 0.4078 0.8824);fill-opacity:1;"/>
</svg>
