<svg width="208" height="60" viewBox="0 0 208 60" fill="none" xmlns="http://www.w3.org/2000/svg">
<path d="M200.296 60H7.7037C3.46859 60 0 56.6231 0 52.5V7.50001C0 3.37689 3.46859 1.26193e-05 7.7037 1.26193e-05H200.296C204.531 1.26193e-05 208 3.37689 208 7.50001V52.5C208 56.6231 204.531 60 200.296 60Z" fill="#1B1C17" style="fill:#1B1C17;fill:color(display-p3 0.1059 0.1098 0.0902);fill-opacity:1;"/>
<path d="M200.296 1.20188C203.863 1.20188 206.765 4.02751 206.765 7.50001V52.5C206.765 55.9725 203.863 58.7981 200.296 58.7981H7.7037C4.13689 58.7981 1.23452 55.9725 1.23452 52.5V7.50001C1.23452 4.02751 4.13689 1.20188 7.7037 1.20188H200.296ZM200.296 1.26193e-05H7.7037C3.46859 1.26193e-05 0 3.37689 0 7.50001V52.5C0 56.6231 3.46859 60 7.7037 60H200.296C204.531 60 208 56.6231 208 52.5V7.50001C208 3.37689 204.531 1.26193e-05 200.296 1.26193e-05Z" fill="white" style="fill:white;fill-opacity:1;"/>
<path d="M73.0555 15.3611C73.0555 16.6136 72.6703 17.6167 71.9115 18.3648C71.0391 19.2517 69.9028 19.698 68.5103 19.698C67.1795 19.698 66.0432 19.2442 65.1111 18.3498C64.177 17.4423 63.7109 16.3286 63.7109 14.9955C63.7109 13.6623 64.177 12.5486 65.1111 11.6486C66.0432 10.7467 67.1795 10.293 68.5103 10.293C69.1729 10.293 69.8046 10.4261 70.4074 10.6736C71.0083 10.923 71.4975 11.2605 71.8518 11.6767L71.0468 12.468C70.4286 11.7573 69.5869 11.4067 68.5103 11.4067C67.5397 11.4067 66.698 11.7367 65.9835 12.4023C65.2767 13.0698 64.9223 13.9342 64.9223 14.9955C64.9223 16.0567 65.2767 16.9286 65.9835 17.5961C66.698 18.2542 67.5397 18.5917 68.5103 18.5917C69.5407 18.5917 70.4074 18.2542 71.0911 17.5886C71.5418 17.148 71.7979 16.5405 71.8653 15.7642H68.5103V14.6805H72.9862C73.0401 14.9148 73.0555 15.1417 73.0555 15.3611Z" fill="white" stroke="white" style="fill:white;fill-opacity:1;stroke:white;stroke-opacity:1;" stroke-width="0.192" stroke-miterlimit="10"/>
<path d="M80.1562 11.6044H75.9519V14.4544H79.7422V15.5381H75.9519V18.3881H80.1562V19.4925H74.7617V10.5H80.1562V11.6044Z" fill="white" stroke="white" style="fill:white;fill-opacity:1;stroke:white;stroke-opacity:1;" stroke-width="0.192" stroke-miterlimit="10"/>
<path d="M85.1714 19.4925H83.9812V11.6044H81.4023V10.5H87.7521V11.6044H85.1714V19.4925Z" fill="white" stroke="white" style="fill:white;fill-opacity:1;stroke:white;stroke-opacity:1;" stroke-width="0.192" stroke-miterlimit="10"/>
<path d="M92.3438 19.4925V10.5H93.5309V19.4925H92.3438Z" fill="white" stroke="white" style="fill:white;fill-opacity:1;stroke:white;stroke-opacity:1;" stroke-width="0.192" stroke-miterlimit="10"/>
<path d="M98.8003 19.4925H97.6197V11.6044H95.0312V10.5H101.389V11.6044H98.8003V19.4925Z" fill="white" stroke="white" style="fill:white;fill-opacity:1;stroke:white;stroke-opacity:1;" stroke-width="0.192" stroke-miterlimit="10"/>
<path d="M113.41 18.3348C112.499 19.2442 111.371 19.698 110.025 19.698C108.671 19.698 107.542 19.2442 106.631 18.3348C105.722 17.4273 105.27 16.3136 105.27 14.9955C105.27 13.6773 105.722 12.5636 106.631 11.6561C107.542 10.7467 108.671 10.293 110.025 10.293C111.363 10.293 112.492 10.7467 113.403 11.6636C114.319 12.5786 114.772 13.6848 114.772 14.9955C114.772 16.3136 114.319 17.4273 113.41 18.3348ZM107.511 17.5811C108.197 18.2542 109.031 18.5917 110.025 18.5917C111.011 18.5917 111.852 18.2542 112.53 17.5811C113.214 16.908 113.561 16.0436 113.561 14.9955C113.561 13.9473 113.214 13.083 112.53 12.4098C111.852 11.7367 111.011 11.3992 110.025 11.3992C109.031 11.3992 108.197 11.7367 107.511 12.4098C106.828 13.083 106.481 13.9473 106.481 14.9955C106.481 16.0436 106.828 16.908 107.511 17.5811Z" fill="white" stroke="white" style="fill:white;fill-opacity:1;stroke:white;stroke-opacity:1;" stroke-width="0.192" stroke-miterlimit="10"/>
<path d="M116.445 19.4925V10.5H117.89L122.381 17.4937H122.433L122.381 15.765V10.5H123.569V19.4925H122.329L117.626 12.1537H117.574L117.626 13.89V19.4925H116.445Z" fill="white" stroke="white" style="fill:white;fill-opacity:1;stroke:white;stroke-opacity:1;" stroke-width="0.192" stroke-miterlimit="10"/>
<path d="M104.981 32.6258C101.362 32.6258 98.4056 35.307 98.4056 39.0064C98.4056 42.6758 101.362 45.3852 104.981 45.3852C108.607 45.3852 111.564 42.6758 111.564 39.0064C111.564 35.307 108.607 32.6258 104.981 32.6258ZM104.981 42.8727C102.995 42.8727 101.287 41.277 101.287 39.0064C101.287 36.7058 102.995 35.1383 104.981 35.1383C106.966 35.1383 108.682 36.7058 108.682 39.0064C108.682 41.277 106.966 42.8727 104.981 42.8727ZM90.6345 32.6258C87.008 32.6258 84.0594 35.307 84.0594 39.0064C84.0594 42.6758 87.008 45.3852 90.6345 45.3852C94.2591 45.3852 97.2096 42.6758 97.2096 39.0064C97.2096 35.307 94.2591 32.6258 90.6345 32.6258ZM90.6345 42.8727C88.647 42.8727 86.9329 41.277 86.9329 39.0064C86.9329 36.7058 88.647 35.1383 90.6345 35.1383C92.6201 35.1383 94.3284 36.7058 94.3284 39.0064C94.3284 41.277 92.6201 42.8727 90.6345 42.8727ZM73.5631 34.5814V37.2927H80.2133C80.0188 38.8077 79.4988 39.9214 78.7015 40.6977C77.7308 41.6352 76.219 42.6758 73.5631 42.6758C69.4705 42.6758 66.2658 39.4602 66.2658 35.4758C66.2658 31.4914 69.4705 28.2758 73.5631 28.2758C75.776 28.2758 77.3861 29.1177 78.5744 30.2089L80.5369 28.2983C78.8748 26.7533 76.6638 25.5664 73.5631 25.5664C67.951 25.5664 63.2344 30.012 63.2344 35.4758C63.2344 40.9395 67.951 45.3852 73.5631 45.3852C76.5964 45.3852 78.8748 44.4177 80.6659 42.6027C82.5013 40.8158 83.0733 38.3033 83.0733 36.2745C83.0733 35.6445 83.0194 35.0652 82.9231 34.5814H73.5631ZM143.37 36.6833C142.829 35.2564 141.159 32.6258 137.758 32.6258C134.388 32.6258 131.582 35.2114 131.582 39.0064C131.582 42.5802 134.359 45.3852 138.082 45.3852C141.092 45.3852 142.829 43.5983 143.544 42.5577L141.309 41.1083C140.564 42.1695 139.549 42.8727 138.082 42.8727C136.624 42.8727 135.578 42.222 134.908 40.9395L143.673 37.4089L143.37 36.6833ZM134.434 38.8077C134.359 36.3477 136.396 35.0877 137.856 35.0877C139 35.0877 139.971 35.6445 140.295 36.4414L134.434 38.8077ZM127.31 44.997H130.191V26.247H127.31V44.997ZM122.591 34.047H122.495C121.848 33.3008 120.613 32.6258 119.05 32.6258C115.768 32.6258 112.767 35.4308 112.767 39.027C112.767 42.6027 115.768 45.3852 119.05 45.3852C120.613 45.3852 121.848 44.7045 122.495 43.9358H122.591V44.8508C122.591 47.2902 121.253 48.6008 119.094 48.6008C117.334 48.6008 116.242 47.3633 115.791 46.3227L113.285 47.3408C114.008 49.032 115.92 51.1133 119.094 51.1133C122.472 51.1133 125.322 49.1783 125.322 44.4702V33.0139H122.591V34.047ZM119.296 42.8727C117.311 42.8727 115.648 41.2545 115.648 39.027C115.648 36.7789 117.311 35.1383 119.296 35.1383C121.253 35.1383 122.796 36.7789 122.796 39.027C122.796 41.2545 121.253 42.8727 119.296 42.8727ZM156.859 26.247H149.968V44.997H152.842V37.8927H156.859C160.051 37.8927 163.18 35.6445 163.18 32.0689C163.18 28.4952 160.043 26.247 156.859 26.247ZM156.934 35.2845H152.842V28.8552H156.934C159.08 28.8552 160.305 30.5895 160.305 32.0689C160.305 33.5202 159.08 35.2845 156.934 35.2845ZM174.697 32.5902C172.621 32.5902 170.462 33.4827 169.574 35.4608L172.124 36.5014C172.673 35.4608 173.682 35.1233 174.749 35.1233C176.24 35.1233 177.752 35.9952 177.775 37.5345V37.7314C177.255 37.4389 176.142 37.0058 174.772 37.0058C172.026 37.0058 169.228 38.4777 169.228 41.2245C169.228 43.737 171.477 45.3552 174.006 45.3552C175.94 45.3552 177.006 44.5058 177.677 43.5177H177.775V44.967H180.55V37.7745C180.55 34.4502 178 32.5902 174.697 32.5902ZM174.351 42.8652C173.411 42.8652 172.101 42.4114 172.101 41.277C172.101 39.8258 173.734 39.2689 175.148 39.2689C176.413 39.2689 177.006 39.5408 177.775 39.8989C177.55 41.6352 176.015 42.8652 174.351 42.8652ZM190.661 33.0008L187.358 41.1289H187.26L183.845 33.0008H180.747L185.877 44.3595L182.95 50.6802H185.952L193.858 33.0008H190.661ZM164.76 44.997H167.641V26.247H164.76V44.997Z" fill="white" style="fill:white;fill-opacity:1;"/>
<path d="M16.0856 11.3141C15.633 11.7754 15.3711 12.4935 15.3711 13.4235V46.596C15.3711 47.526 15.633 48.2441 16.0856 48.7054L16.1973 48.8066L35.2909 30.2254V29.7866L16.1973 11.2054L16.0856 11.3141Z" fill="url(#paint0_linear_15955_56629)" style=""/>
<path d="M41.6387 36.4121L35.2812 30.2152V29.7765L41.6464 23.5796L41.789 23.6602L49.327 27.8359C51.4783 29.0209 51.4783 30.9709 49.327 32.1634L41.789 36.3315L41.6387 36.4121Z" fill="url(#paint1_linear_15955_56629)" style=""/>
<path d="M41.7951 36.3347L35.2874 29.9991L16.082 48.6985C16.7965 49.4297 17.9617 49.5179 19.2868 48.7866L41.7951 36.3347Z" fill="url(#paint2_linear_15955_56629)" style=""/>
<path d="M41.7951 23.6644L19.2868 11.2125C17.9617 10.4888 16.7965 10.5769 16.082 11.3081L35.2874 30L41.7951 23.6644Z" fill="url(#paint3_linear_15955_56629)" style=""/>
<defs>
<linearGradient id="paint0_linear_15955_56629" x1="33.5957" y1="46.9415" x2="8.43109" y2="21.0934" gradientUnits="userSpaceOnUse">
<stop stop-color="#00A0FF" style="stop-color:#00A0FF;stop-color:color(display-p3 0.0000 0.6275 1.0000);stop-opacity:1;"/>
<stop offset="0.0066" stop-color="#00A1FF" style="stop-color:#00A1FF;stop-color:color(display-p3 0.0000 0.6314 1.0000);stop-opacity:1;"/>
<stop offset="0.2601" stop-color="#00BEFF" style="stop-color:#00BEFF;stop-color:color(display-p3 0.0000 0.7451 1.0000);stop-opacity:1;"/>
<stop offset="0.5122" stop-color="#00D2FF" style="stop-color:#00D2FF;stop-color:color(display-p3 0.0000 0.8235 1.0000);stop-opacity:1;"/>
<stop offset="0.7604" stop-color="#00DFFF" style="stop-color:#00DFFF;stop-color:color(display-p3 0.0000 0.8745 1.0000);stop-opacity:1;"/>
<stop offset="1" stop-color="#00E3FF" style="stop-color:#00E3FF;stop-color:color(display-p3 0.0000 0.8902 1.0000);stop-opacity:1;"/>
</linearGradient>
<linearGradient id="paint1_linear_15955_56629" x1="52.1283" y1="29.9938" x2="14.8472" y2="29.9938" gradientUnits="userSpaceOnUse">
<stop stop-color="#FFE000" style="stop-color:#FFE000;stop-color:color(display-p3 1.0000 0.8784 0.0000);stop-opacity:1;"/>
<stop offset="0.4087" stop-color="#FFBD00" style="stop-color:#FFBD00;stop-color:color(display-p3 1.0000 0.7412 0.0000);stop-opacity:1;"/>
<stop offset="0.7754" stop-color="#FFA500" style="stop-color:#FFA500;stop-color:color(display-p3 1.0000 0.6471 0.0000);stop-opacity:1;"/>
<stop offset="1" stop-color="#FF9C00" style="stop-color:#FF9C00;stop-color:color(display-p3 1.0000 0.6118 0.0000);stop-opacity:1;"/>
</linearGradient>
<linearGradient id="paint2_linear_15955_56629" x1="38.2564" y1="26.555" x2="4.13117" y2="-8.49709" gradientUnits="userSpaceOnUse">
<stop stop-color="#FF3A44" style="stop-color:#FF3A44;stop-color:color(display-p3 1.0000 0.2275 0.2667);stop-opacity:1;"/>
<stop offset="1" stop-color="#C31162" style="stop-color:#C31162;stop-color:color(display-p3 0.7647 0.0667 0.3843);stop-opacity:1;"/>
</linearGradient>
<linearGradient id="paint3_linear_15955_56629" x1="11.2477" y1="59.7357" x2="26.4861" y2="44.0835" gradientUnits="userSpaceOnUse">
<stop stop-color="#32A071" style="stop-color:#32A071;stop-color:color(display-p3 0.1961 0.6275 0.4431);stop-opacity:1;"/>
<stop offset="0.0685" stop-color="#2DA771" style="stop-color:#2DA771;stop-color:color(display-p3 0.1765 0.6549 0.4431);stop-opacity:1;"/>
<stop offset="0.4762" stop-color="#15CF74" style="stop-color:#15CF74;stop-color:color(display-p3 0.0824 0.8118 0.4549);stop-opacity:1;"/>
<stop offset="0.8009" stop-color="#06E775" style="stop-color:#06E775;stop-color:color(display-p3 0.0235 0.9059 0.4588);stop-opacity:1;"/>
<stop offset="1" stop-color="#00F076" style="stop-color:#00F076;stop-color:color(display-p3 0.0000 0.9412 0.4627);stop-opacity:1;"/>
</linearGradient>
</defs>
</svg>
