<svg width="26" height="40" viewBox="0 0 26 40" fill="none" xmlns="http://www.w3.org/2000/svg">
<g clip-path="url(#clip0_16821_47970)">
<path d="M22.9796 4.05829C21.632 2.68586 20.0269 2 18.1651 2H8.45866C4.89153 2 2 4.92623 2 8.53544V36.172C2 36.2857 2 36.416 2 36.5534C1.99929 37.3465 2.63221 37.9914 3.4159 37.9957C3.77076 37.9978 4.11283 37.9993 4.33542 37.9993C4.66397 37.9993 5.67095 37.995 6.56203 37.9906C7.41967 37.9863 8.11233 37.2825 8.11233 36.4145V36.3462V35.8762C8.11233 35.8755 8.11233 35.8748 8.11233 35.8733V35.6301C8.11233 35.625 8.11233 35.6214 8.11233 35.6186V35.5883C8.11233 35.5682 8.11233 35.5308 8.11233 35.4516V14.2087C8.11233 13.3911 8.07962 12.7305 8.01348 12.2274C7.94806 11.7244 7.79374 11.4725 7.55195 11.4725C7.39834 11.4725 7.1345 11.6143 6.76115 11.8971L5.42703 13.0076C5.37512 13.0507 5.29973 13.0457 5.2528 12.9975C5.15608 12.8967 5.06577 12.7506 4.98114 12.5578C4.87162 12.2749 4.81686 12.0547 4.81686 11.8971C4.81686 11.6927 4.83535 11.5567 4.87304 11.4876C4.87873 11.4768 4.88656 11.4682 4.89509 11.4602C6.13889 10.2663 7.23122 9.23282 8.17278 8.36128C8.17562 8.3584 8.17847 8.35624 8.1806 8.35336L11.1689 5.06657C11.4675 4.75351 11.9276 4.66355 12.3202 4.84131L18.1161 7.46384C18.4837 7.63008 18.7205 7.99928 18.7205 8.40734V17.8345C18.7205 18.1958 18.5342 18.5304 18.2299 18.7182L16.1469 19.9978C15.8361 20.1886 15.4486 20.1986 15.1292 20.023L11.8338 18.213C11.8338 18.213 11.8324 18.213 11.8316 18.2123C11.7449 18.1648 11.6396 18.2325 11.6396 18.3325V24.3987C11.6396 24.4736 11.6994 24.5347 11.774 24.5347H18.1659C20.0461 24.5347 21.6555 23.8582 22.9938 22.5038C24.3315 21.1501 25.0007 19.5214 25.0007 17.6178V8.97157C25.0007 7.06873 24.3265 5.43073 22.9803 4.05829H22.9796Z" fill="#0668E1" style="fill:#0668E1;fill:color(display-p3 0.0235 0.4078 0.8824);fill-opacity:1;"/>
</g>
<defs>
<clipPath id="clip0_16821_47970">
<rect width="23" height="36" fill="white" style="fill:white;fill-opacity:1;" transform="translate(2 2)"/>
</clipPath>
</defs>
</svg>
