<svg width="34" height="53" viewBox="0 0 34 53" fill="none" xmlns="http://www.w3.org/2000/svg">
<g clip-path="url(#clip0_16938_59397)">
<path d="M17.6131 13.2545L18.1137 13.569C18.3823 13.7383 18.724 13.7394 18.9937 13.5732L21.4256 12.0767C21.4778 12.0443 21.5102 11.9868 21.5102 11.9251V10.6146C21.5102 10.0116 21.1497 9.4671 20.5937 9.23196L16.2879 7.41143C15.2982 6.99235 14.203 7.71868 14.203 8.79303V10.7964C14.203 10.9125 14.1894 11.0253 14.1643 11.133C14.1612 11.1455 14.1602 11.158 14.1602 11.1706C14.1622 11.7224 14.1633 12.2731 14.1633 12.7967V20.8574C14.1633 20.8648 14.1633 20.8731 14.1643 20.8804C14.2124 21.3612 14.4904 21.7917 14.9147 22.0321L19.2675 24.5069C19.7304 24.7702 20.299 24.7681 20.7609 24.5016C20.9929 24.3679 21.18 24.1777 21.3096 23.953C21.4391 23.7283 21.5102 23.4712 21.5102 23.2026V19.9451C21.5102 19.8061 21.3576 19.7204 21.2385 19.7925L18.8766 21.2389C18.676 21.3622 18.4251 21.3674 18.2193 21.2546L17.0425 20.6077C16.776 20.4614 16.6109 20.1813 16.6109 19.8772C16.6109 19.3619 17.1773 19.0484 17.6131 19.3222L18.2078 19.6964C18.4189 19.828 18.6874 19.8301 18.8996 19.6995L21.4256 18.1444C21.4778 18.112 21.5102 18.0545 21.5102 17.9929V13.8773C21.5102 13.7383 21.3576 13.6527 21.2385 13.7248L18.8766 15.1712C18.676 15.2945 18.4251 15.2997 18.2193 15.1868L17.0425 14.5399C16.776 14.3936 16.6109 14.1135 16.6109 13.8094C16.6109 13.2942 17.1773 12.9807 17.6131 13.2545Z" fill="#0668E1" style="fill:#0668E1;fill:color(display-p3 0.0235 0.4078 0.8824);fill-opacity:1;"/>
<path d="M30.8309 2.98893C28.8505 0.995962 26.4918 0 23.7557 0H9.49142C4.2493 0 8.79823e-07 4.2493 8.79823e-07 9.49038V49.6225C8.79823e-07 49.7876 8.79823e-07 49.9768 8.79823e-07 50.1764C-0.0010442 51.3281 0.929078 52.2645 2.08076 52.2708C2.60225 52.2739 3.10494 52.276 3.43205 52.276C3.91487 52.276 5.39471 52.2697 6.70419 52.2634C7.96456 52.2572 8.98247 51.2351 8.98247 49.9747V49.8754V49.193C8.98247 49.1919 8.98247 49.1909 8.98247 49.1888V48.8356C8.98247 48.8283 8.98247 48.823 8.98247 48.8189V48.775C8.98247 48.7457 8.98247 48.6914 8.98247 48.5764V17.7288C8.98247 16.5415 8.9344 15.5822 8.8372 14.8516C8.74106 14.1211 8.51427 13.7554 8.15895 13.7554C7.93321 13.7554 7.54548 13.9612 6.99682 14.372L5.03624 15.9845C4.95995 16.0472 4.84918 16.0399 4.7802 15.9699C4.63807 15.8236 4.50534 15.6114 4.38098 15.3313C4.22004 14.9206 4.13957 14.6008 4.13957 14.372C4.13957 14.0751 4.16674 13.8776 4.22213 13.7773C4.23049 13.7616 4.24198 13.7491 4.25452 13.7376C6.08237 12.0038 7.68761 10.5031 9.0713 9.23747C9.07548 9.23329 9.07966 9.23015 9.0828 9.22597L13.4742 4.45309C13.9132 3.99848 14.5893 3.86784 15.1662 4.12598L23.6836 7.93425C24.2239 8.17567 24.5719 8.71179 24.5719 9.30435V22.9939C24.5719 23.5185 24.2981 24.0045 23.8508 24.2772L20.7898 26.1354C20.3331 26.4123 19.7635 26.427 19.2943 26.172L14.4514 23.5436C14.4514 23.5436 14.4493 23.5436 14.4482 23.5425C14.3207 23.4736 14.1661 23.5718 14.1661 23.7171V32.526C14.1661 32.6347 14.2539 32.7236 14.3636 32.7236H23.7568C26.52 32.7236 28.885 31.7412 30.8518 29.7743C32.8176 27.8086 33.801 25.4435 33.801 22.6793V10.1237C33.801 7.3605 32.8103 4.9819 30.832 2.98893H30.8309Z" fill="#0668E1" style="fill:#0668E1;fill:color(display-p3 0.0235 0.4078 0.8824);fill-opacity:1;"/>
</g>
<defs>
<clipPath id="clip0_16938_59397">
<rect width="33.8" height="52.277" fill="white" style="fill:white;fill-opacity:1;"/>
</clipPath>
</defs>
</svg>
