<svg width="19" height="30" viewBox="0 0 19 30" fill="none" xmlns="http://www.w3.org/2000/svg">
<g clip-path="url(#clip0_20879_66649)">
<path d="M9.89999 7.60582L10.1814 7.78634C10.3324 7.8835 10.5245 7.8841 10.676 7.78874L12.0431 6.92992C12.0725 6.91133 12.0907 6.87834 12.0907 6.84296V6.09089C12.0907 5.74484 11.888 5.43238 11.5755 5.29744L9.15508 4.2527C8.59874 4.0122 7.98307 4.42902 7.98307 5.04555V6.19524C7.98307 6.26181 7.97543 6.32658 7.96133 6.38836C7.95957 6.39555 7.95898 6.40275 7.95898 6.40995C7.96016 6.72661 7.96075 7.04267 7.96075 7.34314V11.9689C7.96075 11.9731 7.96075 11.9779 7.96133 11.9821C7.98836 12.258 8.14463 12.5051 8.38314 12.643L10.83 14.0632C11.0902 14.2143 11.4098 14.2131 11.6695 14.0602C11.7999 13.9834 11.905 13.8743 11.9779 13.7453C12.0507 13.6164 12.0907 13.4688 12.0907 13.3147V11.4453C12.0907 11.3656 12.0049 11.3164 11.9379 11.3578L10.6102 12.1878C10.4974 12.2586 10.3565 12.2616 10.2407 12.1968L9.57923 11.8256C9.42943 11.7416 9.33661 11.5809 9.33661 11.4063C9.33661 11.1107 9.65501 10.9308 9.89999 11.0879L10.2343 11.3026C10.3529 11.3782 10.5039 11.3794 10.6232 11.3044L12.0431 10.412C12.0725 10.3934 12.0907 10.3604 12.0907 10.325V7.96326C12.0907 7.8835 12.0049 7.83432 11.9379 7.8757L10.6102 8.70574C10.4974 8.77651 10.3565 8.7795 10.2407 8.71473L9.57923 8.3435C9.42943 8.25953 9.33661 8.0988 9.33661 7.92428C9.33661 7.62861 9.65501 7.44869 9.89999 7.60582Z" fill="#0668E1" style="fill:#0668E1;fill:color(display-p3 0.0235 0.4078 0.8824);fill-opacity:1;"/>
<path d="M17.331 1.71525C16.2177 0.571549 14.8918 0 13.3538 0H5.33542C2.38866 0 4.94575e-07 2.43853 4.94575e-07 5.4462V28.4767C4.94575e-07 28.5714 4.94575e-07 28.68 4.94575e-07 28.7945C-0.000586977 29.4554 0.522263 29.9928 1.16966 29.9964C1.4628 29.9982 1.74538 29.9994 1.92926 29.9994C2.20067 29.9994 3.03253 29.9958 3.76863 29.9922C4.47712 29.9886 5.04932 29.4021 5.04932 28.6788V28.6218V28.2302C5.04932 28.2296 5.04932 28.229 5.04932 28.2278V28.0251C5.04932 28.0209 5.04932 28.0179 5.04932 28.0155V27.9903C5.04932 27.9735 5.04932 27.9423 5.04932 27.8763V10.1739C5.04932 9.49262 5.02229 8.94206 4.96766 8.52285C4.91361 8.10363 4.78613 7.89373 4.58639 7.89373C4.4595 7.89373 4.24154 8.01187 3.93312 8.24757L2.83103 9.17296C2.78814 9.20895 2.72587 9.20475 2.68709 9.16457C2.6072 9.0806 2.53259 8.95886 2.46268 8.79813C2.37221 8.56243 2.32697 8.37891 2.32697 8.24757C2.32697 8.07725 2.34225 7.9639 2.37339 7.90632C2.37809 7.89732 2.38455 7.89013 2.3916 7.88353C3.41908 6.88857 4.32144 6.02735 5.09925 5.30107C5.1016 5.29867 5.10395 5.29687 5.10572 5.29447L7.57427 2.55548C7.82101 2.29459 8.2011 2.21962 8.52539 2.36776L13.3133 4.5532C13.617 4.69173 13.8126 4.9994 13.8126 5.33945V13.1954C13.8126 13.4965 13.6587 13.7753 13.4073 13.9319L11.6866 14.9982C11.4298 15.1571 11.1097 15.1655 10.8459 15.0192L8.12356 13.5109C8.12356 13.5109 8.12238 13.5109 8.12179 13.5103C8.05012 13.4707 7.96318 13.527 7.96318 13.6104V18.6656C7.96318 18.728 8.01252 18.7789 8.07421 18.7789H13.3544C14.9077 18.7789 16.2371 18.2152 17.3427 17.0865C18.4478 15.9584 19.0006 14.6012 19.0006 13.0149V5.80964C19.0006 4.22394 18.4437 2.85894 17.3316 1.71525H17.331Z" fill="#0668E1" style="fill:#0668E1;fill:color(display-p3 0.0235 0.4078 0.8824);fill-opacity:1;"/>
</g>
<defs>
<clipPath id="clip0_20879_66649">
<rect width="19" height="30" fill="white" style="fill:white;fill-opacity:1;"/>
</clipPath>
</defs>
</svg>
