<svg width="340" height="340" viewBox="0 0 340 340" fill="none" xmlns="http://www.w3.org/2000/svg">
<rect width="340" height="340" fill="white" style="fill:white;fill-opacity:1;"/>
<mask id="mask0_23321_40761" style="mask-type:luminance" maskUnits="userSpaceOnUse" x="88" y="79" width="56" height="26">
<path d="M132.905 81.3673L88.9752 104.681C92.1534 102.994 95.9155 102.28 99.9417 102.831L143.871 79.517C139.845 78.9661 136.083 79.6806 132.905 81.3673Z" fill="white" style="fill:white;fill-opacity:1;"/>
</mask>
<g mask="url(#mask0_23321_40761)">
<path d="M99.9417 102.833L143.871 79.5176C141.387 79.1772 139.003 79.3182 136.796 79.8729L92.8665 103.187C95.0752 102.634 97.4574 102.491 99.9417 102.833Z" fill="#107BFF" style="fill:#107BFF;fill:color(display-p3 0.0644 0.4831 1.0000);fill-opacity:1;"/>
<path d="M92.8811 103.183L136.811 79.8691C135.673 80.1549 134.583 80.5498 133.55 81.0443L89.6201 104.358C90.6532 103.864 91.744 103.469 92.8811 103.183Z" fill="#107BFF" style="fill:#107BFF;fill:color(display-p3 0.0644 0.4831 1.0000);fill-opacity:1;"/>
<path d="M89.6233 104.363L133.553 81.0488C133.341 81.1504 133.129 81.2576 132.922 81.3666L88.9931 104.68C89.2013 104.571 89.4113 104.464 89.6233 104.363Z" fill="#107BFF" style="fill:#107BFF;fill:color(display-p3 0.0644 0.4831 1.0000);fill-opacity:1;"/>
</g>
<mask id="mask1_23321_40761" style="mask-type:luminance" maskUnits="userSpaceOnUse" x="163" y="187" width="46" height="25">
<path d="M208.447 187.604C208.118 187.778 207.78 187.948 207.439 188.111C192.795 195.882 178.154 203.654 163.51 211.425C163.851 211.261 164.188 211.092 164.518 210.917C177.697 203.923 195.268 194.598 208.447 187.604Z" fill="white" style="fill:white;fill-opacity:1;"/>
</mask>
<g mask="url(#mask1_23321_40761)">
<path d="M164.518 210.917L208.447 187.604C208.12 187.777 207.786 187.946 207.447 188.107L163.518 211.421C163.857 211.26 164.19 211.092 164.518 210.917Z" fill="#258FB2" style="fill:#258FB2;fill:color(display-p3 0.1451 0.5608 0.6980);fill-opacity:1;"/>
<path d="M163.5 211.425L207.43 188.111C207.052 188.292 206.668 188.467 206.277 188.634C204.97 189.193 203.641 189.646 202.29 189.99L158.36 213.302C159.711 212.959 161.041 212.506 162.348 211.946C162.739 211.781 163.123 211.606 163.5 211.425Z" fill="#2692B6" style="fill:#2692B6;fill:color(display-p3 0.1490 0.5725 0.7137);fill-opacity:1;"/>
</g>
<mask id="mask2_23321_40761" style="mask-type:luminance" maskUnits="userSpaceOnUse" x="207" y="218" width="54" height="41">
<path d="M207.121 258.618L251.05 235.304C256.813 232.245 260.652 225.988 260.639 218.305L216.709 241.619C216.725 249.301 212.885 255.559 207.121 258.618Z" fill="white" style="fill:white;fill-opacity:1;"/>
</mask>
<g mask="url(#mask2_23321_40761)">
<path d="M207.121 258.618L251.05 235.304C256.813 232.245 260.654 225.988 260.639 218.305L216.709 241.619C216.725 249.301 212.885 255.559 207.121 258.618Z" fill="#1A81FF" style="fill:#1A81FF;fill:color(display-p3 0.1029 0.5043 1.0000);fill-opacity:1;"/>
</g>
<path d="M99.8871 102.82C88.5544 101.267 79.311 109.751 79.3341 121.666L79.5269 222.817C79.55 234.733 88.8319 245.757 100.163 247.312L196.222 260.483C207.539 262.034 216.783 253.551 216.76 241.635L216.567 140.484C216.544 128.569 207.262 117.543 195.947 115.992L99.8871 102.82Z" fill="#0668E1" style="fill:#0668E1;fill:color(display-p3 0.0235 0.4078 0.8824);fill-opacity:1;"/>
<path d="M195.94 115.993L239.869 92.6793L143.81 79.5078L99.8802 102.824L195.94 115.993Z" fill="#107BFF" style="fill:#107BFF;fill:color(display-p3 0.0644 0.4831 1.0000);fill-opacity:1;"/>
<path d="M216.731 241.638L260.66 218.323L260.469 117.174L216.538 140.488L216.731 241.638Z" fill="#1E83FF" style="fill:#1E83FF;fill:color(display-p3 0.1183 0.5128 1.0000);fill-opacity:1;"/>
<mask id="mask3_23321_40761" style="mask-type:luminance" maskUnits="userSpaceOnUse" x="195" y="92" width="66" height="49">
<path d="M216.543 140.496L260.473 117.182C260.45 105.265 251.168 94.2407 239.852 92.6895L195.923 116.003C207.24 117.555 216.52 128.579 216.543 140.496Z" fill="white" style="fill:white;fill-opacity:1;"/>
</mask>
<g mask="url(#mask3_23321_40761)">
<path d="M216.543 140.505L260.473 117.191C260.467 114.271 259.906 111.406 258.894 108.719L214.965 132.033C215.977 134.72 216.537 137.585 216.543 140.505Z" fill="#1A81FF" style="fill:#1A81FF;fill:color(display-p3 0.1029 0.5043 1.0000);fill-opacity:1;"/>
<path d="M214.973 132.032L258.902 108.718C258.463 107.551 257.939 106.417 257.337 105.326L213.408 128.64C214.009 129.731 214.534 130.864 214.973 132.032Z" fill="#1A81FF" style="fill:#1A81FF;fill:color(display-p3 0.1029 0.5043 1.0000);fill-opacity:1;"/>
<path d="M213.414 128.636L257.346 105.322C256.837 104.399 256.272 103.508 255.659 102.654L211.73 125.968C212.341 126.82 212.906 127.713 213.414 128.636Z" fill="#1A81FF" style="fill:#1A81FF;fill:color(display-p3 0.1029 0.5043 1.0000);fill-opacity:1;"/>
<path d="M211.719 125.965L255.648 102.651C255.068 101.844 254.446 101.073 253.783 100.34L209.853 123.654C210.516 124.385 211.141 125.158 211.719 125.965Z" fill="#1A81FF" style="fill:#1A81FF;fill:color(display-p3 0.1029 0.5043 1.0000);fill-opacity:1;"/>
<path d="M209.84 123.665L253.77 100.351C253.103 99.6139 252.397 98.9182 251.655 98.2676L207.726 121.581C208.466 122.234 209.173 122.93 209.84 123.665Z" fill="#1A81FF" style="fill:#1A81FF;fill:color(display-p3 0.1029 0.5043 1.0000);fill-opacity:1;"/>
<path d="M207.715 121.577L251.645 98.2631C250.85 97.5655 250.014 96.9187 249.143 96.332L205.213 119.646C206.087 120.234 206.921 120.879 207.715 121.577Z" fill="#1A81FF" style="fill:#1A81FF;fill:color(display-p3 0.1029 0.5043 1.0000);fill-opacity:1;"/>
<path d="M205.237 119.639L249.166 96.3255C248.1 95.6072 246.982 94.9755 245.822 94.4434L201.893 117.757C203.053 118.289 204.171 118.921 205.237 119.639Z" fill="#1A81FF" style="fill:#1A81FF;fill:color(display-p3 0.1029 0.5043 1.0000);fill-opacity:1;"/>
<path d="M201.879 117.756L245.809 94.4419C243.918 93.5751 241.915 92.9753 239.844 92.6895L195.914 116.003C197.986 116.287 199.988 116.889 201.879 117.756Z" fill="#1A81FF" style="fill:#1A81FF;fill:color(display-p3 0.1029 0.5043 1.0000);fill-opacity:1;"/>
</g>
<path d="M120.299 164.765C122.445 165.136 124.63 165.534 126.855 165.957C129.079 166.342 131.265 166.759 133.413 167.209C135.56 167.659 137.572 168.145 139.449 168.666L139.156 175.188L123.646 172.508C122.67 172.339 121.933 172.468 121.435 172.895C120.976 173.29 120.755 174.001 120.773 175.031L121.145 195.936C121.163 196.926 121.411 197.718 121.888 198.314C122.404 198.916 123.15 199.302 124.126 199.47L139.637 202.15L140.164 208.813C138.294 208.648 136.286 208.42 134.141 208.128C131.997 207.836 129.812 207.498 127.588 207.114C125.365 206.769 123.18 206.411 121.034 206.041C118.458 205.596 116.357 204.483 114.731 202.702C113.143 200.927 112.308 198.81 112.225 196.348L111.783 171.524C111.778 169.036 112.542 167.175 114.076 165.94C115.649 164.712 117.723 164.32 120.299 164.765ZM112.986 180.079L137.159 184.256L137.273 190.67L113.1 186.493L112.986 180.079ZM161.218 171.303C163.13 171.633 164.75 171.973 166.079 172.321C167.446 172.636 168.697 172.99 169.832 173.384C170.968 173.777 172.143 174.237 173.358 174.762L172.775 181.352C171.486 181.05 170.295 180.785 169.202 180.557C168.147 180.335 166.996 180.097 165.746 179.841C164.536 179.593 163.072 179.32 161.355 179.024C159.365 178.68 157.812 178.826 156.695 179.462C155.617 180.065 154.86 181.296 154.427 183.155C153.993 185.014 153.807 187.686 153.869 191.17C153.931 194.614 154.213 197.367 154.717 199.427C155.219 201.448 156.024 202.949 157.131 203.93C158.277 204.917 159.844 205.583 161.834 205.927C164.527 206.392 166.789 206.743 168.622 206.981C170.455 207.219 172.267 207.394 174.058 207.506L174.937 214.289C173.075 214.559 171.17 214.645 169.223 214.545C167.277 214.485 164.861 214.206 161.973 213.707C157.798 212.985 154.45 211.736 151.928 209.958C149.406 208.141 147.552 205.59 146.365 202.306C145.218 199.029 144.597 194.778 144.504 189.552C144.411 184.325 144.883 180.263 145.921 177.363C146.998 174.47 148.773 172.567 151.246 171.652C153.719 170.698 157.043 170.582 161.218 171.303Z" fill="white" style="fill:white;fill-opacity:1;"/>
</svg>
