<svg width="460" height="292" viewBox="0 0 460 292" fill="none" xmlns="http://www.w3.org/2000/svg">
<g clip-path="url(#clip0_23349_43175)">
<rect width="460" height="292" rx="23" fill="#FBFDFF" style="fill:#FBFDFF;fill:color(display-p3 0.9843 0.9922 1.0000);fill-opacity:1;"/>
<path d="M55.8203 136.965H403.474" stroke="#E3ECFF" style="stroke:#E3ECFF;stroke:color(display-p3 0.8913 0.9258 1.0000);stroke-opacity:1;" stroke-width="1.36996" stroke-miterlimit="10"/>
<path d="M398.935 329.741H60.3601C57.8525 329.741 55.8203 327.703 55.8203 325.19V118.672C55.8203 116.158 57.8532 114.121 60.3601 114.121H398.935C401.442 114.121 403.474 116.159 403.474 118.672V325.189C403.474 327.703 401.442 329.741 398.935 329.741Z" stroke="#E3ECFF" style="stroke:#E3ECFF;stroke:color(display-p3 0.8913 0.9258 1.0000);stroke-opacity:1;" stroke-width="1.36996" stroke-miterlimit="10"/>
<path d="M448.638 213.915H366.933C364.629 213.915 362.762 212.043 362.762 209.734V133.986C362.762 131.676 364.629 129.805 366.933 129.805H448.638C450.942 129.805 452.809 131.676 452.809 133.986V209.735C452.809 212.043 450.942 213.915 448.638 213.915Z" fill="white" style="fill:white;fill-opacity:1;"/>
<path d="M448.638 213.915H366.933C364.629 213.915 362.762 212.043 362.762 209.734V133.986C362.762 131.676 364.629 129.805 366.933 129.805H448.638C450.942 129.805 452.809 131.676 452.809 133.986V209.735C452.809 212.043 450.942 213.915 448.638 213.915Z" stroke="#E3ECFF" style="stroke:#E3ECFF;stroke:color(display-p3 0.8913 0.9258 1.0000);stroke-opacity:1;" stroke-width="1.36996" stroke-miterlimit="10"/>
<path d="M386.685 192.035H429.151C431.466 192.035 433.343 190.154 433.343 187.832V152.945C433.343 150.624 431.466 148.742 429.151 148.742H386.685C384.369 148.742 382.492 150.624 382.492 152.945V187.832C382.492 190.154 384.369 192.035 386.685 192.035Z" fill="#E3ECFF" style="fill:#E3ECFF;fill:color(display-p3 0.8913 0.9258 1.0000);fill-opacity:1;"/>
<path d="M419.522 177.589H399.645H396.055V161.812H419.522V165.756V177.589Z" stroke="#0668E1" style="stroke:#0668E1;stroke:color(display-p3 0.0235 0.4078 0.8824);stroke-opacity:1;" stroke-width="1.14634" stroke-miterlimit="10" stroke-linecap="round" stroke-linejoin="round"/>
<path d="M396.055 161.812L407.788 171.082L419.522 161.812" stroke="#0668E1" style="stroke:#0668E1;stroke:color(display-p3 0.0235 0.4078 0.8824);stroke-opacity:1;" stroke-width="1.14634" stroke-miterlimit="10" stroke-linecap="round" stroke-linejoin="round"/>
<path d="M89.0855 271.951H11.1648C8.96835 271.951 7.1875 270.165 7.1875 267.964V199.862C7.1875 197.66 8.96835 195.875 11.1648 195.875H89.0862C91.2827 195.875 93.0635 197.66 93.0635 199.862V267.964C93.0635 270.165 91.2827 271.951 89.0855 271.951Z" fill="white" style="fill:white;fill-opacity:1;"/>
<path d="M89.0855 271.951H11.1648C8.96835 271.951 7.1875 270.165 7.1875 267.964V199.862C7.1875 197.66 8.96835 195.875 11.1648 195.875H89.0862C91.2827 195.875 93.0635 197.66 93.0635 199.862V267.964C93.0635 270.165 91.2827 271.951 89.0855 271.951Z" stroke="#E3ECFF" style="stroke:#E3ECFF;stroke:color(display-p3 0.8913 0.9258 1.0000);stroke-opacity:1;" stroke-width="1.36996" stroke-miterlimit="10"/>
<path d="M70.1294 262.686H29.7157C27.1628 262.686 25.0938 260.612 25.0938 258.053V218.93C25.0938 216.371 27.1635 214.297 29.7157 214.297H70.1287C72.6816 214.297 74.7507 216.372 74.7507 218.93V258.053C74.7514 260.612 72.6816 262.686 70.1294 262.686Z" fill="#E3ECFF" style="fill:#E3ECFF;fill:color(display-p3 0.8913 0.9258 1.0000);fill-opacity:1;"/>
<g clip-path="url(#clip1_23349_43175)">
<path d="M49.5751 233.81C50.0083 233.81 50.4239 233.638 50.7303 233.332C51.0366 233.025 51.2087 232.61 51.2087 232.177C51.2087 231.743 51.0366 231.328 50.7303 231.021C50.4239 230.715 50.0083 230.543 49.5751 230.543C49.1418 230.543 48.7263 230.715 48.4199 231.021C48.1135 231.328 47.9414 231.743 47.9414 232.177C47.9414 232.61 48.1135 233.025 48.4199 233.332C48.7263 233.638 49.1418 233.81 49.5751 233.81Z" fill="#0668E1" style="fill:#0668E1;fill:color(display-p3 0.0235 0.4078 0.8824);fill-opacity:1;"/>
<path d="M49.579 233.809C50.3592 233.809 51.0558 234.308 51.3042 235.049L51.4179 235.389C51.4327 235.432 51.4369 235.479 51.4301 235.524C51.4233 235.569 51.4058 235.612 51.3789 235.65C51.352 235.687 51.3166 235.717 51.2756 235.738C51.2347 235.759 51.1893 235.769 51.1434 235.769H48.0198C47.9741 235.769 47.9291 235.758 47.8884 235.737C47.8478 235.716 47.8126 235.686 47.7859 235.649C47.7591 235.612 47.7415 235.569 47.7345 235.524C47.7274 235.478 47.7312 235.432 47.7454 235.389L47.8591 235.049C47.9801 234.687 48.2118 234.373 48.5214 234.15C48.8311 233.928 49.2029 233.808 49.5842 233.809H49.579ZM45.6582 239.036C45.6582 238.863 45.7271 238.697 45.8496 238.574C45.9721 238.452 46.1384 238.383 46.3117 238.383H52.8463C53.0197 238.383 53.1859 238.452 53.3084 238.574C53.431 238.697 53.4998 238.863 53.4998 239.036C53.4998 239.21 53.431 239.376 53.3084 239.498C53.1859 239.621 53.0197 239.69 52.8463 239.69H46.3117C46.1384 239.69 45.9721 239.621 45.8496 239.498C45.7271 239.376 45.6582 239.21 45.6582 239.036ZM45.6582 241.65C45.6582 241.477 45.7271 241.311 45.8496 241.188C45.9721 241.066 46.1384 240.997 46.3117 240.997H52.8463C53.0197 240.997 53.1859 241.066 53.3084 241.188C53.431 241.311 53.4998 241.477 53.4998 241.65C53.4998 241.824 53.431 241.99 53.3084 242.112C53.1859 242.235 53.0197 242.304 52.8463 242.304H46.3117C46.1384 242.304 45.9721 242.235 45.8496 242.112C45.7271 241.99 45.6582 241.824 45.6582 241.65ZM46.3117 243.611C46.1384 243.611 45.9721 243.679 45.8496 243.802C45.7271 243.925 45.6582 244.091 45.6582 244.264C45.6582 244.437 45.7271 244.604 45.8496 244.726C45.9721 244.849 46.1384 244.918 46.3117 244.918H48.9255C49.0988 244.918 49.2651 244.849 49.3876 244.726C49.5102 244.604 49.579 244.437 49.579 244.264C49.579 244.091 49.5102 243.925 49.3876 243.802C49.2651 243.679 49.0988 243.611 48.9255 243.611H46.3117Z" fill="#0668E1" style="fill:#0668E1;fill:color(display-p3 0.0235 0.4078 0.8824);fill-opacity:1;"/>
<path fill-rule="evenodd" clip-rule="evenodd" d="M42.1637 230.071C41.7363 230.91 41.7363 232.005 41.7363 234.201V242.565C41.7363 244.761 41.7363 245.859 42.1637 246.695C42.5409 247.431 43.1398 248.03 43.8758 248.407C44.7148 248.835 45.81 248.835 48.0057 248.835H51.1423C53.338 248.835 54.4358 248.835 55.2722 248.407C56.0093 248.032 56.6086 247.432 56.9843 246.695C57.4117 245.856 57.4117 244.761 57.4117 242.565V234.201C57.4117 232.005 57.4117 230.908 56.9843 230.071C56.6086 229.334 56.0093 228.735 55.2722 228.359C54.4332 227.932 53.338 227.932 51.1423 227.932H48.0057C45.81 227.932 44.7122 227.932 43.8758 228.359C43.1398 228.736 42.5409 229.335 42.1637 230.071ZM51.1423 229.237H48.0057C46.8856 229.237 46.1237 229.237 45.5356 229.287C44.9631 229.333 44.6691 229.418 44.4652 229.522C43.9734 229.773 43.5735 230.173 43.3229 230.664C43.2184 230.868 43.1334 231.161 43.0877 231.735C43.0393 232.323 43.038 233.081 43.038 234.205V242.569C43.038 243.689 43.0393 244.451 43.0877 245.039C43.1347 245.612 43.2197 245.906 43.3229 246.11C43.5739 246.601 43.9738 247.001 44.4652 247.252C44.6691 247.357 44.9631 247.442 45.5356 247.487C46.1237 247.534 46.8817 247.536 48.0057 247.536H51.1423C52.2624 247.536 53.0243 247.536 53.6124 247.487C54.1849 247.44 54.4789 247.355 54.6828 247.252C55.1742 247.001 55.5742 246.601 55.8251 246.11C55.9296 245.906 56.0146 245.612 56.0603 245.038C56.1087 244.45 56.11 243.692 56.11 242.568V234.204C56.11 233.085 56.1087 232.322 56.0603 231.734C56.0133 231.162 55.9283 230.868 55.8251 230.664C55.5745 230.173 55.1746 229.773 54.6828 229.522C54.4789 229.418 54.1849 229.333 53.6124 229.287C53.0243 229.239 52.2663 229.237 51.1423 229.237Z" fill="#0668E1" style="fill:#0668E1;fill:color(display-p3 0.0235 0.4078 0.8824);fill-opacity:1;"/>
</g>
<path d="M351.098 81.4898H281.421C280.263 81.4898 279.324 80.549 279.324 79.3878V62.3344C279.324 61.1739 280.263 60.2324 281.421 60.2324H351.098C352.256 60.2324 353.195 61.1739 353.195 62.3344V79.3878C353.194 80.549 352.256 81.4898 351.098 81.4898Z" fill="#0668E1" style="fill:#0668E1;fill:color(display-p3 0.0235 0.4078 0.8824);fill-opacity:1;"/>
<path d="M289.387 67.8066H338.94" stroke="white" style="stroke:white;stroke-opacity:1;" stroke-width="0.821709" stroke-miterlimit="10"/>
<path d="M289.387 72.9062H309.57" stroke="white" style="stroke:white;stroke-opacity:1;" stroke-width="0.821709" stroke-miterlimit="10"/>
<path d="M287.369 79.082V87.3665L297.763 79.082H287.369Z" fill="#0668E1" style="fill:#0668E1;fill:color(display-p3 0.0235 0.4078 0.8824);fill-opacity:1;"/>
<path d="M179.907 82.7552H146.178C142.902 82.7552 140.246 80.0928 140.246 76.8086V45.3755C140.246 42.8854 142.259 40.8672 144.743 40.8672H179.907C182.391 40.8672 184.405 42.8854 184.405 45.3755V78.2476C184.405 80.7369 182.391 82.7552 179.907 82.7552Z" fill="#E3ECFF" style="fill:#E3ECFF;fill:color(display-p3 0.8913 0.9258 1.0000);fill-opacity:1;"/>
<path d="M154.518 58.9794H170.201V57.6725C170.201 57.3258 170.063 56.9934 169.818 56.7483C169.573 56.5032 169.241 56.3655 168.894 56.3655H155.825C155.478 56.3655 155.146 56.5032 154.901 56.7483C154.656 56.9934 154.518 57.3258 154.518 57.6725V58.9794ZM154.518 60.2863V66.821C154.518 67.1676 154.656 67.5 154.901 67.7451C155.146 67.9902 155.478 68.1279 155.825 68.1279H168.894C169.241 68.1279 169.573 67.9902 169.818 67.7451C170.063 67.5 170.201 67.1676 170.201 66.821V60.2863H154.518ZM155.825 55.0586H168.894C169.587 55.0586 170.252 55.334 170.742 55.8242C171.233 56.3144 171.508 56.9792 171.508 57.6725V66.821C171.508 67.5142 171.233 68.1791 170.742 68.6693C170.252 69.1595 169.587 69.4349 168.894 69.4349H155.825C155.132 69.4349 154.467 69.1595 153.977 68.6693C153.486 68.1791 153.211 67.5142 153.211 66.821V57.6725C153.211 56.9792 153.486 56.3144 153.977 55.8242C154.467 55.334 155.132 55.0586 155.825 55.0586Z" fill="#0668E1" style="fill:#0668E1;fill:color(display-p3 0.0235 0.4078 0.8824);fill-opacity:1;"/>
<path d="M159.746 53.7503V55.0572H164.974V53.7503H159.746ZM159.746 52.4434H164.974C165.321 52.4434 165.653 52.5811 165.898 52.8262C166.143 53.0712 166.281 53.4037 166.281 53.7503V55.0572C166.281 55.4038 166.143 55.7363 165.898 55.9814C165.653 56.2265 165.321 56.3642 164.974 56.3642H159.746C159.4 56.3642 159.067 56.2265 158.822 55.9814C158.577 55.7363 158.439 55.4038 158.439 55.0572V53.7503C158.439 53.4037 158.577 53.0712 158.822 52.8262C159.067 52.5811 159.4 52.4434 159.746 52.4434Z" fill="#0668E1" style="fill:#0668E1;fill:color(display-p3 0.0235 0.4078 0.8824);fill-opacity:1;"/>
<mask id="mask0_23349_43175" style="mask-type:luminance" maskUnits="userSpaceOnUse" x="87" y="94" width="321" height="236">
<path d="M407.584 94.6211H87.8438V329.178H407.584V94.6211Z" fill="white" style="fill:white;fill-opacity:1;"/>
</mask>
<g mask="url(#mask0_23349_43175)">
<path d="M176.782 251.325L155.056 248.424L155.254 245.895L129.842 249.287C129.842 249.287 115.972 286.546 128.316 364.008H145.99L152.151 285.462H154.41L160.771 364.008H178.445C190.787 286.546 176.782 251.325 176.782 251.325Z" fill="#282828" style="fill:#282828;fill:color(display-p3 0.1569 0.1569 0.1569);fill-opacity:1;"/>
<path d="M175.051 145.357C172.111 141.889 169.756 137.844 167.755 132.166C165.607 126.073 158.573 128.549 158.573 128.549C158.573 128.549 152.712 120.991 143.892 123.623C135.072 126.255 132.008 132.548 131.828 140.027C131.648 147.507 125.779 148.678 121.259 157.331C113.28 172.607 126.714 185.474 151.167 181.905L151.199 181.667C153.607 182.4 156.559 182.72 160.161 182.506C189.538 180.758 186.703 159.098 175.051 145.357Z" fill="#1B1C17" style="fill:#1B1C17;fill:color(display-p3 0.1059 0.1098 0.0902);fill-opacity:1;"/>
<path d="M165.437 156.686C167.851 158.882 173.25 150.555 170.917 148.217C168.585 145.879 166.805 149.547 166.805 149.547L165.764 152.033L164.978 155.399L164.791 156.281L165.437 156.686Z" fill="#F3978E" style="fill:#F3978E;fill:color(display-p3 0.9529 0.5922 0.5569);fill-opacity:1;"/>
<path d="M169.793 151.164C169.793 151.164 167.965 150.34 166.342 152.996" stroke="#282828" style="stroke:#282828;stroke:color(display-p3 0.1569 0.1569 0.1569);stroke-opacity:1;" stroke-width="0.691174" stroke-miterlimit="10" stroke-linecap="round" stroke-linejoin="round"/>
<path d="M136.883 156.433C134.662 158.825 128.581 150.986 130.708 148.459C132.836 145.932 134.918 149.435 134.918 149.435L136.166 151.823L137.233 155.111L137.493 155.974L136.883 156.433Z" fill="#F3978E" style="fill:#F3978E;fill:color(display-p3 0.9529 0.5922 0.5569);fill-opacity:1;"/>
<path d="M132.074 151.302C132.074 151.302 133.826 150.326 135.667 152.835" stroke="#282828" style="stroke:#282828;stroke:color(display-p3 0.1569 0.1569 0.1569);stroke-opacity:1;" stroke-width="0.691174" stroke-miterlimit="10" stroke-linecap="round" stroke-linejoin="round"/>
<path d="M169.672 140.273C169.672 151.295 161.288 156.522 150.947 156.522C140.606 156.522 132.223 151.296 132.223 140.273C132.223 129.25 140.606 121.752 150.947 121.752C161.289 121.752 169.672 129.251 169.672 140.273Z" fill="#1B1C17" style="fill:#1B1C17;fill:color(display-p3 0.1059 0.1098 0.0902);fill-opacity:1;"/>
<path d="M158.574 164.869H143.17V184.864H158.574V164.869Z" fill="#FFB1A5" style="fill:#FFB1A5;fill:color(display-p3 1.0000 0.6941 0.6471);fill-opacity:1;"/>
<path d="M140.924 163.619C140.924 163.619 145.212 172.197 150.487 173.537C151.896 173.895 153.401 173.772 154.76 173.289C156.745 172.583 159.263 169.616 159.691 166.332L159.889 164.457C159.889 164.457 150.503 169.58 140.924 163.619Z" fill="#F3978E" style="fill:#F3978E;fill:color(display-p3 0.9529 0.5922 0.5569);fill-opacity:1;"/>
<path d="M167.124 141.038C167.124 147.805 166.17 153.644 165.218 157.788C164.286 161.846 161.663 164.681 157.956 166.963L157.281 167.379C153.36 169.794 148.292 169.85 144.31 167.523C140.294 165.176 137.482 162.082 136.616 157.727C135.042 149.809 134.87 141.038 134.87 141.038C134.87 141.038 133.373 123.956 150.767 124.288C168.161 124.62 167.124 141.038 167.124 141.038Z" fill="#FFB1A5" style="fill:#FFB1A5;fill:color(display-p3 1.0000 0.6941 0.6471);fill-opacity:1;"/>
<path d="M149.779 151.715V153.119C149.779 153.259 149.806 153.393 149.855 153.515C150.049 153.997 150.605 154.228 151.108 154.095L152.189 153.808" stroke="#282828" style="stroke:#282828;stroke:color(display-p3 0.1569 0.1569 0.1569);stroke-opacity:1;" stroke-width="0.85617" stroke-miterlimit="10" stroke-linecap="round" stroke-linejoin="round"/>
<path d="M153.404 142.457L162.659 144.652C162.659 144.652 162.238 142.268 158.452 141.402C154.666 140.536 153.404 142.457 153.404 142.457Z" fill="#282828" style="fill:#282828;fill:color(display-p3 0.1569 0.1569 0.1569);fill-opacity:1;"/>
<path d="M148.545 142.457L139.172 144.652C139.172 144.652 139.598 142.268 143.433 141.402C147.266 140.536 148.545 142.457 148.545 142.457Z" fill="#282828" style="fill:#282828;fill:color(display-p3 0.1569 0.1569 0.1569);fill-opacity:1;"/>
<path d="M145.187 148.211C145.187 149.013 144.534 149.664 143.729 149.664C142.924 149.664 142.271 149.013 142.271 148.211C142.271 147.408 142.925 146.758 143.729 146.758C144.535 146.758 145.187 147.409 145.187 148.211Z" fill="#282828" style="fill:#282828;fill:color(display-p3 0.1569 0.1569 0.1569);fill-opacity:1;"/>
<path d="M159.009 148.211C159.009 149.013 158.356 149.664 157.552 149.664C156.746 149.664 156.094 149.013 156.094 148.211C156.094 147.408 156.747 146.758 157.552 146.758C158.357 146.758 159.009 147.409 159.009 148.211Z" fill="#282828" style="fill:#282828;fill:color(display-p3 0.1569 0.1569 0.1569);fill-opacity:1;"/>
<path d="M144.227 156.523H157.022C157.022 156.523 156.119 160.048 150.317 160.048C145.898 160.048 144.227 156.523 144.227 156.523Z" fill="white" style="fill:white;fill-opacity:1;"/>
<path d="M135.096 146.702C135.096 146.702 142.05 137.278 140.446 127.73C140.446 127.73 135.284 130.334 133.94 137.056C132.596 143.775 135.096 146.702 135.096 146.702Z" fill="#1B1C17" style="fill:#1B1C17;fill:color(display-p3 0.1059 0.1098 0.0902);fill-opacity:1;"/>
<path d="M167.136 146.387C167.136 146.387 159.058 136.636 160.662 127.088C160.662 127.088 166.265 130.333 167.609 137.054C168.954 143.774 167.136 146.387 167.136 146.387Z" fill="#1B1C17" style="fill:#1B1C17;fill:color(display-p3 0.1059 0.1098 0.0902);fill-opacity:1;"/>
<path d="M135.682 131.492C135.682 131.492 143.661 142.244 168.093 140.567C168.093 140.567 165.302 125.234 153.462 123.702C153.462 123.702 139.791 122.066 135.682 131.492Z" fill="#1B1C17" style="fill:#1B1C17;fill:color(display-p3 0.1059 0.1098 0.0902);fill-opacity:1;"/>
<path d="M113.409 298.618C113.054 299.178 133.744 208.379 127.601 209.752C127.041 209.877 116.283 210.878 114.683 214.137C110.048 223.584 106.725 297.929 106.725 297.929L113.409 298.618Z" fill="#FFB1A5" style="fill:#FFB1A5;fill:color(display-p3 1.0000 0.6941 0.6471);fill-opacity:1;"/>
<path d="M110.967 235.952C110.967 235.952 122.888 252.78 122.95 252.455C123.013 252.13 127.119 228.828 127.119 228.828L112.654 222.547L110.967 235.952Z" fill="#F3978E" style="fill:#F3978E;fill:color(display-p3 0.9529 0.5922 0.5569);fill-opacity:1;"/>
<path d="M144.089 181.573C144.598 181.57 114.628 182.108 109.15 220.043L126.374 222.688L129.847 251.326H177.895L187.434 198.413C187.434 198.413 180.652 186.949 160.886 181.332L144.089 181.573Z" fill="url(#paint0_linear_23349_43175)"/>
<path d="M129.441 186.159C129.441 186.159 133.677 191.795 151.031 191.795C168.223 191.795 172.62 185.864 172.62 185.864C172.62 185.864 162.485 180.188 150.724 178.352C150.724 178.352 140.223 180.226 129.441 186.159Z" fill="#FFB1A5" style="fill:#FFB1A5;fill:color(display-p3 1.0000 0.6941 0.6471);fill-opacity:1;"/>
<path d="M336.499 126.533C336.499 126.533 339.797 133.441 336.784 140.911L332.26 140.159L332.735 129.287L336.499 126.533Z" fill="#071A22" style="fill:#071A22;fill:color(display-p3 0.0275 0.1020 0.1333);fill-opacity:1;"/>
<path d="M348.605 308.496C348.358 310.983 351.372 322.356 351.372 329.807C347.195 329.807 339.885 330.156 325.614 330.156H321.785C321.319 322.638 319 313.407 317.451 312.022C316.975 312.022 317.27 320.142 317.451 330.156H308.209H302.639C302.639 330.156 294.633 330.854 284.539 330.854C280.015 309.024 281.401 301.722 283.986 282.103C284.081 281.407 284.167 280.74 284.252 280.092C284.756 276.281 285.136 273.47 285.317 272.127C285.403 271.545 285.441 271.231 285.441 271.231C286.144 270.907 286.866 270.612 287.626 270.335C305.789 263.789 344.671 270.716 344.671 270.716C344.671 270.716 344.69 270.888 344.728 271.212C344.775 271.602 344.842 272.222 344.937 273.022C345.136 274.756 345.431 277.329 345.783 280.321C345.783 280.34 345.792 280.369 345.792 280.388C345.802 280.473 345.811 280.559 345.821 280.654C347.037 291.298 348.767 306.876 348.605 308.496Z" fill="#05387D" style="fill:#05387D;fill:color(display-p3 0.0196 0.2196 0.4902);fill-opacity:1;"/>
<path d="M358.671 177.648L349.252 211.521C348.929 212.617 348.539 213.97 348.13 215.542L348.111 215.599C348.102 215.609 348.102 215.628 348.102 215.638C346.534 221.679 344.585 230.883 344.006 241.107C343.616 248.082 344.899 276.105 344.899 276.105C344.899 276.105 330.643 281.44 309.315 280.087C309.315 280.087 286.372 279.554 288.244 265.452C293.196 228.129 288.349 212.75 287.703 208.996C287.703 208.996 284.595 190.873 282.361 175.685C288.815 173.275 316.396 163.984 316.396 163.984L330.681 165.052C330.69 165.061 352.398 170.426 358.671 177.648Z" fill="white" style="fill:white;fill-opacity:1;"/>
<path d="M323.57 115.132C323.57 115.132 336.761 116.609 335.802 138.601C335.545 144.575 335.678 148.691 333.73 152.093C329.766 159.02 321.422 160.459 319.654 160.259C317.943 160.068 310.435 158.134 308.572 153.313C306.12 146.948 304.637 143.174 305.046 132.426C305.055 132.426 306.491 113.027 323.57 115.132Z" fill="#FFA98F" style="fill:#FFA98F;fill:color(display-p3 1.0000 0.6627 0.5608);fill-opacity:1;"/>
<path d="M329.68 153.923C329.68 153.923 329.195 162.928 330.051 164.89C330.897 166.853 318.855 173.056 311.375 165.986C311.375 165.986 312.886 155.172 312.42 151.694C311.945 148.225 329.68 153.923 329.68 153.923Z" fill="#FFA98F" style="fill:#FFA98F;fill:color(display-p3 1.0000 0.6627 0.5608);fill-opacity:1;"/>
<path d="M309.957 166.178C309.957 166.178 313.692 172.705 320.782 173.315C325.278 173.705 329.175 167.988 330.999 165.187C330.999 165.187 320.925 160.861 309.957 166.178Z" fill="#FFA98F" style="fill:#FFA98F;fill:color(display-p3 1.0000 0.6627 0.5608);fill-opacity:1;"/>
<path d="M320.774 170.875L324.852 175.592C324.852 175.592 320.138 177.688 316.973 175.639L320.774 170.875Z" fill="#05387D" style="fill:#05387D;fill:color(display-p3 0.0196 0.2196 0.4902);fill-opacity:1;"/>
<path d="M287.473 282.645C287.473 282.645 304.97 289.115 344.526 283.016L344.004 275.832C344.004 275.832 321.07 282.616 288.176 276.804L287.473 282.645Z" fill="#071A22" style="fill:#071A22;fill:color(display-p3 0.0275 0.1020 0.1333);fill-opacity:1;"/>
<path d="M330.993 165.184C330.993 165.184 326.906 195.817 327.467 222.239C328.028 248.662 347.939 296.656 347.939 296.656C347.939 296.656 356.645 288.223 360.427 283.44C360.427 283.44 346.884 244.25 347.131 237.18C347.378 230.11 362.423 176.732 362.423 176.732C362.423 176.732 354.05 171.263 330.993 165.184Z" fill="#0745B4" style="fill:#0745B4;fill:color(display-p3 0.0275 0.2706 0.7059);fill-opacity:1;"/>
<path d="M309.029 166.473C309.029 166.473 309.067 195.82 308.497 222.242C307.936 248.664 304.467 297.859 304.467 297.859C304.467 297.859 284.983 294.762 281.191 289.989C281.191 289.989 289.08 244.253 288.833 237.183C288.586 230.113 276.145 178.107 276.145 178.107C276.145 178.107 283.387 173.333 309.029 166.473Z" fill="#0745B4" style="fill:#0745B4;fill:color(display-p3 0.0275 0.2706 0.7059);fill-opacity:1;"/>
<path d="M322.085 278.049H311.336V286.062H322.085V278.049Z" fill="#0745B4" style="fill:#0745B4;fill:color(display-p3 0.0275 0.2706 0.7059);fill-opacity:1;"/>
<path d="M319.257 174.562C319.257 174.562 314.457 190.989 314.039 223.614C313.621 256.24 314.628 265.596 314.628 265.596L318.373 273.029L323.363 265.272C323.363 265.272 321.766 190.199 322.688 175.134L319.257 174.562Z" fill="#05387D" style="fill:#05387D;fill:color(display-p3 0.0196 0.2196 0.4902);fill-opacity:1;"/>
<path d="M346.848 296.937C346.848 296.937 348.017 296.155 348.34 295.593C348.34 295.593 348.834 294.535 349.243 293.802C349.376 293.573 349.49 293.373 349.585 293.249C349.965 292.735 350.992 291.715 351.524 290.267C352.056 288.818 352.503 282.082 352.503 282.082L348.378 280.872L344.709 279.252C344.709 279.252 336.678 285.426 336.004 286.722C335.937 286.846 335.88 286.979 335.832 287.103C335.386 288.247 335.604 289.266 335.452 289.886C335.395 290.114 335.015 292.43 335.557 292.944C336.308 293.659 337.163 293.888 337.914 293.773C337.914 293.773 339.454 295.117 340.917 295.231C340.917 295.231 342.295 296.508 344.168 296.203C344.168 296.212 345.726 297.365 346.848 296.937Z" fill="#FFA98F" style="fill:#FFA98F;fill:color(display-p3 1.0000 0.6627 0.5608);fill-opacity:1;"/>
<path d="M341.582 278.509C341.582 278.509 347.151 283.435 354.964 286.065C354.964 286.065 381.31 243.502 381.633 240.443C381.937 237.623 368.336 180.376 362.406 176.736L351.628 208.37C352.341 208.161 362.064 232.668 362.111 235.784C362.178 239.966 341.582 278.509 341.582 278.509Z" fill="#0745B4" style="fill:#0745B4;fill:color(display-p3 0.0275 0.2706 0.7059);fill-opacity:1;"/>
<path d="M274.757 301.269C274.757 301.269 268.94 302.355 260.52 301.879C260.52 301.879 262.211 247.405 261.879 244.356C261.574 241.536 270.214 181.745 276.144 178.105L286.723 210.064C286.01 209.854 280.706 242.908 280.659 246.024C280.602 250.216 274.757 301.269 274.757 301.269Z" fill="#0745B4" style="fill:#0745B4;fill:color(display-p3 0.0275 0.2706 0.7059);fill-opacity:1;"/>
<path d="M334.8 284.52L351.442 293.162L344.903 305.301L330.742 290.122L334.8 284.52Z" fill="#05387D" style="fill:#05387D;fill:color(display-p3 0.0196 0.2196 0.4902);fill-opacity:1;"/>
<path d="M307.064 244.675L302.92 213.089L306.693 208.553L301.789 208.172L307.444 169.592" stroke="#0A1726" style="stroke:#0A1726;stroke:color(display-p3 0.0392 0.0902 0.1490);stroke-opacity:1;" stroke-width="0.348093" stroke-miterlimit="10"/>
<path d="M331.214 242.407L334.236 213.089L330.463 211.011L334.046 208.363L331.784 167.314" stroke="#0A1726" style="stroke:#0A1726;stroke:color(display-p3 0.0392 0.0902 0.1490);stroke-opacity:1;" stroke-width="0.348093" stroke-miterlimit="10"/>
<path d="M311.656 163.994C311.656 163.994 315.286 168.549 320.78 170.874L314.497 178.916L306.447 167.062L311.656 163.994Z" fill="#6AA8E5" style="fill:#6AA8E5;fill:color(display-p3 0.4157 0.6588 0.8980);fill-opacity:1;"/>
<path d="M329.708 163.117C329.708 163.117 326.856 166.862 320.783 170.864L326.733 177.715L334.944 166.052L329.708 163.117Z" fill="#6AA8E5" style="fill:#6AA8E5;fill:color(display-p3 0.4157 0.6588 0.8980);fill-opacity:1;"/>
<path d="M308.709 127.217C309.137 127.065 309.536 126.855 309.964 126.741C311.228 126.398 312.558 126.055 313.822 126.341C314.896 126.579 315.885 127.255 316.987 127.15C318.327 127.027 319.344 125.769 319.81 124.482C320.2 123.406 320.608 122.005 321.72 121.891C323.231 121.738 323.678 124.168 325.123 124.616C325.608 124.768 326.13 124.664 326.634 124.625C327.755 124.54 328.944 124.702 329.913 125.292C330.702 125.769 331.225 126.598 331.443 127.503C331.757 128.808 332.365 129.428 333.601 130.152C335.72 131.391 337.849 130.333 339.341 128.494C339.427 128.389 339.512 128.275 339.588 128.16C340.976 126.15 340.805 123.149 339.065 121.51C338.277 120.766 338.049 120.652 337.269 119.899C335.625 118.308 335.425 115.678 334.076 113.82C331.567 110.361 326.767 111.924 323.193 111.286C321.473 110.981 319.791 110.543 318.061 110.257C315.381 109.818 312.558 109.818 309.983 110.781C305.62 112.401 304.147 115.545 302.883 120.061C301.609 124.578 295.394 128.351 304.803 141.348L307.359 141.071C307.369 141.071 304.803 128.637 308.709 127.217Z" fill="#071A22" style="fill:#071A22;fill:color(display-p3 0.0275 0.1020 0.1333);fill-opacity:1;"/>
<path d="M304.893 136.791C304.893 136.791 300.502 136.363 301.262 141.708C302.013 147.053 307.25 145.634 307.25 145.634L304.893 136.791Z" fill="#FFA98F" style="fill:#FFA98F;fill:color(display-p3 1.0000 0.6627 0.5608);fill-opacity:1;"/>
<path d="M336.127 134.522C336.127 134.522 340.518 134.093 339.757 139.438C339.006 144.784 333.77 143.364 333.77 143.364L336.127 134.522Z" fill="#FFA98F" style="fill:#FFA98F;fill:color(display-p3 1.0000 0.6627 0.5608);fill-opacity:1;"/>
<path d="M334.756 129.992C334.756 129.992 335.744 136.091 334.613 139.216L336.172 139.502C336.172 139.502 336.989 135.252 337.065 133.785C337.122 132.66 336.59 129.297 336.59 129.297L334.756 129.992Z" fill="#071A22" style="fill:#071A22;fill:color(display-p3 0.0275 0.1020 0.1333);fill-opacity:1;"/>
<path d="M311.057 130.277C313.433 129.658 315.932 129.582 318.299 130.039L318.413 129.458C315.97 128.982 313.376 129.068 310.914 129.696L311.057 130.277Z" fill="black" style="fill:black;fill-opacity:1;"/>
<path d="M324.857 130.883C327.29 130.568 329.78 130.787 332.071 131.54L332.252 130.978C329.885 130.206 327.3 129.968 324.781 130.301L324.857 130.883Z" fill="black" style="fill:black;fill-opacity:1;"/>
<path d="M316.924 148.589L326.219 148.561C326.219 148.561 326.171 152.601 321.362 152.429C320.022 152.381 317.256 151.276 316.924 148.589Z" fill="#E5F4F6" style="fill:#E5F4F6;fill:color(display-p3 0.8980 0.9569 0.9647);fill-opacity:1;"/>
<path d="M321.182 145.044C321.163 145.044 321.144 145.044 321.125 145.044C320.745 145.054 320.346 145.035 320.032 144.778C319.519 144.368 319.548 143.606 319.614 143.072C319.652 142.767 319.7 142.31 319.766 141.786C319.985 139.842 320.327 136.907 320.593 135.85L321.021 135.964C320.755 136.993 320.422 139.909 320.203 141.843C320.146 142.377 320.089 142.834 320.051 143.139C319.994 143.568 319.966 144.168 320.308 144.444C320.498 144.597 320.764 144.625 321.106 144.606C322.152 144.568 323.188 144.387 324.186 144.054L324.328 144.473C323.311 144.816 322.256 145.006 321.182 145.044Z" fill="black" style="fill:black;fill-opacity:1;"/>
<path d="M315.736 137.689C315.783 138.498 315.327 139.194 314.719 139.251C314.111 139.308 313.588 138.699 313.541 137.889C313.493 137.079 313.949 136.383 314.557 136.326C315.166 136.269 315.688 136.879 315.736 137.689Z" fill="black" style="fill:black;fill-opacity:1;"/>
<path d="M329.006 137.687C329.053 138.496 328.597 139.192 327.989 139.249C327.38 139.306 326.858 138.697 326.81 137.887C326.763 137.077 327.219 136.381 327.827 136.324C328.435 136.267 328.968 136.877 329.006 137.687Z" fill="black" style="fill:black;fill-opacity:1;"/>
<path d="M314.737 143.712C317.068 143.712 318.957 141.426 318.957 138.605C318.957 135.785 317.068 133.498 314.737 133.498C312.407 133.498 310.518 135.785 310.518 138.605C310.518 141.426 312.407 143.712 314.737 143.712Z" stroke="#183862" style="stroke:#183862;stroke:color(display-p3 0.0941 0.2196 0.3843);stroke-opacity:1;" stroke-width="0.348093" stroke-miterlimit="10"/>
<path d="M328.017 143.585C330.347 143.585 332.237 141.299 332.237 138.478C332.237 135.658 330.347 133.371 328.017 133.371C325.686 133.371 323.797 135.658 323.797 138.478C323.797 141.299 325.686 143.585 328.017 143.585Z" stroke="#183862" style="stroke:#183862;stroke:color(display-p3 0.0941 0.2196 0.3843);stroke-opacity:1;" stroke-width="0.348093" stroke-miterlimit="10"/>
<path d="M319.018 137.533C319.208 137.533 323.675 137.467 323.675 137.467" stroke="#183862" style="stroke:#183862;stroke:color(display-p3 0.0941 0.2196 0.3843);stroke-opacity:1;" stroke-width="0.348093" stroke-miterlimit="10"/>
<path d="M310.386 137.859L306.242 136.592" stroke="#183862" style="stroke:#183862;stroke:color(display-p3 0.0941 0.2196 0.3843);stroke-opacity:1;" stroke-width="0.348093" stroke-miterlimit="10"/>
<path d="M332.111 137.736L335.485 135.963" stroke="#183862" style="stroke:#183862;stroke:color(display-p3 0.0941 0.2196 0.3843);stroke-opacity:1;" stroke-width="0.348093" stroke-miterlimit="10"/>
<path d="M315.375 158.422C315.375 158.422 320.469 162.272 327.132 158.546" stroke="black" style="stroke:black;stroke-opacity:1;" stroke-width="0.348093" stroke-miterlimit="10"/>
<path d="M293.058 230.25C295.373 255.886 292.932 274.565 293.606 321.736L271.323 322.672L268.002 234.375L293.058 230.25Z" fill="#FFB1A5" style="fill:#FFB1A5;fill:color(display-p3 1.0000 0.6941 0.6471);fill-opacity:1;"/>
<path d="M270.75 250.255C270.75 250.255 284.55 248.988 293.984 242.75L293.735 237.26L270.742 240.399L270.75 250.255Z" fill="#F3978E" style="fill:#F3978E;fill:color(display-p3 0.9529 0.5922 0.5569);fill-opacity:1;"/>
<path d="M262.264 184.065C262.264 184.065 292.437 182.276 300.378 238.047C300.378 238.047 278.926 247.37 257.428 243.36L262.264 224.706V184.065Z" fill="#5188FF" style="fill:#5188FF;fill:color(display-p3 0.3183 0.5342 1.0000);fill-opacity:1;"/>
<path d="M164.729 230.25C162.414 255.886 164.855 274.565 164.181 321.736L186.464 322.672L189.785 234.375L164.729 230.25Z" fill="#FFB1A5" style="fill:#FFB1A5;fill:color(display-p3 1.0000 0.6941 0.6471);fill-opacity:1;"/>
<path d="M187.037 250.255C187.037 250.255 173.237 248.988 163.803 242.75L164.052 237.26L187.045 240.399L187.037 250.255Z" fill="#F3978E" style="fill:#F3978E;fill:color(display-p3 0.9529 0.5922 0.5569);fill-opacity:1;"/>
<path d="M195.513 182.643C195.513 182.643 165.346 182.276 157.405 238.047C157.405 238.047 178.857 247.37 200.355 243.36L195.519 224.706L195.513 182.643Z" fill="#5188FF" style="fill:#5188FF;fill:color(display-p3 0.3183 0.5342 1.0000);fill-opacity:1;"/>
<path d="M206.144 180.204C191.188 183.658 184.719 185.814 184.719 185.814L187.117 311.993H270.887V185.814C270.887 185.814 263.062 183.658 248.612 181.294C238.892 177.004 215.594 175.345 206.144 180.204Z" fill="#5188FF" style="fill:#5188FF;fill:color(display-p3 0.3183 0.5342 1.0000);fill-opacity:1;"/>
<path d="M245.784 236.667C239.349 236.667 234.133 231.438 234.133 224.987V213.307H257.436V224.987C257.436 231.438 252.22 236.667 245.784 236.667Z" stroke="#5A36A8" style="stroke:#5A36A8;stroke:color(display-p3 0.3529 0.2118 0.6588);stroke-opacity:1;" stroke-width="0.972434" stroke-miterlimit="10" stroke-linecap="round" stroke-linejoin="round"/>
<path d="M270.754 253.852L271.841 215.941" stroke="#5A36A8" style="stroke:#5A36A8;stroke:color(display-p3 0.3529 0.2118 0.6588);stroke-opacity:1;" stroke-width="0.972434" stroke-miterlimit="10" stroke-linecap="round" stroke-linejoin="round"/>
<path d="M185.783 247.534L183.973 214.672" stroke="#5A36A8" style="stroke:#5A36A8;stroke:color(display-p3 0.3529 0.2118 0.6588);stroke-opacity:1;" stroke-width="0.972434" stroke-miterlimit="10" stroke-linecap="round" stroke-linejoin="round"/>
<path d="M207.123 137.873L203.631 120.555C203.435 119.145 202.889 116.968 203.557 114.923C204.663 111.539 208.728 105.04 215.676 108.015L217.177 114.872C217.177 114.872 209.962 116.332 207.068 125.794L207.123 137.873Z" fill="#282828" style="fill:#282828;fill:color(display-p3 0.1569 0.1569 0.1569);fill-opacity:1;"/>
<path d="M215.171 111.588C215.044 113.863 213.041 123.82 205.997 127.446C205.997 127.446 199.828 114.183 215.171 111.588Z" fill="#282828" style="fill:#282828;fill:color(display-p3 0.1569 0.1569 0.1569);fill-opacity:1;"/>
<path d="M239.882 177.012V147.605H212.839V177.012L204.789 180.69C204.789 180.69 206.677 192.878 226.644 193.148C246.611 193.418 248.617 181.29 248.617 181.29L239.882 177.012Z" fill="#FFB1A5" style="fill:#FFB1A5;fill:color(display-p3 1.0000 0.6941 0.6471);fill-opacity:1;"/>
<path d="M215.678 108.013C215.678 108.013 220.641 94.8889 235.945 101.866C245.208 106.089 247.803 111.752 248.907 115.763C249.274 117.096 249.42 119.196 249.32 120.442L245.618 137.87L231.166 113.757L217.18 114.869L215.678 108.013Z" fill="#282828" style="fill:#282828;fill:color(display-p3 0.1569 0.1569 0.1569);fill-opacity:1;"/>
<path d="M245.615 137.871C245.615 137.871 247.438 134.964 251.199 136.393C254.959 137.823 253.258 146.977 247.617 148.144C247.617 148.144 245.596 148.586 244.01 147.199C244.01 147.199 245.397 140.437 245.615 137.871Z" fill="#F3978E" style="fill:#F3978E;fill:color(display-p3 0.9529 0.5922 0.5569);fill-opacity:1;"/>
<path d="M250.45 139.622C250.45 139.622 247.3 138.568 245.064 143.218" stroke="#282828" style="stroke:#282828;stroke:color(display-p3 0.1569 0.1569 0.1569);stroke-opacity:1;" stroke-width="0.972434" stroke-miterlimit="10" stroke-linecap="round" stroke-linejoin="round"/>
<path d="M207.125 137.871C207.125 137.871 205.302 134.964 201.542 136.393C197.782 137.823 199.483 146.977 205.123 148.144C205.123 148.144 207.145 148.586 208.731 147.199C208.731 147.199 207.343 140.437 207.125 137.871Z" fill="#F3978E" style="fill:#F3978E;fill:color(display-p3 0.9529 0.5922 0.5569);fill-opacity:1;"/>
<path d="M202.283 139.622C202.283 139.622 205.433 138.568 207.669 143.218" stroke="#282828" style="stroke:#282828;stroke:color(display-p3 0.1569 0.1569 0.1569);stroke-opacity:1;" stroke-width="0.972434" stroke-miterlimit="10" stroke-linecap="round" stroke-linejoin="round"/>
<path d="M245.997 129.188C245.999 134.707 245.458 146.252 242.074 153.106C238.896 159.54 233.64 163.003 226.75 163.209C219.859 163.415 214.726 160.753 210.612 152.402C206.499 144.051 206.695 129.291 206.695 129.291C206.695 129.291 206.695 109.576 226.132 109.576C246.604 109.576 245.997 129.188 245.997 129.188Z" fill="#FFB1A5" style="fill:#FFB1A5;fill:color(display-p3 1.0000 0.6941 0.6471);fill-opacity:1;"/>
<path d="M213.033 156.514C213.033 156.514 215.298 168.032 225.299 169.356C236.808 170.879 239.873 156.807 239.873 156.807C239.873 156.807 234.788 163.195 226.745 163.205C217.774 163.215 213.033 156.514 213.033 156.514Z" fill="#F3978E" style="fill:#F3978E;fill:color(display-p3 0.9529 0.5922 0.5569);fill-opacity:1;"/>
<path d="M224.959 137.363V141.926C224.959 142.122 224.997 142.31 225.066 142.482C225.335 143.157 226.111 143.481 226.813 143.294L228.322 142.892" stroke="#282828" style="stroke:#282828;stroke:color(display-p3 0.1569 0.1569 0.1569);stroke-opacity:1;" stroke-width="0.972434" stroke-miterlimit="10" stroke-linecap="round" stroke-linejoin="round"/>
<path d="M219.213 135.19C219.213 136.17 218.421 136.964 217.444 136.964C216.466 136.964 215.674 136.17 215.674 135.19C215.674 134.21 216.466 133.416 217.444 133.416C218.421 133.416 219.213 134.21 219.213 135.19Z" fill="#282828" style="fill:#282828;fill:color(display-p3 0.1569 0.1569 0.1569);fill-opacity:1;"/>
<path d="M235.809 135.19C235.809 136.17 235.017 136.964 234.039 136.964C233.062 136.964 232.27 136.17 232.27 135.19C232.27 134.21 233.062 133.416 234.039 133.416C235.017 133.416 235.809 134.21 235.809 135.19Z" fill="#282828" style="fill:#282828;fill:color(display-p3 0.1569 0.1569 0.1569);fill-opacity:1;"/>
<path d="M229.51 126.365L241.407 129.446C241.407 129.446 240.866 126.101 235.999 124.885C231.132 123.67 229.51 126.365 229.51 126.365Z" fill="#282828" style="fill:#282828;fill:color(display-p3 0.1569 0.1569 0.1569);fill-opacity:1;"/>
<path d="M222.122 126.365L210.225 129.446C210.225 129.446 210.766 126.101 215.633 124.885C220.5 123.67 222.122 126.365 222.122 126.365Z" fill="#282828" style="fill:#282828;fill:color(display-p3 0.1569 0.1569 0.1569);fill-opacity:1;"/>
<path d="M220.152 148.399C220.152 148.399 224.13 149.761 226.766 149.753C229.406 149.746 233.38 148.357 233.38 148.357C233.38 148.357 233.312 154.18 226.469 153.933C224.562 153.864 220.626 152.271 220.152 148.399Z" fill="#E5F4F6" style="fill:#E5F4F6;fill:color(display-p3 0.8980 0.9569 0.9647);fill-opacity:1;"/>
<path d="M216.972 143.242C221.124 143.242 224.491 139.868 224.491 135.705C224.491 131.542 221.124 128.168 216.972 128.168C212.819 128.168 209.453 131.542 209.453 135.705C209.453 139.868 212.819 143.242 216.972 143.242Z" stroke="white" style="stroke:white;stroke-opacity:1;" stroke-width="1.35854" stroke-miterlimit="10"/>
<path d="M235.443 143.242C239.595 143.242 242.961 139.868 242.961 135.705C242.961 131.542 239.595 128.168 235.443 128.168C231.29 128.168 227.924 131.542 227.924 135.705C227.924 139.868 231.29 143.242 235.443 143.242Z" stroke="white" style="stroke:white;stroke-opacity:1;" stroke-width="1.35854" stroke-miterlimit="10"/>
<path d="M224.492 135.703C224.492 135.703 226.273 134.042 227.926 135.703" stroke="white" style="stroke:white;stroke-opacity:1;" stroke-width="1.35854" stroke-miterlimit="10"/>
<path d="M209.449 135.711L206.928 135.646" stroke="white" style="stroke:white;stroke-opacity:1;" stroke-width="1.35854" stroke-miterlimit="10"/>
<path d="M242.965 135.712L245.779 135.666" stroke="white" style="stroke:white;stroke-opacity:1;" stroke-width="1.35854" stroke-miterlimit="10"/>
<path fill-rule="evenodd" clip-rule="evenodd" d="M206.06 139.772C207.659 141.944 207.719 126.83 207.289 122.619C207.068 120.456 206.689 119.955 207.137 120.397C207.825 121.077 210.016 123.645 214.229 123.152C214.305 123.142 210.774 122.731 207.664 116.877C211.016 120.167 213.492 119.56 216.177 119.905C216.873 119.995 211.057 118.125 210.577 114.652C210.577 114.652 211.171 114.929 212.174 115.362C215.217 118.608 217.586 119.628 221.225 120.591C225.668 121.768 227.644 121.852 227.644 121.852C227.644 121.852 224.953 120.711 222.038 119.005C224.312 119.679 226.632 120.227 228.701 120.448C235.675 121.194 242.104 119.592 244.171 116.811C255.323 101.805 208.962 82.3182 203.831 107.33C203.329 99.6015 202.119 99.9041 200.987 109.329C200.81 110.802 191.236 108.622 200.499 111.861C201.116 112.077 199.965 112.119 199.221 112.324C197.61 112.768 197.053 118.39 197.695 121.935C198.996 129.112 203.939 136.892 206.06 139.772Z" fill="#282828" style="fill:#282828;fill:color(display-p3 0.1569 0.1569 0.1569);fill-opacity:1;"/>
</g>
</g>
<defs>
<linearGradient id="paint0_linear_23349_43175" x1="148.292" y1="181.332" x2="148.292" y2="251.326" gradientUnits="userSpaceOnUse">
<stop stop-color="#4B3FFA" style="stop-color:#4B3FFA;stop-color:color(display-p3 0.2941 0.2471 0.9804);stop-opacity:1;"/>
<stop offset="1" stop-color="#3F2DD1" style="stop-color:#3F2DD1;stop-color:color(display-p3 0.2471 0.1765 0.8196);stop-opacity:1;"/>
</linearGradient>
<clipPath id="clip0_23349_43175">
<rect width="460" height="292" rx="23" fill="white" style="fill:white;fill-opacity:1;"/>
</clipPath>
<clipPath id="clip1_23349_43175">
<rect width="20.911" height="20.911" fill="white" style="fill:white;fill-opacity:1;" transform="translate(39.123 227.926)"/>
</clipPath>
</defs>
</svg>
