<svg width="321" height="575" viewBox="0 0 321 575" fill="none" xmlns="http://www.w3.org/2000/svg">
<path d="M291.593 479.96C307.488 464.294 307.488 438.651 291.593 422.985L-69.4676 67.1027C-94.7485 42.1844 -137.547 60.0934 -137.547 95.5905V807.354C-137.547 842.851 -94.7485 860.76 -69.4677 835.842L291.593 479.96Z" fill="url(#paint0_linear_11962_42011)" style=""/>
<path d="M231.419 540.577C247.321 524.909 247.321 499.257 231.419 483.589L74.362 328.853C49.0786 303.943 6.28906 321.854 6.28906 357.347L6.28906 666.818C6.28906 702.311 49.0787 720.222 74.362 695.312L231.419 540.577Z" fill="url(#paint1_linear_11962_42011)" style=""/>
<defs>
<linearGradient id="paint0_linear_11962_42011" x1="13.8825" y1="456.165" x2="320.496" y2="451.472" gradientUnits="userSpaceOnUse">
<stop stop-color="#4D4D61" style="stop-color:#4D4D61;stop-color:color(display-p3 0.3020 0.3020 0.3804);stop-opacity:1;"/>
<stop offset="1" stop-color="#262630" style="stop-color:#262630;stop-color:color(display-p3 0.1490 0.1490 0.1882);stop-opacity:1;"/>
</linearGradient>
<linearGradient id="paint1_linear_11962_42011" x1="6.28906" y1="512.083" x2="260.34" y2="512.083" gradientUnits="userSpaceOnUse">
<stop stop-color="#4D4D61" style="stop-color:#4D4D61;stop-color:color(display-p3 0.3020 0.3020 0.3804);stop-opacity:1;"/>
<stop offset="1" stop-color="#474754" style="stop-color:#474754;stop-color:color(display-p3 0.2770 0.2770 0.3308);stop-opacity:1;"/>
</linearGradient>
</defs>
</svg>
